<svg xmlns="http://www.w3.org/2000/svg" xmlns:xlink="http://www.w3.org/1999/xlink" width="1900" zoomAndPan="magnify" viewBox="0 0 1425 337.499995" height="450" preserveAspectRatio="xMidYMid meet" version="1.0"><defs><g/><clipPath id="387bd9d5c2"><path d="M 0.664062 0 L 393 0 L 393 337 L 0.664062 337 Z M 0.664062 0 " clip-rule="nonzero"/></clipPath><clipPath id="60cb6dd0cf"><rect x="0" width="393" y="0" height="337"/></clipPath><clipPath id="97160407e7"><path d="M 7 0.488281 L 104 0.488281 L 104 114 L 7 114 Z M 7 0.488281 " clip-rule="nonzero"/></clipPath><clipPath id="5894a8165d"><rect x="0" width="112" y="0" height="137"/></clipPath><clipPath id="00617f9559"><rect x="0" width="112" y="0" height="136"/></clipPath><clipPath id="d414d4b895"><path d="M 367 99 L 1389.40625 99 L 1389.40625 229 L 367 229 Z M 367 99 " clip-rule="nonzero"/></clipPath><clipPath id="85329063b7"><rect x="0" width="1023" y="0" height="130"/></clipPath><clipPath id="fddf0b8ef5"><path d="M 762 15 L 781 15 L 781 43.90625 L 762 43.90625 Z M 762 15 " clip-rule="nonzero"/></clipPath><clipPath id="600e2a7851"><rect x="0" width="1007" y="0" height="44"/></clipPath><clipPath id="2a03a9f64f"><rect x="0" width="55" y="0" height="45"/></clipPath><clipPath id="91f5554c7f"><rect x="0" width="1390" y="0" height="337"/></clipPath></defs><g transform="matrix(1, 0, 0, 1, 21, 0)"><g clip-path="url(#91f5554c7f)"><g clip-path="url(#387bd9d5c2)"><g><g clip-path="url(#60cb6dd0cf)"><g fill="#0e2349" fill-opacity="1"><g transform="translate(327.220645, 338.372666)"><g><path d="M -318.859375 -178.1875 C -318.859375 -167.53125 -316.898438 -157.523438 -312.984375 -148.171875 C -308.847656 -138.816406 -303.296875 -130.65625 -296.328125 -123.6875 C -289.367188 -116.726562 -281.210938 -111.289062 -271.859375 -107.375 C -262.503906 -103.238281 -252.492188 -101.171875 -241.828125 -101.171875 C -231.171875 -101.171875 -221.164062 -103.238281 -211.8125 -107.375 C -202.457031 -111.289062 -194.296875 -116.726562 -187.328125 -123.6875 C -180.367188 -130.65625 -174.929688 -138.816406 -171.015625 -148.171875 C -166.878906 -157.523438 -164.8125 -167.53125 -164.8125 -178.1875 L -164.8125 -240.859375 C -164.8125 -252.171875 -162.632812 -262.9375 -158.28125 -273.15625 C -153.925781 -283.164062 -148.050781 -291.867188 -140.65625 -299.265625 C -133.257812 -306.671875 -124.554688 -312.546875 -114.546875 -316.890625 C -104.546875 -321.242188 -93.882812 -323.421875 -82.5625 -323.421875 C -71.03125 -323.421875 -60.265625 -321.242188 -50.265625 -316.890625 C -40.253906 -312.546875 -31.550781 -306.671875 -24.15625 -299.265625 C -16.75 -291.867188 -10.875 -283.164062 -6.53125 -273.15625 C -2.175781 -262.9375 0 -252.171875 0 -240.859375 L 0 -16.3125 L -93.34375 -16.3125 C -76.800781 -20.226562 -62.113281 -27.300781 -49.28125 -37.53125 C -43.84375 -41.882812 -38.507812 -47.109375 -33.28125 -53.203125 C -28.0625 -59.078125 -23.382812 -66.144531 -19.25 -74.40625 C -15.113281 -82.457031 -11.851562 -91.816406 -9.46875 -102.484375 C -6.851562 -112.921875 -5.546875 -124.773438 -5.546875 -138.046875 L -5.546875 -161.546875 C -5.546875 -172.210938 -7.613281 -182.222656 -11.75 -191.578125 C -15.664062 -200.929688 -21.101562 -209.085938 -28.0625 -216.046875 C -35.03125 -223.015625 -43.191406 -228.5625 -52.546875 -232.6875 C -61.898438 -236.601562 -71.90625 -238.5625 -82.5625 -238.5625 C -93.226562 -238.5625 -103.238281 -236.601562 -112.59375 -232.6875 C -121.726562 -228.5625 -129.78125 -223.015625 -136.75 -216.046875 C -143.707031 -209.085938 -149.253906 -200.929688 -153.390625 -191.578125 C -157.304688 -182.222656 -159.265625 -172.210938 -159.265625 -161.546875 L -159.265625 -98.890625 C -159.265625 -87.359375 -161.441406 -76.585938 -165.796875 -66.578125 C -170.140625 -56.566406 -176.007812 -47.863281 -183.40625 -40.46875 C -190.8125 -33.070312 -199.515625 -27.195312 -209.515625 -22.84375 C -219.523438 -18.488281 -230.296875 -16.3125 -241.828125 -16.3125 C -253.140625 -16.3125 -263.800781 -18.488281 -273.8125 -22.84375 C -283.820312 -27.195312 -292.523438 -33.070312 -299.921875 -40.46875 C -307.316406 -47.863281 -313.191406 -56.566406 -317.546875 -66.578125 C -321.898438 -76.585938 -324.078125 -87.359375 -324.078125 -98.890625 L -324.078125 -323.421875 L -230.734375 -323.421875 C -247.054688 -319.503906 -261.742188 -312.429688 -274.796875 -302.203125 C -280.234375 -297.859375 -285.671875 -292.640625 -291.109375 -286.546875 C -296.328125 -280.453125 -301.003906 -273.378906 -305.140625 -265.328125 C -309.273438 -257.054688 -312.648438 -247.703125 -315.265625 -237.265625 C -317.660156 -226.816406 -318.859375 -214.957031 -318.859375 -201.6875 Z M -318.859375 -178.1875 "/></g></g></g></g></g></g><g transform="matrix(1, 0, 0, 1, 30, 75)"><g clip-path="url(#5894a8165d)"><g clip-path="url(#97160407e7)"><g fill="#0e2349" fill-opacity="1"><g transform="translate(2.168684, 113.118477)"><g><path d="M 34.1875 -110.328125 L 34.1875 -71.296875 L 76.03125 -71.296875 C 80.164062 -71.296875 83.773438 -70.28125 86.859375 -68.25 C 89.941406 -66.21875 92.5 -63.546875 94.53125 -60.234375 C 96.5625 -56.859375 98.101562 -53.0625 99.15625 -48.84375 C 100.132812 -44.5625 100.625 -40.203125 100.625 -35.765625 C 100.550781 -31.253906 100.023438 -26.890625 99.046875 -22.671875 C 97.992188 -18.390625 96.453125 -14.59375 94.421875 -11.28125 C 92.316406 -7.894531 89.757812 -5.1875 86.75 -3.15625 C 83.664062 -1.125 80.09375 -0.109375 76.03125 -0.109375 L 6.65625 -0.109375 L 6.65625 -32.375 C 8.007812 -26.65625 10.453125 -21.578125 13.984375 -17.140625 C 15.492188 -15.265625 17.300781 -13.425781 19.40625 -11.625 C 21.4375 -9.8125 23.878906 -8.191406 26.734375 -6.765625 C 29.515625 -5.335938 32.75 -4.210938 36.4375 -3.390625 C 40.050781 -2.484375 44.148438 -2.03125 48.734375 -2.03125 C 52.566406 -2.101562 56.101562 -3.378906 59.34375 -5.859375 C 62.5 -8.265625 65.207031 -11.347656 67.46875 -15.109375 C 69.113281 -17.816406 70.273438 -20.976562 70.953125 -24.59375 C 71.628906 -28.125 71.929688 -31.695312 71.859375 -35.3125 C 71.785156 -38.84375 71.445312 -42.226562 70.84375 -45.46875 C 70.164062 -48.625 69.300781 -51.179688 68.25 -53.140625 C 67.125 -55.390625 65.847656 -57.492188 64.421875 -59.453125 C 62.984375 -61.410156 61.441406 -63.140625 59.796875 -64.640625 C 58.140625 -66.066406 56.40625 -67.234375 54.59375 -68.140625 C 52.71875 -68.960938 50.765625 -69.375 48.734375 -69.375 L 36.546875 -69.375 C 35.347656 -69.375 34.332031 -69.375 33.5 -69.375 C 32.675781 -69.300781 32.226562 -69.265625 32.15625 -69.265625 L 32.15625 -69.375 L 5.640625 -69.375 L 5.640625 -112.25 L 101.53125 -112.25 L 101.53125 -79.984375 C 100.175781 -85.617188 97.769531 -90.65625 94.3125 -95.09375 C 92.8125 -96.976562 91.003906 -98.859375 88.890625 -100.734375 C 86.785156 -102.546875 84.34375 -104.164062 81.5625 -105.59375 C 78.707031 -107.019531 75.472656 -108.1875 71.859375 -109.09375 C 68.171875 -109.914062 64.035156 -110.328125 59.453125 -110.328125 Z M 34.1875 -110.328125 "/></g></g></g></g></g></g><g transform="matrix(1, 0, 0, 1, 179, 140)"><g clip-path="url(#00617f9559)"><g fill="#0e2349" fill-opacity="1"><g transform="translate(0.786806, 111.832703)"><g><path d="M 97.75 -107.90625 L 97.75 -1.875 L 102.171875 -1.875 L 102.171875 0 L 56.328125 0 L 56.328125 -1.875 L 60.859375 -1.875 L 60.859375 -37.546875 L 9.28125 -37.546875 L 9.28125 -37.4375 L 5.515625 -37.4375 L 5.515625 -37.546875 L 6.296875 -38.546875 L 60.859375 -109.796875 L 102.171875 -109.796875 L 102.171875 -107.90625 Z M 60.859375 -41.203125 L 60.859375 -104.8125 L 12.046875 -41.203125 Z M 60.859375 -41.203125 "/></g></g></g></g></g><g clip-path="url(#d414d4b895)"><g transform="matrix(1, 0, 0, 1, 367, 99)"><g clip-path="url(#85329063b7)"><g fill="#0e2349" fill-opacity="1"><g transform="translate(0.790647, 107.429857)"><g><path d="M 58.390625 -104.5 C 54.898438 -104.5 51.625 -103.851562 48.5625 -102.5625 C 45.488281 -101.207031 42.8125 -99.390625 40.53125 -97.109375 C 38.25 -94.828125 36.46875 -92.15625 35.1875 -89.09375 C 33.832031 -86.03125 33.15625 -82.75 33.15625 -79.25 C 33.15625 -75.757812 33.832031 -72.476562 35.1875 -69.40625 C 36.46875 -66.34375 38.25 -63.671875 40.53125 -61.390625 C 42.8125 -59.109375 45.488281 -57.328125 48.5625 -56.046875 C 51.625 -54.691406 54.898438 -54.015625 58.390625 -54.015625 L 78.9375 -54.015625 C 82.644531 -54.015625 86.171875 -53.300781 89.515625 -51.875 C 92.796875 -50.445312 95.648438 -48.519531 98.078125 -46.09375 C 100.503906 -43.664062 102.425781 -40.816406 103.84375 -37.546875 C 105.269531 -34.265625 105.984375 -30.769531 105.984375 -27.0625 C 105.984375 -23.28125 105.269531 -19.75 103.84375 -16.46875 C 102.425781 -13.1875 100.503906 -10.335938 98.078125 -7.921875 C 95.648438 -5.492188 92.796875 -3.566406 89.515625 -2.140625 C 86.171875 -0.710938 82.644531 0 78.9375 0 L 5.34375 0 L 5.34375 -30.59375 C 6.625 -25.164062 8.941406 -20.351562 12.296875 -16.15625 C 13.722656 -14.363281 15.4375 -12.613281 17.4375 -10.90625 C 19.363281 -9.195312 21.679688 -7.664062 24.390625 -6.3125 C 27.023438 -4.957031 30.085938 -3.890625 33.578125 -3.109375 C 37.003906 -2.242188 40.890625 -1.8125 45.234375 -1.8125 L 52.9375 -1.8125 C 56.4375 -1.8125 59.71875 -2.488281 62.78125 -3.84375 C 65.84375 -5.132812 68.515625 -6.921875 70.796875 -9.203125 C 73.078125 -11.484375 74.894531 -14.15625 76.25 -17.21875 C 77.539062 -20.28125 78.1875 -23.5625 78.1875 -27.0625 C 78.1875 -30.550781 77.539062 -33.832031 76.25 -36.90625 C 74.894531 -39.894531 73.078125 -42.53125 70.796875 -44.8125 C 68.515625 -47.09375 65.84375 -48.910156 62.78125 -50.265625 C 59.71875 -51.546875 56.4375 -52.1875 52.9375 -52.1875 L 32.40625 -52.1875 C 28.625 -52.1875 25.09375 -52.898438 21.8125 -54.328125 C 18.539062 -55.753906 15.691406 -57.679688 13.265625 -60.109375 C 10.835938 -62.535156 8.910156 -65.382812 7.484375 -68.65625 C 6.054688 -71.9375 5.34375 -75.46875 5.34375 -79.25 C 5.34375 -82.957031 6.054688 -86.453125 7.484375 -89.734375 C 8.910156 -93.015625 10.835938 -95.867188 13.265625 -98.296875 C 15.691406 -100.710938 18.539062 -102.632812 21.8125 -104.0625 C 25.09375 -105.488281 28.625 -106.203125 32.40625 -106.203125 L 105.984375 -106.203125 L 105.984375 -75.609375 C 104.703125 -80.960938 102.382812 -85.773438 99.03125 -90.046875 C 97.613281 -91.835938 95.90625 -93.625 93.90625 -95.40625 C 91.90625 -97.113281 89.585938 -98.644531 86.953125 -100 C 84.242188 -101.351562 81.175781 -102.457031 77.75 -103.3125 C 74.332031 -104.101562 70.445312 -104.5 66.09375 -104.5 Z M 58.390625 -104.5 "/></g></g></g><g fill="#0e2349" fill-opacity="1"><g transform="translate(112.124277, 107.429857)"><g><path d="M 45.34375 -104.5 L 45.34375 -54.015625 L 47.265625 -54.015625 C 50.410156 -54.015625 53.265625 -54.726562 55.828125 -56.15625 C 58.398438 -57.507812 60.609375 -59.003906 62.453125 -60.640625 C 64.671875 -62.566406 66.671875 -64.8125 68.453125 -67.375 L 68.453125 -38.828125 C 66.671875 -41.316406 64.671875 -43.523438 62.453125 -45.453125 C 60.609375 -47.097656 58.398438 -48.628906 55.828125 -50.046875 C 53.265625 -51.472656 50.410156 -52.1875 47.265625 -52.1875 L 45.34375 -52.1875 L 45.34375 -1.8125 L 64.703125 -1.8125 C 68.910156 -1.8125 72.726562 -2.242188 76.15625 -3.109375 C 79.5 -3.890625 82.492188 -4.957031 85.140625 -6.3125 C 87.773438 -7.664062 90.054688 -9.195312 91.984375 -10.90625 C 93.910156 -12.613281 95.582031 -14.363281 97 -16.15625 C 100.28125 -20.351562 102.5625 -25.164062 103.84375 -30.59375 L 103.84375 0 L 5.34375 0 L 5.34375 -1.8125 L 9.625 -1.8125 L 9.625 -104.5 L 5.34375 -104.5 L 5.34375 -106.203125 L 103.84375 -106.203125 L 103.84375 -75.609375 C 102.5625 -80.960938 100.28125 -85.773438 97 -90.046875 C 95.582031 -91.835938 93.910156 -93.625 91.984375 -95.40625 C 90.054688 -97.113281 87.773438 -98.644531 85.140625 -100 C 82.492188 -101.351562 79.5 -102.457031 76.15625 -103.3125 C 72.726562 -104.101562 68.910156 -104.5 64.703125 -104.5 Z M 45.34375 -104.5 "/></g></g></g><g fill="#0e2349" fill-opacity="1"><g transform="translate(221.425893, 107.429857)"><g><path d="M 131.546875 -104.5 L 131.546875 -1.8125 L 135.828125 -1.8125 L 135.828125 0 L 91.546875 0 L 91.546875 -1.8125 L 95.828125 -1.8125 L 95.828125 -99.890625 L 55.9375 -29.3125 L 52.296875 -29.3125 L 13.265625 -99.890625 L 13.265625 -1.8125 L 17.4375 -1.8125 L 17.4375 0 L 5.34375 0 L 5.34375 -1.8125 L 9.625 -1.8125 L 9.625 -104.5 L 5.34375 -104.5 L 5.34375 -106.203125 L 36.796875 -106.203125 L 65.984375 -53.484375 L 94.875 -104.5 L 91.546875 -104.5 L 91.546875 -106.203125 L 135.828125 -106.203125 L 135.828125 -104.5 Z M 131.546875 -104.5 "/></g></g></g><g fill="#0e2349" fill-opacity="1"><g transform="translate(362.705166, 107.429857)"><g><path d="M 118.390625 -1.8125 L 118.390625 0 L 74.125 0 L 74.125 -1.8125 L 78.5 -1.8125 L 67.0625 -36.578125 L 24.5 -36.578125 L 12.9375 -1.8125 L 17.328125 -1.8125 L 17.328125 0 L 5.34375 0 L 5.34375 -1.8125 L 9.734375 -1.8125 L 43.3125 -104.5 L 38.828125 -104.5 L 38.828125 -106.203125 L 80.109375 -106.203125 L 114.125 -1.8125 Z M 66.53125 -38.390625 L 48.875 -92.40625 L 45.984375 -101.28125 L 25.140625 -38.390625 Z M 66.53125 -38.390625 "/></g></g></g><g fill="#0e2349" fill-opacity="1"><g transform="translate(486.551784, 107.429857)"><g><path d="M 45.34375 -104.5 L 45.34375 -1.8125 L 49.734375 -1.8125 L 49.734375 0 L 5.34375 0 L 5.34375 -1.8125 L 9.625 -1.8125 L 9.625 -104.5 L 5.34375 -104.5 L 5.34375 -106.203125 L 49.734375 -106.203125 L 49.734375 -104.5 Z M 45.34375 -104.5 "/></g></g></g><g fill="#0e2349" fill-opacity="1"><g transform="translate(541.630375, 107.429857)"><g><path d="M 105.5625 -104.5 L 105.5625 -1.8125 L 109.84375 -1.8125 L 109.84375 0 L 69.84375 0 L 13.46875 -99.890625 L 13.46875 -1.8125 L 17.640625 -1.8125 L 17.640625 0 L 5.34375 0 L 5.34375 -1.8125 L 9.84375 -1.8125 L 9.84375 -104.5 L 5.34375 -104.5 L 5.34375 -106.203125 L 45.5625 -106.203125 L 101.921875 -6.421875 L 101.921875 -104.5 L 97.4375 -104.5 L 97.4375 -106.203125 L 109.84375 -106.203125 L 109.84375 -104.5 Z M 105.5625 -104.5 "/></g></g></g><g fill="#0e2349" fill-opacity="1"><g transform="translate(656.921122, 107.429857)"><g><path d="M 45.34375 -104.5 L 45.34375 -54.015625 L 47.265625 -54.015625 C 50.410156 -54.015625 53.265625 -54.726562 55.828125 -56.15625 C 58.398438 -57.507812 60.609375 -59.003906 62.453125 -60.640625 C 64.671875 -62.566406 66.671875 -64.8125 68.453125 -67.375 L 68.453125 -38.828125 C 66.671875 -41.316406 64.671875 -43.523438 62.453125 -45.453125 C 60.609375 -47.097656 58.398438 -48.628906 55.828125 -50.046875 C 53.265625 -51.472656 50.410156 -52.1875 47.265625 -52.1875 L 45.34375 -52.1875 L 45.34375 -1.8125 L 64.703125 -1.8125 C 68.910156 -1.8125 72.726562 -2.242188 76.15625 -3.109375 C 79.5 -3.890625 82.492188 -4.957031 85.140625 -6.3125 C 87.773438 -7.664062 90.054688 -9.195312 91.984375 -10.90625 C 93.910156 -12.613281 95.582031 -14.363281 97 -16.15625 C 100.28125 -20.351562 102.5625 -25.164062 103.84375 -30.59375 L 103.84375 0 L 5.34375 0 L 5.34375 -1.8125 L 9.625 -1.8125 L 9.625 -104.5 L 5.34375 -104.5 L 5.34375 -106.203125 L 103.84375 -106.203125 L 103.84375 -75.609375 C 102.5625 -80.960938 100.28125 -85.773438 97 -90.046875 C 95.582031 -91.835938 93.910156 -93.625 91.984375 -95.40625 C 90.054688 -97.113281 87.773438 -98.644531 85.140625 -100 C 82.492188 -101.351562 79.5 -102.457031 76.15625 -103.3125 C 72.726562 -104.101562 68.910156 -104.5 64.703125 -104.5 Z M 45.34375 -104.5 "/></g></g></g><g fill="#0e2349" fill-opacity="1"><g transform="translate(766.222731, 107.429857)"><g/></g></g><g fill="#0e2349" fill-opacity="1"><g transform="translate(815.633057, 107.429857)"><g><path d="M 32.40625 -104.59375 L 32.40625 -67.59375 L 72.09375 -67.59375 C 76.007812 -67.59375 79.429688 -66.628906 82.359375 -64.703125 C 85.273438 -62.773438 87.695312 -60.242188 89.625 -57.109375 C 91.550781 -53.898438 93.015625 -50.300781 94.015625 -46.3125 C 94.941406 -42.25 95.40625 -38.113281 95.40625 -33.90625 C 95.332031 -29.625 94.832031 -25.488281 93.90625 -21.5 C 92.90625 -17.4375 91.441406 -13.835938 89.515625 -10.703125 C 87.523438 -7.484375 85.101562 -4.914062 82.25 -3 C 79.320312 -1.070312 75.9375 -0.109375 72.09375 -0.109375 L 6.3125 -0.109375 L 6.3125 -30.703125 C 7.59375 -25.273438 9.910156 -20.457031 13.265625 -16.25 C 14.691406 -14.46875 16.398438 -12.722656 18.390625 -11.015625 C 20.316406 -9.304688 22.632812 -7.773438 25.34375 -6.421875 C 27.988281 -5.066406 31.054688 -3.992188 34.546875 -3.203125 C 37.960938 -2.347656 41.847656 -1.921875 46.203125 -1.921875 C 49.835938 -1.992188 53.1875 -3.207031 56.25 -5.5625 C 59.25 -7.84375 61.816406 -10.765625 63.953125 -14.328125 C 65.523438 -16.898438 66.632812 -19.894531 67.28125 -23.3125 C 67.914062 -26.664062 68.195312 -30.050781 68.125 -33.46875 C 68.050781 -36.820312 67.734375 -40.035156 67.171875 -43.109375 C 66.523438 -46.097656 65.703125 -48.519531 64.703125 -50.375 C 63.640625 -52.507812 62.425781 -54.503906 61.0625 -56.359375 C 59.707031 -58.210938 58.25 -59.851562 56.6875 -61.28125 C 55.113281 -62.632812 53.472656 -63.738281 51.765625 -64.59375 C 49.984375 -65.382812 48.128906 -65.78125 46.203125 -65.78125 L 34.65625 -65.78125 C 33.507812 -65.78125 32.546875 -65.78125 31.765625 -65.78125 C 30.984375 -65.707031 30.554688 -65.671875 30.484375 -65.671875 L 30.484375 -65.78125 L 5.34375 -65.78125 L 5.34375 -106.421875 L 96.265625 -106.421875 L 96.265625 -75.828125 C 94.972656 -81.171875 92.6875 -85.945312 89.40625 -90.15625 C 87.988281 -91.9375 86.28125 -93.722656 84.28125 -95.515625 C 82.28125 -97.222656 79.960938 -98.753906 77.328125 -100.109375 C 74.617188 -101.460938 71.550781 -102.566406 68.125 -103.421875 C 64.632812 -104.203125 60.710938 -104.59375 56.359375 -104.59375 Z M 32.40625 -104.59375 "/></g></g></g><g fill="#0e2349" fill-opacity="1"><g transform="translate(917.341278, 107.429857)"><g><path d="M 94.65625 -104.5 L 94.65625 -1.8125 L 98.9375 -1.8125 L 98.9375 0 L 54.546875 0 L 54.546875 -1.8125 L 58.9375 -1.8125 L 58.9375 -36.359375 L 8.984375 -36.359375 L 8.984375 -36.25 L 5.34375 -36.25 L 5.34375 -36.359375 L 6.09375 -37.328125 L 58.9375 -106.3125 L 98.9375 -106.3125 L 98.9375 -104.5 Z M 58.9375 -39.890625 L 58.9375 -101.5 L 11.65625 -39.890625 Z M 58.9375 -39.890625 "/></g></g></g></g></g></g><g transform="matrix(1, 0, 0, 1, 375, 236)"><g clip-path="url(#600e2a7851)"><g fill="#0e2349" fill-opacity="1"><g transform="translate(0.902816, 35.722298)"><g><path d="M 19.75 -19.78125 C 19.75 -17.113281 18.910156 -15.128906 17.234375 -13.828125 C 15.566406 -12.523438 13.226562 -11.875 10.21875 -11.875 L 3.953125 -11.875 L 3.953125 0 L 1.046875 0 L 1.046875 -27.703125 L 10.171875 -27.703125 C 13.210938 -27.703125 15.566406 -27.039062 17.234375 -25.71875 C 18.910156 -24.394531 19.75 -22.414062 19.75 -19.78125 Z M 16.84375 -19.78125 C 16.84375 -21.695312 16.238281 -23.082031 15.03125 -23.9375 C 13.832031 -24.789062 12.226562 -25.21875 10.21875 -25.21875 L 3.953125 -25.21875 L 3.953125 -14.359375 L 10.21875 -14.359375 C 12.226562 -14.359375 13.832031 -14.785156 15.03125 -15.640625 C 16.238281 -16.492188 16.84375 -17.875 16.84375 -19.78125 Z M 16.84375 -19.78125 "/></g></g></g><g fill="#0e2349" fill-opacity="1"><g transform="translate(25.424316, 35.722298)"><g><path d="M -0.046875 -5.34375 C -0.046875 -6.59375 0.265625 -7.640625 0.890625 -8.484375 C 1.515625 -9.328125 2.332031 -9.988281 3.34375 -10.46875 C 4.351562 -10.957031 5.515625 -11.3125 6.828125 -11.53125 C 8.140625 -11.757812 9.472656 -11.875 10.828125 -11.875 C 11.347656 -11.875 11.816406 -11.863281 12.234375 -11.84375 C 12.648438 -11.832031 13.046875 -11.8125 13.421875 -11.78125 C 13.804688 -11.75 14.1875 -11.710938 14.5625 -11.671875 C 14.945312 -11.628906 15.363281 -11.582031 15.8125 -11.53125 L 15.8125 -12.953125 C 15.8125 -13.910156 15.601562 -14.703125 15.1875 -15.328125 C 14.769531 -15.953125 14.253906 -16.441406 13.640625 -16.796875 C 13.035156 -17.160156 12.398438 -17.414062 11.734375 -17.5625 C 11.078125 -17.71875 10.515625 -17.796875 10.046875 -17.796875 C 8.566406 -17.796875 7.203125 -17.597656 5.953125 -17.203125 C 4.710938 -16.804688 3.554688 -16.273438 2.484375 -15.609375 L 1.171875 -17.796875 C 2.359375 -18.515625 3.691406 -19.101562 5.171875 -19.5625 C 6.648438 -20.019531 8.273438 -20.25 10.046875 -20.25 C 11.117188 -20.25 12.175781 -20.109375 13.21875 -19.828125 C 14.257812 -19.554688 15.191406 -19.132812 16.015625 -18.5625 C 16.847656 -17.988281 17.507812 -17.234375 18 -16.296875 C 18.5 -15.367188 18.75 -14.253906 18.75 -12.953125 L 18.75 0 L 15.8125 0 L 15.8125 -3.3125 C 15.300781 -2.675781 14.722656 -2.113281 14.078125 -1.625 C 13.441406 -1.144531 12.769531 -0.753906 12.0625 -0.453125 C 11.351562 -0.148438 10.644531 0.078125 9.9375 0.234375 C 9.226562 0.398438 8.554688 0.484375 7.921875 0.484375 C 5.296875 0.484375 3.3125 -0.015625 1.96875 -1.015625 C 0.625 -2.023438 -0.046875 -3.46875 -0.046875 -5.34375 Z M 7.921875 -2 C 9.140625 -2 10.234375 -2.175781 11.203125 -2.53125 C 12.171875 -2.894531 12.992188 -3.34375 13.671875 -3.875 C 14.347656 -4.414062 14.875 -4.988281 15.25 -5.59375 C 15.625 -6.207031 15.8125 -6.765625 15.8125 -7.265625 L 15.8125 -9.125 C 14.863281 -9.269531 13.953125 -9.347656 13.078125 -9.359375 C 12.210938 -9.378906 11.460938 -9.390625 10.828125 -9.390625 C 9.773438 -9.390625 8.765625 -9.316406 7.796875 -9.171875 C 6.828125 -9.023438 5.984375 -8.789062 5.265625 -8.46875 C 4.546875 -8.15625 3.960938 -7.742188 3.515625 -7.234375 C 3.078125 -6.722656 2.859375 -6.09375 2.859375 -5.34375 C 2.859375 -4.507812 3.265625 -3.742188 4.078125 -3.046875 C 4.898438 -2.347656 6.179688 -2 7.921875 -2 Z M 7.921875 -2 "/></g></g></g><g fill="#0e2349" fill-opacity="1"><g transform="translate(49.945815, 35.722298)"><g><path d="M 18.703125 -17 C 17.660156 -17.53125 16.414062 -17.796875 14.96875 -17.796875 C 13.78125 -17.796875 12.71875 -17.539062 11.78125 -17.03125 C 10.84375 -16.519531 10.046875 -15.847656 9.390625 -15.015625 C 8.742188 -14.191406 8.25 -13.242188 7.90625 -12.171875 C 7.5625 -11.109375 7.390625 -10.007812 7.390625 -8.875 L 7.390625 -2.484375 L 11.875 -2.484375 L 11.875 0 L 0 0 L 0 -2.484375 L 4.484375 -2.484375 L 4.484375 -17.296875 L 0 -17.296875 L 0 -19.78125 L 7.390625 -19.78125 L 7.390625 -14.828125 C 8.722656 -18.441406 11.25 -20.25 14.96875 -20.25 C 15.96875 -20.25 16.835938 -20.1875 17.578125 -20.0625 C 18.328125 -19.9375 19.019531 -19.710938 19.65625 -19.390625 Z M 18.703125 -17 "/></g></g></g><g fill="#0e2349" fill-opacity="1"><g transform="translate(74.467315, 35.722298)"><g><path d="M 20 -6.3125 C 19.769531 -4.226562 18.953125 -2.570312 17.546875 -1.34375 C 16.140625 -0.125 14.378906 0.484375 12.265625 0.484375 C 11.109375 0.484375 10.046875 0.296875 9.078125 -0.078125 C 8.117188 -0.460938 7.300781 -0.992188 6.625 -1.671875 C 5.945312 -2.359375 5.421875 -3.175781 5.046875 -4.125 C 4.671875 -5.082031 4.484375 -6.128906 4.484375 -7.265625 L 4.484375 -17.296875 L 0 -17.296875 L 0 -19.78125 L 4.484375 -19.78125 L 4.484375 -27.703125 L 7.390625 -27.703125 L 7.390625 -19.78125 L 15.8125 -19.78125 L 15.8125 -17.296875 L 7.390625 -17.296875 L 7.390625 -7.265625 C 7.390625 -6.535156 7.503906 -5.851562 7.734375 -5.21875 C 7.972656 -4.582031 8.300781 -4.023438 8.71875 -3.546875 C 9.132812 -3.066406 9.640625 -2.6875 10.234375 -2.40625 C 10.828125 -2.132812 11.503906 -2 12.265625 -2 C 13.710938 -2 14.921875 -2.445312 15.890625 -3.34375 C 16.859375 -4.238281 17.414062 -5.40625 17.5625 -6.84375 Z M 20 -6.3125 "/></g></g></g><g fill="#0e2349" fill-opacity="1"><g transform="translate(98.988815, 35.722298)"><g><path d="M 2.90625 -8.875 C 3.125 -6.78125 3.890625 -5.109375 5.203125 -3.859375 C 6.515625 -2.617188 8.226562 -2 10.34375 -2 C 11.820312 -2 13.140625 -2.300781 14.296875 -2.90625 C 15.460938 -3.519531 16.335938 -4.28125 16.921875 -5.1875 L 18.953125 -3.78125 C 17.960938 -2.394531 16.78125 -1.335938 15.40625 -0.609375 C 14.039062 0.117188 12.351562 0.484375 10.34375 0.484375 C 8.8125 0.484375 7.40625 0.226562 6.125 -0.28125 C 4.851562 -0.789062 3.753906 -1.5 2.828125 -2.40625 C 1.898438 -3.320312 1.179688 -4.410156 0.671875 -5.671875 C 0.171875 -6.929688 -0.078125 -8.332031 -0.078125 -9.875 C -0.078125 -11.375 0.148438 -12.753906 0.609375 -14.015625 C 1.066406 -15.285156 1.726562 -16.382812 2.59375 -17.3125 C 3.46875 -18.238281 4.523438 -18.957031 5.765625 -19.46875 C 7.015625 -19.988281 8.410156 -20.25 9.953125 -20.25 C 11.640625 -20.25 13.113281 -19.96875 14.375 -19.40625 C 15.632812 -18.84375 16.6875 -18.0625 17.53125 -17.0625 C 18.375 -16.0625 18.992188 -14.867188 19.390625 -13.484375 C 19.796875 -12.097656 20 -10.5625 20 -8.875 Z M 16.921875 -11.359375 C 16.597656 -13.523438 15.8125 -15.140625 14.5625 -16.203125 C 13.320312 -17.265625 11.785156 -17.796875 9.953125 -17.796875 C 9.023438 -17.796875 8.160156 -17.640625 7.359375 -17.328125 C 6.566406 -17.023438 5.867188 -16.59375 5.265625 -16.03125 C 4.660156 -15.46875 4.148438 -14.785156 3.734375 -13.984375 C 3.328125 -13.179688 3.066406 -12.304688 2.953125 -11.359375 Z M 16.921875 -11.359375 "/></g></g></g><g fill="#0e2349" fill-opacity="1"><g transform="translate(123.510315, 35.722298)"><g><path d="M 18.75 0 L 15.8125 0 L 15.8125 -12.203125 C 15.8125 -13.972656 15.429688 -15.347656 14.671875 -16.328125 C 13.910156 -17.304688 12.671875 -17.796875 10.953125 -17.796875 C 9.878906 -17.796875 8.90625 -17.546875 8.03125 -17.046875 C 7.164062 -16.554688 6.425781 -15.894531 5.8125 -15.0625 C 5.207031 -14.238281 4.742188 -13.289062 4.421875 -12.21875 C 4.109375 -11.144531 3.953125 -10.03125 3.953125 -8.875 L 3.953125 0 L 1.046875 0 L 1.046875 -19.78125 L 3.953125 -19.78125 L 3.953125 -14.828125 C 5.347656 -18.441406 7.84375 -20.25 11.4375 -20.25 C 16.3125 -20.25 18.75 -17.566406 18.75 -12.203125 Z M 18.75 0 "/></g></g></g><g fill="#0e2349" fill-opacity="1"><g transform="translate(148.031814, 35.722298)"><g><path d="M -0.046875 -5.34375 C -0.046875 -6.59375 0.265625 -7.640625 0.890625 -8.484375 C 1.515625 -9.328125 2.332031 -9.988281 3.34375 -10.46875 C 4.351562 -10.957031 5.515625 -11.3125 6.828125 -11.53125 C 8.140625 -11.757812 9.472656 -11.875 10.828125 -11.875 C 11.347656 -11.875 11.816406 -11.863281 12.234375 -11.84375 C 12.648438 -11.832031 13.046875 -11.8125 13.421875 -11.78125 C 13.804688 -11.75 14.1875 -11.710938 14.5625 -11.671875 C 14.945312 -11.628906 15.363281 -11.582031 15.8125 -11.53125 L 15.8125 -12.953125 C 15.8125 -13.910156 15.601562 -14.703125 15.1875 -15.328125 C 14.769531 -15.953125 14.253906 -16.441406 13.640625 -16.796875 C 13.035156 -17.160156 12.398438 -17.414062 11.734375 -17.5625 C 11.078125 -17.71875 10.515625 -17.796875 10.046875 -17.796875 C 8.566406 -17.796875 7.203125 -17.597656 5.953125 -17.203125 C 4.710938 -16.804688 3.554688 -16.273438 2.484375 -15.609375 L 1.171875 -17.796875 C 2.359375 -18.515625 3.691406 -19.101562 5.171875 -19.5625 C 6.648438 -20.019531 8.273438 -20.25 10.046875 -20.25 C 11.117188 -20.25 12.175781 -20.109375 13.21875 -19.828125 C 14.257812 -19.554688 15.191406 -19.132812 16.015625 -18.5625 C 16.847656 -17.988281 17.507812 -17.234375 18 -16.296875 C 18.5 -15.367188 18.75 -14.253906 18.75 -12.953125 L 18.75 0 L 15.8125 0 L 15.8125 -3.3125 C 15.300781 -2.675781 14.722656 -2.113281 14.078125 -1.625 C 13.441406 -1.144531 12.769531 -0.753906 12.0625 -0.453125 C 11.351562 -0.148438 10.644531 0.078125 9.9375 0.234375 C 9.226562 0.398438 8.554688 0.484375 7.921875 0.484375 C 5.296875 0.484375 3.3125 -0.015625 1.96875 -1.015625 C 0.625 -2.023438 -0.046875 -3.46875 -0.046875 -5.34375 Z M 7.921875 -2 C 9.140625 -2 10.234375 -2.175781 11.203125 -2.53125 C 12.171875 -2.894531 12.992188 -3.34375 13.671875 -3.875 C 14.347656 -4.414062 14.875 -4.988281 15.25 -5.59375 C 15.625 -6.207031 15.8125 -6.765625 15.8125 -7.265625 L 15.8125 -9.125 C 14.863281 -9.269531 13.953125 -9.347656 13.078125 -9.359375 C 12.210938 -9.378906 11.460938 -9.390625 10.828125 -9.390625 C 9.773438 -9.390625 8.765625 -9.316406 7.796875 -9.171875 C 6.828125 -9.023438 5.984375 -8.789062 5.265625 -8.46875 C 4.546875 -8.15625 3.960938 -7.742188 3.515625 -7.234375 C 3.078125 -6.722656 2.859375 -6.09375 2.859375 -5.34375 C 2.859375 -4.507812 3.265625 -3.742188 4.078125 -3.046875 C 4.898438 -2.347656 6.179688 -2 7.921875 -2 Z M 7.921875 -2 "/></g></g></g><g fill="#0e2349" fill-opacity="1"><g transform="translate(172.553314, 35.722298)"><g><path d="M 11.875 -23.734375 L 7.921875 -23.734375 L 7.921875 -27.703125 L 11.875 -27.703125 Z M 15.8125 0 L 3.953125 0 L 3.953125 -2.484375 L 8.421875 -2.484375 L 8.421875 -17.296875 L 3.953125 -17.296875 L 3.953125 -19.78125 L 11.359375 -19.78125 L 11.359375 -2.484375 L 15.8125 -2.484375 Z M 15.8125 0 "/></g></g></g><g fill="#0e2349" fill-opacity="1"><g transform="translate(197.074814, 35.722298)"><g><path d="M 18.703125 -17 C 17.660156 -17.53125 16.414062 -17.796875 14.96875 -17.796875 C 13.78125 -17.796875 12.71875 -17.539062 11.78125 -17.03125 C 10.84375 -16.519531 10.046875 -15.847656 9.390625 -15.015625 C 8.742188 -14.191406 8.25 -13.242188 7.90625 -12.171875 C 7.5625 -11.109375 7.390625 -10.007812 7.390625 -8.875 L 7.390625 -2.484375 L 11.875 -2.484375 L 11.875 0 L 0 0 L 0 -2.484375 L 4.484375 -2.484375 L 4.484375 -17.296875 L 0 -17.296875 L 0 -19.78125 L 7.390625 -19.78125 L 7.390625 -14.828125 C 8.722656 -18.441406 11.25 -20.25 14.96875 -20.25 C 15.96875 -20.25 16.835938 -20.1875 17.578125 -20.0625 C 18.328125 -19.9375 19.019531 -19.710938 19.65625 -19.390625 Z M 18.703125 -17 "/></g></g></g><g fill="#0e2349" fill-opacity="1"><g transform="translate(221.596313, 35.722298)"><g><path d="M 2.90625 -8.875 C 3.125 -6.78125 3.890625 -5.109375 5.203125 -3.859375 C 6.515625 -2.617188 8.226562 -2 10.34375 -2 C 11.820312 -2 13.140625 -2.300781 14.296875 -2.90625 C 15.460938 -3.519531 16.335938 -4.28125 16.921875 -5.1875 L 18.953125 -3.78125 C 17.960938 -2.394531 16.78125 -1.335938 15.40625 -0.609375 C 14.039062 0.117188 12.351562 0.484375 10.34375 0.484375 C 8.8125 0.484375 7.40625 0.226562 6.125 -0.28125 C 4.851562 -0.789062 3.753906 -1.5 2.828125 -2.40625 C 1.898438 -3.320312 1.179688 -4.410156 0.671875 -5.671875 C 0.171875 -6.929688 -0.078125 -8.332031 -0.078125 -9.875 C -0.078125 -11.375 0.148438 -12.753906 0.609375 -14.015625 C 1.066406 -15.285156 1.726562 -16.382812 2.59375 -17.3125 C 3.46875 -18.238281 4.523438 -18.957031 5.765625 -19.46875 C 7.015625 -19.988281 8.410156 -20.25 9.953125 -20.25 C 11.640625 -20.25 13.113281 -19.96875 14.375 -19.40625 C 15.632812 -18.84375 16.6875 -18.0625 17.53125 -17.0625 C 18.375 -16.0625 18.992188 -14.867188 19.390625 -13.484375 C 19.796875 -12.097656 20 -10.5625 20 -8.875 Z M 16.921875 -11.359375 C 16.597656 -13.523438 15.8125 -15.140625 14.5625 -16.203125 C 13.320312 -17.265625 11.785156 -17.796875 9.953125 -17.796875 C 9.023438 -17.796875 8.160156 -17.640625 7.359375 -17.328125 C 6.566406 -17.023438 5.867188 -16.59375 5.265625 -16.03125 C 4.660156 -15.46875 4.148438 -14.785156 3.734375 -13.984375 C 3.328125 -13.179688 3.066406 -12.304688 2.953125 -11.359375 Z M 16.921875 -11.359375 "/></g></g></g><g fill="#0e2349" fill-opacity="1"><g transform="translate(246.121562, 35.722298)"><g/></g></g><g fill="#0e2349" fill-opacity="1"><g transform="translate(270.643061, 35.722298)"><g/></g></g><g fill="#0e2349" fill-opacity="1"><g transform="translate(295.164561, 35.722298)"><g/></g></g><g fill="#0e2349" fill-opacity="1"><g transform="translate(319.686061, 35.722298)"><g/></g></g><g fill="#0e2349" fill-opacity="1"><g transform="translate(344.207558, 35.722298)"><g><path d="M -0.046875 -5.34375 C -0.046875 -6.59375 0.265625 -7.640625 0.890625 -8.484375 C 1.515625 -9.328125 2.332031 -9.988281 3.34375 -10.46875 C 4.351562 -10.957031 5.515625 -11.3125 6.828125 -11.53125 C 8.140625 -11.757812 9.472656 -11.875 10.828125 -11.875 C 11.347656 -11.875 11.816406 -11.863281 12.234375 -11.84375 C 12.648438 -11.832031 13.046875 -11.8125 13.421875 -11.78125 C 13.804688 -11.75 14.1875 -11.710938 14.5625 -11.671875 C 14.945312 -11.628906 15.363281 -11.582031 15.8125 -11.53125 L 15.8125 -12.953125 C 15.8125 -13.910156 15.601562 -14.703125 15.1875 -15.328125 C 14.769531 -15.953125 14.253906 -16.441406 13.640625 -16.796875 C 13.035156 -17.160156 12.398438 -17.414062 11.734375 -17.5625 C 11.078125 -17.71875 10.515625 -17.796875 10.046875 -17.796875 C 8.566406 -17.796875 7.203125 -17.597656 5.953125 -17.203125 C 4.710938 -16.804688 3.554688 -16.273438 2.484375 -15.609375 L 1.171875 -17.796875 C 2.359375 -18.515625 3.691406 -19.101562 5.171875 -19.5625 C 6.648438 -20.019531 8.273438 -20.25 10.046875 -20.25 C 11.117188 -20.25 12.175781 -20.109375 13.21875 -19.828125 C 14.257812 -19.554688 15.191406 -19.132812 16.015625 -18.5625 C 16.847656 -17.988281 17.507812 -17.234375 18 -16.296875 C 18.5 -15.367188 18.75 -14.253906 18.75 -12.953125 L 18.75 0 L 15.8125 0 L 15.8125 -3.3125 C 15.300781 -2.675781 14.722656 -2.113281 14.078125 -1.625 C 13.441406 -1.144531 12.769531 -0.753906 12.0625 -0.453125 C 11.351562 -0.148438 10.644531 0.078125 9.9375 0.234375 C 9.226562 0.398438 8.554688 0.484375 7.921875 0.484375 C 5.296875 0.484375 3.3125 -0.015625 1.96875 -1.015625 C 0.625 -2.023438 -0.046875 -3.46875 -0.046875 -5.34375 Z M 7.921875 -2 C 9.140625 -2 10.234375 -2.175781 11.203125 -2.53125 C 12.171875 -2.894531 12.992188 -3.34375 13.671875 -3.875 C 14.347656 -4.414062 14.875 -4.988281 15.25 -5.59375 C 15.625 -6.207031 15.8125 -6.765625 15.8125 -7.265625 L 15.8125 -9.125 C 14.863281 -9.269531 13.953125 -9.347656 13.078125 -9.359375 C 12.210938 -9.378906 11.460938 -9.390625 10.828125 -9.390625 C 9.773438 -9.390625 8.765625 -9.316406 7.796875 -9.171875 C 6.828125 -9.023438 5.984375 -8.789062 5.265625 -8.46875 C 4.546875 -8.15625 3.960938 -7.742188 3.515625 -7.234375 C 3.078125 -6.722656 2.859375 -6.09375 2.859375 -5.34375 C 2.859375 -4.507812 3.265625 -3.742188 4.078125 -3.046875 C 4.898438 -2.347656 6.179688 -2 7.921875 -2 Z M 7.921875 -2 "/></g></g></g><g fill="#0e2349" fill-opacity="1"><g transform="translate(368.729057, 35.722298)"><g><path d="M 1.046875 -19.78125 L 3.953125 -19.78125 L 3.953125 -7.5625 C 3.953125 -5.789062 4.335938 -4.421875 5.109375 -3.453125 C 5.878906 -2.484375 7.117188 -2 8.828125 -2 C 9.910156 -2 10.878906 -2.242188 11.734375 -2.734375 C 12.597656 -3.234375 13.332031 -3.894531 13.9375 -4.71875 C 14.550781 -5.550781 15.015625 -6.5 15.328125 -7.5625 C 15.648438 -8.632812 15.8125 -9.75 15.8125 -10.90625 L 15.8125 -19.78125 L 18.75 -19.78125 L 18.75 0 L 15.8125 0 L 15.8125 -4.953125 C 14.425781 -1.328125 11.9375 0.484375 8.34375 0.484375 C 3.476562 0.484375 1.046875 -2.195312 1.046875 -7.5625 Z M 1.046875 -19.78125 "/></g></g></g><g fill="#0e2349" fill-opacity="1"><g transform="translate(393.250557, 35.722298)"><g/></g></g><g fill="#0e2349" fill-opacity="1"><g transform="translate(417.772057, 35.722298)"><g><path d="M 19.265625 -5.484375 C 19.265625 -4.316406 18.972656 -3.347656 18.390625 -2.578125 C 17.804688 -1.816406 17.054688 -1.207031 16.140625 -0.75 C 15.234375 -0.300781 14.21875 0.015625 13.09375 0.203125 C 11.96875 0.390625 10.863281 0.484375 9.78125 0.484375 C 7.988281 0.484375 6.195312 0.222656 4.40625 -0.296875 C 2.625 -0.816406 1.082031 -1.503906 -0.21875 -2.359375 L 1.078125 -4.859375 C 2.535156 -3.941406 3.972656 -3.234375 5.390625 -2.734375 C 6.804688 -2.242188 8.269531 -2 9.78125 -2 C 14.15625 -2 16.34375 -3.128906 16.34375 -5.390625 C 16.34375 -5.941406 16.160156 -6.390625 15.796875 -6.734375 C 15.441406 -7.085938 14.957031 -7.375 14.34375 -7.59375 C 13.738281 -7.8125 13.039062 -7.984375 12.25 -8.109375 C 11.46875 -8.234375 10.644531 -8.351562 9.78125 -8.46875 C 8.675781 -8.625 7.578125 -8.804688 6.484375 -9.015625 C 5.398438 -9.234375 4.410156 -9.550781 3.515625 -9.96875 C 2.617188 -10.394531 1.894531 -10.960938 1.34375 -11.671875 C 0.800781 -12.378906 0.53125 -13.316406 0.53125 -14.484375 C 0.53125 -15.472656 0.78125 -16.328125 1.28125 -17.046875 C 1.78125 -17.765625 2.453125 -18.363281 3.296875 -18.84375 C 4.140625 -19.332031 5.128906 -19.6875 6.265625 -19.90625 C 7.398438 -20.132812 8.570312 -20.25 9.78125 -20.25 C 11.53125 -20.25 13.085938 -20.046875 14.453125 -19.640625 C 15.828125 -19.242188 17.066406 -18.671875 18.171875 -17.921875 L 17 -15.640625 C 15.875 -16.441406 14.726562 -17 13.5625 -17.3125 C 12.40625 -17.632812 11.144531 -17.796875 9.78125 -17.796875 C 9.175781 -17.796875 8.5 -17.738281 7.75 -17.625 C 7.007812 -17.519531 6.320312 -17.335938 5.6875 -17.078125 C 5.050781 -16.816406 4.515625 -16.476562 4.078125 -16.0625 C 3.648438 -15.644531 3.4375 -15.117188 3.4375 -14.484375 C 3.4375 -13.929688 3.613281 -13.488281 3.96875 -13.15625 C 4.332031 -12.820312 4.816406 -12.546875 5.421875 -12.328125 C 6.035156 -12.109375 6.734375 -11.929688 7.515625 -11.796875 C 8.304688 -11.671875 9.132812 -11.550781 10 -11.4375 C 11.070312 -11.28125 12.15625 -11.097656 13.25 -10.890625 C 14.351562 -10.679688 15.351562 -10.367188 16.25 -9.953125 C 17.15625 -9.546875 17.882812 -8.988281 18.4375 -8.28125 C 18.988281 -7.570312 19.265625 -6.640625 19.265625 -5.484375 Z M 19.265625 -5.484375 "/></g></g></g><g fill="#0e2349" fill-opacity="1"><g transform="translate(442.293556, 35.722298)"><g><path d="M 2.90625 -8.875 C 3.125 -6.78125 3.890625 -5.109375 5.203125 -3.859375 C 6.515625 -2.617188 8.226562 -2 10.34375 -2 C 11.820312 -2 13.140625 -2.300781 14.296875 -2.90625 C 15.460938 -3.519531 16.335938 -4.28125 16.921875 -5.1875 L 18.953125 -3.78125 C 17.960938 -2.394531 16.78125 -1.335938 15.40625 -0.609375 C 14.039062 0.117188 12.351562 0.484375 10.34375 0.484375 C 8.8125 0.484375 7.40625 0.226562 6.125 -0.28125 C 4.851562 -0.789062 3.753906 -1.5 2.828125 -2.40625 C 1.898438 -3.320312 1.179688 -4.410156 0.671875 -5.671875 C 0.171875 -6.929688 -0.078125 -8.332031 -0.078125 -9.875 C -0.078125 -11.375 0.148438 -12.753906 0.609375 -14.015625 C 1.066406 -15.285156 1.726562 -16.382812 2.59375 -17.3125 C 3.46875 -18.238281 4.523438 -18.957031 5.765625 -19.46875 C 7.015625 -19.988281 8.410156 -20.25 9.953125 -20.25 C 11.640625 -20.25 13.113281 -19.96875 14.375 -19.40625 C 15.632812 -18.84375 16.6875 -18.0625 17.53125 -17.0625 C 18.375 -16.0625 18.992188 -14.867188 19.390625 -13.484375 C 19.796875 -12.097656 20 -10.5625 20 -8.875 Z M 16.921875 -11.359375 C 16.597656 -13.523438 15.8125 -15.140625 14.5625 -16.203125 C 13.320312 -17.265625 11.785156 -17.796875 9.953125 -17.796875 C 9.023438 -17.796875 8.160156 -17.640625 7.359375 -17.328125 C 6.566406 -17.023438 5.867188 -16.59375 5.265625 -16.03125 C 4.660156 -15.46875 4.148438 -14.785156 3.734375 -13.984375 C 3.328125 -13.179688 3.066406 -12.304688 2.953125 -11.359375 Z M 16.921875 -11.359375 "/></g></g></g><g fill="#0e2349" fill-opacity="1"><g transform="translate(466.815056, 35.722298)"><g><path d="M 18.703125 -17 C 17.660156 -17.53125 16.414062 -17.796875 14.96875 -17.796875 C 13.78125 -17.796875 12.71875 -17.539062 11.78125 -17.03125 C 10.84375 -16.519531 10.046875 -15.847656 9.390625 -15.015625 C 8.742188 -14.191406 8.25 -13.242188 7.90625 -12.171875 C 7.5625 -11.109375 7.390625 -10.007812 7.390625 -8.875 L 7.390625 -2.484375 L 11.875 -2.484375 L 11.875 0 L 0 0 L 0 -2.484375 L 4.484375 -2.484375 L 4.484375 -17.296875 L 0 -17.296875 L 0 -19.78125 L 7.390625 -19.78125 L 7.390625 -14.828125 C 8.722656 -18.441406 11.25 -20.25 14.96875 -20.25 C 15.96875 -20.25 16.835938 -20.1875 17.578125 -20.0625 C 18.328125 -19.9375 19.019531 -19.710938 19.65625 -19.390625 Z M 18.703125 -17 "/></g></g></g><g fill="#0e2349" fill-opacity="1"><g transform="translate(491.336556, 35.722298)"><g><path d="M 20.453125 -19.78125 L 11.875 0 L 7.96875 0 L -0.65625 -19.78125 L 2.828125 -19.78125 L 9.921875 -2.4375 L 16.96875 -19.78125 Z M 20.453125 -19.78125 "/></g></g></g><g fill="#0e2349" fill-opacity="1"><g transform="translate(515.858056, 35.722298)"><g><path d="M 11.875 -23.734375 L 7.921875 -23.734375 L 7.921875 -27.703125 L 11.875 -27.703125 Z M 15.8125 0 L 3.953125 0 L 3.953125 -2.484375 L 8.421875 -2.484375 L 8.421875 -17.296875 L 3.953125 -17.296875 L 3.953125 -19.78125 L 11.359375 -19.78125 L 11.359375 -2.484375 L 15.8125 -2.484375 Z M 15.8125 0 "/></g></g></g><g fill="#0e2349" fill-opacity="1"><g transform="translate(540.379555, 35.722298)"><g><path d="M 19.046875 -3.78125 C 18.210938 -2.476562 17.066406 -1.441406 15.609375 -0.671875 C 14.160156 0.0976562 12.441406 0.484375 10.453125 0.484375 C 8.898438 0.484375 7.476562 0.226562 6.1875 -0.28125 C 4.90625 -0.789062 3.804688 -1.5 2.890625 -2.40625 C 1.984375 -3.320312 1.273438 -4.410156 0.765625 -5.671875 C 0.253906 -6.929688 0 -8.332031 0 -9.875 C 0 -11.375 0.234375 -12.765625 0.703125 -14.046875 C 1.171875 -15.328125 1.832031 -16.421875 2.6875 -17.328125 C 3.550781 -18.242188 4.609375 -18.957031 5.859375 -19.46875 C 7.117188 -19.988281 8.515625 -20.25 10.046875 -20.25 C 10.648438 -20.25 11.269531 -20.175781 11.90625 -20.03125 C 12.539062 -19.894531 13.140625 -19.679688 13.703125 -19.390625 C 14.273438 -19.097656 14.785156 -18.75 15.234375 -18.34375 C 15.691406 -17.945312 16.035156 -17.472656 16.265625 -16.921875 L 16.265625 -19.78125 L 18.875 -19.78125 L 18.875 -11.875 L 16.265625 -11.875 C 16.265625 -12.75 16.101562 -13.546875 15.78125 -14.265625 C 15.46875 -14.984375 15.035156 -15.601562 14.484375 -16.125 C 13.929688 -16.65625 13.269531 -17.066406 12.5 -17.359375 C 11.738281 -17.648438 10.921875 -17.796875 10.046875 -17.796875 C 8.859375 -17.796875 7.820312 -17.585938 6.9375 -17.171875 C 6.050781 -16.765625 5.3125 -16.207031 4.71875 -15.5 C 4.125 -14.789062 3.671875 -13.957031 3.359375 -13 C 3.054688 -12.050781 2.90625 -11.007812 2.90625 -9.875 C 2.90625 -8.738281 3.078125 -7.691406 3.421875 -6.734375 C 3.773438 -5.785156 4.28125 -4.960938 4.9375 -4.265625 C 5.59375 -3.578125 6.382812 -3.023438 7.3125 -2.609375 C 8.238281 -2.203125 9.285156 -2 10.453125 -2 C 11.921875 -2 13.226562 -2.285156 14.375 -2.859375 C 15.519531 -3.441406 16.394531 -4.21875 17 -5.1875 Z M 19.046875 -3.78125 "/></g></g></g><g fill="#0e2349" fill-opacity="1"><g transform="translate(564.901055, 35.722298)"><g><path d="M 2.90625 -8.875 C 3.125 -6.78125 3.890625 -5.109375 5.203125 -3.859375 C 6.515625 -2.617188 8.226562 -2 10.34375 -2 C 11.820312 -2 13.140625 -2.300781 14.296875 -2.90625 C 15.460938 -3.519531 16.335938 -4.28125 16.921875 -5.1875 L 18.953125 -3.78125 C 17.960938 -2.394531 16.78125 -1.335938 15.40625 -0.609375 C 14.039062 0.117188 12.351562 0.484375 10.34375 0.484375 C 8.8125 0.484375 7.40625 0.226562 6.125 -0.28125 C 4.851562 -0.789062 3.753906 -1.5 2.828125 -2.40625 C 1.898438 -3.320312 1.179688 -4.410156 0.671875 -5.671875 C 0.171875 -6.929688 -0.078125 -8.332031 -0.078125 -9.875 C -0.078125 -11.375 0.148438 -12.753906 0.609375 -14.015625 C 1.066406 -15.285156 1.726562 -16.382812 2.59375 -17.3125 C 3.46875 -18.238281 4.523438 -18.957031 5.765625 -19.46875 C 7.015625 -19.988281 8.410156 -20.25 9.953125 -20.25 C 11.640625 -20.25 13.113281 -19.96875 14.375 -19.40625 C 15.632812 -18.84375 16.6875 -18.0625 17.53125 -17.0625 C 18.375 -16.0625 18.992188 -14.867188 19.390625 -13.484375 C 19.796875 -12.097656 20 -10.5625 20 -8.875 Z M 16.921875 -11.359375 C 16.597656 -13.523438 15.8125 -15.140625 14.5625 -16.203125 C 13.320312 -17.265625 11.785156 -17.796875 9.953125 -17.796875 C 9.023438 -17.796875 8.160156 -17.640625 7.359375 -17.328125 C 6.566406 -17.023438 5.867188 -16.59375 5.265625 -16.03125 C 4.660156 -15.46875 4.148438 -14.785156 3.734375 -13.984375 C 3.328125 -13.179688 3.066406 -12.304688 2.953125 -11.359375 Z M 16.921875 -11.359375 "/></g></g></g><g fill="#0e2349" fill-opacity="1"><g transform="translate(589.422555, 35.722298)"><g/></g></g><g fill="#0e2349" fill-opacity="1"><g transform="translate(613.944054, 35.722298)"><g><path d="M 18.75 0 L 15.8125 0 L 15.8125 -1.828125 C 14.976562 -1.078125 14.0625 -0.503906 13.0625 -0.109375 C 12.070312 0.285156 11.050781 0.484375 10 0.484375 C 8.425781 0.484375 7.015625 0.226562 5.765625 -0.28125 C 4.523438 -0.789062 3.476562 -1.5 2.625 -2.40625 C 1.769531 -3.320312 1.109375 -4.414062 0.640625 -5.6875 C 0.179688 -6.957031 -0.046875 -8.351562 -0.046875 -9.875 C -0.046875 -11.375 0.179688 -12.765625 0.640625 -14.046875 C 1.109375 -15.328125 1.769531 -16.421875 2.625 -17.328125 C 3.476562 -18.242188 4.523438 -18.957031 5.765625 -19.46875 C 7.015625 -19.988281 8.425781 -20.25 10 -20.25 C 11.050781 -20.25 12.070312 -20.0625 13.0625 -19.6875 C 14.0625 -19.3125 14.976562 -18.75 15.8125 -18 L 15.8125 -25.21875 L 11.875 -25.21875 L 11.875 -27.703125 L 18.75 -27.703125 Z M 15.8125 -15.1875 C 14.976562 -16.101562 14.066406 -16.765625 13.078125 -17.171875 C 12.097656 -17.585938 11.054688 -17.796875 9.953125 -17.796875 C 8.796875 -17.796875 7.773438 -17.585938 6.890625 -17.171875 C 6.003906 -16.765625 5.265625 -16.207031 4.671875 -15.5 C 4.078125 -14.789062 3.625 -13.957031 3.3125 -13 C 3.007812 -12.050781 2.859375 -11.007812 2.859375 -9.875 C 2.859375 -8.738281 3.007812 -7.691406 3.3125 -6.734375 C 3.625 -5.785156 4.078125 -4.957031 4.671875 -4.25 C 5.265625 -3.539062 6.003906 -2.976562 6.890625 -2.5625 C 7.773438 -2.15625 8.796875 -1.953125 9.953125 -1.953125 C 12.191406 -1.953125 14.144531 -2.835938 15.8125 -4.609375 Z M 15.8125 -15.1875 "/></g></g></g><g fill="#0e2349" fill-opacity="1"><g transform="translate(638.465554, 35.722298)"><g><path d="M 1.046875 -19.78125 L 3.953125 -19.78125 L 3.953125 -7.5625 C 3.953125 -5.789062 4.335938 -4.421875 5.109375 -3.453125 C 5.878906 -2.484375 7.117188 -2 8.828125 -2 C 9.910156 -2 10.878906 -2.242188 11.734375 -2.734375 C 12.597656 -3.234375 13.332031 -3.894531 13.9375 -4.71875 C 14.550781 -5.550781 15.015625 -6.5 15.328125 -7.5625 C 15.648438 -8.632812 15.8125 -9.75 15.8125 -10.90625 L 15.8125 -19.78125 L 18.75 -19.78125 L 18.75 0 L 15.8125 0 L 15.8125 -4.953125 C 14.425781 -1.328125 11.9375 0.484375 8.34375 0.484375 C 3.476562 0.484375 1.046875 -2.195312 1.046875 -7.5625 Z M 1.046875 -19.78125 "/></g></g></g><g fill="#0e2349" fill-opacity="1"><g transform="translate(662.987054, 35.722298)"><g/></g></g><g fill="#0e2349" fill-opacity="1"><g transform="translate(687.508553, 35.722298)"><g><path d="M 20 -6.3125 C 19.769531 -4.226562 18.953125 -2.570312 17.546875 -1.34375 C 16.140625 -0.125 14.378906 0.484375 12.265625 0.484375 C 11.109375 0.484375 10.046875 0.296875 9.078125 -0.078125 C 8.117188 -0.460938 7.300781 -0.992188 6.625 -1.671875 C 5.945312 -2.359375 5.421875 -3.175781 5.046875 -4.125 C 4.671875 -5.082031 4.484375 -6.128906 4.484375 -7.265625 L 4.484375 -17.296875 L 0 -17.296875 L 0 -19.78125 L 4.484375 -19.78125 L 4.484375 -27.703125 L 7.390625 -27.703125 L 7.390625 -19.78125 L 15.8125 -19.78125 L 15.8125 -17.296875 L 7.390625 -17.296875 L 7.390625 -7.265625 C 7.390625 -6.535156 7.503906 -5.851562 7.734375 -5.21875 C 7.972656 -4.582031 8.300781 -4.023438 8.71875 -3.546875 C 9.132812 -3.066406 9.640625 -2.6875 10.234375 -2.40625 C 10.828125 -2.132812 11.503906 -2 12.265625 -2 C 13.710938 -2 14.921875 -2.445312 15.890625 -3.34375 C 16.859375 -4.238281 17.414062 -5.40625 17.5625 -6.84375 Z M 20 -6.3125 "/></g></g></g><g fill="#0e2349" fill-opacity="1"><g transform="translate(712.030053, 35.722298)"><g><path d="M 2.90625 -8.875 C 3.125 -6.78125 3.890625 -5.109375 5.203125 -3.859375 C 6.515625 -2.617188 8.226562 -2 10.34375 -2 C 11.820312 -2 13.140625 -2.300781 14.296875 -2.90625 C 15.460938 -3.519531 16.335938 -4.28125 16.921875 -5.1875 L 18.953125 -3.78125 C 17.960938 -2.394531 16.78125 -1.335938 15.40625 -0.609375 C 14.039062 0.117188 12.351562 0.484375 10.34375 0.484375 C 8.8125 0.484375 7.40625 0.226562 6.125 -0.28125 C 4.851562 -0.789062 3.753906 -1.5 2.828125 -2.40625 C 1.898438 -3.320312 1.179688 -4.410156 0.671875 -5.671875 C 0.171875 -6.929688 -0.078125 -8.332031 -0.078125 -9.875 C -0.078125 -11.375 0.148438 -12.753906 0.609375 -14.015625 C 1.066406 -15.285156 1.726562 -16.382812 2.59375 -17.3125 C 3.46875 -18.238281 4.523438 -18.957031 5.765625 -19.46875 C 7.015625 -19.988281 8.410156 -20.25 9.953125 -20.25 C 11.640625 -20.25 13.113281 -19.96875 14.375 -19.40625 C 15.632812 -18.84375 16.6875 -18.0625 17.53125 -17.0625 C 18.375 -16.0625 18.992188 -14.867188 19.390625 -13.484375 C 19.796875 -12.097656 20 -10.5625 20 -8.875 Z M 16.921875 -11.359375 C 16.597656 -13.523438 15.8125 -15.140625 14.5625 -16.203125 C 13.320312 -17.265625 11.785156 -17.796875 9.953125 -17.796875 C 9.023438 -17.796875 8.160156 -17.640625 7.359375 -17.328125 C 6.566406 -17.023438 5.867188 -16.59375 5.265625 -16.03125 C 4.660156 -15.46875 4.148438 -14.785156 3.734375 -13.984375 C 3.328125 -13.179688 3.066406 -12.304688 2.953125 -11.359375 Z M 16.921875 -11.359375 "/></g></g></g><g fill="#0e2349" fill-opacity="1"><g transform="translate(736.551553, 35.722298)"><g><path d="M 19.78125 0 L 16.875 0 L 16.875 -14.21875 C 16.875 -15.351562 16.675781 -16.234375 16.28125 -16.859375 C 15.882812 -17.484375 15.3125 -17.796875 14.5625 -17.796875 C 13.457031 -17.796875 12.644531 -17.210938 12.125 -16.046875 C 11.613281 -14.890625 11.359375 -13.265625 11.359375 -11.171875 L 11.359375 0 L 8.421875 0 L 8.421875 -14.21875 C 8.421875 -15.351562 8.21875 -16.234375 7.8125 -16.859375 C 7.414062 -17.484375 6.84375 -17.796875 6.09375 -17.796875 C 5.394531 -17.796875 4.84375 -17.585938 4.4375 -17.171875 C 4.03125 -16.765625 3.707031 -16.242188 3.46875 -15.609375 C 3.238281 -14.972656 3.085938 -14.265625 3.015625 -13.484375 C 2.941406 -12.703125 2.90625 -11.929688 2.90625 -11.171875 L 2.90625 0 L 0 0 L 0 -19.78125 L 2.90625 -19.78125 L 2.90625 -16.921875 C 3.519531 -19.140625 4.84375 -20.25 6.875 -20.25 C 8.8125 -20.25 10.128906 -19.28125 10.828125 -17.34375 C 11.785156 -19.28125 13.144531 -20.25 14.90625 -20.25 C 16.59375 -20.25 17.828125 -19.75 18.609375 -18.75 C 19.390625 -17.757812 19.78125 -16.25 19.78125 -14.21875 Z M 19.78125 0 "/></g></g></g><g clip-path="url(#fddf0b8ef5)"><g fill="#0e2349" fill-opacity="1"><g transform="translate(761.073053, 35.722298)"><g><path d="M 19.78125 -9.875 C 19.78125 -8.332031 19.539062 -6.929688 19.0625 -5.671875 C 18.582031 -4.410156 17.90625 -3.320312 17.03125 -2.40625 C 16.164062 -1.5 15.113281 -0.789062 13.875 -0.28125 C 12.644531 0.226562 11.269531 0.484375 9.75 0.484375 C 8.695312 0.484375 7.675781 0.296875 6.6875 -0.078125 C 5.707031 -0.460938 4.796875 -1.03125 3.953125 -1.78125 L 3.953125 7.921875 L 1.046875 7.921875 L 1.046875 -19.78125 L 3.953125 -19.78125 L 3.953125 -17.96875 C 5.742188 -19.488281 7.675781 -20.25 9.75 -20.25 C 11.269531 -20.25 12.644531 -20 13.875 -19.5 C 15.113281 -19 16.164062 -18.285156 17.03125 -17.359375 C 17.90625 -16.429688 18.582031 -15.328125 19.0625 -14.046875 C 19.539062 -12.765625 19.78125 -11.375 19.78125 -9.875 Z M 16.875 -9.875 C 16.875 -10.976562 16.722656 -12.015625 16.421875 -12.984375 C 16.117188 -13.953125 15.660156 -14.789062 15.046875 -15.5 C 14.441406 -16.207031 13.695312 -16.765625 12.8125 -17.171875 C 11.925781 -17.585938 10.90625 -17.796875 9.75 -17.796875 C 8.644531 -17.796875 7.613281 -17.585938 6.65625 -17.171875 C 5.695312 -16.765625 4.796875 -16.101562 3.953125 -15.1875 L 3.953125 -4.5625 C 4.796875 -3.644531 5.695312 -2.988281 6.65625 -2.59375 C 7.613281 -2.195312 8.644531 -2 9.75 -2 C 10.90625 -2 11.925781 -2.203125 12.8125 -2.609375 C 13.695312 -3.023438 14.441406 -3.582031 15.046875 -4.28125 C 15.660156 -4.988281 16.117188 -5.820312 16.421875 -6.78125 C 16.722656 -7.738281 16.875 -8.769531 16.875 -9.875 Z M 16.875 -9.875 "/></g></g></g></g><g fill="#0e2349" fill-opacity="1"><g transform="translate(785.594552, 35.722298)"><g><path d="M 19.265625 -5.484375 C 19.265625 -4.316406 18.972656 -3.347656 18.390625 -2.578125 C 17.804688 -1.816406 17.054688 -1.207031 16.140625 -0.75 C 15.234375 -0.300781 14.21875 0.015625 13.09375 0.203125 C 11.96875 0.390625 10.863281 0.484375 9.78125 0.484375 C 7.988281 0.484375 6.195312 0.222656 4.40625 -0.296875 C 2.625 -0.816406 1.082031 -1.503906 -0.21875 -2.359375 L 1.078125 -4.859375 C 2.535156 -3.941406 3.972656 -3.234375 5.390625 -2.734375 C 6.804688 -2.242188 8.269531 -2 9.78125 -2 C 14.15625 -2 16.34375 -3.128906 16.34375 -5.390625 C 16.34375 -5.941406 16.160156 -6.390625 15.796875 -6.734375 C 15.441406 -7.085938 14.957031 -7.375 14.34375 -7.59375 C 13.738281 -7.8125 13.039062 -7.984375 12.25 -8.109375 C 11.46875 -8.234375 10.644531 -8.351562 9.78125 -8.46875 C 8.675781 -8.625 7.578125 -8.804688 6.484375 -9.015625 C 5.398438 -9.234375 4.410156 -9.550781 3.515625 -9.96875 C 2.617188 -10.394531 1.894531 -10.960938 1.34375 -11.671875 C 0.800781 -12.378906 0.53125 -13.316406 0.53125 -14.484375 C 0.53125 -15.472656 0.78125 -16.328125 1.28125 -17.046875 C 1.78125 -17.765625 2.453125 -18.363281 3.296875 -18.84375 C 4.140625 -19.332031 5.128906 -19.6875 6.265625 -19.90625 C 7.398438 -20.132812 8.570312 -20.25 9.78125 -20.25 C 11.53125 -20.25 13.085938 -20.046875 14.453125 -19.640625 C 15.828125 -19.242188 17.066406 -18.671875 18.171875 -17.921875 L 17 -15.640625 C 15.875 -16.441406 14.726562 -17 13.5625 -17.3125 C 12.40625 -17.632812 11.144531 -17.796875 9.78125 -17.796875 C 9.175781 -17.796875 8.5 -17.738281 7.75 -17.625 C 7.007812 -17.519531 6.320312 -17.335938 5.6875 -17.078125 C 5.050781 -16.816406 4.515625 -16.476562 4.078125 -16.0625 C 3.648438 -15.644531 3.4375 -15.117188 3.4375 -14.484375 C 3.4375 -13.929688 3.613281 -13.488281 3.96875 -13.15625 C 4.332031 -12.820312 4.816406 -12.546875 5.421875 -12.328125 C 6.035156 -12.109375 6.734375 -11.929688 7.515625 -11.796875 C 8.304688 -11.671875 9.132812 -11.550781 10 -11.4375 C 11.070312 -11.28125 12.15625 -11.097656 13.25 -10.890625 C 14.351562 -10.679688 15.351562 -10.367188 16.25 -9.953125 C 17.15625 -9.546875 17.882812 -8.988281 18.4375 -8.28125 C 18.988281 -7.570312 19.265625 -6.640625 19.265625 -5.484375 Z M 19.265625 -5.484375 "/></g></g></g><g fill="#0e2349" fill-opacity="1"><g transform="translate(810.116052, 35.722298)"><g/></g></g><g fill="#0e2349" fill-opacity="1"><g transform="translate(834.637552, 35.722298)"><g><path d="M 18.75 0 L 15.8125 0 L 15.8125 -1.828125 C 14.976562 -1.078125 14.0625 -0.503906 13.0625 -0.109375 C 12.070312 0.285156 11.050781 0.484375 10 0.484375 C 8.425781 0.484375 7.015625 0.226562 5.765625 -0.28125 C 4.523438 -0.789062 3.476562 -1.5 2.625 -2.40625 C 1.769531 -3.320312 1.109375 -4.414062 0.640625 -5.6875 C 0.179688 -6.957031 -0.046875 -8.351562 -0.046875 -9.875 C -0.046875 -11.375 0.179688 -12.765625 0.640625 -14.046875 C 1.109375 -15.328125 1.769531 -16.421875 2.625 -17.328125 C 3.476562 -18.242188 4.523438 -18.957031 5.765625 -19.46875 C 7.015625 -19.988281 8.425781 -20.25 10 -20.25 C 11.050781 -20.25 12.070312 -20.0625 13.0625 -19.6875 C 14.0625 -19.3125 14.976562 -18.75 15.8125 -18 L 15.8125 -25.21875 L 11.875 -25.21875 L 11.875 -27.703125 L 18.75 -27.703125 Z M 15.8125 -15.1875 C 14.976562 -16.101562 14.066406 -16.765625 13.078125 -17.171875 C 12.097656 -17.585938 11.054688 -17.796875 9.953125 -17.796875 C 8.796875 -17.796875 7.773438 -17.585938 6.890625 -17.171875 C 6.003906 -16.765625 5.265625 -16.207031 4.671875 -15.5 C 4.078125 -14.789062 3.625 -13.957031 3.3125 -13 C 3.007812 -12.050781 2.859375 -11.007812 2.859375 -9.875 C 2.859375 -8.738281 3.007812 -7.691406 3.3125 -6.734375 C 3.625 -5.785156 4.078125 -4.957031 4.671875 -4.25 C 5.265625 -3.539062 6.003906 -2.976562 6.890625 -2.5625 C 7.773438 -2.15625 8.796875 -1.953125 9.953125 -1.953125 C 12.191406 -1.953125 14.144531 -2.835938 15.8125 -4.609375 Z M 15.8125 -15.1875 "/></g></g></g><g fill="#0e2349" fill-opacity="1"><g transform="translate(859.159051, 35.722298)"><g><path d="M 2.90625 -8.875 C 3.125 -6.78125 3.890625 -5.109375 5.203125 -3.859375 C 6.515625 -2.617188 8.226562 -2 10.34375 -2 C 11.820312 -2 13.140625 -2.300781 14.296875 -2.90625 C 15.460938 -3.519531 16.335938 -4.28125 16.921875 -5.1875 L 18.953125 -3.78125 C 17.960938 -2.394531 16.78125 -1.335938 15.40625 -0.609375 C 14.039062 0.117188 12.351562 0.484375 10.34375 0.484375 C 8.8125 0.484375 7.40625 0.226562 6.125 -0.28125 C 4.851562 -0.789062 3.753906 -1.5 2.828125 -2.40625 C 1.898438 -3.320312 1.179688 -4.410156 0.671875 -5.671875 C 0.171875 -6.929688 -0.078125 -8.332031 -0.078125 -9.875 C -0.078125 -11.375 0.148438 -12.753906 0.609375 -14.015625 C 1.066406 -15.285156 1.726562 -16.382812 2.59375 -17.3125 C 3.46875 -18.238281 4.523438 -18.957031 5.765625 -19.46875 C 7.015625 -19.988281 8.410156 -20.25 9.953125 -20.25 C 11.640625 -20.25 13.113281 -19.96875 14.375 -19.40625 C 15.632812 -18.84375 16.6875 -18.0625 17.53125 -17.0625 C 18.375 -16.0625 18.992188 -14.867188 19.390625 -13.484375 C 19.796875 -12.097656 20 -10.5625 20 -8.875 Z M 16.921875 -11.359375 C 16.597656 -13.523438 15.8125 -15.140625 14.5625 -16.203125 C 13.320312 -17.265625 11.785156 -17.796875 9.953125 -17.796875 C 9.023438 -17.796875 8.160156 -17.640625 7.359375 -17.328125 C 6.566406 -17.023438 5.867188 -16.59375 5.265625 -16.03125 C 4.660156 -15.46875 4.148438 -14.785156 3.734375 -13.984375 C 3.328125 -13.179688 3.066406 -12.304688 2.953125 -11.359375 Z M 16.921875 -11.359375 "/></g></g></g><g fill="#0e2349" fill-opacity="1"><g transform="translate(883.680551, 35.722298)"><g><path d="M 19.265625 -5.484375 C 19.265625 -4.316406 18.972656 -3.347656 18.390625 -2.578125 C 17.804688 -1.816406 17.054688 -1.207031 16.140625 -0.75 C 15.234375 -0.300781 14.21875 0.015625 13.09375 0.203125 C 11.96875 0.390625 10.863281 0.484375 9.78125 0.484375 C 7.988281 0.484375 6.195312 0.222656 4.40625 -0.296875 C 2.625 -0.816406 1.082031 -1.503906 -0.21875 -2.359375 L 1.078125 -4.859375 C 2.535156 -3.941406 3.972656 -3.234375 5.390625 -2.734375 C 6.804688 -2.242188 8.269531 -2 9.78125 -2 C 14.15625 -2 16.34375 -3.128906 16.34375 -5.390625 C 16.34375 -5.941406 16.160156 -6.390625 15.796875 -6.734375 C 15.441406 -7.085938 14.957031 -7.375 14.34375 -7.59375 C 13.738281 -7.8125 13.039062 -7.984375 12.25 -8.109375 C 11.46875 -8.234375 10.644531 -8.351562 9.78125 -8.46875 C 8.675781 -8.625 7.578125 -8.804688 6.484375 -9.015625 C 5.398438 -9.234375 4.410156 -9.550781 3.515625 -9.96875 C 2.617188 -10.394531 1.894531 -10.960938 1.34375 -11.671875 C 0.800781 -12.378906 0.53125 -13.316406 0.53125 -14.484375 C 0.53125 -15.472656 0.78125 -16.328125 1.28125 -17.046875 C 1.78125 -17.765625 2.453125 -18.363281 3.296875 -18.84375 C 4.140625 -19.332031 5.128906 -19.6875 6.265625 -19.90625 C 7.398438 -20.132812 8.570312 -20.25 9.78125 -20.25 C 11.53125 -20.25 13.085938 -20.046875 14.453125 -19.640625 C 15.828125 -19.242188 17.066406 -18.671875 18.171875 -17.921875 L 17 -15.640625 C 15.875 -16.441406 14.726562 -17 13.5625 -17.3125 C 12.40625 -17.632812 11.144531 -17.796875 9.78125 -17.796875 C 9.175781 -17.796875 8.5 -17.738281 7.75 -17.625 C 7.007812 -17.519531 6.320312 -17.335938 5.6875 -17.078125 C 5.050781 -16.816406 4.515625 -16.476562 4.078125 -16.0625 C 3.648438 -15.644531 3.4375 -15.117188 3.4375 -14.484375 C 3.4375 -13.929688 3.613281 -13.488281 3.96875 -13.15625 C 4.332031 -12.820312 4.816406 -12.546875 5.421875 -12.328125 C 6.035156 -12.109375 6.734375 -11.929688 7.515625 -11.796875 C 8.304688 -11.671875 9.132812 -11.550781 10 -11.4375 C 11.070312 -11.28125 12.15625 -11.097656 13.25 -10.890625 C 14.351562 -10.679688 15.351562 -10.367188 16.25 -9.953125 C 17.15625 -9.546875 17.882812 -8.988281 18.4375 -8.28125 C 18.988281 -7.570312 19.265625 -6.640625 19.265625 -5.484375 Z M 19.265625 -5.484375 "/></g></g></g><g fill="#0e2349" fill-opacity="1"><g transform="translate(908.202051, 35.722298)"><g/></g></g><g fill="#0e2349" fill-opacity="1"><g transform="translate(932.72355, 35.722298)"><g><path d="M 19.75 -19.78125 C 19.75 -17.113281 18.910156 -15.128906 17.234375 -13.828125 C 15.566406 -12.523438 13.226562 -11.875 10.21875 -11.875 L 3.953125 -11.875 L 3.953125 0 L 1.046875 0 L 1.046875 -27.703125 L 10.171875 -27.703125 C 13.210938 -27.703125 15.566406 -27.039062 17.234375 -25.71875 C 18.910156 -24.394531 19.75 -22.414062 19.75 -19.78125 Z M 16.84375 -19.78125 C 16.84375 -21.695312 16.238281 -23.082031 15.03125 -23.9375 C 13.832031 -24.789062 12.226562 -25.21875 10.21875 -25.21875 L 3.953125 -25.21875 L 3.953125 -14.359375 L 10.21875 -14.359375 C 12.226562 -14.359375 13.832031 -14.785156 15.03125 -15.640625 C 16.238281 -16.492188 16.84375 -17.875 16.84375 -19.78125 Z M 16.84375 -19.78125 "/></g></g></g><g fill="#0e2349" fill-opacity="1"><g transform="translate(957.24505, 35.722298)"><g><path d="M 18.75 0 L 15.8125 0 L 15.8125 -23.078125 L 10.90625 -8.796875 L 8.828125 -8.796875 L 3.953125 -23.078125 L 3.953125 0 L 1.046875 0 L 1.046875 -27.703125 L 4.8125 -27.703125 L 9.875 -13.234375 L 14.96875 -27.703125 L 18.75 -27.703125 Z M 18.75 0 "/></g></g></g><g fill="#0e2349" fill-opacity="1"><g transform="translate(981.76655, 35.722298)"><g><path d="M 18.75 0 L 1.046875 0 L 1.046875 -27.703125 L 18.75 -27.703125 L 18.75 -25.21875 L 3.953125 -25.21875 L 3.953125 -15.3125 L 14.859375 -15.3125 L 14.859375 -12.828125 L 3.953125 -12.828125 L 3.953125 -2.484375 L 18.75 -2.484375 Z M 18.75 0 "/></g></g></g></g></g><g transform="matrix(1, 0, 0, 1, 642, 236)"><g clip-path="url(#2a03a9f64f)"><g fill="#0e2349" fill-opacity="1"><g transform="translate(0.215195, 36.617685)"><g><path d="M 16.84375 0 L 3.359375 0 L 3.359375 -4 L 7.796875 -4 L 7.796875 -24.09375 L 3.359375 -24.09375 L 3.359375 -28.109375 L 16.84375 -28.109375 L 16.84375 -24.09375 L 12.265625 -24.09375 L 12.265625 -4 L 16.84375 -4 Z M 16.84375 0 "/></g></g></g><g fill="#0e2349" fill-opacity="1"><g transform="translate(27.085927, 36.617685)"><g><path d="M 16.71875 0 L 14.6875 -6.703125 L 5.390625 -6.703125 L 3.40625 0 L -1.265625 0 L 7.5 -28.109375 L 12.625 -28.109375 L 21.390625 0 Z M 6.578125 -10.640625 L 13.515625 -10.640625 L 10.0625 -22.234375 Z M 6.578125 -10.640625 "/></g></g></g></g></g></g></g></svg>