<svg xmlns="http://www.w3.org/2000/svg" xmlns:xlink="http://www.w3.org/1999/xlink" width="1920" zoomAndPan="magnify" viewBox="0 0 1440 809.999993" height="1080" preserveAspectRatio="xMidYMid meet" version="1.0"><defs><g/><clipPath id="62eeb2c3c1"><path d="M 0.078125 0.601562 L 358 0.601562 L 358 311.398438 L 0.078125 311.398438 Z M 0.078125 0.601562 " clip-rule="nonzero"/></clipPath><clipPath id="b355b2f92e"><rect x="0" width="358" y="0" height="312"/></clipPath><clipPath id="dfa81aa02d"><path d="M 6 0.398438 L 95 0.398438 L 95 104 L 6 104 Z M 6 0.398438 " clip-rule="nonzero"/></clipPath><clipPath id="320c2d1a03"><rect x="0" width="102" y="0" height="125"/></clipPath><clipPath id="ac4ff61b18"><rect x="0" width="102" y="0" height="123"/></clipPath><clipPath id="d8b6e60d43"><path d="M 334 93 L 1267.039062 93 L 1267.039062 211 L 334 211 Z M 334 93 " clip-rule="nonzero"/></clipPath><clipPath id="1e64b8fc53"><rect x="0" width="934" y="0" height="118"/></clipPath><clipPath id="8c0a343b89"><path d="M 695 14 L 713 14 L 713 40.878906 L 695 40.878906 Z M 695 14 " clip-rule="nonzero"/></clipPath><clipPath id="570d37f5f3"><rect x="0" width="919" y="0" height="41"/></clipPath><clipPath id="ab67b76967"><rect x="0" width="51" y="0" height="41"/></clipPath><clipPath id="92d74dd528"><rect x="0" width="1268" y="0" height="312"/></clipPath></defs><g transform="matrix(1, 0, 0, 1, 76, 249)"><g clip-path="url(#92d74dd528)"><g clip-path="url(#62eeb2c3c1)"><g transform="matrix(1, 0, 0, 1, 0.000000000000014211, 0.000000000000028422)"><g clip-path="url(#b355b2f92e)"><g fill="#0e2349" fill-opacity="1"><g transform="translate(298.002457, 311.223711)"><g><path d="M -290.953125 -162.59375 C -290.953125 -152.863281 -289.164062 -143.734375 -285.59375 -135.203125 C -281.8125 -126.660156 -276.75 -119.210938 -270.40625 -112.859375 C -264.050781 -106.503906 -256.601562 -101.539062 -248.0625 -97.96875 C -239.53125 -94.195312 -230.398438 -92.3125 -220.671875 -92.3125 C -210.941406 -92.3125 -201.804688 -94.195312 -193.265625 -97.96875 C -184.734375 -101.539062 -177.289062 -106.503906 -170.9375 -112.859375 C -164.582031 -119.210938 -159.617188 -126.660156 -156.046875 -135.203125 C -152.273438 -143.734375 -150.390625 -152.863281 -150.390625 -162.59375 L -150.390625 -219.78125 C -150.390625 -230.101562 -148.40625 -239.925781 -144.4375 -249.25 C -140.457031 -258.382812 -135.09375 -266.328125 -128.34375 -273.078125 C -121.59375 -279.828125 -113.65625 -285.1875 -104.53125 -289.15625 C -95.394531 -293.125 -85.664062 -295.109375 -75.34375 -295.109375 C -64.820312 -295.109375 -54.992188 -293.125 -45.859375 -289.15625 C -36.722656 -285.1875 -28.78125 -279.828125 -22.03125 -273.078125 C -15.28125 -266.328125 -9.921875 -258.382812 -5.953125 -249.25 C -1.984375 -239.925781 0 -230.101562 0 -219.78125 L 0 -14.890625 L -85.171875 -14.890625 C -70.078125 -18.460938 -56.675781 -24.914062 -44.96875 -34.25 C -40 -38.21875 -35.132812 -42.984375 -30.375 -48.546875 C -25.613281 -53.898438 -21.34375 -60.347656 -17.5625 -67.890625 C -13.789062 -75.242188 -10.816406 -83.785156 -8.640625 -93.515625 C -6.253906 -103.035156 -5.0625 -113.851562 -5.0625 -125.96875 L -5.0625 -147.40625 C -5.0625 -157.132812 -6.945312 -166.269531 -10.71875 -174.8125 C -14.289062 -183.34375 -19.253906 -190.785156 -25.609375 -197.140625 C -31.960938 -203.492188 -39.40625 -208.554688 -47.9375 -212.328125 C -56.476562 -215.898438 -65.613281 -217.6875 -75.34375 -217.6875 C -85.070312 -217.6875 -94.203125 -215.898438 -102.734375 -212.328125 C -111.078125 -208.554688 -118.425781 -203.492188 -124.78125 -197.140625 C -131.132812 -190.785156 -136.195312 -183.34375 -139.96875 -174.8125 C -143.539062 -166.269531 -145.328125 -157.132812 -145.328125 -147.40625 L -145.328125 -90.234375 C -145.328125 -79.710938 -147.3125 -69.882812 -151.28125 -60.75 C -155.25 -51.613281 -160.609375 -43.671875 -167.359375 -36.921875 C -174.109375 -30.171875 -182.050781 -24.8125 -191.1875 -20.84375 C -200.320312 -16.875 -210.148438 -14.890625 -220.671875 -14.890625 C -230.992188 -14.890625 -240.722656 -16.875 -249.859375 -20.84375 C -258.984375 -24.8125 -266.921875 -30.171875 -273.671875 -36.921875 C -280.421875 -43.671875 -285.78125 -51.613281 -289.75 -60.75 C -293.726562 -69.882812 -295.71875 -79.710938 -295.71875 -90.234375 L -295.71875 -295.109375 L -210.546875 -295.109375 C -225.429688 -291.535156 -238.832031 -285.085938 -250.75 -275.765625 C -255.707031 -271.785156 -260.671875 -267.019531 -265.640625 -261.46875 C -270.398438 -255.90625 -274.664062 -249.453125 -278.4375 -242.109375 C -282.207031 -234.566406 -285.285156 -226.03125 -287.671875 -216.5 C -289.859375 -206.96875 -290.953125 -196.144531 -290.953125 -184.03125 Z M -290.953125 -162.59375 "/></g></g></g></g></g></g><g transform="matrix(1, 0, 0, 1, 27, 71)"><g clip-path="url(#320c2d1a03)"><g clip-path="url(#dfa81aa02d)"><g fill="#0e2349" fill-opacity="1"><g transform="translate(1.769972, 103.117985)"><g><path d="M 31.1875 -100.671875 L 31.1875 -65.0625 L 69.375 -65.0625 C 73.15625 -65.0625 76.453125 -64.132812 79.265625 -62.28125 C 82.078125 -60.425781 84.410156 -57.988281 86.265625 -54.96875 C 88.117188 -51.882812 89.523438 -48.421875 90.484375 -44.578125 C 91.367188 -40.660156 91.8125 -36.675781 91.8125 -32.625 C 91.75 -28.507812 91.269531 -24.53125 90.375 -20.6875 C 89.414062 -16.78125 88.007812 -13.316406 86.15625 -10.296875 C 84.238281 -7.203125 81.90625 -4.726562 79.15625 -2.875 C 76.34375 -1.03125 73.082031 -0.109375 69.375 -0.109375 L 6.078125 -0.109375 L 6.078125 -29.546875 C 7.304688 -24.328125 9.535156 -19.691406 12.765625 -15.640625 C 14.140625 -13.929688 15.785156 -12.253906 17.703125 -10.609375 C 19.554688 -8.953125 21.785156 -7.472656 24.390625 -6.171875 C 26.929688 -4.867188 29.882812 -3.84375 33.25 -3.09375 C 36.539062 -2.269531 40.28125 -1.859375 44.46875 -1.859375 C 47.96875 -1.921875 51.191406 -3.085938 54.140625 -5.359375 C 57.023438 -7.546875 59.5 -10.359375 61.5625 -13.796875 C 63.070312 -16.265625 64.132812 -19.144531 64.75 -22.4375 C 65.363281 -25.664062 65.640625 -28.925781 65.578125 -32.21875 C 65.503906 -35.445312 65.191406 -38.535156 64.640625 -41.484375 C 64.023438 -44.367188 63.238281 -46.703125 62.28125 -48.484375 C 61.25 -50.546875 60.082031 -52.46875 58.78125 -54.25 C 57.476562 -56.03125 56.070312 -57.609375 54.5625 -58.984375 C 53.050781 -60.285156 51.472656 -61.347656 49.828125 -62.171875 C 48.109375 -62.929688 46.320312 -63.3125 44.46875 -63.3125 L 33.359375 -63.3125 C 32.253906 -63.3125 31.328125 -63.3125 30.578125 -63.3125 C 29.816406 -63.238281 29.40625 -63.203125 29.34375 -63.203125 L 29.34375 -63.3125 L 5.140625 -63.3125 L 5.140625 -102.421875 L 92.640625 -102.421875 L 92.640625 -72.984375 C 91.410156 -78.128906 89.21875 -82.726562 86.0625 -86.78125 C 84.6875 -88.488281 83.035156 -90.203125 81.109375 -91.921875 C 79.191406 -93.566406 76.960938 -95.039062 74.421875 -96.34375 C 71.816406 -97.65625 68.867188 -98.722656 65.578125 -99.546875 C 62.210938 -100.296875 58.4375 -100.671875 54.25 -100.671875 Z M 31.1875 -100.671875 "/></g></g></g></g></g></g><g transform="matrix(1, 0, 0, 1, 163, 131)"><g clip-path="url(#ac4ff61b18)"><g fill="#0e2349" fill-opacity="1"><g transform="translate(0.470292, 101.256744)"><g><path d="M 89.203125 -98.484375 L 89.203125 -1.71875 L 93.234375 -1.71875 L 93.234375 0 L 51.40625 0 L 51.40625 -1.71875 L 55.546875 -1.71875 L 55.546875 -34.265625 L 8.46875 -34.265625 L 8.46875 -34.171875 L 5.046875 -34.171875 L 5.046875 -34.265625 L 5.75 -35.171875 L 55.546875 -100.1875 L 93.234375 -100.1875 L 93.234375 -98.484375 Z M 55.546875 -37.59375 L 55.546875 -95.65625 L 10.984375 -37.59375 Z M 55.546875 -37.59375 "/></g></g></g></g></g><g clip-path="url(#d8b6e60d43)"><g transform="matrix(1, 0, 0, 1, 334, 93)"><g clip-path="url(#1e64b8fc53)"><g fill="#0e2349" fill-opacity="1"><g transform="translate(1.022247, 97.826991)"><g><path d="M 53.28125 -95.34375 C 50.09375 -95.34375 47.101562 -94.757812 44.3125 -93.59375 C 41.507812 -92.351562 39.066406 -90.691406 36.984375 -88.609375 C 34.898438 -86.523438 33.273438 -84.085938 32.109375 -81.296875 C 30.867188 -78.492188 30.25 -75.5 30.25 -72.3125 C 30.25 -69.125 30.867188 -66.132812 32.109375 -63.34375 C 33.273438 -60.539062 34.898438 -58.097656 36.984375 -56.015625 C 39.066406 -53.929688 41.507812 -52.304688 44.3125 -51.140625 C 47.101562 -49.898438 50.09375 -49.28125 53.28125 -49.28125 L 72.03125 -49.28125 C 75.40625 -49.28125 78.625 -48.628906 81.6875 -47.328125 C 84.675781 -46.023438 87.28125 -44.269531 89.5 -42.0625 C 91.707031 -39.851562 93.460938 -37.25 94.765625 -34.25 C 96.066406 -31.257812 96.71875 -28.070312 96.71875 -24.6875 C 96.71875 -21.238281 96.066406 -18.019531 94.765625 -15.03125 C 93.460938 -12.039062 91.707031 -9.4375 89.5 -7.21875 C 87.28125 -5.007812 84.675781 -3.253906 81.6875 -1.953125 C 78.625 -0.648438 75.40625 0 72.03125 0 L 4.875 0 L 4.875 -27.90625 C 6.050781 -22.96875 8.164062 -18.578125 11.21875 -14.734375 C 12.519531 -13.109375 14.082031 -11.515625 15.90625 -9.953125 C 17.664062 -8.390625 19.78125 -6.992188 22.25 -5.765625 C 24.65625 -4.523438 27.453125 -3.546875 30.640625 -2.828125 C 33.765625 -2.046875 37.3125 -1.65625 41.28125 -1.65625 L 48.3125 -1.65625 C 51.5 -1.65625 54.488281 -2.273438 57.28125 -3.515625 C 60.082031 -4.679688 62.523438 -6.304688 64.609375 -8.390625 C 66.691406 -10.472656 68.347656 -12.914062 69.578125 -15.71875 C 70.753906 -18.507812 71.34375 -21.5 71.34375 -24.6875 C 71.34375 -27.875 70.753906 -30.867188 69.578125 -33.671875 C 68.347656 -36.398438 66.691406 -38.804688 64.609375 -40.890625 C 62.523438 -42.972656 60.082031 -44.632812 57.28125 -45.875 C 54.488281 -47.039062 51.5 -47.625 48.3125 -47.625 L 29.578125 -47.625 C 26.128906 -47.625 22.90625 -48.273438 19.90625 -49.578125 C 16.914062 -50.878906 14.316406 -52.632812 12.109375 -54.84375 C 9.890625 -57.0625 8.128906 -59.664062 6.828125 -62.65625 C 5.523438 -65.644531 4.875 -68.863281 4.875 -72.3125 C 4.875 -75.695312 5.523438 -78.882812 6.828125 -81.875 C 8.128906 -84.875 9.890625 -87.476562 12.109375 -89.6875 C 14.316406 -91.894531 16.914062 -93.648438 19.90625 -94.953125 C 22.90625 -96.253906 26.128906 -96.90625 29.578125 -96.90625 L 96.71875 -96.90625 L 96.71875 -69 C 95.539062 -73.875 93.425781 -78.265625 90.375 -82.171875 C 89.070312 -83.796875 87.507812 -85.421875 85.6875 -87.046875 C 83.863281 -88.609375 81.75 -90.007812 79.34375 -91.25 C 76.875 -92.488281 74.078125 -93.5 70.953125 -94.28125 C 67.828125 -94.988281 64.28125 -95.34375 60.3125 -95.34375 Z M 53.28125 -95.34375 "/></g></g></g><g fill="#0e2349" fill-opacity="1"><g transform="translate(102.613279, 97.826991)"><g><path d="M 41.375 -95.34375 L 41.375 -49.28125 L 43.140625 -49.28125 C 46.003906 -49.28125 48.601562 -49.929688 50.9375 -51.234375 C 53.28125 -52.472656 55.300781 -53.835938 57 -55.328125 C 59.007812 -57.085938 60.828125 -59.140625 62.453125 -61.484375 L 62.453125 -35.421875 C 60.828125 -37.703125 59.007812 -39.722656 57 -41.484375 C 55.300781 -42.972656 53.28125 -44.367188 50.9375 -45.671875 C 48.601562 -46.972656 46.003906 -47.625 43.140625 -47.625 L 41.375 -47.625 L 41.375 -1.65625 L 59.046875 -1.65625 C 62.878906 -1.65625 66.359375 -2.046875 69.484375 -2.828125 C 72.546875 -3.546875 75.28125 -4.523438 77.6875 -5.765625 C 80.09375 -6.992188 82.175781 -8.390625 83.9375 -9.953125 C 85.6875 -11.515625 87.210938 -13.109375 88.515625 -14.734375 C 91.503906 -18.578125 93.585938 -22.96875 94.765625 -27.90625 L 94.765625 0 L 4.875 0 L 4.875 -1.65625 L 8.78125 -1.65625 L 8.78125 -95.34375 L 4.875 -95.34375 L 4.875 -96.90625 L 94.765625 -96.90625 L 94.765625 -69 C 93.585938 -73.875 91.503906 -78.265625 88.515625 -82.171875 C 87.210938 -83.796875 85.6875 -85.421875 83.9375 -87.046875 C 82.175781 -88.609375 80.09375 -90.007812 77.6875 -91.25 C 75.28125 -92.488281 72.546875 -93.5 69.484375 -94.28125 C 66.359375 -94.988281 62.878906 -95.34375 59.046875 -95.34375 Z M 41.375 -95.34375 "/></g></g></g><g fill="#0e2349" fill-opacity="1"><g transform="translate(202.350115, 97.826991)"><g><path d="M 120.046875 -95.34375 L 120.046875 -1.65625 L 123.9375 -1.65625 L 123.9375 0 L 83.546875 0 L 83.546875 -1.65625 L 87.4375 -1.65625 L 87.4375 -91.15625 L 51.046875 -26.734375 L 47.71875 -26.734375 L 12.109375 -91.15625 L 12.109375 -1.65625 L 15.90625 -1.65625 L 15.90625 0 L 4.875 0 L 4.875 -1.65625 L 8.78125 -1.65625 L 8.78125 -95.34375 L 4.875 -95.34375 L 4.875 -96.90625 L 33.578125 -96.90625 L 60.21875 -48.796875 L 86.5625 -95.34375 L 83.546875 -95.34375 L 83.546875 -96.90625 L 123.9375 -96.90625 L 123.9375 -95.34375 Z M 120.046875 -95.34375 "/></g></g></g><g fill="#0e2349" fill-opacity="1"><g transform="translate(331.266303, 97.826991)"><g><path d="M 108.03125 -1.65625 L 108.03125 0 L 67.625 0 L 67.625 -1.65625 L 71.640625 -1.65625 L 61.1875 -33.375 L 22.34375 -33.375 L 11.8125 -1.65625 L 15.8125 -1.65625 L 15.8125 0 L 4.875 0 L 4.875 -1.65625 L 8.875 -1.65625 L 39.53125 -95.34375 L 35.421875 -95.34375 L 35.421875 -96.90625 L 73.09375 -96.90625 L 104.125 -1.65625 Z M 60.703125 -35.03125 L 44.59375 -84.328125 L 41.96875 -92.421875 L 22.9375 -35.03125 Z M 60.703125 -35.03125 "/></g></g></g><g fill="#0e2349" fill-opacity="1"><g transform="translate(444.275335, 97.826991)"><g><path d="M 41.375 -95.34375 L 41.375 -1.65625 L 45.375 -1.65625 L 45.375 0 L 4.875 0 L 4.875 -1.65625 L 8.78125 -1.65625 L 8.78125 -95.34375 L 4.875 -95.34375 L 4.875 -96.90625 L 45.375 -96.90625 L 45.375 -95.34375 Z M 41.375 -95.34375 "/></g></g></g><g fill="#0e2349" fill-opacity="1"><g transform="translate(494.534101, 97.826991)"><g><path d="M 96.328125 -95.34375 L 96.328125 -1.65625 L 100.234375 -1.65625 L 100.234375 0 L 63.734375 0 L 12.296875 -91.15625 L 12.296875 -1.65625 L 16.109375 -1.65625 L 16.109375 0 L 4.875 0 L 4.875 -1.65625 L 8.984375 -1.65625 L 8.984375 -95.34375 L 4.875 -95.34375 L 4.875 -96.90625 L 41.578125 -96.90625 L 93 -5.859375 L 93 -95.34375 L 88.90625 -95.34375 L 88.90625 -96.90625 L 100.234375 -96.90625 L 100.234375 -95.34375 Z M 96.328125 -95.34375 "/></g></g></g><g fill="#0e2349" fill-opacity="1"><g transform="translate(599.73597, 97.826991)"><g><path d="M 41.375 -95.34375 L 41.375 -49.28125 L 43.140625 -49.28125 C 46.003906 -49.28125 48.601562 -49.929688 50.9375 -51.234375 C 53.28125 -52.472656 55.300781 -53.835938 57 -55.328125 C 59.007812 -57.085938 60.828125 -59.140625 62.453125 -61.484375 L 62.453125 -35.421875 C 60.828125 -37.703125 59.007812 -39.722656 57 -41.484375 C 55.300781 -42.972656 53.28125 -44.367188 50.9375 -45.671875 C 48.601562 -46.972656 46.003906 -47.625 43.140625 -47.625 L 41.375 -47.625 L 41.375 -1.65625 L 59.046875 -1.65625 C 62.878906 -1.65625 66.359375 -2.046875 69.484375 -2.828125 C 72.546875 -3.546875 75.28125 -4.523438 77.6875 -5.765625 C 80.09375 -6.992188 82.175781 -8.390625 83.9375 -9.953125 C 85.6875 -11.515625 87.210938 -13.109375 88.515625 -14.734375 C 91.503906 -18.578125 93.585938 -22.96875 94.765625 -27.90625 L 94.765625 0 L 4.875 0 L 4.875 -1.65625 L 8.78125 -1.65625 L 8.78125 -95.34375 L 4.875 -95.34375 L 4.875 -96.90625 L 94.765625 -96.90625 L 94.765625 -69 C 93.585938 -73.875 91.503906 -78.265625 88.515625 -82.171875 C 87.210938 -83.796875 85.6875 -85.421875 83.9375 -87.046875 C 82.175781 -88.609375 80.09375 -90.007812 77.6875 -91.25 C 75.28125 -92.488281 72.546875 -93.5 69.484375 -94.28125 C 66.359375 -94.988281 62.878906 -95.34375 59.046875 -95.34375 Z M 41.375 -95.34375 "/></g></g></g><g fill="#0e2349" fill-opacity="1"><g transform="translate(699.4728, 97.826991)"><g/></g></g><g fill="#0e2349" fill-opacity="1"><g transform="translate(744.559321, 97.826991)"><g><path d="M 29.578125 -95.453125 L 29.578125 -61.671875 L 65.78125 -61.671875 C 69.351562 -61.671875 72.472656 -60.796875 75.140625 -59.046875 C 77.816406 -57.285156 80.03125 -54.972656 81.78125 -52.109375 C 83.539062 -49.179688 84.875 -45.898438 85.78125 -42.265625 C 86.625 -38.546875 87.046875 -34.769531 87.046875 -30.9375 C 86.984375 -27.03125 86.53125 -23.253906 85.6875 -19.609375 C 84.78125 -15.898438 83.445312 -12.617188 81.6875 -9.765625 C 79.863281 -6.835938 77.648438 -4.492188 75.046875 -2.734375 C 72.378906 -0.972656 69.289062 -0.09375 65.78125 -0.09375 L 5.765625 -0.09375 L 5.765625 -28.015625 C 6.929688 -23.066406 9.046875 -18.671875 12.109375 -14.828125 C 13.398438 -13.203125 14.957031 -11.609375 16.78125 -10.046875 C 18.539062 -8.484375 20.65625 -7.085938 23.125 -5.859375 C 25.53125 -4.617188 28.328125 -3.640625 31.515625 -2.921875 C 34.640625 -2.140625 38.1875 -1.75 42.15625 -1.75 C 45.476562 -1.820312 48.535156 -2.929688 51.328125 -5.078125 C 54.066406 -7.160156 56.410156 -9.828125 58.359375 -13.078125 C 59.796875 -15.421875 60.804688 -18.15625 61.390625 -21.28125 C 61.972656 -24.332031 62.234375 -27.421875 62.171875 -30.546875 C 62.097656 -33.609375 61.800781 -36.535156 61.28125 -39.328125 C 60.695312 -42.054688 59.953125 -44.269531 59.046875 -45.96875 C 58.066406 -47.914062 56.957031 -49.738281 55.71875 -51.4375 C 54.488281 -53.125 53.15625 -54.617188 51.71875 -55.921875 C 50.289062 -57.160156 48.796875 -58.171875 47.234375 -58.953125 C 45.609375 -59.660156 43.914062 -60.015625 42.15625 -60.015625 L 31.625 -60.015625 C 30.582031 -60.015625 29.703125 -60.015625 28.984375 -60.015625 C 28.265625 -59.953125 27.875 -59.921875 27.8125 -59.921875 L 27.8125 -60.015625 L 4.875 -60.015625 L 4.875 -97.109375 L 87.828125 -97.109375 L 87.828125 -69.1875 C 86.660156 -74.070312 84.582031 -78.429688 81.59375 -82.265625 C 80.289062 -83.898438 78.726562 -85.53125 76.90625 -87.15625 C 75.082031 -88.71875 72.96875 -90.113281 70.5625 -91.34375 C 68.09375 -92.582031 65.296875 -93.59375 62.171875 -94.375 C 58.984375 -95.09375 55.40625 -95.453125 51.4375 -95.453125 Z M 29.578125 -95.453125 "/></g></g></g><g fill="#0e2349" fill-opacity="1"><g transform="translate(837.367246, 97.826991)"><g><path d="M 86.375 -95.34375 L 86.375 -1.65625 L 90.28125 -1.65625 L 90.28125 0 L 49.765625 0 L 49.765625 -1.65625 L 53.78125 -1.65625 L 53.78125 -33.1875 L 8.203125 -33.1875 L 8.203125 -33.078125 L 4.875 -33.078125 L 4.875 -33.1875 L 5.5625 -34.0625 L 53.78125 -97.015625 L 90.28125 -97.015625 L 90.28125 -95.34375 Z M 53.78125 -36.40625 L 53.78125 -92.609375 L 10.640625 -36.40625 Z M 53.78125 -36.40625 "/></g></g></g></g></g></g><g transform="matrix(1, 0, 0, 1, 342, 217)"><g clip-path="url(#570d37f5f3)"><g fill="#0e2349" fill-opacity="1"><g transform="translate(0.424548, 33.405731)"><g><path d="M 18.015625 -18.0625 C 18.015625 -15.613281 17.253906 -13.796875 15.734375 -12.609375 C 14.210938 -11.421875 12.078125 -10.828125 9.328125 -10.828125 L 3.609375 -10.828125 L 3.609375 0 L 0.953125 0 L 0.953125 -25.296875 L 9.28125 -25.296875 C 12.0625 -25.296875 14.210938 -24.691406 15.734375 -23.484375 C 17.253906 -22.273438 18.015625 -20.46875 18.015625 -18.0625 Z M 15.375 -18.0625 C 15.375 -19.800781 14.820312 -21.0625 13.71875 -21.84375 C 12.625 -22.625 11.160156 -23.015625 9.328125 -23.015625 L 3.609375 -23.015625 L 3.609375 -13.09375 L 9.328125 -13.09375 C 11.160156 -13.09375 12.625 -13.484375 13.71875 -14.265625 C 14.820312 -15.046875 15.375 -16.3125 15.375 -18.0625 Z M 15.375 -18.0625 "/></g></g></g><g fill="#0e2349" fill-opacity="1"><g transform="translate(22.800215, 33.405731)"><g><path d="M -0.03125 -4.890625 C -0.03125 -6.023438 0.25 -6.972656 0.8125 -7.734375 C 1.382812 -8.503906 2.128906 -9.113281 3.046875 -9.5625 C 3.972656 -10.007812 5.03125 -10.332031 6.21875 -10.53125 C 7.414062 -10.726562 8.640625 -10.828125 9.890625 -10.828125 C 10.359375 -10.828125 10.785156 -10.820312 11.171875 -10.8125 C 11.554688 -10.800781 11.914062 -10.78125 12.25 -10.75 C 12.59375 -10.726562 12.9375 -10.695312 13.28125 -10.65625 C 13.632812 -10.613281 14.019531 -10.566406 14.4375 -10.515625 L 14.4375 -11.828125 C 14.4375 -12.703125 14.242188 -13.421875 13.859375 -13.984375 C 13.484375 -14.554688 13.015625 -15.003906 12.453125 -15.328125 C 11.898438 -15.660156 11.320312 -15.894531 10.71875 -16.03125 C 10.113281 -16.164062 9.597656 -16.234375 9.171875 -16.234375 C 7.828125 -16.234375 6.582031 -16.050781 5.4375 -15.6875 C 4.300781 -15.332031 3.242188 -14.851562 2.265625 -14.25 L 1.0625 -16.234375 C 2.144531 -16.898438 3.363281 -17.441406 4.71875 -17.859375 C 6.070312 -18.273438 7.554688 -18.484375 9.171875 -18.484375 C 10.148438 -18.484375 11.113281 -18.359375 12.0625 -18.109375 C 13.007812 -17.859375 13.859375 -17.46875 14.609375 -16.9375 C 15.367188 -16.414062 15.972656 -15.726562 16.421875 -14.875 C 16.878906 -14.03125 17.109375 -13.015625 17.109375 -11.828125 L 17.109375 0 L 14.4375 0 L 14.4375 -3.015625 C 13.96875 -2.441406 13.4375 -1.929688 12.84375 -1.484375 C 12.257812 -1.046875 11.644531 -0.6875 11 -0.40625 C 10.351562 -0.132812 9.707031 0.0703125 9.0625 0.21875 C 8.414062 0.375 7.804688 0.453125 7.234375 0.453125 C 4.835938 0.453125 3.023438 -0.00390625 1.796875 -0.921875 C 0.578125 -1.847656 -0.03125 -3.171875 -0.03125 -4.890625 Z M 7.234375 -1.828125 C 8.335938 -1.828125 9.332031 -1.988281 10.21875 -2.3125 C 11.101562 -2.644531 11.851562 -3.054688 12.46875 -3.546875 C 13.09375 -4.035156 13.578125 -4.554688 13.921875 -5.109375 C 14.265625 -5.671875 14.4375 -6.175781 14.4375 -6.625 L 14.4375 -8.328125 C 13.570312 -8.460938 12.738281 -8.535156 11.9375 -8.546875 C 11.144531 -8.554688 10.460938 -8.5625 9.890625 -8.5625 C 8.929688 -8.5625 8.007812 -8.492188 7.125 -8.359375 C 6.238281 -8.234375 5.460938 -8.023438 4.796875 -7.734375 C 4.140625 -7.453125 3.609375 -7.078125 3.203125 -6.609375 C 2.804688 -6.140625 2.609375 -5.566406 2.609375 -4.890625 C 2.609375 -4.117188 2.976562 -3.414062 3.71875 -2.78125 C 4.46875 -2.144531 5.640625 -1.828125 7.234375 -1.828125 Z M 7.234375 -1.828125 "/></g></g></g><g fill="#0e2349" fill-opacity="1"><g transform="translate(45.175883, 33.405731)"><g><path d="M 17.078125 -15.515625 C 16.117188 -15.992188 14.976562 -16.234375 13.65625 -16.234375 C 12.570312 -16.234375 11.601562 -16 10.75 -15.53125 C 9.894531 -15.070312 9.171875 -14.460938 8.578125 -13.703125 C 7.984375 -12.953125 7.53125 -12.085938 7.21875 -11.109375 C 6.90625 -10.140625 6.75 -9.132812 6.75 -8.09375 L 6.75 -2.265625 L 10.828125 -2.265625 L 10.828125 0 L 0 0 L 0 -2.265625 L 4.09375 -2.265625 L 4.09375 -15.796875 L 0 -15.796875 L 0 -18.0625 L 6.75 -18.0625 L 6.75 -13.53125 C 7.957031 -16.832031 10.257812 -18.484375 13.65625 -18.484375 C 14.570312 -18.484375 15.367188 -18.425781 16.046875 -18.3125 C 16.734375 -18.195312 17.363281 -17.988281 17.9375 -17.6875 Z M 17.078125 -15.515625 "/></g></g></g><g fill="#0e2349" fill-opacity="1"><g transform="translate(67.55155, 33.405731)"><g><path d="M 18.25 -5.75 C 18.039062 -3.851562 17.296875 -2.34375 16.015625 -1.21875 C 14.734375 -0.101562 13.128906 0.453125 11.203125 0.453125 C 10.140625 0.453125 9.164062 0.28125 8.28125 -0.0625 C 7.40625 -0.414062 6.65625 -0.90625 6.03125 -1.53125 C 5.414062 -2.15625 4.9375 -2.898438 4.59375 -3.765625 C 4.257812 -4.640625 4.09375 -5.59375 4.09375 -6.625 L 4.09375 -15.796875 L 0 -15.796875 L 0 -18.0625 L 4.09375 -18.0625 L 4.09375 -25.296875 L 6.75 -25.296875 L 6.75 -18.0625 L 14.4375 -18.0625 L 14.4375 -15.796875 L 6.75 -15.796875 L 6.75 -6.625 C 6.75 -5.96875 6.851562 -5.347656 7.0625 -4.765625 C 7.28125 -4.179688 7.578125 -3.671875 7.953125 -3.234375 C 8.335938 -2.796875 8.800781 -2.453125 9.34375 -2.203125 C 9.882812 -1.953125 10.503906 -1.828125 11.203125 -1.828125 C 12.515625 -1.828125 13.613281 -2.234375 14.5 -3.046875 C 15.382812 -3.867188 15.894531 -4.929688 16.03125 -6.234375 Z M 18.25 -5.75 "/></g></g></g><g fill="#0e2349" fill-opacity="1"><g transform="translate(89.927217, 33.405731)"><g><path d="M 2.65625 -8.09375 C 2.851562 -6.1875 3.550781 -4.664062 4.75 -3.53125 C 5.945312 -2.394531 7.507812 -1.828125 9.4375 -1.828125 C 10.789062 -1.828125 12 -2.101562 13.0625 -2.65625 C 14.125 -3.207031 14.914062 -3.898438 15.4375 -4.734375 L 17.3125 -3.453125 C 16.40625 -2.179688 15.320312 -1.210938 14.0625 -0.546875 C 12.8125 0.117188 11.269531 0.453125 9.4375 0.453125 C 8.039062 0.453125 6.757812 0.21875 5.59375 -0.25 C 4.4375 -0.71875 3.429688 -1.367188 2.578125 -2.203125 C 1.734375 -3.035156 1.078125 -4.023438 0.609375 -5.171875 C 0.148438 -6.328125 -0.078125 -7.609375 -0.078125 -9.015625 C -0.078125 -10.378906 0.128906 -11.640625 0.546875 -12.796875 C 0.972656 -13.953125 1.582031 -14.953125 2.375 -15.796875 C 3.164062 -16.648438 4.128906 -17.3125 5.265625 -17.78125 C 6.398438 -18.25 7.675781 -18.484375 9.09375 -18.484375 C 10.625 -18.484375 11.960938 -18.222656 13.109375 -17.703125 C 14.265625 -17.191406 15.226562 -16.476562 16 -15.5625 C 16.769531 -14.65625 17.335938 -13.566406 17.703125 -12.296875 C 18.066406 -11.035156 18.25 -9.632812 18.25 -8.09375 Z M 15.4375 -10.375 C 15.144531 -12.34375 14.429688 -13.8125 13.296875 -14.78125 C 12.160156 -15.75 10.757812 -16.234375 9.09375 -16.234375 C 8.238281 -16.234375 7.445312 -16.09375 6.71875 -15.8125 C 6 -15.539062 5.359375 -15.144531 4.796875 -14.625 C 4.242188 -14.113281 3.78125 -13.492188 3.40625 -12.765625 C 3.03125 -12.035156 2.789062 -11.238281 2.6875 -10.375 Z M 15.4375 -10.375 "/></g></g></g><g fill="#0e2349" fill-opacity="1"><g transform="translate(112.302885, 33.405731)"><g><path d="M 17.109375 0 L 14.4375 0 L 14.4375 -11.140625 C 14.4375 -12.753906 14.085938 -14.003906 13.390625 -14.890625 C 12.691406 -15.785156 11.5625 -16.234375 10 -16.234375 C 9.019531 -16.234375 8.128906 -16.007812 7.328125 -15.5625 C 6.535156 -15.113281 5.859375 -14.507812 5.296875 -13.75 C 4.742188 -12.988281 4.320312 -12.117188 4.03125 -11.140625 C 3.75 -10.171875 3.609375 -9.15625 3.609375 -8.09375 L 3.609375 0 L 0.953125 0 L 0.953125 -18.0625 L 3.609375 -18.0625 L 3.609375 -13.53125 C 4.878906 -16.832031 7.15625 -18.484375 10.4375 -18.484375 C 14.882812 -18.484375 17.109375 -16.035156 17.109375 -11.140625 Z M 17.109375 0 "/></g></g></g><g fill="#0e2349" fill-opacity="1"><g transform="translate(134.678552, 33.405731)"><g><path d="M -0.03125 -4.890625 C -0.03125 -6.023438 0.25 -6.972656 0.8125 -7.734375 C 1.382812 -8.503906 2.128906 -9.113281 3.046875 -9.5625 C 3.972656 -10.007812 5.03125 -10.332031 6.21875 -10.53125 C 7.414062 -10.726562 8.640625 -10.828125 9.890625 -10.828125 C 10.359375 -10.828125 10.785156 -10.820312 11.171875 -10.8125 C 11.554688 -10.800781 11.914062 -10.78125 12.25 -10.75 C 12.59375 -10.726562 12.9375 -10.695312 13.28125 -10.65625 C 13.632812 -10.613281 14.019531 -10.566406 14.4375 -10.515625 L 14.4375 -11.828125 C 14.4375 -12.703125 14.242188 -13.421875 13.859375 -13.984375 C 13.484375 -14.554688 13.015625 -15.003906 12.453125 -15.328125 C 11.898438 -15.660156 11.320312 -15.894531 10.71875 -16.03125 C 10.113281 -16.164062 9.597656 -16.234375 9.171875 -16.234375 C 7.828125 -16.234375 6.582031 -16.050781 5.4375 -15.6875 C 4.300781 -15.332031 3.242188 -14.851562 2.265625 -14.25 L 1.0625 -16.234375 C 2.144531 -16.898438 3.363281 -17.441406 4.71875 -17.859375 C 6.070312 -18.273438 7.554688 -18.484375 9.171875 -18.484375 C 10.148438 -18.484375 11.113281 -18.359375 12.0625 -18.109375 C 13.007812 -17.859375 13.859375 -17.46875 14.609375 -16.9375 C 15.367188 -16.414062 15.972656 -15.726562 16.421875 -14.875 C 16.878906 -14.03125 17.109375 -13.015625 17.109375 -11.828125 L 17.109375 0 L 14.4375 0 L 14.4375 -3.015625 C 13.96875 -2.441406 13.4375 -1.929688 12.84375 -1.484375 C 12.257812 -1.046875 11.644531 -0.6875 11 -0.40625 C 10.351562 -0.132812 9.707031 0.0703125 9.0625 0.21875 C 8.414062 0.375 7.804688 0.453125 7.234375 0.453125 C 4.835938 0.453125 3.023438 -0.00390625 1.796875 -0.921875 C 0.578125 -1.847656 -0.03125 -3.171875 -0.03125 -4.890625 Z M 7.234375 -1.828125 C 8.335938 -1.828125 9.332031 -1.988281 10.21875 -2.3125 C 11.101562 -2.644531 11.851562 -3.054688 12.46875 -3.546875 C 13.09375 -4.035156 13.578125 -4.554688 13.921875 -5.109375 C 14.265625 -5.671875 14.4375 -6.175781 14.4375 -6.625 L 14.4375 -8.328125 C 13.570312 -8.460938 12.738281 -8.535156 11.9375 -8.546875 C 11.144531 -8.554688 10.460938 -8.5625 9.890625 -8.5625 C 8.929688 -8.5625 8.007812 -8.492188 7.125 -8.359375 C 6.238281 -8.234375 5.460938 -8.023438 4.796875 -7.734375 C 4.140625 -7.453125 3.609375 -7.078125 3.203125 -6.609375 C 2.804688 -6.140625 2.609375 -5.566406 2.609375 -4.890625 C 2.609375 -4.117188 2.976562 -3.414062 3.71875 -2.78125 C 4.46875 -2.144531 5.640625 -1.828125 7.234375 -1.828125 Z M 7.234375 -1.828125 "/></g></g></g><g fill="#0e2349" fill-opacity="1"><g transform="translate(157.05422, 33.405731)"><g><path d="M 10.828125 -21.671875 L 7.234375 -21.671875 L 7.234375 -25.296875 L 10.828125 -25.296875 Z M 14.4375 0 L 3.609375 0 L 3.609375 -2.265625 L 7.6875 -2.265625 L 7.6875 -15.796875 L 3.609375 -15.796875 L 3.609375 -18.0625 L 10.375 -18.0625 L 10.375 -2.265625 L 14.4375 -2.265625 Z M 14.4375 0 "/></g></g></g><g fill="#0e2349" fill-opacity="1"><g transform="translate(179.429887, 33.405731)"><g><path d="M 17.078125 -15.515625 C 16.117188 -15.992188 14.976562 -16.234375 13.65625 -16.234375 C 12.570312 -16.234375 11.601562 -16 10.75 -15.53125 C 9.894531 -15.070312 9.171875 -14.460938 8.578125 -13.703125 C 7.984375 -12.953125 7.53125 -12.085938 7.21875 -11.109375 C 6.90625 -10.140625 6.75 -9.132812 6.75 -8.09375 L 6.75 -2.265625 L 10.828125 -2.265625 L 10.828125 0 L 0 0 L 0 -2.265625 L 4.09375 -2.265625 L 4.09375 -15.796875 L 0 -15.796875 L 0 -18.0625 L 6.75 -18.0625 L 6.75 -13.53125 C 7.957031 -16.832031 10.257812 -18.484375 13.65625 -18.484375 C 14.570312 -18.484375 15.367188 -18.425781 16.046875 -18.3125 C 16.734375 -18.195312 17.363281 -17.988281 17.9375 -17.6875 Z M 17.078125 -15.515625 "/></g></g></g><g fill="#0e2349" fill-opacity="1"><g transform="translate(201.805554, 33.405731)"><g><path d="M 2.65625 -8.09375 C 2.851562 -6.1875 3.550781 -4.664062 4.75 -3.53125 C 5.945312 -2.394531 7.507812 -1.828125 9.4375 -1.828125 C 10.789062 -1.828125 12 -2.101562 13.0625 -2.65625 C 14.125 -3.207031 14.914062 -3.898438 15.4375 -4.734375 L 17.3125 -3.453125 C 16.40625 -2.179688 15.320312 -1.210938 14.0625 -0.546875 C 12.8125 0.117188 11.269531 0.453125 9.4375 0.453125 C 8.039062 0.453125 6.757812 0.21875 5.59375 -0.25 C 4.4375 -0.71875 3.429688 -1.367188 2.578125 -2.203125 C 1.734375 -3.035156 1.078125 -4.023438 0.609375 -5.171875 C 0.148438 -6.328125 -0.078125 -7.609375 -0.078125 -9.015625 C -0.078125 -10.378906 0.128906 -11.640625 0.546875 -12.796875 C 0.972656 -13.953125 1.582031 -14.953125 2.375 -15.796875 C 3.164062 -16.648438 4.128906 -17.3125 5.265625 -17.78125 C 6.398438 -18.25 7.675781 -18.484375 9.09375 -18.484375 C 10.625 -18.484375 11.960938 -18.222656 13.109375 -17.703125 C 14.265625 -17.191406 15.226562 -16.476562 16 -15.5625 C 16.769531 -14.65625 17.335938 -13.566406 17.703125 -12.296875 C 18.066406 -11.035156 18.25 -9.632812 18.25 -8.09375 Z M 15.4375 -10.375 C 15.144531 -12.34375 14.429688 -13.8125 13.296875 -14.78125 C 12.160156 -15.75 10.757812 -16.234375 9.09375 -16.234375 C 8.238281 -16.234375 7.445312 -16.09375 6.71875 -15.8125 C 6 -15.539062 5.359375 -15.144531 4.796875 -14.625 C 4.242188 -14.113281 3.78125 -13.492188 3.40625 -12.765625 C 3.03125 -12.035156 2.789062 -11.238281 2.6875 -10.375 Z M 15.4375 -10.375 "/></g></g></g><g fill="#0e2349" fill-opacity="1"><g transform="translate(224.184642, 33.405731)"><g/></g></g><g fill="#0e2349" fill-opacity="1"><g transform="translate(246.56031, 33.405731)"><g/></g></g><g fill="#0e2349" fill-opacity="1"><g transform="translate(268.935977, 33.405731)"><g/></g></g><g fill="#0e2349" fill-opacity="1"><g transform="translate(291.311644, 33.405731)"><g/></g></g><g fill="#0e2349" fill-opacity="1"><g transform="translate(313.687309, 33.405731)"><g><path d="M -0.03125 -4.890625 C -0.03125 -6.023438 0.25 -6.972656 0.8125 -7.734375 C 1.382812 -8.503906 2.128906 -9.113281 3.046875 -9.5625 C 3.972656 -10.007812 5.03125 -10.332031 6.21875 -10.53125 C 7.414062 -10.726562 8.640625 -10.828125 9.890625 -10.828125 C 10.359375 -10.828125 10.785156 -10.820312 11.171875 -10.8125 C 11.554688 -10.800781 11.914062 -10.78125 12.25 -10.75 C 12.59375 -10.726562 12.9375 -10.695312 13.28125 -10.65625 C 13.632812 -10.613281 14.019531 -10.566406 14.4375 -10.515625 L 14.4375 -11.828125 C 14.4375 -12.703125 14.242188 -13.421875 13.859375 -13.984375 C 13.484375 -14.554688 13.015625 -15.003906 12.453125 -15.328125 C 11.898438 -15.660156 11.320312 -15.894531 10.71875 -16.03125 C 10.113281 -16.164062 9.597656 -16.234375 9.171875 -16.234375 C 7.828125 -16.234375 6.582031 -16.050781 5.4375 -15.6875 C 4.300781 -15.332031 3.242188 -14.851562 2.265625 -14.25 L 1.0625 -16.234375 C 2.144531 -16.898438 3.363281 -17.441406 4.71875 -17.859375 C 6.070312 -18.273438 7.554688 -18.484375 9.171875 -18.484375 C 10.148438 -18.484375 11.113281 -18.359375 12.0625 -18.109375 C 13.007812 -17.859375 13.859375 -17.46875 14.609375 -16.9375 C 15.367188 -16.414062 15.972656 -15.726562 16.421875 -14.875 C 16.878906 -14.03125 17.109375 -13.015625 17.109375 -11.828125 L 17.109375 0 L 14.4375 0 L 14.4375 -3.015625 C 13.96875 -2.441406 13.4375 -1.929688 12.84375 -1.484375 C 12.257812 -1.046875 11.644531 -0.6875 11 -0.40625 C 10.351562 -0.132812 9.707031 0.0703125 9.0625 0.21875 C 8.414062 0.375 7.804688 0.453125 7.234375 0.453125 C 4.835938 0.453125 3.023438 -0.00390625 1.796875 -0.921875 C 0.578125 -1.847656 -0.03125 -3.171875 -0.03125 -4.890625 Z M 7.234375 -1.828125 C 8.335938 -1.828125 9.332031 -1.988281 10.21875 -2.3125 C 11.101562 -2.644531 11.851562 -3.054688 12.46875 -3.546875 C 13.09375 -4.035156 13.578125 -4.554688 13.921875 -5.109375 C 14.265625 -5.671875 14.4375 -6.175781 14.4375 -6.625 L 14.4375 -8.328125 C 13.570312 -8.460938 12.738281 -8.535156 11.9375 -8.546875 C 11.144531 -8.554688 10.460938 -8.5625 9.890625 -8.5625 C 8.929688 -8.5625 8.007812 -8.492188 7.125 -8.359375 C 6.238281 -8.234375 5.460938 -8.023438 4.796875 -7.734375 C 4.140625 -7.453125 3.609375 -7.078125 3.203125 -6.609375 C 2.804688 -6.140625 2.609375 -5.566406 2.609375 -4.890625 C 2.609375 -4.117188 2.976562 -3.414062 3.71875 -2.78125 C 4.46875 -2.144531 5.640625 -1.828125 7.234375 -1.828125 Z M 7.234375 -1.828125 "/></g></g></g><g fill="#0e2349" fill-opacity="1"><g transform="translate(336.062976, 33.405731)"><g><path d="M 0.953125 -18.0625 L 3.609375 -18.0625 L 3.609375 -6.90625 C 3.609375 -5.28125 3.957031 -4.023438 4.65625 -3.140625 C 5.363281 -2.265625 6.5 -1.828125 8.0625 -1.828125 C 9.039062 -1.828125 9.925781 -2.050781 10.71875 -2.5 C 11.507812 -2.945312 12.179688 -3.550781 12.734375 -4.3125 C 13.285156 -5.070312 13.707031 -5.9375 14 -6.90625 C 14.289062 -7.882812 14.4375 -8.898438 14.4375 -9.953125 L 14.4375 -18.0625 L 17.109375 -18.0625 L 17.109375 0 L 14.4375 0 L 14.4375 -4.515625 C 13.164062 -1.203125 10.890625 0.453125 7.609375 0.453125 C 3.171875 0.453125 0.953125 -2 0.953125 -6.90625 Z M 0.953125 -18.0625 "/></g></g></g><g fill="#0e2349" fill-opacity="1"><g transform="translate(358.438644, 33.405731)"><g/></g></g><g fill="#0e2349" fill-opacity="1"><g transform="translate(380.814311, 33.405731)"><g><path d="M 17.578125 -5 C 17.578125 -3.9375 17.3125 -3.054688 16.78125 -2.359375 C 16.25 -1.660156 15.566406 -1.101562 14.734375 -0.6875 C 13.898438 -0.28125 12.96875 0.0078125 11.9375 0.1875 C 10.914062 0.363281 9.914062 0.453125 8.9375 0.453125 C 7.289062 0.453125 5.65625 0.210938 4.03125 -0.265625 C 2.40625 -0.742188 1 -1.375 -0.1875 -2.15625 L 0.984375 -4.4375 C 2.316406 -3.59375 3.628906 -2.945312 4.921875 -2.5 C 6.210938 -2.050781 7.550781 -1.828125 8.9375 -1.828125 C 12.925781 -1.828125 14.921875 -2.859375 14.921875 -4.921875 C 14.921875 -5.421875 14.753906 -5.828125 14.421875 -6.140625 C 14.097656 -6.460938 13.65625 -6.722656 13.09375 -6.921875 C 12.539062 -7.128906 11.90625 -7.289062 11.1875 -7.40625 C 10.46875 -7.519531 9.71875 -7.628906 8.9375 -7.734375 C 7.925781 -7.867188 6.921875 -8.035156 5.921875 -8.234375 C 4.929688 -8.429688 4.023438 -8.722656 3.203125 -9.109375 C 2.390625 -9.492188 1.734375 -10.007812 1.234375 -10.65625 C 0.734375 -11.300781 0.484375 -12.15625 0.484375 -13.21875 C 0.484375 -14.125 0.710938 -14.90625 1.171875 -15.5625 C 1.628906 -16.21875 2.242188 -16.765625 3.015625 -17.203125 C 3.785156 -17.640625 4.6875 -17.960938 5.71875 -18.171875 C 6.75 -18.378906 7.820312 -18.484375 8.9375 -18.484375 C 10.519531 -18.484375 11.9375 -18.296875 13.1875 -17.921875 C 14.445312 -17.554688 15.582031 -17.035156 16.59375 -16.359375 L 15.515625 -14.28125 C 14.484375 -15.007812 13.4375 -15.515625 12.375 -15.796875 C 11.320312 -16.085938 10.175781 -16.234375 8.9375 -16.234375 C 8.375 -16.234375 7.753906 -16.1875 7.078125 -16.09375 C 6.398438 -16 5.769531 -15.832031 5.1875 -15.59375 C 4.613281 -15.351562 4.128906 -15.039062 3.734375 -14.65625 C 3.335938 -14.28125 3.140625 -13.800781 3.140625 -13.21875 C 3.140625 -12.707031 3.300781 -12.300781 3.625 -12 C 3.957031 -11.695312 4.398438 -11.445312 4.953125 -11.25 C 5.515625 -11.050781 6.148438 -10.890625 6.859375 -10.765625 C 7.578125 -10.648438 8.332031 -10.539062 9.125 -10.4375 C 10.101562 -10.300781 11.09375 -10.132812 12.09375 -9.9375 C 13.101562 -9.75 14.015625 -9.46875 14.828125 -9.09375 C 15.648438 -8.71875 16.3125 -8.207031 16.8125 -7.5625 C 17.320312 -6.914062 17.578125 -6.0625 17.578125 -5 Z M 17.578125 -5 "/></g></g></g><g fill="#0e2349" fill-opacity="1"><g transform="translate(403.189979, 33.405731)"><g><path d="M 2.65625 -8.09375 C 2.851562 -6.1875 3.550781 -4.664062 4.75 -3.53125 C 5.945312 -2.394531 7.507812 -1.828125 9.4375 -1.828125 C 10.789062 -1.828125 12 -2.101562 13.0625 -2.65625 C 14.125 -3.207031 14.914062 -3.898438 15.4375 -4.734375 L 17.3125 -3.453125 C 16.40625 -2.179688 15.320312 -1.210938 14.0625 -0.546875 C 12.8125 0.117188 11.269531 0.453125 9.4375 0.453125 C 8.039062 0.453125 6.757812 0.21875 5.59375 -0.25 C 4.4375 -0.71875 3.429688 -1.367188 2.578125 -2.203125 C 1.734375 -3.035156 1.078125 -4.023438 0.609375 -5.171875 C 0.148438 -6.328125 -0.078125 -7.609375 -0.078125 -9.015625 C -0.078125 -10.378906 0.128906 -11.640625 0.546875 -12.796875 C 0.972656 -13.953125 1.582031 -14.953125 2.375 -15.796875 C 3.164062 -16.648438 4.128906 -17.3125 5.265625 -17.78125 C 6.398438 -18.25 7.675781 -18.484375 9.09375 -18.484375 C 10.625 -18.484375 11.960938 -18.222656 13.109375 -17.703125 C 14.265625 -17.191406 15.226562 -16.476562 16 -15.5625 C 16.769531 -14.65625 17.335938 -13.566406 17.703125 -12.296875 C 18.066406 -11.035156 18.25 -9.632812 18.25 -8.09375 Z M 15.4375 -10.375 C 15.144531 -12.34375 14.429688 -13.8125 13.296875 -14.78125 C 12.160156 -15.75 10.757812 -16.234375 9.09375 -16.234375 C 8.238281 -16.234375 7.445312 -16.09375 6.71875 -15.8125 C 6 -15.539062 5.359375 -15.144531 4.796875 -14.625 C 4.242188 -14.113281 3.78125 -13.492188 3.40625 -12.765625 C 3.03125 -12.035156 2.789062 -11.238281 2.6875 -10.375 Z M 15.4375 -10.375 "/></g></g></g><g fill="#0e2349" fill-opacity="1"><g transform="translate(425.565646, 33.405731)"><g><path d="M 17.078125 -15.515625 C 16.117188 -15.992188 14.976562 -16.234375 13.65625 -16.234375 C 12.570312 -16.234375 11.601562 -16 10.75 -15.53125 C 9.894531 -15.070312 9.171875 -14.460938 8.578125 -13.703125 C 7.984375 -12.953125 7.53125 -12.085938 7.21875 -11.109375 C 6.90625 -10.140625 6.75 -9.132812 6.75 -8.09375 L 6.75 -2.265625 L 10.828125 -2.265625 L 10.828125 0 L 0 0 L 0 -2.265625 L 4.09375 -2.265625 L 4.09375 -15.796875 L 0 -15.796875 L 0 -18.0625 L 6.75 -18.0625 L 6.75 -13.53125 C 7.957031 -16.832031 10.257812 -18.484375 13.65625 -18.484375 C 14.570312 -18.484375 15.367188 -18.425781 16.046875 -18.3125 C 16.734375 -18.195312 17.363281 -17.988281 17.9375 -17.6875 Z M 17.078125 -15.515625 "/></g></g></g><g fill="#0e2349" fill-opacity="1"><g transform="translate(447.941313, 33.405731)"><g><path d="M 18.65625 -18.0625 L 10.828125 0 L 7.265625 0 L -0.59375 -18.0625 L 2.578125 -18.0625 L 9.046875 -2.234375 L 15.484375 -18.0625 Z M 18.65625 -18.0625 "/></g></g></g><g fill="#0e2349" fill-opacity="1"><g transform="translate(470.316981, 33.405731)"><g><path d="M 10.828125 -21.671875 L 7.234375 -21.671875 L 7.234375 -25.296875 L 10.828125 -25.296875 Z M 14.4375 0 L 3.609375 0 L 3.609375 -2.265625 L 7.6875 -2.265625 L 7.6875 -15.796875 L 3.609375 -15.796875 L 3.609375 -18.0625 L 10.375 -18.0625 L 10.375 -2.265625 L 14.4375 -2.265625 Z M 14.4375 0 "/></g></g></g><g fill="#0e2349" fill-opacity="1"><g transform="translate(492.692648, 33.405731)"><g><path d="M 17.375 -3.453125 C 16.613281 -2.265625 15.570312 -1.316406 14.25 -0.609375 C 12.925781 0.0976562 11.351562 0.453125 9.53125 0.453125 C 8.125 0.453125 6.832031 0.21875 5.65625 -0.25 C 4.476562 -0.71875 3.472656 -1.367188 2.640625 -2.203125 C 1.804688 -3.035156 1.15625 -4.023438 0.6875 -5.171875 C 0.226562 -6.328125 0 -7.609375 0 -9.015625 C 0 -10.378906 0.210938 -11.644531 0.640625 -12.8125 C 1.066406 -13.988281 1.671875 -14.992188 2.453125 -15.828125 C 3.242188 -16.660156 4.210938 -17.3125 5.359375 -17.78125 C 6.503906 -18.25 7.773438 -18.484375 9.171875 -18.484375 C 9.722656 -18.484375 10.289062 -18.414062 10.875 -18.28125 C 11.457031 -18.15625 12.003906 -17.960938 12.515625 -17.703125 C 13.035156 -17.441406 13.5 -17.125 13.90625 -16.75 C 14.320312 -16.382812 14.632812 -15.945312 14.84375 -15.4375 L 14.84375 -18.0625 L 17.234375 -18.0625 L 17.234375 -10.828125 L 14.84375 -10.828125 C 14.84375 -11.628906 14.695312 -12.359375 14.40625 -13.015625 C 14.113281 -13.679688 13.710938 -14.25 13.203125 -14.71875 C 12.703125 -15.195312 12.101562 -15.566406 11.40625 -15.828125 C 10.71875 -16.097656 9.972656 -16.234375 9.171875 -16.234375 C 8.078125 -16.234375 7.125 -16.046875 6.3125 -15.671875 C 5.507812 -15.296875 4.835938 -14.785156 4.296875 -14.140625 C 3.753906 -13.492188 3.34375 -12.734375 3.0625 -11.859375 C 2.789062 -10.992188 2.65625 -10.046875 2.65625 -9.015625 C 2.65625 -7.972656 2.8125 -7.015625 3.125 -6.140625 C 3.445312 -5.273438 3.90625 -4.523438 4.5 -3.890625 C 5.101562 -3.265625 5.828125 -2.765625 6.671875 -2.390625 C 7.515625 -2.015625 8.46875 -1.828125 9.53125 -1.828125 C 10.875 -1.828125 12.066406 -2.085938 13.109375 -2.609375 C 14.160156 -3.140625 14.960938 -3.847656 15.515625 -4.734375 Z M 17.375 -3.453125 "/></g></g></g><g fill="#0e2349" fill-opacity="1"><g transform="translate(515.068315, 33.405731)"><g><path d="M 2.65625 -8.09375 C 2.851562 -6.1875 3.550781 -4.664062 4.75 -3.53125 C 5.945312 -2.394531 7.507812 -1.828125 9.4375 -1.828125 C 10.789062 -1.828125 12 -2.101562 13.0625 -2.65625 C 14.125 -3.207031 14.914062 -3.898438 15.4375 -4.734375 L 17.3125 -3.453125 C 16.40625 -2.179688 15.320312 -1.210938 14.0625 -0.546875 C 12.8125 0.117188 11.269531 0.453125 9.4375 0.453125 C 8.039062 0.453125 6.757812 0.21875 5.59375 -0.25 C 4.4375 -0.71875 3.429688 -1.367188 2.578125 -2.203125 C 1.734375 -3.035156 1.078125 -4.023438 0.609375 -5.171875 C 0.148438 -6.328125 -0.078125 -7.609375 -0.078125 -9.015625 C -0.078125 -10.378906 0.128906 -11.640625 0.546875 -12.796875 C 0.972656 -13.953125 1.582031 -14.953125 2.375 -15.796875 C 3.164062 -16.648438 4.128906 -17.3125 5.265625 -17.78125 C 6.398438 -18.25 7.675781 -18.484375 9.09375 -18.484375 C 10.625 -18.484375 11.960938 -18.222656 13.109375 -17.703125 C 14.265625 -17.191406 15.226562 -16.476562 16 -15.5625 C 16.769531 -14.65625 17.335938 -13.566406 17.703125 -12.296875 C 18.066406 -11.035156 18.25 -9.632812 18.25 -8.09375 Z M 15.4375 -10.375 C 15.144531 -12.34375 14.429688 -13.8125 13.296875 -14.78125 C 12.160156 -15.75 10.757812 -16.234375 9.09375 -16.234375 C 8.238281 -16.234375 7.445312 -16.09375 6.71875 -15.8125 C 6 -15.539062 5.359375 -15.144531 4.796875 -14.625 C 4.242188 -14.113281 3.78125 -13.492188 3.40625 -12.765625 C 3.03125 -12.035156 2.789062 -11.238281 2.6875 -10.375 Z M 15.4375 -10.375 "/></g></g></g><g fill="#0e2349" fill-opacity="1"><g transform="translate(537.443983, 33.405731)"><g/></g></g><g fill="#0e2349" fill-opacity="1"><g transform="translate(559.81965, 33.405731)"><g><path d="M 17.109375 0 L 14.4375 0 L 14.4375 -1.671875 C 13.675781 -0.984375 12.835938 -0.457031 11.921875 -0.09375 C 11.015625 0.269531 10.082031 0.453125 9.125 0.453125 C 7.6875 0.453125 6.398438 0.21875 5.265625 -0.25 C 4.128906 -0.71875 3.171875 -1.367188 2.390625 -2.203125 C 1.609375 -3.035156 1.007812 -4.03125 0.59375 -5.1875 C 0.175781 -6.351562 -0.03125 -7.628906 -0.03125 -9.015625 C -0.03125 -10.378906 0.175781 -11.644531 0.59375 -12.8125 C 1.007812 -13.988281 1.609375 -14.992188 2.390625 -15.828125 C 3.171875 -16.660156 4.128906 -17.3125 5.265625 -17.78125 C 6.398438 -18.25 7.6875 -18.484375 9.125 -18.484375 C 10.082031 -18.484375 11.015625 -18.3125 11.921875 -17.96875 C 12.835938 -17.625 13.675781 -17.113281 14.4375 -16.4375 L 14.4375 -23.015625 L 10.828125 -23.015625 L 10.828125 -25.296875 L 17.109375 -25.296875 Z M 14.4375 -13.859375 C 13.675781 -14.691406 12.84375 -15.296875 11.9375 -15.671875 C 11.039062 -16.046875 10.09375 -16.234375 9.09375 -16.234375 C 8.03125 -16.234375 7.09375 -16.046875 6.28125 -15.671875 C 5.476562 -15.296875 4.804688 -14.785156 4.265625 -14.140625 C 3.722656 -13.492188 3.3125 -12.734375 3.03125 -11.859375 C 2.75 -10.992188 2.609375 -10.046875 2.609375 -9.015625 C 2.609375 -7.972656 2.75 -7.015625 3.03125 -6.140625 C 3.3125 -5.273438 3.722656 -4.519531 4.265625 -3.875 C 4.804688 -3.226562 5.476562 -2.71875 6.28125 -2.34375 C 7.09375 -1.96875 8.03125 -1.78125 9.09375 -1.78125 C 11.132812 -1.78125 12.914062 -2.585938 14.4375 -4.203125 Z M 14.4375 -13.859375 "/></g></g></g><g fill="#0e2349" fill-opacity="1"><g transform="translate(582.195317, 33.405731)"><g><path d="M 0.953125 -18.0625 L 3.609375 -18.0625 L 3.609375 -6.90625 C 3.609375 -5.28125 3.957031 -4.023438 4.65625 -3.140625 C 5.363281 -2.265625 6.5 -1.828125 8.0625 -1.828125 C 9.039062 -1.828125 9.925781 -2.050781 10.71875 -2.5 C 11.507812 -2.945312 12.179688 -3.550781 12.734375 -4.3125 C 13.285156 -5.070312 13.707031 -5.9375 14 -6.90625 C 14.289062 -7.882812 14.4375 -8.898438 14.4375 -9.953125 L 14.4375 -18.0625 L 17.109375 -18.0625 L 17.109375 0 L 14.4375 0 L 14.4375 -4.515625 C 13.164062 -1.203125 10.890625 0.453125 7.609375 0.453125 C 3.171875 0.453125 0.953125 -2 0.953125 -6.90625 Z M 0.953125 -18.0625 "/></g></g></g><g fill="#0e2349" fill-opacity="1"><g transform="translate(604.570985, 33.405731)"><g/></g></g><g fill="#0e2349" fill-opacity="1"><g transform="translate(626.946652, 33.405731)"><g><path d="M 18.25 -5.75 C 18.039062 -3.851562 17.296875 -2.34375 16.015625 -1.21875 C 14.734375 -0.101562 13.128906 0.453125 11.203125 0.453125 C 10.140625 0.453125 9.164062 0.28125 8.28125 -0.0625 C 7.40625 -0.414062 6.65625 -0.90625 6.03125 -1.53125 C 5.414062 -2.15625 4.9375 -2.898438 4.59375 -3.765625 C 4.257812 -4.640625 4.09375 -5.59375 4.09375 -6.625 L 4.09375 -15.796875 L 0 -15.796875 L 0 -18.0625 L 4.09375 -18.0625 L 4.09375 -25.296875 L 6.75 -25.296875 L 6.75 -18.0625 L 14.4375 -18.0625 L 14.4375 -15.796875 L 6.75 -15.796875 L 6.75 -6.625 C 6.75 -5.96875 6.851562 -5.347656 7.0625 -4.765625 C 7.28125 -4.179688 7.578125 -3.671875 7.953125 -3.234375 C 8.335938 -2.796875 8.800781 -2.453125 9.34375 -2.203125 C 9.882812 -1.953125 10.503906 -1.828125 11.203125 -1.828125 C 12.515625 -1.828125 13.613281 -2.234375 14.5 -3.046875 C 15.382812 -3.867188 15.894531 -4.929688 16.03125 -6.234375 Z M 18.25 -5.75 "/></g></g></g><g fill="#0e2349" fill-opacity="1"><g transform="translate(649.32232, 33.405731)"><g><path d="M 2.65625 -8.09375 C 2.851562 -6.1875 3.550781 -4.664062 4.75 -3.53125 C 5.945312 -2.394531 7.507812 -1.828125 9.4375 -1.828125 C 10.789062 -1.828125 12 -2.101562 13.0625 -2.65625 C 14.125 -3.207031 14.914062 -3.898438 15.4375 -4.734375 L 17.3125 -3.453125 C 16.40625 -2.179688 15.320312 -1.210938 14.0625 -0.546875 C 12.8125 0.117188 11.269531 0.453125 9.4375 0.453125 C 8.039062 0.453125 6.757812 0.21875 5.59375 -0.25 C 4.4375 -0.71875 3.429688 -1.367188 2.578125 -2.203125 C 1.734375 -3.035156 1.078125 -4.023438 0.609375 -5.171875 C 0.148438 -6.328125 -0.078125 -7.609375 -0.078125 -9.015625 C -0.078125 -10.378906 0.128906 -11.640625 0.546875 -12.796875 C 0.972656 -13.953125 1.582031 -14.953125 2.375 -15.796875 C 3.164062 -16.648438 4.128906 -17.3125 5.265625 -17.78125 C 6.398438 -18.25 7.675781 -18.484375 9.09375 -18.484375 C 10.625 -18.484375 11.960938 -18.222656 13.109375 -17.703125 C 14.265625 -17.191406 15.226562 -16.476562 16 -15.5625 C 16.769531 -14.65625 17.335938 -13.566406 17.703125 -12.296875 C 18.066406 -11.035156 18.25 -9.632812 18.25 -8.09375 Z M 15.4375 -10.375 C 15.144531 -12.34375 14.429688 -13.8125 13.296875 -14.78125 C 12.160156 -15.75 10.757812 -16.234375 9.09375 -16.234375 C 8.238281 -16.234375 7.445312 -16.09375 6.71875 -15.8125 C 6 -15.539062 5.359375 -15.144531 4.796875 -14.625 C 4.242188 -14.113281 3.78125 -13.492188 3.40625 -12.765625 C 3.03125 -12.035156 2.789062 -11.238281 2.6875 -10.375 Z M 15.4375 -10.375 "/></g></g></g><g fill="#0e2349" fill-opacity="1"><g transform="translate(671.697987, 33.405731)"><g><path d="M 18.0625 0 L 15.40625 0 L 15.40625 -12.984375 C 15.40625 -14.015625 15.222656 -14.8125 14.859375 -15.375 C 14.503906 -15.945312 13.984375 -16.234375 13.296875 -16.234375 C 12.285156 -16.234375 11.546875 -15.703125 11.078125 -14.640625 C 10.609375 -13.585938 10.375 -12.101562 10.375 -10.1875 L 10.375 0 L 7.6875 0 L 7.6875 -12.984375 C 7.6875 -14.015625 7.503906 -14.8125 7.140625 -15.375 C 6.773438 -15.945312 6.25 -16.234375 5.5625 -16.234375 C 4.925781 -16.234375 4.421875 -16.046875 4.046875 -15.671875 C 3.671875 -15.296875 3.375 -14.816406 3.15625 -14.234375 C 2.945312 -13.660156 2.8125 -13.015625 2.75 -12.296875 C 2.6875 -11.585938 2.65625 -10.882812 2.65625 -10.1875 L 2.65625 0 L 0 0 L 0 -18.0625 L 2.65625 -18.0625 L 2.65625 -15.4375 C 3.207031 -17.46875 4.414062 -18.484375 6.28125 -18.484375 C 8.050781 -18.484375 9.253906 -17.597656 9.890625 -15.828125 C 10.765625 -17.597656 12.003906 -18.484375 13.609375 -18.484375 C 15.140625 -18.484375 16.265625 -18.023438 16.984375 -17.109375 C 17.703125 -16.203125 18.0625 -14.828125 18.0625 -12.984375 Z M 18.0625 0 "/></g></g></g><g clip-path="url(#8c0a343b89)"><g fill="#0e2349" fill-opacity="1"><g transform="translate(694.073654, 33.405731)"><g><path d="M 18.0625 -9.015625 C 18.0625 -7.609375 17.84375 -6.328125 17.40625 -5.171875 C 16.96875 -4.023438 16.347656 -3.035156 15.546875 -2.203125 C 14.753906 -1.367188 13.796875 -0.71875 12.671875 -0.25 C 11.546875 0.21875 10.285156 0.453125 8.890625 0.453125 C 7.929688 0.453125 7.003906 0.28125 6.109375 -0.0625 C 5.210938 -0.414062 4.378906 -0.9375 3.609375 -1.625 L 3.609375 7.234375 L 0.953125 7.234375 L 0.953125 -18.0625 L 3.609375 -18.0625 L 3.609375 -16.390625 C 5.242188 -17.785156 7.003906 -18.484375 8.890625 -18.484375 C 10.285156 -18.484375 11.546875 -18.253906 12.671875 -17.796875 C 13.796875 -17.335938 14.753906 -16.6875 15.546875 -15.84375 C 16.347656 -15 16.96875 -13.988281 17.40625 -12.8125 C 17.84375 -11.644531 18.0625 -10.378906 18.0625 -9.015625 Z M 15.40625 -9.015625 C 15.40625 -10.015625 15.265625 -10.957031 14.984375 -11.84375 C 14.710938 -12.726562 14.296875 -13.492188 13.734375 -14.140625 C 13.179688 -14.785156 12.5 -15.296875 11.6875 -15.671875 C 10.882812 -16.046875 9.953125 -16.234375 8.890625 -16.234375 C 7.890625 -16.234375 6.953125 -16.046875 6.078125 -15.671875 C 5.203125 -15.296875 4.378906 -14.691406 3.609375 -13.859375 L 3.609375 -4.171875 C 4.378906 -3.328125 5.203125 -2.722656 6.078125 -2.359375 C 6.953125 -2.003906 7.890625 -1.828125 8.890625 -1.828125 C 9.953125 -1.828125 10.882812 -2.015625 11.6875 -2.390625 C 12.5 -2.765625 13.179688 -3.273438 13.734375 -3.921875 C 14.296875 -4.566406 14.710938 -5.320312 14.984375 -6.1875 C 15.265625 -7.0625 15.40625 -8.003906 15.40625 -9.015625 Z M 15.40625 -9.015625 "/></g></g></g></g><g fill="#0e2349" fill-opacity="1"><g transform="translate(716.449322, 33.405731)"><g><path d="M 17.578125 -5 C 17.578125 -3.9375 17.3125 -3.054688 16.78125 -2.359375 C 16.25 -1.660156 15.566406 -1.101562 14.734375 -0.6875 C 13.898438 -0.28125 12.96875 0.0078125 11.9375 0.1875 C 10.914062 0.363281 9.914062 0.453125 8.9375 0.453125 C 7.289062 0.453125 5.65625 0.210938 4.03125 -0.265625 C 2.40625 -0.742188 1 -1.375 -0.1875 -2.15625 L 0.984375 -4.4375 C 2.316406 -3.59375 3.628906 -2.945312 4.921875 -2.5 C 6.210938 -2.050781 7.550781 -1.828125 8.9375 -1.828125 C 12.925781 -1.828125 14.921875 -2.859375 14.921875 -4.921875 C 14.921875 -5.421875 14.753906 -5.828125 14.421875 -6.140625 C 14.097656 -6.460938 13.65625 -6.722656 13.09375 -6.921875 C 12.539062 -7.128906 11.90625 -7.289062 11.1875 -7.40625 C 10.46875 -7.519531 9.71875 -7.628906 8.9375 -7.734375 C 7.925781 -7.867188 6.921875 -8.035156 5.921875 -8.234375 C 4.929688 -8.429688 4.023438 -8.722656 3.203125 -9.109375 C 2.390625 -9.492188 1.734375 -10.007812 1.234375 -10.65625 C 0.734375 -11.300781 0.484375 -12.15625 0.484375 -13.21875 C 0.484375 -14.125 0.710938 -14.90625 1.171875 -15.5625 C 1.628906 -16.21875 2.242188 -16.765625 3.015625 -17.203125 C 3.785156 -17.640625 4.6875 -17.960938 5.71875 -18.171875 C 6.75 -18.378906 7.820312 -18.484375 8.9375 -18.484375 C 10.519531 -18.484375 11.9375 -18.296875 13.1875 -17.921875 C 14.445312 -17.554688 15.582031 -17.035156 16.59375 -16.359375 L 15.515625 -14.28125 C 14.484375 -15.007812 13.4375 -15.515625 12.375 -15.796875 C 11.320312 -16.085938 10.175781 -16.234375 8.9375 -16.234375 C 8.375 -16.234375 7.753906 -16.1875 7.078125 -16.09375 C 6.398438 -16 5.769531 -15.832031 5.1875 -15.59375 C 4.613281 -15.351562 4.128906 -15.039062 3.734375 -14.65625 C 3.335938 -14.28125 3.140625 -13.800781 3.140625 -13.21875 C 3.140625 -12.707031 3.300781 -12.300781 3.625 -12 C 3.957031 -11.695312 4.398438 -11.445312 4.953125 -11.25 C 5.515625 -11.050781 6.148438 -10.890625 6.859375 -10.765625 C 7.578125 -10.648438 8.332031 -10.539062 9.125 -10.4375 C 10.101562 -10.300781 11.09375 -10.132812 12.09375 -9.9375 C 13.101562 -9.75 14.015625 -9.46875 14.828125 -9.09375 C 15.648438 -8.71875 16.3125 -8.207031 16.8125 -7.5625 C 17.320312 -6.914062 17.578125 -6.0625 17.578125 -5 Z M 17.578125 -5 "/></g></g></g><g fill="#0e2349" fill-opacity="1"><g transform="translate(738.824989, 33.405731)"><g/></g></g><g fill="#0e2349" fill-opacity="1"><g transform="translate(761.200656, 33.405731)"><g><path d="M 17.109375 0 L 14.4375 0 L 14.4375 -1.671875 C 13.675781 -0.984375 12.835938 -0.457031 11.921875 -0.09375 C 11.015625 0.269531 10.082031 0.453125 9.125 0.453125 C 7.6875 0.453125 6.398438 0.21875 5.265625 -0.25 C 4.128906 -0.71875 3.171875 -1.367188 2.390625 -2.203125 C 1.609375 -3.035156 1.007812 -4.03125 0.59375 -5.1875 C 0.175781 -6.351562 -0.03125 -7.628906 -0.03125 -9.015625 C -0.03125 -10.378906 0.175781 -11.644531 0.59375 -12.8125 C 1.007812 -13.988281 1.609375 -14.992188 2.390625 -15.828125 C 3.171875 -16.660156 4.128906 -17.3125 5.265625 -17.78125 C 6.398438 -18.25 7.6875 -18.484375 9.125 -18.484375 C 10.082031 -18.484375 11.015625 -18.3125 11.921875 -17.96875 C 12.835938 -17.625 13.675781 -17.113281 14.4375 -16.4375 L 14.4375 -23.015625 L 10.828125 -23.015625 L 10.828125 -25.296875 L 17.109375 -25.296875 Z M 14.4375 -13.859375 C 13.675781 -14.691406 12.84375 -15.296875 11.9375 -15.671875 C 11.039062 -16.046875 10.09375 -16.234375 9.09375 -16.234375 C 8.03125 -16.234375 7.09375 -16.046875 6.28125 -15.671875 C 5.476562 -15.296875 4.804688 -14.785156 4.265625 -14.140625 C 3.722656 -13.492188 3.3125 -12.734375 3.03125 -11.859375 C 2.75 -10.992188 2.609375 -10.046875 2.609375 -9.015625 C 2.609375 -7.972656 2.75 -7.015625 3.03125 -6.140625 C 3.3125 -5.273438 3.722656 -4.519531 4.265625 -3.875 C 4.804688 -3.226562 5.476562 -2.71875 6.28125 -2.34375 C 7.09375 -1.96875 8.03125 -1.78125 9.09375 -1.78125 C 11.132812 -1.78125 12.914062 -2.585938 14.4375 -4.203125 Z M 14.4375 -13.859375 "/></g></g></g><g fill="#0e2349" fill-opacity="1"><g transform="translate(783.576324, 33.405731)"><g><path d="M 2.65625 -8.09375 C 2.851562 -6.1875 3.550781 -4.664062 4.75 -3.53125 C 5.945312 -2.394531 7.507812 -1.828125 9.4375 -1.828125 C 10.789062 -1.828125 12 -2.101562 13.0625 -2.65625 C 14.125 -3.207031 14.914062 -3.898438 15.4375 -4.734375 L 17.3125 -3.453125 C 16.40625 -2.179688 15.320312 -1.210938 14.0625 -0.546875 C 12.8125 0.117188 11.269531 0.453125 9.4375 0.453125 C 8.039062 0.453125 6.757812 0.21875 5.59375 -0.25 C 4.4375 -0.71875 3.429688 -1.367188 2.578125 -2.203125 C 1.734375 -3.035156 1.078125 -4.023438 0.609375 -5.171875 C 0.148438 -6.328125 -0.078125 -7.609375 -0.078125 -9.015625 C -0.078125 -10.378906 0.128906 -11.640625 0.546875 -12.796875 C 0.972656 -13.953125 1.582031 -14.953125 2.375 -15.796875 C 3.164062 -16.648438 4.128906 -17.3125 5.265625 -17.78125 C 6.398438 -18.25 7.675781 -18.484375 9.09375 -18.484375 C 10.625 -18.484375 11.960938 -18.222656 13.109375 -17.703125 C 14.265625 -17.191406 15.226562 -16.476562 16 -15.5625 C 16.769531 -14.65625 17.335938 -13.566406 17.703125 -12.296875 C 18.066406 -11.035156 18.25 -9.632812 18.25 -8.09375 Z M 15.4375 -10.375 C 15.144531 -12.34375 14.429688 -13.8125 13.296875 -14.78125 C 12.160156 -15.75 10.757812 -16.234375 9.09375 -16.234375 C 8.238281 -16.234375 7.445312 -16.09375 6.71875 -15.8125 C 6 -15.539062 5.359375 -15.144531 4.796875 -14.625 C 4.242188 -14.113281 3.78125 -13.492188 3.40625 -12.765625 C 3.03125 -12.035156 2.789062 -11.238281 2.6875 -10.375 Z M 15.4375 -10.375 "/></g></g></g><g fill="#0e2349" fill-opacity="1"><g transform="translate(805.951991, 33.405731)"><g><path d="M 17.578125 -5 C 17.578125 -3.9375 17.3125 -3.054688 16.78125 -2.359375 C 16.25 -1.660156 15.566406 -1.101562 14.734375 -0.6875 C 13.898438 -0.28125 12.96875 0.0078125 11.9375 0.1875 C 10.914062 0.363281 9.914062 0.453125 8.9375 0.453125 C 7.289062 0.453125 5.65625 0.210938 4.03125 -0.265625 C 2.40625 -0.742188 1 -1.375 -0.1875 -2.15625 L 0.984375 -4.4375 C 2.316406 -3.59375 3.628906 -2.945312 4.921875 -2.5 C 6.210938 -2.050781 7.550781 -1.828125 8.9375 -1.828125 C 12.925781 -1.828125 14.921875 -2.859375 14.921875 -4.921875 C 14.921875 -5.421875 14.753906 -5.828125 14.421875 -6.140625 C 14.097656 -6.460938 13.65625 -6.722656 13.09375 -6.921875 C 12.539062 -7.128906 11.90625 -7.289062 11.1875 -7.40625 C 10.46875 -7.519531 9.71875 -7.628906 8.9375 -7.734375 C 7.925781 -7.867188 6.921875 -8.035156 5.921875 -8.234375 C 4.929688 -8.429688 4.023438 -8.722656 3.203125 -9.109375 C 2.390625 -9.492188 1.734375 -10.007812 1.234375 -10.65625 C 0.734375 -11.300781 0.484375 -12.15625 0.484375 -13.21875 C 0.484375 -14.125 0.710938 -14.90625 1.171875 -15.5625 C 1.628906 -16.21875 2.242188 -16.765625 3.015625 -17.203125 C 3.785156 -17.640625 4.6875 -17.960938 5.71875 -18.171875 C 6.75 -18.378906 7.820312 -18.484375 8.9375 -18.484375 C 10.519531 -18.484375 11.9375 -18.296875 13.1875 -17.921875 C 14.445312 -17.554688 15.582031 -17.035156 16.59375 -16.359375 L 15.515625 -14.28125 C 14.484375 -15.007812 13.4375 -15.515625 12.375 -15.796875 C 11.320312 -16.085938 10.175781 -16.234375 8.9375 -16.234375 C 8.375 -16.234375 7.753906 -16.1875 7.078125 -16.09375 C 6.398438 -16 5.769531 -15.832031 5.1875 -15.59375 C 4.613281 -15.351562 4.128906 -15.039062 3.734375 -14.65625 C 3.335938 -14.28125 3.140625 -13.800781 3.140625 -13.21875 C 3.140625 -12.707031 3.300781 -12.300781 3.625 -12 C 3.957031 -11.695312 4.398438 -11.445312 4.953125 -11.25 C 5.515625 -11.050781 6.148438 -10.890625 6.859375 -10.765625 C 7.578125 -10.648438 8.332031 -10.539062 9.125 -10.4375 C 10.101562 -10.300781 11.09375 -10.132812 12.09375 -9.9375 C 13.101562 -9.75 14.015625 -9.46875 14.828125 -9.09375 C 15.648438 -8.71875 16.3125 -8.207031 16.8125 -7.5625 C 17.320312 -6.914062 17.578125 -6.0625 17.578125 -5 Z M 17.578125 -5 "/></g></g></g><g fill="#0e2349" fill-opacity="1"><g transform="translate(828.327658, 33.405731)"><g/></g></g><g fill="#0e2349" fill-opacity="1"><g transform="translate(850.703326, 33.405731)"><g><path d="M 18.015625 -18.0625 C 18.015625 -15.613281 17.253906 -13.796875 15.734375 -12.609375 C 14.210938 -11.421875 12.078125 -10.828125 9.328125 -10.828125 L 3.609375 -10.828125 L 3.609375 0 L 0.953125 0 L 0.953125 -25.296875 L 9.28125 -25.296875 C 12.0625 -25.296875 14.210938 -24.691406 15.734375 -23.484375 C 17.253906 -22.273438 18.015625 -20.46875 18.015625 -18.0625 Z M 15.375 -18.0625 C 15.375 -19.800781 14.820312 -21.0625 13.71875 -21.84375 C 12.625 -22.625 11.160156 -23.015625 9.328125 -23.015625 L 3.609375 -23.015625 L 3.609375 -13.09375 L 9.328125 -13.09375 C 11.160156 -13.09375 12.625 -13.484375 13.71875 -14.265625 C 14.820312 -15.046875 15.375 -16.3125 15.375 -18.0625 Z M 15.375 -18.0625 "/></g></g></g><g fill="#0e2349" fill-opacity="1"><g transform="translate(873.078993, 33.405731)"><g><path d="M 17.109375 0 L 14.4375 0 L 14.4375 -21.0625 L 9.953125 -8.015625 L 8.0625 -8.015625 L 3.609375 -21.0625 L 3.609375 0 L 0.953125 0 L 0.953125 -25.296875 L 4.40625 -25.296875 L 9.015625 -12.078125 L 13.65625 -25.296875 L 17.109375 -25.296875 Z M 17.109375 0 "/></g></g></g><g fill="#0e2349" fill-opacity="1"><g transform="translate(895.454661, 33.405731)"><g><path d="M 17.109375 0 L 0.953125 0 L 0.953125 -25.296875 L 17.109375 -25.296875 L 17.109375 -23.015625 L 3.609375 -23.015625 L 3.609375 -13.96875 L 13.5625 -13.96875 L 13.5625 -11.703125 L 3.609375 -11.703125 L 3.609375 -2.265625 L 17.109375 -2.265625 Z M 17.109375 0 "/></g></g></g></g></g><g transform="matrix(1, 0, 0, 1, 585, 218)"><g clip-path="url(#ab67b76967)"><g fill="#0e2349" fill-opacity="1"><g transform="translate(0.432414, 33.222771)"><g><path d="M 15.375 0 L 3.0625 0 L 3.0625 -3.65625 L 7.125 -3.65625 L 7.125 -21.984375 L 3.0625 -21.984375 L 3.0625 -25.65625 L 15.375 -25.65625 L 15.375 -21.984375 L 11.1875 -21.984375 L 11.1875 -3.65625 L 15.375 -3.65625 Z M 15.375 0 "/></g></g></g><g fill="#0e2349" fill-opacity="1"><g transform="translate(24.951737, 33.222771)"><g><path d="M 15.25 0 L 13.40625 -6.109375 L 4.921875 -6.109375 L 3.109375 0 L -1.15625 0 L 6.84375 -25.65625 L 11.515625 -25.65625 L 19.515625 0 Z M 6 -9.71875 L 12.328125 -9.71875 L 9.1875 -20.296875 Z M 6 -9.71875 "/></g></g></g></g></g></g></g></svg>