<svg xmlns="http://www.w3.org/2000/svg" xmlns:xlink="http://www.w3.org/1999/xlink" width="1900" zoomAndPan="magnify" viewBox="0 0 1425 254.999984" height="340" preserveAspectRatio="xMidYMid meet" version="1.0"><defs><g/><clipPath id="ac90c47e8d"><path d="M 0.640625 0 L 246.878906 0 L 246.878906 207.359375 L 0.640625 207.359375 Z M 0.640625 0 " clip-rule="nonzero"/></clipPath><clipPath id="2568428248"><rect x="0" width="247" y="0" height="208"/></clipPath><clipPath id="3a72e7a9f9"><rect x="0" width="71" y="0" height="86"/></clipPath><clipPath id="3c3ea58ca4"><path d="M 4 0.0390625 L 66 0.0390625 L 66 70 L 4 70 Z M 4 0.0390625 " clip-rule="nonzero"/></clipPath><clipPath id="cc20841bad"><rect x="0" width="71" y="0" height="85"/></clipPath><clipPath id="613d289aa4"><rect x="0" width="247" y="0" height="208"/></clipPath><clipPath id="00c3dfc448"><path d="M 900 0.28125 L 1001 0.28125 L 1001 118 L 900 118 Z M 900 0.28125 " clip-rule="nonzero"/></clipPath><clipPath id="4196bde0c3"><rect x="0" width="1122" y="0" height="142"/></clipPath><clipPath id="37c61d2ca8"><path d="M 0.0390625 0.160156 L 1100.917969 0.160156 L 1100.917969 49 L 0.0390625 49 Z M 0.0390625 0.160156 " clip-rule="nonzero"/></clipPath><clipPath id="ab9bea3837"><rect x="0" width="1101" y="0" height="49"/></clipPath><clipPath id="f6b662ef5c"><path d="M 291 0.160156 L 352 0.160156 L 352 49.121094 L 291 49.121094 Z M 291 0.160156 " clip-rule="nonzero"/></clipPath><clipPath id="7655ab2deb"><rect x="0" width="61" y="0" height="50"/></clipPath><clipPath id="80c1c78d17"><rect x="0" width="1101" y="0" height="50"/></clipPath></defs><g transform="matrix(1, 0, 0, 1, 26, 0.000000000000009567)"><g clip-path="url(#613d289aa4)"><g clip-path="url(#ac90c47e8d)"><g transform="matrix(1, 0, 0, 1, -0.000000000000007105, 0.000000000000009567)"><g clip-path="url(#2568428248)"><g fill="#0e2349" fill-opacity="1"><g transform="translate(205.669785, 207.083679)"><g><path d="M -200.25 -111.90625 C -200.25 -105.21875 -199.019531 -98.9375 -196.5625 -93.0625 C -193.96875 -87.175781 -190.484375 -82.050781 -186.109375 -77.6875 C -181.734375 -73.3125 -176.609375 -69.894531 -170.734375 -67.4375 C -164.859375 -64.84375 -158.570312 -63.546875 -151.875 -63.546875 C -145.1875 -63.546875 -138.90625 -64.84375 -133.03125 -67.4375 C -127.15625 -69.894531 -122.03125 -73.3125 -117.65625 -77.6875 C -113.28125 -82.050781 -109.863281 -87.175781 -107.40625 -93.0625 C -104.8125 -98.9375 -103.515625 -105.21875 -103.515625 -111.90625 L -103.515625 -151.265625 C -103.515625 -158.367188 -102.144531 -165.132812 -99.40625 -171.5625 C -96.675781 -177.84375 -92.988281 -183.304688 -88.34375 -187.953125 C -83.695312 -192.597656 -78.226562 -196.289062 -71.9375 -199.03125 C -65.65625 -201.757812 -58.960938 -203.125 -51.859375 -203.125 C -44.617188 -203.125 -37.851562 -201.757812 -31.5625 -199.03125 C -25.28125 -196.289062 -19.816406 -192.597656 -15.171875 -187.953125 C -10.523438 -183.304688 -6.832031 -177.84375 -4.09375 -171.5625 C -1.363281 -165.132812 0 -158.367188 0 -151.265625 L 0 -10.25 L -58.625 -10.25 C -48.238281 -12.707031 -39.015625 -17.148438 -30.953125 -23.578125 C -27.535156 -26.304688 -24.1875 -29.582031 -20.90625 -33.40625 C -17.625 -37.09375 -14.6875 -41.535156 -12.09375 -46.734375 C -9.5 -51.785156 -7.445312 -57.660156 -5.9375 -64.359375 C -4.300781 -70.921875 -3.484375 -78.367188 -3.484375 -86.703125 L -3.484375 -101.453125 C -3.484375 -108.148438 -4.78125 -114.4375 -7.375 -120.3125 C -9.832031 -126.1875 -13.25 -131.3125 -17.625 -135.6875 C -22 -140.0625 -27.125 -143.546875 -33 -146.140625 C -38.875 -148.597656 -45.160156 -149.828125 -51.859375 -149.828125 C -58.554688 -149.828125 -64.84375 -148.597656 -70.71875 -146.140625 C -76.457031 -143.546875 -81.507812 -140.0625 -85.875 -135.6875 C -90.25 -131.3125 -93.734375 -126.1875 -96.328125 -120.3125 C -98.796875 -114.4375 -100.03125 -108.148438 -100.03125 -101.453125 L -100.03125 -62.109375 C -100.03125 -54.859375 -101.394531 -48.09375 -104.125 -41.8125 C -106.851562 -35.53125 -110.539062 -30.066406 -115.1875 -25.421875 C -119.832031 -20.773438 -125.300781 -17.082031 -131.59375 -14.34375 C -137.875 -11.613281 -144.632812 -10.25 -151.875 -10.25 C -158.988281 -10.25 -165.6875 -11.613281 -171.96875 -14.34375 C -178.25 -17.082031 -183.710938 -20.773438 -188.359375 -25.421875 C -193.003906 -30.066406 -196.695312 -35.53125 -199.4375 -41.8125 C -202.164062 -48.09375 -203.53125 -54.859375 -203.53125 -62.109375 L -203.53125 -203.125 L -144.90625 -203.125 C -155.15625 -200.664062 -164.378906 -196.222656 -172.578125 -189.796875 C -175.992188 -187.066406 -179.410156 -183.789062 -182.828125 -179.96875 C -186.109375 -176.132812 -189.046875 -171.691406 -191.640625 -166.640625 C -194.242188 -161.441406 -196.363281 -155.566406 -198 -149.015625 C -199.5 -142.453125 -200.25 -135.003906 -200.25 -126.671875 Z M -200.25 -111.90625 "/></g></g></g></g></g></g><g transform="matrix(1, 0, 0, 1, 19, 42)"><g clip-path="url(#3a72e7a9f9)"><g fill="#0e2349" fill-opacity="1"><g transform="translate(1.368717, 70.722533)"><g><path d="M 21.46875 -69.28125 L 21.46875 -44.765625 L 47.75 -44.765625 C 50.34375 -44.765625 52.609375 -44.128906 54.546875 -42.859375 C 56.484375 -41.585938 58.085938 -39.910156 59.359375 -37.828125 C 60.640625 -35.703125 61.609375 -33.316406 62.265625 -30.671875 C 62.878906 -27.984375 63.1875 -25.242188 63.1875 -22.453125 C 63.144531 -19.617188 62.816406 -16.878906 62.203125 -14.234375 C 61.535156 -11.546875 60.566406 -9.160156 59.296875 -7.078125 C 57.972656 -4.953125 56.367188 -3.253906 54.484375 -1.984375 C 52.546875 -0.710938 50.300781 -0.078125 47.75 -0.078125 L 4.1875 -0.078125 L 4.1875 -20.328125 C 5.03125 -16.742188 6.5625 -13.554688 8.78125 -10.765625 C 9.726562 -9.585938 10.863281 -8.429688 12.1875 -7.296875 C 13.457031 -6.160156 14.992188 -5.144531 16.796875 -4.25 C 18.535156 -3.351562 20.5625 -2.644531 22.875 -2.125 C 25.144531 -1.5625 27.722656 -1.28125 30.609375 -1.28125 C 33.015625 -1.320312 35.234375 -2.125 37.265625 -3.6875 C 39.242188 -5.195312 40.941406 -7.132812 42.359375 -9.5 C 43.398438 -11.195312 44.132812 -13.175781 44.5625 -15.4375 C 44.988281 -17.664062 45.175781 -19.910156 45.125 -22.171875 C 45.082031 -24.390625 44.867188 -26.515625 44.484375 -28.546875 C 44.066406 -30.535156 43.523438 -32.144531 42.859375 -33.375 C 42.148438 -34.789062 41.347656 -36.109375 40.453125 -37.328125 C 39.554688 -38.554688 38.585938 -39.644531 37.546875 -40.59375 C 36.503906 -41.488281 35.414062 -42.222656 34.28125 -42.796875 C 33.101562 -43.304688 31.878906 -43.5625 30.609375 -43.5625 L 22.953125 -43.5625 C 22.191406 -43.5625 21.554688 -43.5625 21.046875 -43.5625 C 20.523438 -43.519531 20.238281 -43.5 20.1875 -43.5 L 20.1875 -43.5625 L 3.546875 -43.5625 L 3.546875 -70.484375 L 63.765625 -70.484375 L 63.765625 -50.234375 C 62.910156 -53.773438 61.394531 -56.9375 59.21875 -59.71875 C 58.28125 -60.90625 57.148438 -62.085938 55.828125 -63.265625 C 54.503906 -64.398438 52.96875 -65.414062 51.21875 -66.3125 C 49.425781 -67.207031 47.394531 -67.9375 45.125 -68.5 C 42.8125 -69.019531 40.210938 -69.28125 37.328125 -69.28125 Z M 21.46875 -69.28125 "/></g></g></g></g></g><g transform="matrix(1, 0, 0, 1, 112, 83)"><g clip-path="url(#cc20841bad)"><g clip-path="url(#3c3ea58ca4)"><g fill="#0e2349" fill-opacity="1"><g transform="translate(1.075765, 69.736302)"><g><path d="M 61.390625 -67.78125 L 61.390625 -1.171875 L 64.171875 -1.171875 L 64.171875 0 L 35.375 0 L 35.375 -1.171875 L 38.21875 -1.171875 L 38.21875 -23.59375 L 5.828125 -23.59375 L 5.828125 -23.515625 L 3.46875 -23.515625 L 3.46875 -23.59375 L 3.953125 -24.21875 L 38.21875 -68.953125 L 64.171875 -68.953125 L 64.171875 -67.78125 Z M 38.21875 -25.875 L 38.21875 -65.84375 L 7.5625 -25.875 Z M 38.21875 -25.875 "/></g></g></g></g></g></g></g></g><g transform="matrix(1, 0, 0, 1, 252, 11)"><g clip-path="url(#4196bde0c3)"><g fill="#0e2349" fill-opacity="1"><g transform="translate(1.058954, 117.639674)"><g><path d="M 64.046875 -114.59375 C 60.210938 -114.59375 56.613281 -113.890625 53.25 -112.484375 C 49.882812 -111.003906 46.953125 -109.007812 44.453125 -106.5 C 41.953125 -104 40 -101.066406 38.59375 -97.703125 C 37.101562 -94.347656 36.359375 -90.753906 36.359375 -86.921875 C 36.359375 -83.085938 37.101562 -79.488281 38.59375 -76.125 C 40 -72.757812 41.953125 -69.828125 44.453125 -67.328125 C 46.953125 -64.828125 49.882812 -62.875 53.25 -61.46875 C 56.613281 -59.976562 60.210938 -59.234375 64.046875 -59.234375 L 86.5625 -59.234375 C 90.632812 -59.234375 94.503906 -58.453125 98.171875 -56.890625 C 101.773438 -55.328125 104.90625 -53.21875 107.5625 -50.5625 C 110.21875 -47.894531 112.328125 -44.765625 113.890625 -41.171875 C 115.453125 -37.578125 116.234375 -33.742188 116.234375 -29.671875 C 116.234375 -25.523438 115.453125 -21.65625 113.890625 -18.0625 C 112.328125 -14.46875 110.21875 -11.34375 107.5625 -8.6875 C 104.90625 -6.019531 101.773438 -3.90625 98.171875 -2.34375 C 94.503906 -0.78125 90.632812 0 86.5625 0 L 5.859375 0 L 5.859375 -33.546875 C 7.265625 -27.597656 9.804688 -22.320312 13.484375 -17.71875 C 15.046875 -15.757812 16.925781 -13.84375 19.125 -11.96875 C 21.226562 -10.09375 23.769531 -8.410156 26.75 -6.921875 C 29.632812 -5.429688 32.992188 -4.257812 36.828125 -3.40625 C 40.585938 -2.46875 44.847656 -2 49.609375 -2 L 58.0625 -2 C 61.894531 -2 65.492188 -2.738281 68.859375 -4.21875 C 72.210938 -5.625 75.144531 -7.582031 77.65625 -10.09375 C 80.15625 -12.59375 82.144531 -15.523438 83.625 -18.890625 C 85.039062 -22.242188 85.75 -25.835938 85.75 -29.671875 C 85.75 -33.503906 85.039062 -37.101562 83.625 -40.46875 C 82.144531 -43.75 80.15625 -46.640625 77.65625 -49.140625 C 75.144531 -51.648438 72.210938 -53.644531 68.859375 -55.125 C 65.492188 -56.53125 61.894531 -57.234375 58.0625 -57.234375 L 35.546875 -57.234375 C 31.398438 -57.234375 27.523438 -58.019531 23.921875 -59.59375 C 20.328125 -61.15625 17.203125 -63.265625 14.546875 -65.921875 C 11.890625 -68.578125 9.773438 -71.703125 8.203125 -75.296875 C 6.640625 -78.898438 5.859375 -82.773438 5.859375 -86.921875 C 5.859375 -90.984375 6.640625 -94.8125 8.203125 -98.40625 C 9.773438 -102.007812 11.890625 -105.140625 14.546875 -107.796875 C 17.203125 -110.453125 20.328125 -112.5625 23.921875 -114.125 C 27.523438 -115.6875 31.398438 -116.46875 35.546875 -116.46875 L 116.234375 -116.46875 L 116.234375 -82.921875 C 114.828125 -88.785156 112.285156 -94.066406 108.609375 -98.765625 C 107.046875 -100.722656 105.171875 -102.675781 102.984375 -104.625 C 100.796875 -106.5 98.253906 -108.179688 95.359375 -109.671875 C 92.390625 -111.160156 89.03125 -112.375 85.28125 -113.3125 C 81.519531 -114.164062 77.253906 -114.59375 72.484375 -114.59375 Z M 64.046875 -114.59375 "/></g></g></g><g fill="#0e2349" fill-opacity="1"><g transform="translate(123.163167, 117.639674)"><g><path d="M 49.734375 -114.59375 L 49.734375 -59.234375 L 51.84375 -59.234375 C 55.28125 -59.234375 58.410156 -60.015625 61.234375 -61.578125 C 64.046875 -63.066406 66.46875 -64.707031 68.5 -66.5 C 70.925781 -68.613281 73.113281 -71.078125 75.0625 -73.890625 L 75.0625 -42.578125 C 73.113281 -45.316406 70.925781 -47.738281 68.5 -49.84375 C 66.46875 -51.644531 64.046875 -53.328125 61.234375 -54.890625 C 58.410156 -56.453125 55.28125 -57.234375 51.84375 -57.234375 L 49.734375 -57.234375 L 49.734375 -2 L 70.96875 -2 C 75.582031 -2 79.765625 -2.46875 83.515625 -3.40625 C 87.191406 -4.257812 90.476562 -5.429688 93.375 -6.921875 C 96.257812 -8.410156 98.757812 -10.09375 100.875 -11.96875 C 102.988281 -13.84375 104.828125 -15.757812 106.390625 -17.71875 C 109.984375 -22.320312 112.484375 -27.597656 113.890625 -33.546875 L 113.890625 0 L 5.859375 0 L 5.859375 -2 L 10.5625 -2 L 10.5625 -114.59375 L 5.859375 -114.59375 L 5.859375 -116.46875 L 113.890625 -116.46875 L 113.890625 -82.921875 C 112.484375 -88.785156 109.984375 -94.066406 106.390625 -98.765625 C 104.828125 -100.722656 102.988281 -102.675781 100.875 -104.625 C 98.757812 -106.5 96.257812 -108.179688 93.375 -109.671875 C 90.476562 -111.160156 87.191406 -112.375 83.515625 -113.3125 C 79.765625 -114.164062 75.582031 -114.59375 70.96875 -114.59375 Z M 49.734375 -114.59375 "/></g></g></g><g fill="#0e2349" fill-opacity="1"><g transform="translate(243.038786, 117.639674)"><g><path d="M 144.28125 -114.59375 L 144.28125 -2 L 148.96875 -2 L 148.96875 0 L 100.40625 0 L 100.40625 -2 L 105.09375 -2 L 105.09375 -109.5625 L 61.34375 -32.140625 L 57.359375 -32.140625 L 14.546875 -109.5625 L 14.546875 -2 L 19.125 -2 L 19.125 0 L 5.859375 0 L 5.859375 -2 L 10.5625 -2 L 10.5625 -114.59375 L 5.859375 -114.59375 L 5.859375 -116.46875 L 40.34375 -116.46875 L 72.375 -58.65625 L 104.046875 -114.59375 L 100.40625 -114.59375 L 100.40625 -116.46875 L 148.96875 -116.46875 L 148.96875 -114.59375 Z M 144.28125 -114.59375 "/></g></g></g><g fill="#0e2349" fill-opacity="1"><g transform="translate(397.98563, 117.639674)"><g><path d="M 129.84375 -2 L 129.84375 0 L 81.28125 0 L 81.28125 -2 L 86.09375 -2 L 73.546875 -40.109375 L 26.859375 -40.109375 L 14.1875 -2 L 19 -2 L 19 0 L 5.859375 0 L 5.859375 -2 L 10.671875 -2 L 47.5 -114.59375 L 42.578125 -114.59375 L 42.578125 -116.46875 L 87.859375 -116.46875 L 125.15625 -2 Z M 72.953125 -42.109375 L 53.609375 -101.34375 L 50.4375 -111.078125 L 27.5625 -42.109375 Z M 72.953125 -42.109375 "/></g></g></g><g fill="#0e2349" fill-opacity="1"><g transform="translate(533.813357, 117.639674)"><g><path d="M 49.734375 -114.59375 L 49.734375 -2 L 54.546875 -2 L 54.546875 0 L 5.859375 0 L 5.859375 -2 L 10.5625 -2 L 10.5625 -114.59375 L 5.859375 -114.59375 L 5.859375 -116.46875 L 54.546875 -116.46875 L 54.546875 -114.59375 Z M 49.734375 -114.59375 "/></g></g></g><g fill="#0e2349" fill-opacity="1"><g transform="translate(594.220334, 117.639674)"><g><path d="M 115.765625 -114.59375 L 115.765625 -2 L 120.46875 -2 L 120.46875 0 L 76.59375 0 L 14.78125 -109.5625 L 14.78125 -2 L 19.359375 -2 L 19.359375 0 L 5.859375 0 L 5.859375 -2 L 10.796875 -2 L 10.796875 -114.59375 L 5.859375 -114.59375 L 5.859375 -116.46875 L 49.96875 -116.46875 L 111.78125 -7.03125 L 111.78125 -114.59375 L 106.859375 -114.59375 L 106.859375 -116.46875 L 120.46875 -116.46875 L 120.46875 -114.59375 Z M 115.765625 -114.59375 "/></g></g></g><g fill="#0e2349" fill-opacity="1"><g transform="translate(720.664481, 117.639674)"><g><path d="M 49.734375 -114.59375 L 49.734375 -59.234375 L 51.84375 -59.234375 C 55.28125 -59.234375 58.410156 -60.015625 61.234375 -61.578125 C 64.046875 -63.066406 66.46875 -64.707031 68.5 -66.5 C 70.925781 -68.613281 73.113281 -71.078125 75.0625 -73.890625 L 75.0625 -42.578125 C 73.113281 -45.316406 70.925781 -47.738281 68.5 -49.84375 C 66.46875 -51.644531 64.046875 -53.328125 61.234375 -54.890625 C 58.410156 -56.453125 55.28125 -57.234375 51.84375 -57.234375 L 49.734375 -57.234375 L 49.734375 -2 L 70.96875 -2 C 75.582031 -2 79.765625 -2.46875 83.515625 -3.40625 C 87.191406 -4.257812 90.476562 -5.429688 93.375 -6.921875 C 96.257812 -8.410156 98.757812 -10.09375 100.875 -11.96875 C 102.988281 -13.84375 104.828125 -15.757812 106.390625 -17.71875 C 109.984375 -22.320312 112.484375 -27.597656 113.890625 -33.546875 L 113.890625 0 L 5.859375 0 L 5.859375 -2 L 10.5625 -2 L 10.5625 -114.59375 L 5.859375 -114.59375 L 5.859375 -116.46875 L 113.890625 -116.46875 L 113.890625 -82.921875 C 112.484375 -88.785156 109.984375 -94.066406 106.390625 -98.765625 C 104.828125 -100.722656 102.988281 -102.675781 100.875 -104.625 C 98.757812 -106.5 96.257812 -108.179688 93.375 -109.671875 C 90.476562 -111.160156 87.191406 -112.375 83.515625 -113.3125 C 79.765625 -114.164062 75.582031 -114.59375 70.96875 -114.59375 Z M 49.734375 -114.59375 "/></g></g></g><g fill="#0e2349" fill-opacity="1"><g transform="translate(840.540093, 117.639674)"><g/></g></g><g clip-path="url(#00c3dfc448)"><g fill="#0e2349" fill-opacity="1"><g transform="translate(894.730449, 117.639674)"><g><path d="M 35.546875 -114.71875 L 35.546875 -74.125 L 79.0625 -74.125 C 83.363281 -74.125 87.113281 -73.070312 90.3125 -70.96875 C 93.519531 -68.851562 96.179688 -66.078125 98.296875 -62.640625 C 100.410156 -59.117188 102.015625 -55.171875 103.109375 -50.796875 C 104.117188 -46.335938 104.625 -41.800781 104.625 -37.1875 C 104.550781 -32.488281 104.003906 -27.953125 102.984375 -23.578125 C 101.890625 -19.117188 100.285156 -15.171875 98.171875 -11.734375 C 95.984375 -8.210938 93.328125 -5.394531 90.203125 -3.28125 C 86.992188 -1.175781 83.28125 -0.125 79.0625 -0.125 L 6.921875 -0.125 L 6.921875 -33.671875 C 8.328125 -27.722656 10.867188 -22.441406 14.546875 -17.828125 C 16.109375 -15.867188 17.984375 -13.953125 20.171875 -12.078125 C 22.285156 -10.203125 24.828125 -8.519531 27.796875 -7.03125 C 30.691406 -5.550781 34.054688 -4.378906 37.890625 -3.515625 C 41.640625 -2.578125 45.898438 -2.109375 50.671875 -2.109375 C 54.660156 -2.191406 58.335938 -3.519531 61.703125 -6.09375 C 64.984375 -8.601562 67.796875 -11.8125 70.140625 -15.71875 C 71.859375 -18.53125 73.070312 -21.816406 73.78125 -25.578125 C 74.476562 -29.242188 74.789062 -32.957031 74.71875 -36.71875 C 74.632812 -40.394531 74.28125 -43.910156 73.65625 -47.265625 C 72.957031 -50.554688 72.0625 -53.21875 70.96875 -55.25 C 69.789062 -57.59375 68.457031 -59.78125 66.96875 -61.8125 C 65.488281 -63.84375 63.890625 -65.644531 62.171875 -67.21875 C 60.453125 -68.695312 58.648438 -69.90625 56.765625 -70.84375 C 54.816406 -71.707031 52.785156 -72.140625 50.671875 -72.140625 L 38 -72.140625 C 36.75 -72.140625 35.695312 -72.140625 34.84375 -72.140625 C 33.976562 -72.054688 33.503906 -72.015625 33.421875 -72.015625 L 33.421875 -72.140625 L 5.859375 -72.140625 L 5.859375 -116.703125 L 105.5625 -116.703125 L 105.5625 -83.15625 C 104.15625 -89.019531 101.65625 -94.257812 98.0625 -98.875 C 96.5 -100.832031 94.625 -102.789062 92.4375 -104.75 C 90.238281 -106.625 87.695312 -108.304688 84.8125 -109.796875 C 81.832031 -111.273438 78.46875 -112.484375 74.71875 -113.421875 C 70.882812 -114.285156 66.582031 -114.71875 61.8125 -114.71875 Z M 35.546875 -114.71875 "/></g></g></g></g><g fill="#0e2349" fill-opacity="1"><g transform="translate(1006.278077, 117.639674)"><g><path d="M 103.8125 -114.59375 L 103.8125 -2 L 108.5 -2 L 108.5 0 L 59.828125 0 L 59.828125 -2 L 64.625 -2 L 64.625 -39.875 L 9.859375 -39.875 L 9.859375 -39.765625 L 5.859375 -39.765625 L 5.859375 -39.875 L 6.6875 -40.9375 L 64.625 -116.59375 L 108.5 -116.59375 L 108.5 -114.59375 Z M 64.625 -43.75 L 64.625 -111.3125 L 12.78125 -43.75 Z M 64.625 -43.75 "/></g></g></g></g></g><g transform="matrix(1, 0, 0, 1, 263, 146)"><g clip-path="url(#80c1c78d17)"><g clip-path="url(#37c61d2ca8)"><g transform="matrix(1, 0, 0, 1, -0.000000000000056843, -0.000000000000028422)"><g clip-path="url(#ab9bea3837)"><g fill="#0e2349" fill-opacity="1"><g transform="translate(0.242208, 38.999034)"><g><path d="M 21.609375 -21.65625 C 21.609375 -18.726562 20.691406 -16.550781 18.859375 -15.125 C 17.035156 -13.695312 14.472656 -12.984375 11.171875 -12.984375 L 4.328125 -12.984375 L 4.328125 0 L 1.140625 0 L 1.140625 -30.3125 L 11.125 -30.3125 C 14.457031 -30.3125 17.035156 -29.585938 18.859375 -28.140625 C 20.691406 -26.691406 21.609375 -24.53125 21.609375 -21.65625 Z M 18.421875 -21.65625 C 18.421875 -23.738281 17.757812 -25.25 16.4375 -26.1875 C 15.125 -27.125 13.367188 -27.59375 11.171875 -27.59375 L 4.328125 -27.59375 L 4.328125 -15.703125 L 11.171875 -15.703125 C 13.367188 -15.703125 15.125 -16.171875 16.4375 -17.109375 C 17.757812 -18.046875 18.421875 -19.5625 18.421875 -21.65625 Z M 18.421875 -21.65625 "/></g></g></g><g fill="#0e2349" fill-opacity="1"><g transform="translate(27.073163, 38.999034)"><g><path d="M -0.046875 -5.859375 C -0.046875 -7.222656 0.289062 -8.363281 0.96875 -9.28125 C 1.65625 -10.195312 2.550781 -10.921875 3.65625 -11.453125 C 4.757812 -11.992188 6.03125 -12.382812 7.46875 -12.625 C 8.90625 -12.863281 10.363281 -12.984375 11.84375 -12.984375 C 12.414062 -12.984375 12.929688 -12.972656 13.390625 -12.953125 C 13.847656 -12.941406 14.28125 -12.921875 14.6875 -12.890625 C 15.101562 -12.859375 15.519531 -12.816406 15.9375 -12.765625 C 16.351562 -12.722656 16.8125 -12.671875 17.3125 -12.609375 L 17.3125 -14.171875 C 17.3125 -15.222656 17.082031 -16.085938 16.625 -16.765625 C 16.164062 -17.453125 15.601562 -17.992188 14.9375 -18.390625 C 14.269531 -18.785156 13.570312 -19.0625 12.84375 -19.21875 C 12.113281 -19.382812 11.492188 -19.46875 10.984375 -19.46875 C 9.378906 -19.46875 7.894531 -19.25 6.53125 -18.8125 C 5.164062 -18.382812 3.894531 -17.804688 2.71875 -17.078125 L 1.28125 -19.46875 C 2.582031 -20.257812 4.039062 -20.90625 5.65625 -21.40625 C 7.269531 -21.90625 9.046875 -22.15625 10.984375 -22.15625 C 12.160156 -22.15625 13.316406 -22.003906 14.453125 -21.703125 C 15.597656 -21.398438 16.625 -20.9375 17.53125 -20.3125 C 18.4375 -19.6875 19.160156 -18.863281 19.703125 -17.84375 C 20.242188 -16.820312 20.515625 -15.597656 20.515625 -14.171875 L 20.515625 0 L 17.3125 0 L 17.3125 -3.625 C 16.75 -2.925781 16.113281 -2.3125 15.40625 -1.78125 C 14.707031 -1.257812 13.96875 -0.832031 13.1875 -0.5 C 12.414062 -0.164062 11.640625 0.0859375 10.859375 0.265625 C 10.085938 0.441406 9.359375 0.53125 8.671875 0.53125 C 5.804688 0.53125 3.632812 -0.015625 2.15625 -1.109375 C 0.6875 -2.210938 -0.046875 -3.796875 -0.046875 -5.859375 Z M 8.671875 -2.1875 C 9.992188 -2.1875 11.1875 -2.382812 12.25 -2.78125 C 13.3125 -3.175781 14.210938 -3.664062 14.953125 -4.25 C 15.703125 -4.84375 16.28125 -5.46875 16.6875 -6.125 C 17.101562 -6.789062 17.3125 -7.394531 17.3125 -7.9375 L 17.3125 -9.984375 C 16.269531 -10.140625 15.269531 -10.222656 14.3125 -10.234375 C 13.363281 -10.253906 12.539062 -10.265625 11.84375 -10.265625 C 10.695312 -10.265625 9.59375 -10.1875 8.53125 -10.03125 C 7.476562 -9.875 6.554688 -9.625 5.765625 -9.28125 C 4.972656 -8.9375 4.335938 -8.484375 3.859375 -7.921875 C 3.378906 -7.359375 3.140625 -6.671875 3.140625 -5.859375 C 3.140625 -4.941406 3.582031 -4.097656 4.46875 -3.328125 C 5.363281 -2.566406 6.765625 -2.1875 8.671875 -2.1875 Z M 8.671875 -2.1875 "/></g></g></g><g fill="#0e2349" fill-opacity="1"><g transform="translate(53.904118, 38.999034)"><g><path d="M 20.46875 -18.609375 C 19.320312 -19.179688 17.957031 -19.46875 16.375 -19.46875 C 15.070312 -19.46875 13.910156 -19.1875 12.890625 -18.625 C 11.867188 -18.070312 11 -17.34375 10.28125 -16.4375 C 9.570312 -15.53125 9.023438 -14.488281 8.640625 -13.3125 C 8.265625 -12.144531 8.078125 -10.941406 8.078125 -9.703125 L 8.078125 -2.71875 L 12.984375 -2.71875 L 12.984375 0 L 0 0 L 0 -2.71875 L 4.90625 -2.71875 L 4.90625 -18.9375 L 0 -18.9375 L 0 -21.65625 L 8.078125 -21.65625 L 8.078125 -16.21875 C 9.535156 -20.175781 12.300781 -22.15625 16.375 -22.15625 C 17.476562 -22.15625 18.4375 -22.085938 19.25 -21.953125 C 20.0625 -21.816406 20.816406 -21.566406 21.515625 -21.203125 Z M 20.46875 -18.609375 "/></g></g></g><g fill="#0e2349" fill-opacity="1"><g transform="translate(80.735073, 38.999034)"><g><path d="M 21.890625 -6.90625 C 21.640625 -4.625 20.742188 -2.8125 19.203125 -1.46875 C 17.660156 -0.132812 15.734375 0.53125 13.421875 0.53125 C 12.148438 0.53125 10.988281 0.320312 9.9375 -0.09375 C 8.882812 -0.507812 7.988281 -1.085938 7.25 -1.828125 C 6.507812 -2.578125 5.929688 -3.472656 5.515625 -4.515625 C 5.109375 -5.566406 4.90625 -6.707031 4.90625 -7.9375 L 4.90625 -18.9375 L 0 -18.9375 L 0 -21.65625 L 4.90625 -21.65625 L 4.90625 -30.3125 L 8.078125 -30.3125 L 8.078125 -21.65625 L 17.3125 -21.65625 L 17.3125 -18.9375 L 8.078125 -18.9375 L 8.078125 -7.9375 C 8.078125 -7.15625 8.203125 -6.414062 8.453125 -5.71875 C 8.710938 -5.019531 9.070312 -4.40625 9.53125 -3.875 C 9.988281 -3.351562 10.539062 -2.941406 11.1875 -2.640625 C 11.84375 -2.335938 12.585938 -2.1875 13.421875 -2.1875 C 15.003906 -2.1875 16.328125 -2.675781 17.390625 -3.65625 C 18.453125 -4.644531 19.0625 -5.921875 19.21875 -7.484375 Z M 21.890625 -6.90625 "/></g></g></g><g fill="#0e2349" fill-opacity="1"><g transform="translate(107.566028, 38.999034)"><g><path d="M 3.1875 -9.703125 C 3.414062 -7.410156 4.25 -5.582031 5.6875 -4.21875 C 7.132812 -2.863281 9.007812 -2.1875 11.3125 -2.1875 C 12.9375 -2.1875 14.382812 -2.519531 15.65625 -3.1875 C 16.925781 -3.851562 17.878906 -4.679688 18.515625 -5.671875 L 20.75 -4.140625 C 19.664062 -2.617188 18.367188 -1.457031 16.859375 -0.65625 C 15.359375 0.132812 13.507812 0.53125 11.3125 0.53125 C 9.644531 0.53125 8.113281 0.253906 6.71875 -0.296875 C 5.320312 -0.859375 4.113281 -1.640625 3.09375 -2.640625 C 2.082031 -3.640625 1.296875 -4.828125 0.734375 -6.203125 C 0.179688 -7.578125 -0.09375 -9.109375 -0.09375 -10.796875 C -0.09375 -12.441406 0.15625 -13.957031 0.65625 -15.34375 C 1.164062 -16.726562 1.894531 -17.925781 2.84375 -18.9375 C 3.800781 -19.957031 4.957031 -20.75 6.3125 -21.3125 C 7.675781 -21.875 9.203125 -22.15625 10.890625 -22.15625 C 12.734375 -22.15625 14.34375 -21.84375 15.71875 -21.21875 C 17.101562 -20.601562 18.253906 -19.75 19.171875 -18.65625 C 20.097656 -17.570312 20.78125 -16.269531 21.21875 -14.75 C 21.664062 -13.226562 21.890625 -11.546875 21.890625 -9.703125 Z M 18.515625 -12.421875 C 18.160156 -14.796875 17.300781 -16.5625 15.9375 -17.71875 C 14.570312 -18.882812 12.890625 -19.46875 10.890625 -19.46875 C 9.867188 -19.46875 8.925781 -19.300781 8.0625 -18.96875 C 7.195312 -18.632812 6.429688 -18.15625 5.765625 -17.53125 C 5.097656 -16.914062 4.539062 -16.171875 4.09375 -15.296875 C 3.644531 -14.421875 3.359375 -13.460938 3.234375 -12.421875 Z M 18.515625 -12.421875 "/></g></g></g><g fill="#0e2349" fill-opacity="1"><g transform="translate(134.396983, 38.999034)"><g><path d="M 20.515625 0 L 17.3125 0 L 17.3125 -13.359375 C 17.3125 -15.296875 16.890625 -16.796875 16.046875 -17.859375 C 15.210938 -18.929688 13.859375 -19.46875 11.984375 -19.46875 C 10.804688 -19.46875 9.738281 -19.195312 8.78125 -18.65625 C 7.832031 -18.113281 7.023438 -17.390625 6.359375 -16.484375 C 5.691406 -15.578125 5.1875 -14.535156 4.84375 -13.359375 C 4.5 -12.191406 4.328125 -10.972656 4.328125 -9.703125 L 4.328125 0 L 1.140625 0 L 1.140625 -21.65625 L 4.328125 -21.65625 L 4.328125 -16.21875 C 5.859375 -20.175781 8.585938 -22.15625 12.515625 -22.15625 C 17.847656 -22.15625 20.515625 -19.222656 20.515625 -13.359375 Z M 20.515625 0 "/></g></g></g><g fill="#0e2349" fill-opacity="1"><g transform="translate(161.227937, 38.999034)"><g><path d="M -0.046875 -5.859375 C -0.046875 -7.222656 0.289062 -8.363281 0.96875 -9.28125 C 1.65625 -10.195312 2.550781 -10.921875 3.65625 -11.453125 C 4.757812 -11.992188 6.03125 -12.382812 7.46875 -12.625 C 8.90625 -12.863281 10.363281 -12.984375 11.84375 -12.984375 C 12.414062 -12.984375 12.929688 -12.972656 13.390625 -12.953125 C 13.847656 -12.941406 14.28125 -12.921875 14.6875 -12.890625 C 15.101562 -12.859375 15.519531 -12.816406 15.9375 -12.765625 C 16.351562 -12.722656 16.8125 -12.671875 17.3125 -12.609375 L 17.3125 -14.171875 C 17.3125 -15.222656 17.082031 -16.085938 16.625 -16.765625 C 16.164062 -17.453125 15.601562 -17.992188 14.9375 -18.390625 C 14.269531 -18.785156 13.570312 -19.0625 12.84375 -19.21875 C 12.113281 -19.382812 11.492188 -19.46875 10.984375 -19.46875 C 9.378906 -19.46875 7.894531 -19.25 6.53125 -18.8125 C 5.164062 -18.382812 3.894531 -17.804688 2.71875 -17.078125 L 1.28125 -19.46875 C 2.582031 -20.257812 4.039062 -20.90625 5.65625 -21.40625 C 7.269531 -21.90625 9.046875 -22.15625 10.984375 -22.15625 C 12.160156 -22.15625 13.316406 -22.003906 14.453125 -21.703125 C 15.597656 -21.398438 16.625 -20.9375 17.53125 -20.3125 C 18.4375 -19.6875 19.160156 -18.863281 19.703125 -17.84375 C 20.242188 -16.820312 20.515625 -15.597656 20.515625 -14.171875 L 20.515625 0 L 17.3125 0 L 17.3125 -3.625 C 16.75 -2.925781 16.113281 -2.3125 15.40625 -1.78125 C 14.707031 -1.257812 13.96875 -0.832031 13.1875 -0.5 C 12.414062 -0.164062 11.640625 0.0859375 10.859375 0.265625 C 10.085938 0.441406 9.359375 0.53125 8.671875 0.53125 C 5.804688 0.53125 3.632812 -0.015625 2.15625 -1.109375 C 0.6875 -2.210938 -0.046875 -3.796875 -0.046875 -5.859375 Z M 8.671875 -2.1875 C 9.992188 -2.1875 11.1875 -2.382812 12.25 -2.78125 C 13.3125 -3.175781 14.210938 -3.664062 14.953125 -4.25 C 15.703125 -4.84375 16.28125 -5.46875 16.6875 -6.125 C 17.101562 -6.789062 17.3125 -7.394531 17.3125 -7.9375 L 17.3125 -9.984375 C 16.269531 -10.140625 15.269531 -10.222656 14.3125 -10.234375 C 13.363281 -10.253906 12.539062 -10.265625 11.84375 -10.265625 C 10.695312 -10.265625 9.59375 -10.1875 8.53125 -10.03125 C 7.476562 -9.875 6.554688 -9.625 5.765625 -9.28125 C 4.972656 -8.9375 4.335938 -8.484375 3.859375 -7.921875 C 3.378906 -7.359375 3.140625 -6.671875 3.140625 -5.859375 C 3.140625 -4.941406 3.582031 -4.097656 4.46875 -3.328125 C 5.363281 -2.566406 6.765625 -2.1875 8.671875 -2.1875 Z M 8.671875 -2.1875 "/></g></g></g><g fill="#0e2349" fill-opacity="1"><g transform="translate(188.058892, 38.999034)"><g><path d="M 12.984375 -25.96875 L 8.671875 -25.96875 L 8.671875 -30.3125 L 12.984375 -30.3125 Z M 17.3125 0 L 4.328125 0 L 4.328125 -2.71875 L 9.21875 -2.71875 L 9.21875 -18.9375 L 4.328125 -18.9375 L 4.328125 -21.65625 L 12.421875 -21.65625 L 12.421875 -2.71875 L 17.3125 -2.71875 Z M 17.3125 0 "/></g></g></g><g fill="#0e2349" fill-opacity="1"><g transform="translate(214.889847, 38.999034)"><g><path d="M 20.46875 -18.609375 C 19.320312 -19.179688 17.957031 -19.46875 16.375 -19.46875 C 15.070312 -19.46875 13.910156 -19.1875 12.890625 -18.625 C 11.867188 -18.070312 11 -17.34375 10.28125 -16.4375 C 9.570312 -15.53125 9.023438 -14.488281 8.640625 -13.3125 C 8.265625 -12.144531 8.078125 -10.941406 8.078125 -9.703125 L 8.078125 -2.71875 L 12.984375 -2.71875 L 12.984375 0 L 0 0 L 0 -2.71875 L 4.90625 -2.71875 L 4.90625 -18.9375 L 0 -18.9375 L 0 -21.65625 L 8.078125 -21.65625 L 8.078125 -16.21875 C 9.535156 -20.175781 12.300781 -22.15625 16.375 -22.15625 C 17.476562 -22.15625 18.4375 -22.085938 19.25 -21.953125 C 20.0625 -21.816406 20.816406 -21.566406 21.515625 -21.203125 Z M 20.46875 -18.609375 "/></g></g></g><g fill="#0e2349" fill-opacity="1"><g transform="translate(241.720802, 38.999034)"><g><path d="M 3.1875 -9.703125 C 3.414062 -7.410156 4.25 -5.582031 5.6875 -4.21875 C 7.132812 -2.863281 9.007812 -2.1875 11.3125 -2.1875 C 12.9375 -2.1875 14.382812 -2.519531 15.65625 -3.1875 C 16.925781 -3.851562 17.878906 -4.679688 18.515625 -5.671875 L 20.75 -4.140625 C 19.664062 -2.617188 18.367188 -1.457031 16.859375 -0.65625 C 15.359375 0.132812 13.507812 0.53125 11.3125 0.53125 C 9.644531 0.53125 8.113281 0.253906 6.71875 -0.296875 C 5.320312 -0.859375 4.113281 -1.640625 3.09375 -2.640625 C 2.082031 -3.640625 1.296875 -4.828125 0.734375 -6.203125 C 0.179688 -7.578125 -0.09375 -9.109375 -0.09375 -10.796875 C -0.09375 -12.441406 0.15625 -13.957031 0.65625 -15.34375 C 1.164062 -16.726562 1.894531 -17.925781 2.84375 -18.9375 C 3.800781 -19.957031 4.957031 -20.75 6.3125 -21.3125 C 7.675781 -21.875 9.203125 -22.15625 10.890625 -22.15625 C 12.734375 -22.15625 14.34375 -21.84375 15.71875 -21.21875 C 17.101562 -20.601562 18.253906 -19.75 19.171875 -18.65625 C 20.097656 -17.570312 20.78125 -16.269531 21.21875 -14.75 C 21.664062 -13.226562 21.890625 -11.546875 21.890625 -9.703125 Z M 18.515625 -12.421875 C 18.160156 -14.796875 17.300781 -16.5625 15.9375 -17.71875 C 14.570312 -18.882812 12.890625 -19.46875 10.890625 -19.46875 C 9.867188 -19.46875 8.925781 -19.300781 8.0625 -18.96875 C 7.195312 -18.632812 6.429688 -18.15625 5.765625 -17.53125 C 5.097656 -16.914062 4.539062 -16.171875 4.09375 -15.296875 C 3.644531 -14.421875 3.359375 -13.460938 3.234375 -12.421875 Z M 18.515625 -12.421875 "/></g></g></g><g fill="#0e2349" fill-opacity="1"><g transform="translate(375.879675, 38.999034)"><g><path d="M -0.046875 -5.859375 C -0.046875 -7.222656 0.289062 -8.363281 0.96875 -9.28125 C 1.65625 -10.195312 2.550781 -10.921875 3.65625 -11.453125 C 4.757812 -11.992188 6.03125 -12.382812 7.46875 -12.625 C 8.90625 -12.863281 10.363281 -12.984375 11.84375 -12.984375 C 12.414062 -12.984375 12.929688 -12.972656 13.390625 -12.953125 C 13.847656 -12.941406 14.28125 -12.921875 14.6875 -12.890625 C 15.101562 -12.859375 15.519531 -12.816406 15.9375 -12.765625 C 16.351562 -12.722656 16.8125 -12.671875 17.3125 -12.609375 L 17.3125 -14.171875 C 17.3125 -15.222656 17.082031 -16.085938 16.625 -16.765625 C 16.164062 -17.453125 15.601562 -17.992188 14.9375 -18.390625 C 14.269531 -18.785156 13.570312 -19.0625 12.84375 -19.21875 C 12.113281 -19.382812 11.492188 -19.46875 10.984375 -19.46875 C 9.378906 -19.46875 7.894531 -19.25 6.53125 -18.8125 C 5.164062 -18.382812 3.894531 -17.804688 2.71875 -17.078125 L 1.28125 -19.46875 C 2.582031 -20.257812 4.039062 -20.90625 5.65625 -21.40625 C 7.269531 -21.90625 9.046875 -22.15625 10.984375 -22.15625 C 12.160156 -22.15625 13.316406 -22.003906 14.453125 -21.703125 C 15.597656 -21.398438 16.625 -20.9375 17.53125 -20.3125 C 18.4375 -19.6875 19.160156 -18.863281 19.703125 -17.84375 C 20.242188 -16.820312 20.515625 -15.597656 20.515625 -14.171875 L 20.515625 0 L 17.3125 0 L 17.3125 -3.625 C 16.75 -2.925781 16.113281 -2.3125 15.40625 -1.78125 C 14.707031 -1.257812 13.96875 -0.832031 13.1875 -0.5 C 12.414062 -0.164062 11.640625 0.0859375 10.859375 0.265625 C 10.085938 0.441406 9.359375 0.53125 8.671875 0.53125 C 5.804688 0.53125 3.632812 -0.015625 2.15625 -1.109375 C 0.6875 -2.210938 -0.046875 -3.796875 -0.046875 -5.859375 Z M 8.671875 -2.1875 C 9.992188 -2.1875 11.1875 -2.382812 12.25 -2.78125 C 13.3125 -3.175781 14.210938 -3.664062 14.953125 -4.25 C 15.703125 -4.84375 16.28125 -5.46875 16.6875 -6.125 C 17.101562 -6.789062 17.3125 -7.394531 17.3125 -7.9375 L 17.3125 -9.984375 C 16.269531 -10.140625 15.269531 -10.222656 14.3125 -10.234375 C 13.363281 -10.253906 12.539062 -10.265625 11.84375 -10.265625 C 10.695312 -10.265625 9.59375 -10.1875 8.53125 -10.03125 C 7.476562 -9.875 6.554688 -9.625 5.765625 -9.28125 C 4.972656 -8.9375 4.335938 -8.484375 3.859375 -7.921875 C 3.378906 -7.359375 3.140625 -6.671875 3.140625 -5.859375 C 3.140625 -4.941406 3.582031 -4.097656 4.46875 -3.328125 C 5.363281 -2.566406 6.765625 -2.1875 8.671875 -2.1875 Z M 8.671875 -2.1875 "/></g></g></g><g fill="#0e2349" fill-opacity="1"><g transform="translate(402.71063, 38.999034)"><g><path d="M 1.140625 -21.65625 L 4.328125 -21.65625 L 4.328125 -8.265625 C 4.328125 -6.328125 4.75 -4.828125 5.59375 -3.765625 C 6.4375 -2.710938 7.796875 -2.1875 9.671875 -2.1875 C 10.847656 -2.1875 11.90625 -2.457031 12.84375 -3 C 13.789062 -3.539062 14.597656 -4.265625 15.265625 -5.171875 C 15.929688 -6.078125 16.4375 -7.113281 16.78125 -8.28125 C 17.132812 -9.445312 17.3125 -10.664062 17.3125 -11.9375 L 17.3125 -21.65625 L 20.515625 -21.65625 L 20.515625 0 L 17.3125 0 L 17.3125 -5.40625 C 15.789062 -1.445312 13.0625 0.53125 9.125 0.53125 C 3.800781 0.53125 1.140625 -2.398438 1.140625 -8.265625 Z M 1.140625 -21.65625 "/></g></g></g><g fill="#0e2349" fill-opacity="1"><g transform="translate(456.37254, 38.999034)"><g><path d="M 21.078125 -6 C 21.078125 -4.726562 20.757812 -3.671875 20.125 -2.828125 C 19.488281 -1.992188 18.671875 -1.328125 17.671875 -0.828125 C 16.671875 -0.335938 15.550781 0.0078125 14.3125 0.21875 C 13.082031 0.425781 11.878906 0.53125 10.703125 0.53125 C 8.742188 0.53125 6.785156 0.242188 4.828125 -0.328125 C 2.878906 -0.898438 1.191406 -1.648438 -0.234375 -2.578125 L 1.1875 -5.3125 C 2.78125 -4.3125 4.347656 -3.539062 5.890625 -3 C 7.441406 -2.457031 9.046875 -2.1875 10.703125 -2.1875 C 15.492188 -2.1875 17.890625 -3.425781 17.890625 -5.90625 C 17.890625 -6.507812 17.691406 -7 17.296875 -7.375 C 16.898438 -7.75 16.367188 -8.054688 15.703125 -8.296875 C 15.035156 -8.546875 14.269531 -8.738281 13.40625 -8.875 C 12.550781 -9.007812 11.648438 -9.140625 10.703125 -9.265625 C 9.492188 -9.441406 8.289062 -9.644531 7.09375 -9.875 C 5.90625 -10.101562 4.820312 -10.445312 3.84375 -10.90625 C 2.863281 -11.375 2.070312 -11.992188 1.46875 -12.765625 C 0.875 -13.546875 0.578125 -14.570312 0.578125 -15.84375 C 0.578125 -16.925781 0.851562 -17.863281 1.40625 -18.65625 C 1.957031 -19.445312 2.691406 -20.101562 3.609375 -20.625 C 4.535156 -21.15625 5.617188 -21.539062 6.859375 -21.78125 C 8.097656 -22.03125 9.378906 -22.15625 10.703125 -22.15625 C 12.609375 -22.15625 14.3125 -21.9375 15.8125 -21.5 C 17.320312 -21.0625 18.679688 -20.429688 19.890625 -19.609375 L 18.609375 -17.125 C 17.367188 -17.988281 16.113281 -18.59375 14.84375 -18.9375 C 13.570312 -19.289062 12.191406 -19.46875 10.703125 -19.46875 C 10.035156 -19.46875 9.296875 -19.410156 8.484375 -19.296875 C 7.671875 -19.179688 6.914062 -18.976562 6.21875 -18.6875 C 5.53125 -18.40625 4.945312 -18.035156 4.46875 -17.578125 C 4 -17.117188 3.765625 -16.539062 3.765625 -15.84375 C 3.765625 -15.238281 3.960938 -14.753906 4.359375 -14.390625 C 4.753906 -14.023438 5.285156 -13.722656 5.953125 -13.484375 C 6.617188 -13.242188 7.378906 -13.050781 8.234375 -12.90625 C 9.097656 -12.769531 10 -12.640625 10.9375 -12.515625 C 12.113281 -12.347656 13.300781 -12.144531 14.5 -11.90625 C 15.707031 -11.675781 16.800781 -11.335938 17.78125 -10.890625 C 18.769531 -10.441406 19.566406 -9.832031 20.171875 -9.0625 C 20.773438 -8.289062 21.078125 -7.269531 21.078125 -6 Z M 21.078125 -6 "/></g></g></g><g fill="#0e2349" fill-opacity="1"><g transform="translate(483.203495, 38.999034)"><g><path d="M 3.1875 -9.703125 C 3.414062 -7.410156 4.25 -5.582031 5.6875 -4.21875 C 7.132812 -2.863281 9.007812 -2.1875 11.3125 -2.1875 C 12.9375 -2.1875 14.382812 -2.519531 15.65625 -3.1875 C 16.925781 -3.851562 17.878906 -4.679688 18.515625 -5.671875 L 20.75 -4.140625 C 19.664062 -2.617188 18.367188 -1.457031 16.859375 -0.65625 C 15.359375 0.132812 13.507812 0.53125 11.3125 0.53125 C 9.644531 0.53125 8.113281 0.253906 6.71875 -0.296875 C 5.320312 -0.859375 4.113281 -1.640625 3.09375 -2.640625 C 2.082031 -3.640625 1.296875 -4.828125 0.734375 -6.203125 C 0.179688 -7.578125 -0.09375 -9.109375 -0.09375 -10.796875 C -0.09375 -12.441406 0.15625 -13.957031 0.65625 -15.34375 C 1.164062 -16.726562 1.894531 -17.925781 2.84375 -18.9375 C 3.800781 -19.957031 4.957031 -20.75 6.3125 -21.3125 C 7.675781 -21.875 9.203125 -22.15625 10.890625 -22.15625 C 12.734375 -22.15625 14.34375 -21.84375 15.71875 -21.21875 C 17.101562 -20.601562 18.253906 -19.75 19.171875 -18.65625 C 20.097656 -17.570312 20.78125 -16.269531 21.21875 -14.75 C 21.664062 -13.226562 21.890625 -11.546875 21.890625 -9.703125 Z M 18.515625 -12.421875 C 18.160156 -14.796875 17.300781 -16.5625 15.9375 -17.71875 C 14.570312 -18.882812 12.890625 -19.46875 10.890625 -19.46875 C 9.867188 -19.46875 8.925781 -19.300781 8.0625 -18.96875 C 7.195312 -18.632812 6.429688 -18.15625 5.765625 -17.53125 C 5.097656 -16.914062 4.539062 -16.171875 4.09375 -15.296875 C 3.644531 -14.421875 3.359375 -13.460938 3.234375 -12.421875 Z M 18.515625 -12.421875 "/></g></g></g><g fill="#0e2349" fill-opacity="1"><g transform="translate(510.03445, 38.999034)"><g><path d="M 20.46875 -18.609375 C 19.320312 -19.179688 17.957031 -19.46875 16.375 -19.46875 C 15.070312 -19.46875 13.910156 -19.1875 12.890625 -18.625 C 11.867188 -18.070312 11 -17.34375 10.28125 -16.4375 C 9.570312 -15.53125 9.023438 -14.488281 8.640625 -13.3125 C 8.265625 -12.144531 8.078125 -10.941406 8.078125 -9.703125 L 8.078125 -2.71875 L 12.984375 -2.71875 L 12.984375 0 L 0 0 L 0 -2.71875 L 4.90625 -2.71875 L 4.90625 -18.9375 L 0 -18.9375 L 0 -21.65625 L 8.078125 -21.65625 L 8.078125 -16.21875 C 9.535156 -20.175781 12.300781 -22.15625 16.375 -22.15625 C 17.476562 -22.15625 18.4375 -22.085938 19.25 -21.953125 C 20.0625 -21.816406 20.816406 -21.566406 21.515625 -21.203125 Z M 20.46875 -18.609375 "/></g></g></g><g fill="#0e2349" fill-opacity="1"><g transform="translate(536.865405, 38.999034)"><g><path d="M 22.375 -21.65625 L 12.984375 0 L 8.71875 0 L -0.71875 -21.65625 L 3.09375 -21.65625 L 10.84375 -2.671875 L 18.5625 -21.65625 Z M 22.375 -21.65625 "/></g></g></g><g fill="#0e2349" fill-opacity="1"><g transform="translate(563.69636, 38.999034)"><g><path d="M 12.984375 -25.96875 L 8.671875 -25.96875 L 8.671875 -30.3125 L 12.984375 -30.3125 Z M 17.3125 0 L 4.328125 0 L 4.328125 -2.71875 L 9.21875 -2.71875 L 9.21875 -18.9375 L 4.328125 -18.9375 L 4.328125 -21.65625 L 12.421875 -21.65625 L 12.421875 -2.71875 L 17.3125 -2.71875 Z M 17.3125 0 "/></g></g></g><g fill="#0e2349" fill-opacity="1"><g transform="translate(590.527315, 38.999034)"><g><path d="M 20.84375 -4.140625 C 19.925781 -2.710938 18.671875 -1.578125 17.078125 -0.734375 C 15.492188 0.109375 13.613281 0.53125 11.4375 0.53125 C 9.738281 0.53125 8.1875 0.253906 6.78125 -0.296875 C 5.375 -0.859375 4.171875 -1.640625 3.171875 -2.640625 C 2.171875 -3.640625 1.390625 -4.828125 0.828125 -6.203125 C 0.273438 -7.578125 0 -9.109375 0 -10.796875 C 0 -12.441406 0.253906 -13.960938 0.765625 -15.359375 C 1.273438 -16.765625 2.003906 -17.96875 2.953125 -18.96875 C 3.898438 -19.96875 5.054688 -20.75 6.421875 -21.3125 C 7.796875 -21.875 9.316406 -22.15625 10.984375 -22.15625 C 11.648438 -22.15625 12.332031 -22.078125 13.03125 -21.921875 C 13.726562 -21.773438 14.382812 -21.539062 15 -21.21875 C 15.625 -20.90625 16.179688 -20.523438 16.671875 -20.078125 C 17.171875 -19.640625 17.546875 -19.117188 17.796875 -18.515625 L 17.796875 -21.65625 L 20.65625 -21.65625 L 20.65625 -12.984375 L 17.796875 -12.984375 C 17.796875 -13.941406 17.617188 -14.816406 17.265625 -15.609375 C 16.921875 -16.398438 16.445312 -17.082031 15.84375 -17.65625 C 15.238281 -18.226562 14.515625 -18.671875 13.671875 -18.984375 C 12.835938 -19.304688 11.941406 -19.46875 10.984375 -19.46875 C 9.679688 -19.46875 8.546875 -19.242188 7.578125 -18.796875 C 6.617188 -18.347656 5.8125 -17.734375 5.15625 -16.953125 C 4.507812 -16.179688 4.019531 -15.269531 3.6875 -14.21875 C 3.351562 -13.175781 3.1875 -12.035156 3.1875 -10.796875 C 3.1875 -9.554688 3.375 -8.414062 3.75 -7.375 C 4.132812 -6.332031 4.6875 -5.429688 5.40625 -4.671875 C 6.125 -3.910156 6.988281 -3.304688 8 -2.859375 C 9.019531 -2.410156 10.164062 -2.1875 11.4375 -2.1875 C 13.039062 -2.1875 14.46875 -2.503906 15.71875 -3.140625 C 16.976562 -3.773438 17.941406 -4.617188 18.609375 -5.671875 Z M 20.84375 -4.140625 "/></g></g></g><g fill="#0e2349" fill-opacity="1"><g transform="translate(617.35827, 38.999034)"><g><path d="M 3.1875 -9.703125 C 3.414062 -7.410156 4.25 -5.582031 5.6875 -4.21875 C 7.132812 -2.863281 9.007812 -2.1875 11.3125 -2.1875 C 12.9375 -2.1875 14.382812 -2.519531 15.65625 -3.1875 C 16.925781 -3.851562 17.878906 -4.679688 18.515625 -5.671875 L 20.75 -4.140625 C 19.664062 -2.617188 18.367188 -1.457031 16.859375 -0.65625 C 15.359375 0.132812 13.507812 0.53125 11.3125 0.53125 C 9.644531 0.53125 8.113281 0.253906 6.71875 -0.296875 C 5.320312 -0.859375 4.113281 -1.640625 3.09375 -2.640625 C 2.082031 -3.640625 1.296875 -4.828125 0.734375 -6.203125 C 0.179688 -7.578125 -0.09375 -9.109375 -0.09375 -10.796875 C -0.09375 -12.441406 0.15625 -13.957031 0.65625 -15.34375 C 1.164062 -16.726562 1.894531 -17.925781 2.84375 -18.9375 C 3.800781 -19.957031 4.957031 -20.75 6.3125 -21.3125 C 7.675781 -21.875 9.203125 -22.15625 10.890625 -22.15625 C 12.734375 -22.15625 14.34375 -21.84375 15.71875 -21.21875 C 17.101562 -20.601562 18.253906 -19.75 19.171875 -18.65625 C 20.097656 -17.570312 20.78125 -16.269531 21.21875 -14.75 C 21.664062 -13.226562 21.890625 -11.546875 21.890625 -9.703125 Z M 18.515625 -12.421875 C 18.160156 -14.796875 17.300781 -16.5625 15.9375 -17.71875 C 14.570312 -18.882812 12.890625 -19.46875 10.890625 -19.46875 C 9.867188 -19.46875 8.925781 -19.300781 8.0625 -18.96875 C 7.195312 -18.632812 6.429688 -18.15625 5.765625 -17.53125 C 5.097656 -16.914062 4.539062 -16.171875 4.09375 -15.296875 C 3.644531 -14.421875 3.359375 -13.460938 3.234375 -12.421875 Z M 18.515625 -12.421875 "/></g></g></g><g fill="#0e2349" fill-opacity="1"><g transform="translate(671.020179, 38.999034)"><g><path d="M 20.515625 0 L 17.3125 0 L 17.3125 -2 C 16.394531 -1.175781 15.390625 -0.546875 14.296875 -0.109375 C 13.203125 0.316406 12.082031 0.53125 10.9375 0.53125 C 9.21875 0.53125 7.675781 0.253906 6.3125 -0.296875 C 4.957031 -0.859375 3.8125 -1.640625 2.875 -2.640625 C 1.9375 -3.640625 1.210938 -4.832031 0.703125 -6.21875 C 0.203125 -7.613281 -0.046875 -9.140625 -0.046875 -10.796875 C -0.046875 -12.441406 0.203125 -13.960938 0.703125 -15.359375 C 1.210938 -16.765625 1.9375 -17.96875 2.875 -18.96875 C 3.8125 -19.96875 4.957031 -20.75 6.3125 -21.3125 C 7.675781 -21.875 9.21875 -22.15625 10.9375 -22.15625 C 12.082031 -22.15625 13.203125 -21.953125 14.296875 -21.546875 C 15.390625 -21.140625 16.394531 -20.523438 17.3125 -19.703125 L 17.3125 -27.59375 L 12.984375 -27.59375 L 12.984375 -30.3125 L 20.515625 -30.3125 Z M 17.3125 -16.609375 C 16.394531 -17.617188 15.394531 -18.347656 14.3125 -18.796875 C 13.238281 -19.242188 12.097656 -19.46875 10.890625 -19.46875 C 9.617188 -19.46875 8.5 -19.242188 7.53125 -18.796875 C 6.570312 -18.347656 5.765625 -17.734375 5.109375 -16.953125 C 4.460938 -16.179688 3.972656 -15.269531 3.640625 -14.21875 C 3.304688 -13.175781 3.140625 -12.035156 3.140625 -10.796875 C 3.140625 -9.554688 3.304688 -8.414062 3.640625 -7.375 C 3.972656 -6.332031 4.460938 -5.421875 5.109375 -4.640625 C 5.765625 -3.867188 6.570312 -3.257812 7.53125 -2.8125 C 8.5 -2.363281 9.617188 -2.140625 10.890625 -2.140625 C 13.335938 -2.140625 15.476562 -3.109375 17.3125 -5.046875 Z M 17.3125 -16.609375 "/></g></g></g><g fill="#0e2349" fill-opacity="1"><g transform="translate(697.851134, 38.999034)"><g><path d="M 1.140625 -21.65625 L 4.328125 -21.65625 L 4.328125 -8.265625 C 4.328125 -6.328125 4.75 -4.828125 5.59375 -3.765625 C 6.4375 -2.710938 7.796875 -2.1875 9.671875 -2.1875 C 10.847656 -2.1875 11.90625 -2.457031 12.84375 -3 C 13.789062 -3.539062 14.597656 -4.265625 15.265625 -5.171875 C 15.929688 -6.078125 16.4375 -7.113281 16.78125 -8.28125 C 17.132812 -9.445312 17.3125 -10.664062 17.3125 -11.9375 L 17.3125 -21.65625 L 20.515625 -21.65625 L 20.515625 0 L 17.3125 0 L 17.3125 -5.40625 C 15.789062 -1.445312 13.0625 0.53125 9.125 0.53125 C 3.800781 0.53125 1.140625 -2.398438 1.140625 -8.265625 Z M 1.140625 -21.65625 "/></g></g></g><g fill="#0e2349" fill-opacity="1"><g transform="translate(751.513044, 38.999034)"><g><path d="M 21.890625 -6.90625 C 21.640625 -4.625 20.742188 -2.8125 19.203125 -1.46875 C 17.660156 -0.132812 15.734375 0.53125 13.421875 0.53125 C 12.148438 0.53125 10.988281 0.320312 9.9375 -0.09375 C 8.882812 -0.507812 7.988281 -1.085938 7.25 -1.828125 C 6.507812 -2.578125 5.929688 -3.472656 5.515625 -4.515625 C 5.109375 -5.566406 4.90625 -6.707031 4.90625 -7.9375 L 4.90625 -18.9375 L 0 -18.9375 L 0 -21.65625 L 4.90625 -21.65625 L 4.90625 -30.3125 L 8.078125 -30.3125 L 8.078125 -21.65625 L 17.3125 -21.65625 L 17.3125 -18.9375 L 8.078125 -18.9375 L 8.078125 -7.9375 C 8.078125 -7.15625 8.203125 -6.414062 8.453125 -5.71875 C 8.710938 -5.019531 9.070312 -4.40625 9.53125 -3.875 C 9.988281 -3.351562 10.539062 -2.941406 11.1875 -2.640625 C 11.84375 -2.335938 12.585938 -2.1875 13.421875 -2.1875 C 15.003906 -2.1875 16.328125 -2.675781 17.390625 -3.65625 C 18.453125 -4.644531 19.0625 -5.921875 19.21875 -7.484375 Z M 21.890625 -6.90625 "/></g></g></g><g fill="#0e2349" fill-opacity="1"><g transform="translate(778.343999, 38.999034)"><g><path d="M 3.1875 -9.703125 C 3.414062 -7.410156 4.25 -5.582031 5.6875 -4.21875 C 7.132812 -2.863281 9.007812 -2.1875 11.3125 -2.1875 C 12.9375 -2.1875 14.382812 -2.519531 15.65625 -3.1875 C 16.925781 -3.851562 17.878906 -4.679688 18.515625 -5.671875 L 20.75 -4.140625 C 19.664062 -2.617188 18.367188 -1.457031 16.859375 -0.65625 C 15.359375 0.132812 13.507812 0.53125 11.3125 0.53125 C 9.644531 0.53125 8.113281 0.253906 6.71875 -0.296875 C 5.320312 -0.859375 4.113281 -1.640625 3.09375 -2.640625 C 2.082031 -3.640625 1.296875 -4.828125 0.734375 -6.203125 C 0.179688 -7.578125 -0.09375 -9.109375 -0.09375 -10.796875 C -0.09375 -12.441406 0.15625 -13.957031 0.65625 -15.34375 C 1.164062 -16.726562 1.894531 -17.925781 2.84375 -18.9375 C 3.800781 -19.957031 4.957031 -20.75 6.3125 -21.3125 C 7.675781 -21.875 9.203125 -22.15625 10.890625 -22.15625 C 12.734375 -22.15625 14.34375 -21.84375 15.71875 -21.21875 C 17.101562 -20.601562 18.253906 -19.75 19.171875 -18.65625 C 20.097656 -17.570312 20.78125 -16.269531 21.21875 -14.75 C 21.664062 -13.226562 21.890625 -11.546875 21.890625 -9.703125 Z M 18.515625 -12.421875 C 18.160156 -14.796875 17.300781 -16.5625 15.9375 -17.71875 C 14.570312 -18.882812 12.890625 -19.46875 10.890625 -19.46875 C 9.867188 -19.46875 8.925781 -19.300781 8.0625 -18.96875 C 7.195312 -18.632812 6.429688 -18.15625 5.765625 -17.53125 C 5.097656 -16.914062 4.539062 -16.171875 4.09375 -15.296875 C 3.644531 -14.421875 3.359375 -13.460938 3.234375 -12.421875 Z M 18.515625 -12.421875 "/></g></g></g><g fill="#0e2349" fill-opacity="1"><g transform="translate(805.174954, 38.999034)"><g><path d="M 21.65625 0 L 18.46875 0 L 18.46875 -15.5625 C 18.46875 -16.800781 18.25 -17.757812 17.8125 -18.4375 C 17.382812 -19.125 16.757812 -19.46875 15.9375 -19.46875 C 14.726562 -19.46875 13.835938 -18.832031 13.265625 -17.5625 C 12.703125 -16.289062 12.421875 -14.507812 12.421875 -12.21875 L 12.421875 0 L 9.21875 0 L 9.21875 -15.5625 C 9.21875 -16.800781 9 -17.757812 8.5625 -18.4375 C 8.125 -19.125 7.492188 -19.46875 6.671875 -19.46875 C 5.910156 -19.46875 5.304688 -19.242188 4.859375 -18.796875 C 4.410156 -18.347656 4.054688 -17.773438 3.796875 -17.078125 C 3.546875 -16.378906 3.378906 -15.601562 3.296875 -14.75 C 3.222656 -13.894531 3.1875 -13.050781 3.1875 -12.21875 L 3.1875 0 L 0 0 L 0 -21.65625 L 3.1875 -21.65625 L 3.1875 -18.515625 C 3.851562 -20.941406 5.300781 -22.15625 7.53125 -22.15625 C 9.644531 -22.15625 11.082031 -21.097656 11.84375 -18.984375 C 12.894531 -21.097656 14.382812 -22.15625 16.3125 -22.15625 C 18.15625 -22.15625 19.503906 -21.609375 20.359375 -20.515625 C 21.222656 -19.429688 21.65625 -17.78125 21.65625 -15.5625 Z M 21.65625 0 "/></g></g></g><g fill="#0e2349" fill-opacity="1"><g transform="translate(832.005909, 38.999034)"><g><path d="M 21.65625 -10.796875 C 21.65625 -9.109375 21.390625 -7.578125 20.859375 -6.203125 C 20.335938 -4.828125 19.597656 -3.640625 18.640625 -2.640625 C 17.691406 -1.640625 16.539062 -0.859375 15.1875 -0.296875 C 13.84375 0.253906 12.332031 0.53125 10.65625 0.53125 C 9.507812 0.53125 8.398438 0.320312 7.328125 -0.09375 C 6.253906 -0.507812 5.253906 -1.128906 4.328125 -1.953125 L 4.328125 8.671875 L 1.140625 8.671875 L 1.140625 -21.65625 L 4.328125 -21.65625 L 4.328125 -19.65625 C 6.285156 -21.320312 8.394531 -22.15625 10.65625 -22.15625 C 12.332031 -22.15625 13.84375 -21.878906 15.1875 -21.328125 C 16.539062 -20.785156 17.691406 -20.003906 18.640625 -18.984375 C 19.597656 -17.972656 20.335938 -16.765625 20.859375 -15.359375 C 21.390625 -13.960938 21.65625 -12.441406 21.65625 -10.796875 Z M 18.46875 -10.796875 C 18.46875 -12.003906 18.300781 -13.140625 17.96875 -14.203125 C 17.632812 -15.265625 17.132812 -16.179688 16.46875 -16.953125 C 15.800781 -17.734375 14.984375 -18.347656 14.015625 -18.796875 C 13.046875 -19.242188 11.925781 -19.46875 10.65625 -19.46875 C 9.445312 -19.46875 8.320312 -19.242188 7.28125 -18.796875 C 6.238281 -18.347656 5.253906 -17.617188 4.328125 -16.609375 L 4.328125 -5 C 5.253906 -3.988281 6.238281 -3.265625 7.28125 -2.828125 C 8.320312 -2.398438 9.445312 -2.1875 10.65625 -2.1875 C 11.925781 -2.1875 13.046875 -2.410156 14.015625 -2.859375 C 14.984375 -3.304688 15.800781 -3.914062 16.46875 -4.6875 C 17.132812 -5.46875 17.632812 -6.378906 17.96875 -7.421875 C 18.300781 -8.460938 18.46875 -9.585938 18.46875 -10.796875 Z M 18.46875 -10.796875 "/></g></g></g><g fill="#0e2349" fill-opacity="1"><g transform="translate(858.836864, 38.999034)"><g><path d="M 21.078125 -6 C 21.078125 -4.726562 20.757812 -3.671875 20.125 -2.828125 C 19.488281 -1.992188 18.671875 -1.328125 17.671875 -0.828125 C 16.671875 -0.335938 15.550781 0.0078125 14.3125 0.21875 C 13.082031 0.425781 11.878906 0.53125 10.703125 0.53125 C 8.742188 0.53125 6.785156 0.242188 4.828125 -0.328125 C 2.878906 -0.898438 1.191406 -1.648438 -0.234375 -2.578125 L 1.1875 -5.3125 C 2.78125 -4.3125 4.347656 -3.539062 5.890625 -3 C 7.441406 -2.457031 9.046875 -2.1875 10.703125 -2.1875 C 15.492188 -2.1875 17.890625 -3.425781 17.890625 -5.90625 C 17.890625 -6.507812 17.691406 -7 17.296875 -7.375 C 16.898438 -7.75 16.367188 -8.054688 15.703125 -8.296875 C 15.035156 -8.546875 14.269531 -8.738281 13.40625 -8.875 C 12.550781 -9.007812 11.648438 -9.140625 10.703125 -9.265625 C 9.492188 -9.441406 8.289062 -9.644531 7.09375 -9.875 C 5.90625 -10.101562 4.820312 -10.445312 3.84375 -10.90625 C 2.863281 -11.375 2.070312 -11.992188 1.46875 -12.765625 C 0.875 -13.546875 0.578125 -14.570312 0.578125 -15.84375 C 0.578125 -16.925781 0.851562 -17.863281 1.40625 -18.65625 C 1.957031 -19.445312 2.691406 -20.101562 3.609375 -20.625 C 4.535156 -21.15625 5.617188 -21.539062 6.859375 -21.78125 C 8.097656 -22.03125 9.378906 -22.15625 10.703125 -22.15625 C 12.609375 -22.15625 14.3125 -21.9375 15.8125 -21.5 C 17.320312 -21.0625 18.679688 -20.429688 19.890625 -19.609375 L 18.609375 -17.125 C 17.367188 -17.988281 16.113281 -18.59375 14.84375 -18.9375 C 13.570312 -19.289062 12.191406 -19.46875 10.703125 -19.46875 C 10.035156 -19.46875 9.296875 -19.410156 8.484375 -19.296875 C 7.671875 -19.179688 6.914062 -18.976562 6.21875 -18.6875 C 5.53125 -18.40625 4.945312 -18.035156 4.46875 -17.578125 C 4 -17.117188 3.765625 -16.539062 3.765625 -15.84375 C 3.765625 -15.238281 3.960938 -14.753906 4.359375 -14.390625 C 4.753906 -14.023438 5.285156 -13.722656 5.953125 -13.484375 C 6.617188 -13.242188 7.378906 -13.050781 8.234375 -12.90625 C 9.097656 -12.769531 10 -12.640625 10.9375 -12.515625 C 12.113281 -12.347656 13.300781 -12.144531 14.5 -11.90625 C 15.707031 -11.675781 16.800781 -11.335938 17.78125 -10.890625 C 18.769531 -10.441406 19.566406 -9.832031 20.171875 -9.0625 C 20.773438 -8.289062 21.078125 -7.269531 21.078125 -6 Z M 21.078125 -6 "/></g></g></g><g fill="#0e2349" fill-opacity="1"><g transform="translate(912.498774, 38.999034)"><g><path d="M 20.515625 0 L 17.3125 0 L 17.3125 -2 C 16.394531 -1.175781 15.390625 -0.546875 14.296875 -0.109375 C 13.203125 0.316406 12.082031 0.53125 10.9375 0.53125 C 9.21875 0.53125 7.675781 0.253906 6.3125 -0.296875 C 4.957031 -0.859375 3.8125 -1.640625 2.875 -2.640625 C 1.9375 -3.640625 1.210938 -4.832031 0.703125 -6.21875 C 0.203125 -7.613281 -0.046875 -9.140625 -0.046875 -10.796875 C -0.046875 -12.441406 0.203125 -13.960938 0.703125 -15.359375 C 1.210938 -16.765625 1.9375 -17.96875 2.875 -18.96875 C 3.8125 -19.96875 4.957031 -20.75 6.3125 -21.3125 C 7.675781 -21.875 9.21875 -22.15625 10.9375 -22.15625 C 12.082031 -22.15625 13.203125 -21.953125 14.296875 -21.546875 C 15.390625 -21.140625 16.394531 -20.523438 17.3125 -19.703125 L 17.3125 -27.59375 L 12.984375 -27.59375 L 12.984375 -30.3125 L 20.515625 -30.3125 Z M 17.3125 -16.609375 C 16.394531 -17.617188 15.394531 -18.347656 14.3125 -18.796875 C 13.238281 -19.242188 12.097656 -19.46875 10.890625 -19.46875 C 9.617188 -19.46875 8.5 -19.242188 7.53125 -18.796875 C 6.570312 -18.347656 5.765625 -17.734375 5.109375 -16.953125 C 4.460938 -16.179688 3.972656 -15.269531 3.640625 -14.21875 C 3.304688 -13.175781 3.140625 -12.035156 3.140625 -10.796875 C 3.140625 -9.554688 3.304688 -8.414062 3.640625 -7.375 C 3.972656 -6.332031 4.460938 -5.421875 5.109375 -4.640625 C 5.765625 -3.867188 6.570312 -3.257812 7.53125 -2.8125 C 8.5 -2.363281 9.617188 -2.140625 10.890625 -2.140625 C 13.335938 -2.140625 15.476562 -3.109375 17.3125 -5.046875 Z M 17.3125 -16.609375 "/></g></g></g><g fill="#0e2349" fill-opacity="1"><g transform="translate(939.329729, 38.999034)"><g><path d="M 3.1875 -9.703125 C 3.414062 -7.410156 4.25 -5.582031 5.6875 -4.21875 C 7.132812 -2.863281 9.007812 -2.1875 11.3125 -2.1875 C 12.9375 -2.1875 14.382812 -2.519531 15.65625 -3.1875 C 16.925781 -3.851562 17.878906 -4.679688 18.515625 -5.671875 L 20.75 -4.140625 C 19.664062 -2.617188 18.367188 -1.457031 16.859375 -0.65625 C 15.359375 0.132812 13.507812 0.53125 11.3125 0.53125 C 9.644531 0.53125 8.113281 0.253906 6.71875 -0.296875 C 5.320312 -0.859375 4.113281 -1.640625 3.09375 -2.640625 C 2.082031 -3.640625 1.296875 -4.828125 0.734375 -6.203125 C 0.179688 -7.578125 -0.09375 -9.109375 -0.09375 -10.796875 C -0.09375 -12.441406 0.15625 -13.957031 0.65625 -15.34375 C 1.164062 -16.726562 1.894531 -17.925781 2.84375 -18.9375 C 3.800781 -19.957031 4.957031 -20.75 6.3125 -21.3125 C 7.675781 -21.875 9.203125 -22.15625 10.890625 -22.15625 C 12.734375 -22.15625 14.34375 -21.84375 15.71875 -21.21875 C 17.101562 -20.601562 18.253906 -19.75 19.171875 -18.65625 C 20.097656 -17.570312 20.78125 -16.269531 21.21875 -14.75 C 21.664062 -13.226562 21.890625 -11.546875 21.890625 -9.703125 Z M 18.515625 -12.421875 C 18.160156 -14.796875 17.300781 -16.5625 15.9375 -17.71875 C 14.570312 -18.882812 12.890625 -19.46875 10.890625 -19.46875 C 9.867188 -19.46875 8.925781 -19.300781 8.0625 -18.96875 C 7.195312 -18.632812 6.429688 -18.15625 5.765625 -17.53125 C 5.097656 -16.914062 4.539062 -16.171875 4.09375 -15.296875 C 3.644531 -14.421875 3.359375 -13.460938 3.234375 -12.421875 Z M 18.515625 -12.421875 "/></g></g></g><g fill="#0e2349" fill-opacity="1"><g transform="translate(966.160683, 38.999034)"><g><path d="M 21.078125 -6 C 21.078125 -4.726562 20.757812 -3.671875 20.125 -2.828125 C 19.488281 -1.992188 18.671875 -1.328125 17.671875 -0.828125 C 16.671875 -0.335938 15.550781 0.0078125 14.3125 0.21875 C 13.082031 0.425781 11.878906 0.53125 10.703125 0.53125 C 8.742188 0.53125 6.785156 0.242188 4.828125 -0.328125 C 2.878906 -0.898438 1.191406 -1.648438 -0.234375 -2.578125 L 1.1875 -5.3125 C 2.78125 -4.3125 4.347656 -3.539062 5.890625 -3 C 7.441406 -2.457031 9.046875 -2.1875 10.703125 -2.1875 C 15.492188 -2.1875 17.890625 -3.425781 17.890625 -5.90625 C 17.890625 -6.507812 17.691406 -7 17.296875 -7.375 C 16.898438 -7.75 16.367188 -8.054688 15.703125 -8.296875 C 15.035156 -8.546875 14.269531 -8.738281 13.40625 -8.875 C 12.550781 -9.007812 11.648438 -9.140625 10.703125 -9.265625 C 9.492188 -9.441406 8.289062 -9.644531 7.09375 -9.875 C 5.90625 -10.101562 4.820312 -10.445312 3.84375 -10.90625 C 2.863281 -11.375 2.070312 -11.992188 1.46875 -12.765625 C 0.875 -13.546875 0.578125 -14.570312 0.578125 -15.84375 C 0.578125 -16.925781 0.851562 -17.863281 1.40625 -18.65625 C 1.957031 -19.445312 2.691406 -20.101562 3.609375 -20.625 C 4.535156 -21.15625 5.617188 -21.539062 6.859375 -21.78125 C 8.097656 -22.03125 9.378906 -22.15625 10.703125 -22.15625 C 12.609375 -22.15625 14.3125 -21.9375 15.8125 -21.5 C 17.320312 -21.0625 18.679688 -20.429688 19.890625 -19.609375 L 18.609375 -17.125 C 17.367188 -17.988281 16.113281 -18.59375 14.84375 -18.9375 C 13.570312 -19.289062 12.191406 -19.46875 10.703125 -19.46875 C 10.035156 -19.46875 9.296875 -19.410156 8.484375 -19.296875 C 7.671875 -19.179688 6.914062 -18.976562 6.21875 -18.6875 C 5.53125 -18.40625 4.945312 -18.035156 4.46875 -17.578125 C 4 -17.117188 3.765625 -16.539062 3.765625 -15.84375 C 3.765625 -15.238281 3.960938 -14.753906 4.359375 -14.390625 C 4.753906 -14.023438 5.285156 -13.722656 5.953125 -13.484375 C 6.617188 -13.242188 7.378906 -13.050781 8.234375 -12.90625 C 9.097656 -12.769531 10 -12.640625 10.9375 -12.515625 C 12.113281 -12.347656 13.300781 -12.144531 14.5 -11.90625 C 15.707031 -11.675781 16.800781 -11.335938 17.78125 -10.890625 C 18.769531 -10.441406 19.566406 -9.832031 20.171875 -9.0625 C 20.773438 -8.289062 21.078125 -7.269531 21.078125 -6 Z M 21.078125 -6 "/></g></g></g><g fill="#0e2349" fill-opacity="1"><g transform="translate(1019.822593, 38.999034)"><g><path d="M 21.609375 -21.65625 C 21.609375 -18.726562 20.691406 -16.550781 18.859375 -15.125 C 17.035156 -13.695312 14.472656 -12.984375 11.171875 -12.984375 L 4.328125 -12.984375 L 4.328125 0 L 1.140625 0 L 1.140625 -30.3125 L 11.125 -30.3125 C 14.457031 -30.3125 17.035156 -29.585938 18.859375 -28.140625 C 20.691406 -26.691406 21.609375 -24.53125 21.609375 -21.65625 Z M 18.421875 -21.65625 C 18.421875 -23.738281 17.757812 -25.25 16.4375 -26.1875 C 15.125 -27.125 13.367188 -27.59375 11.171875 -27.59375 L 4.328125 -27.59375 L 4.328125 -15.703125 L 11.171875 -15.703125 C 13.367188 -15.703125 15.125 -16.171875 16.4375 -17.109375 C 17.757812 -18.046875 18.421875 -19.5625 18.421875 -21.65625 Z M 18.421875 -21.65625 "/></g></g></g><g fill="#0e2349" fill-opacity="1"><g transform="translate(1046.653548, 38.999034)"><g><path d="M 20.515625 0 L 17.3125 0 L 17.3125 -25.25 L 11.9375 -9.625 L 9.671875 -9.625 L 4.328125 -25.25 L 4.328125 0 L 1.140625 0 L 1.140625 -30.3125 L 5.28125 -30.3125 L 10.796875 -14.46875 L 16.375 -30.3125 L 20.515625 -30.3125 Z M 20.515625 0 "/></g></g></g><g fill="#0e2349" fill-opacity="1"><g transform="translate(1073.484503, 38.999034)"><g><path d="M 20.515625 0 L 1.140625 0 L 1.140625 -30.3125 L 20.515625 -30.3125 L 20.515625 -27.59375 L 4.328125 -27.59375 L 4.328125 -16.75 L 16.265625 -16.75 L 16.265625 -14.03125 L 4.328125 -14.03125 L 4.328125 -2.71875 L 20.515625 -2.71875 Z M 20.515625 0 "/></g></g></g></g></g></g><g clip-path="url(#f6b662ef5c)"><g transform="matrix(1, 0, 0, 1, 291, -0.000000000000028422)"><g clip-path="url(#7655ab2deb)"><g fill="#0e2349" fill-opacity="1"><g transform="translate(0.636061, 39.978761)"><g><path d="M 18.4375 0 L 3.671875 0 L 3.671875 -4.390625 L 8.53125 -4.390625 L 8.53125 -26.359375 L 3.671875 -26.359375 L 3.671875 -30.765625 L 18.4375 -30.765625 L 18.4375 -26.359375 L 13.421875 -26.359375 L 13.421875 -4.390625 L 18.4375 -4.390625 Z M 18.4375 0 "/></g></g></g><g fill="#0e2349" fill-opacity="1"><g transform="translate(30.037501, 39.978761)"><g><path d="M 18.296875 0 L 16.078125 -7.328125 L 5.890625 -7.328125 L 3.71875 0 L -1.390625 0 L 8.203125 -30.765625 L 13.8125 -30.765625 L 23.40625 0 Z M 7.1875 -11.640625 L 14.78125 -11.640625 L 11.015625 -24.328125 Z M 7.1875 -11.640625 "/></g></g></g></g></g></g></g></g></svg>