<svg xmlns="http://www.w3.org/2000/svg" xmlns:xlink="http://www.w3.org/1999/xlink" width="1970" zoomAndPan="magnify" viewBox="0 0 1477.5 748.499978" height="998" preserveAspectRatio="xMidYMid meet" version="1.0"><defs><g/><clipPath id="6713c3070f"><rect x="0" width="360" y="0" height="312"/></clipPath><clipPath id="b08bb1536a"><rect x="0" width="102" y="0" height="126"/></clipPath><clipPath id="0badee6362"><rect x="0" width="102" y="0" height="124"/></clipPath><clipPath id="d944cfd18e"><rect x="0" width="935" y="0" height="119"/></clipPath><clipPath id="9e332ddb89"><path d="M 696 14 L 714 14 L 714 40.84375 L 696 40.84375 Z M 696 14 " clip-rule="nonzero"/></clipPath><clipPath id="9b4a5a5083"><rect x="0" width="921" y="0" height="41"/></clipPath><clipPath id="3d56a42a17"><rect x="0" width="51" y="0" height="41"/></clipPath></defs><g transform="matrix(1, 0, 0, 1, 136, 218)"><g clip-path="url(#6713c3070f)"><g fill="#0e2349" fill-opacity="1"><g transform="translate(299.207231, 311.113443)"><g><path d="M -291.578125 -162.953125 C -291.578125 -153.203125 -289.785156 -144.046875 -286.203125 -135.484375 C -282.421875 -126.929688 -277.347656 -119.472656 -270.984375 -113.109375 C -264.617188 -106.742188 -257.15625 -101.769531 -248.59375 -98.1875 C -240.039062 -94.40625 -230.890625 -92.515625 -221.140625 -92.515625 C -211.390625 -92.515625 -202.238281 -94.40625 -193.6875 -98.1875 C -185.132812 -101.769531 -177.671875 -106.742188 -171.296875 -113.109375 C -164.929688 -119.472656 -159.957031 -126.929688 -156.375 -135.484375 C -152.601562 -144.046875 -150.71875 -153.203125 -150.71875 -162.953125 L -150.71875 -220.25 C -150.71875 -230.59375 -148.726562 -240.441406 -144.75 -249.796875 C -140.769531 -258.941406 -135.394531 -266.898438 -128.625 -273.671875 C -121.863281 -280.429688 -113.90625 -285.800781 -104.75 -289.78125 C -95.601562 -293.757812 -85.851562 -295.75 -75.5 -295.75 C -64.957031 -295.75 -55.109375 -293.757812 -45.953125 -289.78125 C -36.804688 -285.800781 -28.847656 -280.429688 -22.078125 -273.671875 C -15.316406 -266.898438 -9.945312 -258.941406 -5.96875 -249.796875 C -1.988281 -240.441406 0 -230.59375 0 -220.25 L 0 -14.921875 L -85.359375 -14.921875 C -70.234375 -18.503906 -56.800781 -24.972656 -45.0625 -34.328125 C -40.09375 -38.304688 -35.21875 -43.078125 -30.4375 -48.640625 C -25.664062 -54.015625 -21.390625 -60.484375 -17.609375 -68.046875 C -13.828125 -75.410156 -10.84375 -83.960938 -8.65625 -93.703125 C -6.269531 -103.253906 -5.078125 -114.097656 -5.078125 -126.234375 L -5.078125 -147.734375 C -5.078125 -157.472656 -6.96875 -166.625 -10.75 -175.1875 C -14.320312 -183.738281 -19.296875 -191.195312 -25.671875 -197.5625 C -32.035156 -203.925781 -39.492188 -209 -48.046875 -212.78125 C -56.597656 -216.363281 -65.75 -218.15625 -75.5 -218.15625 C -85.25 -218.15625 -94.40625 -216.363281 -102.96875 -212.78125 C -111.320312 -209 -118.679688 -203.925781 -125.046875 -197.5625 C -131.410156 -191.195312 -136.484375 -183.738281 -140.265625 -175.1875 C -143.847656 -166.625 -145.640625 -157.472656 -145.640625 -147.734375 L -145.640625 -90.421875 C -145.640625 -79.878906 -147.628906 -70.03125 -151.609375 -60.875 C -155.585938 -51.726562 -160.957031 -43.769531 -167.71875 -37 C -174.488281 -30.238281 -182.445312 -24.867188 -191.59375 -20.890625 C -200.75 -16.910156 -210.597656 -14.921875 -221.140625 -14.921875 C -231.484375 -14.921875 -241.234375 -16.910156 -250.390625 -20.890625 C -259.546875 -24.867188 -267.503906 -30.238281 -274.265625 -37 C -281.023438 -43.769531 -286.394531 -51.726562 -290.375 -60.875 C -294.351562 -70.03125 -296.34375 -79.878906 -296.34375 -90.421875 L -296.34375 -295.75 L -211 -295.75 C -225.914062 -292.164062 -239.34375 -285.703125 -251.28125 -276.359375 C -256.257812 -272.378906 -261.234375 -267.601562 -266.203125 -262.03125 C -270.984375 -256.457031 -275.265625 -249.988281 -279.046875 -242.625 C -282.816406 -235.070312 -285.898438 -226.519531 -288.296875 -216.96875 C -290.484375 -207.414062 -291.578125 -196.570312 -291.578125 -184.4375 Z M -291.578125 -162.953125 "/></g></g></g></g></g><g transform="matrix(1, 0, 0, 1, 164, 288)"><g clip-path="url(#b08bb1536a)"><g fill="#0e2349" fill-opacity="1"><g transform="translate(1.407097, 103.714671)"><g><path d="M 31.25 -100.890625 L 31.25 -65.1875 L 69.53125 -65.1875 C 73.3125 -65.1875 76.613281 -64.257812 79.4375 -62.40625 C 82.25 -60.550781 84.582031 -58.109375 86.4375 -55.078125 C 88.300781 -51.984375 89.710938 -48.515625 90.671875 -44.671875 C 91.566406 -40.742188 92.015625 -36.753906 92.015625 -32.703125 C 91.941406 -28.578125 91.460938 -24.585938 90.578125 -20.734375 C 89.609375 -16.816406 88.195312 -13.34375 86.34375 -10.3125 C 84.414062 -7.21875 82.078125 -4.742188 79.328125 -2.890625 C 76.503906 -1.035156 73.238281 -0.109375 69.53125 -0.109375 L 6.09375 -0.109375 L 6.09375 -29.609375 C 7.320312 -24.378906 9.554688 -19.738281 12.796875 -15.6875 C 14.171875 -13.957031 15.820312 -12.269531 17.75 -10.625 C 19.601562 -8.976562 21.835938 -7.5 24.453125 -6.1875 C 26.992188 -4.882812 29.945312 -3.851562 33.3125 -3.09375 C 36.613281 -2.269531 40.363281 -1.859375 44.5625 -1.859375 C 48.070312 -1.921875 51.304688 -3.085938 54.265625 -5.359375 C 57.148438 -7.566406 59.625 -10.390625 61.6875 -13.828125 C 63.195312 -16.296875 64.265625 -19.179688 64.890625 -22.484375 C 65.503906 -25.722656 65.773438 -28.988281 65.703125 -32.28125 C 65.640625 -35.519531 65.332031 -38.617188 64.78125 -41.578125 C 64.164062 -44.460938 63.375 -46.800781 62.40625 -48.59375 C 61.375 -50.65625 60.207031 -52.578125 58.90625 -54.359375 C 57.59375 -56.148438 56.179688 -57.734375 54.671875 -59.109375 C 53.160156 -60.410156 51.578125 -61.476562 49.921875 -62.3125 C 48.203125 -63.0625 46.414062 -63.4375 44.5625 -63.4375 L 33.421875 -63.4375 C 32.316406 -63.4375 31.390625 -63.4375 30.640625 -63.4375 C 29.878906 -63.375 29.46875 -63.34375 29.40625 -63.34375 L 29.40625 -63.4375 L 5.15625 -63.4375 L 5.15625 -102.640625 L 92.84375 -102.640625 L 92.84375 -73.140625 C 91.601562 -78.296875 89.398438 -82.898438 86.234375 -86.953125 C 84.859375 -88.679688 83.207031 -90.40625 81.28125 -92.125 C 79.363281 -93.769531 77.128906 -95.242188 74.578125 -96.546875 C 71.960938 -97.859375 69.003906 -98.925781 65.703125 -99.75 C 62.335938 -100.507812 58.554688 -100.890625 54.359375 -100.890625 Z M 31.25 -100.890625 "/></g></g></g></g></g><g transform="matrix(1, 0, 0, 1, 300, 348)"><g clip-path="url(#0badee6362)"><g fill="#0e2349" fill-opacity="1"><g transform="translate(0.391617, 101.976033)"><g><path d="M 89.390625 -98.671875 L 89.390625 -1.71875 L 93.421875 -1.71875 L 93.421875 0 L 51.515625 0 L 51.515625 -1.71875 L 55.65625 -1.71875 L 55.65625 -34.34375 L 8.484375 -34.34375 L 8.484375 -34.234375 L 5.046875 -34.234375 L 5.046875 -34.34375 L 5.75 -35.25 L 55.65625 -100.390625 L 93.421875 -100.390625 L 93.421875 -98.671875 Z M 55.65625 -37.671875 L 55.65625 -95.84375 L 11.015625 -37.671875 Z M 55.65625 -37.671875 "/></g></g></g></g></g><g transform="matrix(1, 0, 0, 1, 472, 310)"><g clip-path="url(#d944cfd18e)"><g fill="#0e2349" fill-opacity="1"><g transform="translate(0.305516, 98.458902)"><g><path d="M 53.390625 -95.546875 C 50.203125 -95.546875 47.207031 -94.957031 44.40625 -93.78125 C 41.59375 -92.539062 39.144531 -90.878906 37.0625 -88.796875 C 34.976562 -86.710938 33.347656 -84.269531 32.171875 -81.46875 C 30.929688 -78.664062 30.3125 -75.664062 30.3125 -72.46875 C 30.3125 -69.269531 30.929688 -66.269531 32.171875 -63.46875 C 33.347656 -60.664062 34.976562 -58.222656 37.0625 -56.140625 C 39.144531 -54.046875 41.59375 -52.414062 44.40625 -51.25 C 47.207031 -50.007812 50.203125 -49.390625 53.390625 -49.390625 L 72.171875 -49.390625 C 75.566406 -49.390625 78.796875 -48.738281 81.859375 -47.4375 C 84.859375 -46.125 87.46875 -44.363281 89.6875 -42.15625 C 91.894531 -39.9375 93.648438 -37.328125 94.953125 -34.328125 C 96.265625 -31.328125 96.921875 -28.132812 96.921875 -24.75 C 96.921875 -21.289062 96.265625 -18.0625 94.953125 -15.0625 C 93.648438 -12.0625 91.894531 -9.453125 89.6875 -7.234375 C 87.46875 -5.015625 84.859375 -3.253906 81.859375 -1.953125 C 78.796875 -0.648438 75.566406 0 72.171875 0 L 4.890625 0 L 4.890625 -27.96875 C 6.066406 -23.007812 8.1875 -18.609375 11.25 -14.765625 C 12.550781 -13.140625 14.113281 -11.539062 15.9375 -9.96875 C 17.695312 -8.40625 19.816406 -7.003906 22.296875 -5.765625 C 24.710938 -4.523438 27.515625 -3.550781 30.703125 -2.84375 C 33.835938 -2.050781 37.394531 -1.65625 41.375 -1.65625 L 48.40625 -1.65625 C 51.601562 -1.65625 54.601562 -2.273438 57.40625 -3.515625 C 60.207031 -4.691406 62.648438 -6.320312 64.734375 -8.40625 C 66.828125 -10.5 68.492188 -12.945312 69.734375 -15.75 C 70.898438 -18.550781 71.484375 -21.550781 71.484375 -24.75 C 71.484375 -27.9375 70.898438 -30.929688 69.734375 -33.734375 C 68.492188 -36.472656 66.828125 -38.890625 64.734375 -40.984375 C 62.648438 -43.066406 60.207031 -44.726562 57.40625 -45.96875 C 54.601562 -47.132812 51.601562 -47.71875 48.40625 -47.71875 L 29.625 -47.71875 C 26.175781 -47.71875 22.953125 -48.375 19.953125 -49.6875 C 16.953125 -50.988281 14.34375 -52.75 12.125 -54.96875 C 9.90625 -57.175781 8.144531 -59.78125 6.84375 -62.78125 C 5.539062 -65.78125 4.890625 -69.007812 4.890625 -72.46875 C 4.890625 -75.851562 5.539062 -79.046875 6.84375 -82.046875 C 8.144531 -85.046875 9.90625 -87.65625 12.125 -89.875 C 14.34375 -92.09375 16.953125 -93.851562 19.953125 -95.15625 C 22.953125 -96.457031 26.175781 -97.109375 29.625 -97.109375 L 96.921875 -97.109375 L 96.921875 -69.140625 C 95.742188 -74.035156 93.625 -78.4375 90.5625 -82.34375 C 89.257812 -83.976562 87.691406 -85.609375 85.859375 -87.234375 C 84.035156 -88.796875 81.921875 -90.195312 79.515625 -91.4375 C 77.035156 -92.675781 74.226562 -93.6875 71.09375 -94.46875 C 67.96875 -95.1875 64.414062 -95.546875 60.4375 -95.546875 Z M 53.390625 -95.546875 "/></g></g></g><g fill="#0e2349" fill-opacity="1"><g transform="translate(102.110873, 98.458902)"><g><path d="M 41.46875 -95.546875 L 41.46875 -49.390625 L 43.21875 -49.390625 C 46.09375 -49.390625 48.703125 -50.039062 51.046875 -51.34375 C 53.398438 -52.582031 55.421875 -53.953125 57.109375 -55.453125 C 59.128906 -57.210938 60.957031 -59.265625 62.59375 -61.609375 L 62.59375 -35.5 C 60.957031 -37.78125 59.128906 -39.800781 57.109375 -41.5625 C 55.421875 -43.0625 53.398438 -44.460938 51.046875 -45.765625 C 48.703125 -47.066406 46.09375 -47.71875 43.21875 -47.71875 L 41.46875 -47.71875 L 41.46875 -1.65625 L 59.171875 -1.65625 C 63.015625 -1.65625 66.5 -2.050781 69.625 -2.84375 C 72.695312 -3.550781 75.4375 -4.523438 77.84375 -5.765625 C 80.257812 -7.003906 82.347656 -8.40625 84.109375 -9.96875 C 85.867188 -11.539062 87.398438 -13.140625 88.703125 -14.765625 C 91.703125 -18.609375 93.785156 -23.007812 94.953125 -27.96875 L 94.953125 0 L 4.890625 0 L 4.890625 -1.65625 L 8.796875 -1.65625 L 8.796875 -95.546875 L 4.890625 -95.546875 L 4.890625 -97.109375 L 94.953125 -97.109375 L 94.953125 -69.140625 C 93.785156 -74.035156 91.703125 -78.4375 88.703125 -82.34375 C 87.398438 -83.976562 85.867188 -85.609375 84.109375 -87.234375 C 82.347656 -88.796875 80.257812 -90.195312 77.84375 -91.4375 C 75.4375 -92.675781 72.695312 -93.6875 69.625 -94.46875 C 66.5 -95.1875 63.015625 -95.546875 59.171875 -95.546875 Z M 41.46875 -95.546875 "/></g></g></g><g fill="#0e2349" fill-opacity="1"><g transform="translate(202.058122, 98.458902)"><g><path d="M 120.296875 -95.546875 L 120.296875 -1.65625 L 124.203125 -1.65625 L 124.203125 0 L 83.71875 0 L 83.71875 -1.65625 L 87.625 -1.65625 L 87.625 -91.34375 L 51.140625 -26.796875 L 47.828125 -26.796875 L 12.125 -91.34375 L 12.125 -1.65625 L 15.9375 -1.65625 L 15.9375 0 L 4.890625 0 L 4.890625 -1.65625 L 8.796875 -1.65625 L 8.796875 -95.546875 L 4.890625 -95.546875 L 4.890625 -97.109375 L 33.640625 -97.109375 L 60.34375 -48.90625 L 86.75 -95.546875 L 83.71875 -95.546875 L 83.71875 -97.109375 L 124.203125 -97.109375 L 124.203125 -95.546875 Z M 120.296875 -95.546875 "/></g></g></g><g fill="#0e2349" fill-opacity="1"><g transform="translate(331.246283, 98.458902)"><g><path d="M 108.265625 -1.65625 L 108.265625 0 L 67.765625 0 L 67.765625 -1.65625 L 71.78125 -1.65625 L 61.3125 -33.453125 L 22.390625 -33.453125 L 11.828125 -1.65625 L 15.84375 -1.65625 L 15.84375 0 L 4.890625 0 L 4.890625 -1.65625 L 8.90625 -1.65625 L 39.609375 -95.546875 L 35.5 -95.546875 L 35.5 -97.109375 L 73.25 -97.109375 L 104.34375 -1.65625 Z M 60.828125 -35.109375 L 44.6875 -84.5 L 42.046875 -92.609375 L 22.984375 -35.109375 Z M 60.828125 -35.109375 "/></g></g></g><g fill="#0e2349" fill-opacity="1"><g transform="translate(444.493728, 98.458902)"><g><path d="M 41.46875 -95.546875 L 41.46875 -1.65625 L 45.46875 -1.65625 L 45.46875 0 L 4.890625 0 L 4.890625 -1.65625 L 8.796875 -1.65625 L 8.796875 -95.546875 L 4.890625 -95.546875 L 4.890625 -97.109375 L 45.46875 -97.109375 L 45.46875 -95.546875 Z M 41.46875 -95.546875 "/></g></g></g><g fill="#0e2349" fill-opacity="1"><g transform="translate(494.858524, 98.458902)"><g><path d="M 96.53125 -95.546875 L 96.53125 -1.65625 L 100.4375 -1.65625 L 100.4375 0 L 63.859375 0 L 12.328125 -91.34375 L 12.328125 -1.65625 L 16.140625 -1.65625 L 16.140625 0 L 4.890625 0 L 4.890625 -1.65625 L 9 -1.65625 L 9 -95.546875 L 4.890625 -95.546875 L 4.890625 -97.109375 L 41.65625 -97.109375 L 93.203125 -5.875 L 93.203125 -95.546875 L 89.09375 -95.546875 L 89.09375 -97.109375 L 100.4375 -97.109375 L 100.4375 -95.546875 Z M 96.53125 -95.546875 "/></g></g></g><g fill="#0e2349" fill-opacity="1"><g transform="translate(600.282336, 98.458902)"><g><path d="M 41.46875 -95.546875 L 41.46875 -49.390625 L 43.21875 -49.390625 C 46.09375 -49.390625 48.703125 -50.039062 51.046875 -51.34375 C 53.398438 -52.582031 55.421875 -53.953125 57.109375 -55.453125 C 59.128906 -57.210938 60.957031 -59.265625 62.59375 -61.609375 L 62.59375 -35.5 C 60.957031 -37.78125 59.128906 -39.800781 57.109375 -41.5625 C 55.421875 -43.0625 53.398438 -44.460938 51.046875 -45.765625 C 48.703125 -47.066406 46.09375 -47.71875 43.21875 -47.71875 L 41.46875 -47.71875 L 41.46875 -1.65625 L 59.171875 -1.65625 C 63.015625 -1.65625 66.5 -2.050781 69.625 -2.84375 C 72.695312 -3.550781 75.4375 -4.523438 77.84375 -5.765625 C 80.257812 -7.003906 82.347656 -8.40625 84.109375 -9.96875 C 85.867188 -11.539062 87.398438 -13.140625 88.703125 -14.765625 C 91.703125 -18.609375 93.785156 -23.007812 94.953125 -27.96875 L 94.953125 0 L 4.890625 0 L 4.890625 -1.65625 L 8.796875 -1.65625 L 8.796875 -95.546875 L 4.890625 -95.546875 L 4.890625 -97.109375 L 94.953125 -97.109375 L 94.953125 -69.140625 C 93.785156 -74.035156 91.703125 -78.4375 88.703125 -82.34375 C 87.398438 -83.976562 85.867188 -85.609375 84.109375 -87.234375 C 82.347656 -88.796875 80.257812 -90.195312 77.84375 -91.4375 C 75.4375 -92.675781 72.695312 -93.6875 69.625 -94.46875 C 66.5 -95.1875 63.015625 -95.546875 59.171875 -95.546875 Z M 41.46875 -95.546875 "/></g></g></g><g fill="#0e2349" fill-opacity="1"><g transform="translate(700.229579, 98.458902)"><g/></g></g><g fill="#0e2349" fill-opacity="1"><g transform="translate(745.411218, 98.458902)"><g><path d="M 29.625 -95.640625 L 29.625 -61.8125 L 65.921875 -61.8125 C 69.503906 -61.8125 72.628906 -60.929688 75.296875 -59.171875 C 77.972656 -57.410156 80.191406 -55.09375 81.953125 -52.21875 C 83.710938 -49.289062 85.050781 -46 85.96875 -42.34375 C 86.8125 -38.625 87.234375 -34.84375 87.234375 -31 C 87.171875 -27.09375 86.710938 -23.3125 85.859375 -19.65625 C 84.953125 -15.9375 83.617188 -12.644531 81.859375 -9.78125 C 80.035156 -6.84375 77.816406 -4.492188 75.203125 -2.734375 C 72.535156 -0.972656 69.441406 -0.09375 65.921875 -0.09375 L 5.765625 -0.09375 L 5.765625 -28.0625 C 6.941406 -23.113281 9.0625 -18.710938 12.125 -14.859375 C 13.425781 -13.234375 14.992188 -11.640625 16.828125 -10.078125 C 18.585938 -8.503906 20.703125 -7.101562 23.171875 -5.875 C 25.585938 -4.632812 28.394531 -3.65625 31.59375 -2.9375 C 34.71875 -2.15625 38.269531 -1.765625 42.25 -1.765625 C 45.570312 -1.828125 48.632812 -2.929688 51.4375 -5.078125 C 54.175781 -7.171875 56.523438 -9.847656 58.484375 -13.109375 C 59.921875 -15.453125 60.929688 -18.1875 61.515625 -21.3125 C 62.097656 -24.382812 62.359375 -27.484375 62.296875 -30.609375 C 62.234375 -33.671875 61.941406 -36.601562 61.421875 -39.40625 C 60.828125 -42.144531 60.078125 -44.363281 59.171875 -46.0625 C 58.191406 -48.019531 57.082031 -49.84375 55.84375 -51.53125 C 54.601562 -53.226562 53.265625 -54.726562 51.828125 -56.03125 C 50.398438 -57.269531 48.898438 -58.28125 47.328125 -59.0625 C 45.703125 -59.78125 44.007812 -60.140625 42.25 -60.140625 L 31.6875 -60.140625 C 30.644531 -60.140625 29.765625 -60.140625 29.046875 -60.140625 C 28.328125 -60.078125 27.9375 -60.046875 27.875 -60.046875 L 27.875 -60.140625 L 4.890625 -60.140625 L 4.890625 -97.3125 L 88.015625 -97.3125 L 88.015625 -69.34375 C 86.835938 -74.226562 84.753906 -78.59375 81.765625 -82.4375 C 80.453125 -84.070312 78.882812 -85.703125 77.0625 -87.328125 C 75.238281 -88.898438 73.117188 -90.300781 70.703125 -91.53125 C 68.222656 -92.769531 65.421875 -93.78125 62.296875 -94.5625 C 59.097656 -95.28125 55.507812 -95.640625 51.53125 -95.640625 Z M 29.625 -95.640625 "/></g></g></g><g fill="#0e2349" fill-opacity="1"><g transform="translate(838.414938, 98.458902)"><g><path d="M 86.546875 -95.546875 L 86.546875 -1.65625 L 90.46875 -1.65625 L 90.46875 0 L 49.875 0 L 49.875 -1.65625 L 53.890625 -1.65625 L 53.890625 -33.25 L 8.21875 -33.25 L 8.21875 -33.15625 L 4.890625 -33.15625 L 4.890625 -33.25 L 5.578125 -34.125 L 53.890625 -97.203125 L 90.46875 -97.203125 L 90.46875 -95.546875 Z M 53.890625 -36.484375 L 53.890625 -92.8125 L 10.65625 -36.484375 Z M 53.890625 -36.484375 "/></g></g></g></g></g><g transform="matrix(1, 0, 0, 1, 479, 435)"><g clip-path="url(#9b4a5a5083)"><g fill="#0e2349" fill-opacity="1"><g transform="translate(0.723407, 33.163393)"><g><path d="M 18.0625 -18.09375 C 18.0625 -15.644531 17.296875 -13.828125 15.765625 -12.640625 C 14.234375 -11.453125 12.09375 -10.859375 9.34375 -10.859375 L 3.609375 -10.859375 L 3.609375 0 L 0.953125 0 L 0.953125 -25.34375 L 9.296875 -25.34375 C 12.078125 -25.34375 14.234375 -24.734375 15.765625 -23.515625 C 17.296875 -22.304688 18.0625 -20.5 18.0625 -18.09375 Z M 15.390625 -18.09375 C 15.390625 -19.84375 14.835938 -21.109375 13.734375 -21.890625 C 12.640625 -22.671875 11.175781 -23.0625 9.34375 -23.0625 L 3.609375 -23.0625 L 3.609375 -13.125 L 9.34375 -13.125 C 11.175781 -13.125 12.640625 -13.515625 13.734375 -14.296875 C 14.835938 -15.078125 15.390625 -16.34375 15.390625 -18.09375 Z M 15.390625 -18.09375 "/></g></g></g><g fill="#0e2349" fill-opacity="1"><g transform="translate(23.146283, 33.163393)"><g><path d="M -0.03125 -4.890625 C -0.03125 -6.035156 0.25 -6.988281 0.8125 -7.75 C 1.382812 -8.519531 2.132812 -9.128906 3.0625 -9.578125 C 3.988281 -10.023438 5.046875 -10.347656 6.234375 -10.546875 C 7.429688 -10.753906 8.65625 -10.859375 9.90625 -10.859375 C 10.382812 -10.859375 10.8125 -10.847656 11.1875 -10.828125 C 11.570312 -10.816406 11.9375 -10.796875 12.28125 -10.765625 C 12.625 -10.742188 12.96875 -10.710938 13.3125 -10.671875 C 13.664062 -10.640625 14.050781 -10.597656 14.46875 -10.546875 L 14.46875 -11.84375 C 14.46875 -12.726562 14.273438 -13.453125 13.890625 -14.015625 C 13.503906 -14.585938 13.035156 -15.035156 12.484375 -15.359375 C 11.929688 -15.691406 11.347656 -15.925781 10.734375 -16.0625 C 10.128906 -16.195312 9.613281 -16.265625 9.1875 -16.265625 C 7.84375 -16.265625 6.597656 -16.082031 5.453125 -15.71875 C 4.316406 -15.363281 3.253906 -14.878906 2.265625 -14.265625 L 1.0625 -16.265625 C 2.15625 -16.929688 3.375 -17.472656 4.71875 -17.890625 C 6.070312 -18.316406 7.5625 -18.53125 9.1875 -18.53125 C 10.164062 -18.53125 11.128906 -18.398438 12.078125 -18.140625 C 13.035156 -17.890625 13.890625 -17.5 14.640625 -16.96875 C 15.398438 -16.445312 16.003906 -15.757812 16.453125 -14.90625 C 16.910156 -14.050781 17.140625 -13.03125 17.140625 -11.84375 L 17.140625 0 L 14.46875 0 L 14.46875 -3.03125 C 14 -2.445312 13.46875 -1.929688 12.875 -1.484375 C 12.289062 -1.046875 11.675781 -0.6875 11.03125 -0.40625 C 10.382812 -0.132812 9.734375 0.0703125 9.078125 0.21875 C 8.429688 0.375 7.820312 0.453125 7.25 0.453125 C 4.851562 0.453125 3.039062 -0.00390625 1.8125 -0.921875 C 0.582031 -1.847656 -0.03125 -3.171875 -0.03125 -4.890625 Z M 7.25 -1.828125 C 8.351562 -1.828125 9.347656 -1.988281 10.234375 -2.3125 C 11.128906 -2.644531 11.882812 -3.054688 12.5 -3.546875 C 13.125 -4.046875 13.609375 -4.570312 13.953125 -5.125 C 14.296875 -5.6875 14.46875 -6.191406 14.46875 -6.640625 L 14.46875 -8.34375 C 13.601562 -8.476562 12.769531 -8.550781 11.96875 -8.5625 C 11.175781 -8.570312 10.488281 -8.578125 9.90625 -8.578125 C 8.945312 -8.578125 8.023438 -8.507812 7.140625 -8.375 C 6.253906 -8.25 5.476562 -8.039062 4.8125 -7.75 C 4.15625 -7.457031 3.625 -7.078125 3.21875 -6.609375 C 2.820312 -6.148438 2.625 -5.578125 2.625 -4.890625 C 2.625 -4.128906 2.992188 -3.425781 3.734375 -2.78125 C 4.484375 -2.144531 5.65625 -1.828125 7.25 -1.828125 Z M 7.25 -1.828125 "/></g></g></g><g fill="#0e2349" fill-opacity="1"><g transform="translate(45.569158, 33.163393)"><g><path d="M 17.109375 -15.546875 C 16.148438 -16.023438 15.007812 -16.265625 13.6875 -16.265625 C 12.601562 -16.265625 11.632812 -16.03125 10.78125 -15.5625 C 9.925781 -15.101562 9.195312 -14.492188 8.59375 -13.734375 C 8 -12.972656 7.539062 -12.101562 7.21875 -11.125 C 6.90625 -10.15625 6.75 -9.148438 6.75 -8.109375 L 6.75 -2.265625 L 10.859375 -2.265625 L 10.859375 0 L 0 0 L 0 -2.265625 L 4.09375 -2.265625 L 4.09375 -15.828125 L 0 -15.828125 L 0 -18.09375 L 6.75 -18.09375 L 6.75 -13.546875 C 7.96875 -16.867188 10.28125 -18.53125 13.6875 -18.53125 C 14.601562 -18.53125 15.398438 -18.46875 16.078125 -18.34375 C 16.765625 -18.226562 17.398438 -18.023438 17.984375 -17.734375 Z M 17.109375 -15.546875 "/></g></g></g><g fill="#0e2349" fill-opacity="1"><g transform="translate(67.992033, 33.163393)"><g><path d="M 18.296875 -5.765625 C 18.085938 -3.859375 17.335938 -2.34375 16.046875 -1.21875 C 14.753906 -0.101562 13.144531 0.453125 11.21875 0.453125 C 10.15625 0.453125 9.179688 0.273438 8.296875 -0.078125 C 7.421875 -0.429688 6.671875 -0.914062 6.046875 -1.53125 C 5.429688 -2.15625 4.953125 -2.90625 4.609375 -3.78125 C 4.265625 -4.65625 4.09375 -5.609375 4.09375 -6.640625 L 4.09375 -15.828125 L 0 -15.828125 L 0 -18.09375 L 4.09375 -18.09375 L 4.09375 -25.34375 L 6.75 -25.34375 L 6.75 -18.09375 L 14.46875 -18.09375 L 14.46875 -15.828125 L 6.75 -15.828125 L 6.75 -6.640625 C 6.75 -5.984375 6.851562 -5.363281 7.0625 -4.78125 C 7.28125 -4.195312 7.582031 -3.679688 7.96875 -3.234375 C 8.351562 -2.796875 8.816406 -2.453125 9.359375 -2.203125 C 9.898438 -1.953125 10.519531 -1.828125 11.21875 -1.828125 C 12.539062 -1.828125 13.644531 -2.238281 14.53125 -3.0625 C 15.414062 -3.882812 15.925781 -4.945312 16.0625 -6.25 Z M 18.296875 -5.765625 "/></g></g></g><g fill="#0e2349" fill-opacity="1"><g transform="translate(90.414909, 33.163393)"><g><path d="M 2.65625 -8.109375 C 2.851562 -6.203125 3.550781 -4.675781 4.75 -3.53125 C 5.957031 -2.394531 7.523438 -1.828125 9.453125 -1.828125 C 10.816406 -1.828125 12.023438 -2.101562 13.078125 -2.65625 C 14.140625 -3.21875 14.9375 -3.910156 15.46875 -4.734375 L 17.34375 -3.453125 C 16.4375 -2.179688 15.351562 -1.210938 14.09375 -0.546875 C 12.84375 0.117188 11.296875 0.453125 9.453125 0.453125 C 8.054688 0.453125 6.773438 0.21875 5.609375 -0.25 C 4.441406 -0.71875 3.4375 -1.367188 2.59375 -2.203125 C 1.75 -3.035156 1.09375 -4.023438 0.625 -5.171875 C 0.15625 -6.328125 -0.078125 -7.613281 -0.078125 -9.03125 C -0.078125 -10.40625 0.128906 -11.671875 0.546875 -12.828125 C 0.972656 -13.984375 1.582031 -14.984375 2.375 -15.828125 C 3.175781 -16.679688 4.144531 -17.34375 5.28125 -17.8125 C 6.414062 -18.289062 7.691406 -18.53125 9.109375 -18.53125 C 10.648438 -18.53125 11.992188 -18.269531 13.140625 -17.75 C 14.296875 -17.226562 15.257812 -16.507812 16.03125 -15.59375 C 16.800781 -14.6875 17.367188 -13.597656 17.734375 -12.328125 C 18.109375 -11.054688 18.296875 -9.648438 18.296875 -8.109375 Z M 15.46875 -10.390625 C 15.175781 -12.367188 14.457031 -13.84375 13.3125 -14.8125 C 12.175781 -15.78125 10.773438 -16.265625 9.109375 -16.265625 C 8.253906 -16.265625 7.460938 -16.125 6.734375 -15.84375 C 6.015625 -15.570312 5.375 -15.175781 4.8125 -14.65625 C 4.257812 -14.144531 3.796875 -13.519531 3.421875 -12.78125 C 3.046875 -12.050781 2.804688 -11.253906 2.703125 -10.390625 Z M 15.46875 -10.390625 "/></g></g></g><g fill="#0e2349" fill-opacity="1"><g transform="translate(112.837784, 33.163393)"><g><path d="M 17.140625 0 L 14.46875 0 L 14.46875 -11.171875 C 14.46875 -12.785156 14.117188 -14.035156 13.421875 -14.921875 C 12.722656 -15.816406 11.585938 -16.265625 10.015625 -16.265625 C 9.035156 -16.265625 8.144531 -16.035156 7.34375 -15.578125 C 6.550781 -15.128906 5.875 -14.523438 5.3125 -13.765625 C 4.757812 -13.015625 4.335938 -12.148438 4.046875 -11.171875 C 3.753906 -10.191406 3.609375 -9.171875 3.609375 -8.109375 L 3.609375 0 L 0.953125 0 L 0.953125 -18.09375 L 3.609375 -18.09375 L 3.609375 -13.546875 C 4.890625 -16.867188 7.175781 -18.53125 10.46875 -18.53125 C 14.914062 -18.53125 17.140625 -16.078125 17.140625 -11.171875 Z M 17.140625 0 "/></g></g></g><g fill="#0e2349" fill-opacity="1"><g transform="translate(135.260659, 33.163393)"><g><path d="M -0.03125 -4.890625 C -0.03125 -6.035156 0.25 -6.988281 0.8125 -7.75 C 1.382812 -8.519531 2.132812 -9.128906 3.0625 -9.578125 C 3.988281 -10.023438 5.046875 -10.347656 6.234375 -10.546875 C 7.429688 -10.753906 8.65625 -10.859375 9.90625 -10.859375 C 10.382812 -10.859375 10.8125 -10.847656 11.1875 -10.828125 C 11.570312 -10.816406 11.9375 -10.796875 12.28125 -10.765625 C 12.625 -10.742188 12.96875 -10.710938 13.3125 -10.671875 C 13.664062 -10.640625 14.050781 -10.597656 14.46875 -10.546875 L 14.46875 -11.84375 C 14.46875 -12.726562 14.273438 -13.453125 13.890625 -14.015625 C 13.503906 -14.585938 13.035156 -15.035156 12.484375 -15.359375 C 11.929688 -15.691406 11.347656 -15.925781 10.734375 -16.0625 C 10.128906 -16.195312 9.613281 -16.265625 9.1875 -16.265625 C 7.84375 -16.265625 6.597656 -16.082031 5.453125 -15.71875 C 4.316406 -15.363281 3.253906 -14.878906 2.265625 -14.265625 L 1.0625 -16.265625 C 2.15625 -16.929688 3.375 -17.472656 4.71875 -17.890625 C 6.070312 -18.316406 7.5625 -18.53125 9.1875 -18.53125 C 10.164062 -18.53125 11.128906 -18.398438 12.078125 -18.140625 C 13.035156 -17.890625 13.890625 -17.5 14.640625 -16.96875 C 15.398438 -16.445312 16.003906 -15.757812 16.453125 -14.90625 C 16.910156 -14.050781 17.140625 -13.03125 17.140625 -11.84375 L 17.140625 0 L 14.46875 0 L 14.46875 -3.03125 C 14 -2.445312 13.46875 -1.929688 12.875 -1.484375 C 12.289062 -1.046875 11.675781 -0.6875 11.03125 -0.40625 C 10.382812 -0.132812 9.734375 0.0703125 9.078125 0.21875 C 8.429688 0.375 7.820312 0.453125 7.25 0.453125 C 4.851562 0.453125 3.039062 -0.00390625 1.8125 -0.921875 C 0.582031 -1.847656 -0.03125 -3.171875 -0.03125 -4.890625 Z M 7.25 -1.828125 C 8.351562 -1.828125 9.347656 -1.988281 10.234375 -2.3125 C 11.128906 -2.644531 11.882812 -3.054688 12.5 -3.546875 C 13.125 -4.046875 13.609375 -4.570312 13.953125 -5.125 C 14.296875 -5.6875 14.46875 -6.191406 14.46875 -6.640625 L 14.46875 -8.34375 C 13.601562 -8.476562 12.769531 -8.550781 11.96875 -8.5625 C 11.175781 -8.570312 10.488281 -8.578125 9.90625 -8.578125 C 8.945312 -8.578125 8.023438 -8.507812 7.140625 -8.375 C 6.253906 -8.25 5.476562 -8.039062 4.8125 -7.75 C 4.15625 -7.457031 3.625 -7.078125 3.21875 -6.609375 C 2.820312 -6.148438 2.625 -5.578125 2.625 -4.890625 C 2.625 -4.128906 2.992188 -3.425781 3.734375 -2.78125 C 4.484375 -2.144531 5.65625 -1.828125 7.25 -1.828125 Z M 7.25 -1.828125 "/></g></g></g><g fill="#0e2349" fill-opacity="1"><g transform="translate(157.683535, 33.163393)"><g><path d="M 10.859375 -21.703125 L 7.25 -21.703125 L 7.25 -25.34375 L 10.859375 -25.34375 Z M 14.46875 0 L 3.609375 0 L 3.609375 -2.265625 L 7.703125 -2.265625 L 7.703125 -15.828125 L 3.609375 -15.828125 L 3.609375 -18.09375 L 10.390625 -18.09375 L 10.390625 -2.265625 L 14.46875 -2.265625 Z M 14.46875 0 "/></g></g></g><g fill="#0e2349" fill-opacity="1"><g transform="translate(180.10641, 33.163393)"><g><path d="M 17.109375 -15.546875 C 16.148438 -16.023438 15.007812 -16.265625 13.6875 -16.265625 C 12.601562 -16.265625 11.632812 -16.03125 10.78125 -15.5625 C 9.925781 -15.101562 9.195312 -14.492188 8.59375 -13.734375 C 8 -12.972656 7.539062 -12.101562 7.21875 -11.125 C 6.90625 -10.15625 6.75 -9.148438 6.75 -8.109375 L 6.75 -2.265625 L 10.859375 -2.265625 L 10.859375 0 L 0 0 L 0 -2.265625 L 4.09375 -2.265625 L 4.09375 -15.828125 L 0 -15.828125 L 0 -18.09375 L 6.75 -18.09375 L 6.75 -13.546875 C 7.96875 -16.867188 10.28125 -18.53125 13.6875 -18.53125 C 14.601562 -18.53125 15.398438 -18.46875 16.078125 -18.34375 C 16.765625 -18.226562 17.398438 -18.023438 17.984375 -17.734375 Z M 17.109375 -15.546875 "/></g></g></g><g fill="#0e2349" fill-opacity="1"><g transform="translate(202.529285, 33.163393)"><g><path d="M 2.65625 -8.109375 C 2.851562 -6.203125 3.550781 -4.675781 4.75 -3.53125 C 5.957031 -2.394531 7.523438 -1.828125 9.453125 -1.828125 C 10.816406 -1.828125 12.023438 -2.101562 13.078125 -2.65625 C 14.140625 -3.21875 14.9375 -3.910156 15.46875 -4.734375 L 17.34375 -3.453125 C 16.4375 -2.179688 15.351562 -1.210938 14.09375 -0.546875 C 12.84375 0.117188 11.296875 0.453125 9.453125 0.453125 C 8.054688 0.453125 6.773438 0.21875 5.609375 -0.25 C 4.441406 -0.71875 3.4375 -1.367188 2.59375 -2.203125 C 1.75 -3.035156 1.09375 -4.023438 0.625 -5.171875 C 0.15625 -6.328125 -0.078125 -7.613281 -0.078125 -9.03125 C -0.078125 -10.40625 0.128906 -11.671875 0.546875 -12.828125 C 0.972656 -13.984375 1.582031 -14.984375 2.375 -15.828125 C 3.175781 -16.679688 4.144531 -17.34375 5.28125 -17.8125 C 6.414062 -18.289062 7.691406 -18.53125 9.109375 -18.53125 C 10.648438 -18.53125 11.992188 -18.269531 13.140625 -17.75 C 14.296875 -17.226562 15.257812 -16.507812 16.03125 -15.59375 C 16.800781 -14.6875 17.367188 -13.597656 17.734375 -12.328125 C 18.109375 -11.054688 18.296875 -9.648438 18.296875 -8.109375 Z M 15.46875 -10.390625 C 15.175781 -12.367188 14.457031 -13.84375 13.3125 -14.8125 C 12.175781 -15.78125 10.773438 -16.265625 9.109375 -16.265625 C 8.253906 -16.265625 7.460938 -16.125 6.734375 -15.84375 C 6.015625 -15.570312 5.375 -15.175781 4.8125 -14.65625 C 4.257812 -14.144531 3.796875 -13.519531 3.421875 -12.78125 C 3.046875 -12.050781 2.804688 -11.253906 2.703125 -10.390625 Z M 15.46875 -10.390625 "/></g></g></g><g fill="#0e2349" fill-opacity="1"><g transform="translate(224.955588, 33.163393)"><g/></g></g><g fill="#0e2349" fill-opacity="1"><g transform="translate(247.378464, 33.163393)"><g/></g></g><g fill="#0e2349" fill-opacity="1"><g transform="translate(269.801339, 33.163393)"><g/></g></g><g fill="#0e2349" fill-opacity="1"><g transform="translate(292.224214, 33.163393)"><g/></g></g><g fill="#0e2349" fill-opacity="1"><g transform="translate(314.647087, 33.163393)"><g><path d="M -0.03125 -4.890625 C -0.03125 -6.035156 0.25 -6.988281 0.8125 -7.75 C 1.382812 -8.519531 2.132812 -9.128906 3.0625 -9.578125 C 3.988281 -10.023438 5.046875 -10.347656 6.234375 -10.546875 C 7.429688 -10.753906 8.65625 -10.859375 9.90625 -10.859375 C 10.382812 -10.859375 10.8125 -10.847656 11.1875 -10.828125 C 11.570312 -10.816406 11.9375 -10.796875 12.28125 -10.765625 C 12.625 -10.742188 12.96875 -10.710938 13.3125 -10.671875 C 13.664062 -10.640625 14.050781 -10.597656 14.46875 -10.546875 L 14.46875 -11.84375 C 14.46875 -12.726562 14.273438 -13.453125 13.890625 -14.015625 C 13.503906 -14.585938 13.035156 -15.035156 12.484375 -15.359375 C 11.929688 -15.691406 11.347656 -15.925781 10.734375 -16.0625 C 10.128906 -16.195312 9.613281 -16.265625 9.1875 -16.265625 C 7.84375 -16.265625 6.597656 -16.082031 5.453125 -15.71875 C 4.316406 -15.363281 3.253906 -14.878906 2.265625 -14.265625 L 1.0625 -16.265625 C 2.15625 -16.929688 3.375 -17.472656 4.71875 -17.890625 C 6.070312 -18.316406 7.5625 -18.53125 9.1875 -18.53125 C 10.164062 -18.53125 11.128906 -18.398438 12.078125 -18.140625 C 13.035156 -17.890625 13.890625 -17.5 14.640625 -16.96875 C 15.398438 -16.445312 16.003906 -15.757812 16.453125 -14.90625 C 16.910156 -14.050781 17.140625 -13.03125 17.140625 -11.84375 L 17.140625 0 L 14.46875 0 L 14.46875 -3.03125 C 14 -2.445312 13.46875 -1.929688 12.875 -1.484375 C 12.289062 -1.046875 11.675781 -0.6875 11.03125 -0.40625 C 10.382812 -0.132812 9.734375 0.0703125 9.078125 0.21875 C 8.429688 0.375 7.820312 0.453125 7.25 0.453125 C 4.851562 0.453125 3.039062 -0.00390625 1.8125 -0.921875 C 0.582031 -1.847656 -0.03125 -3.171875 -0.03125 -4.890625 Z M 7.25 -1.828125 C 8.351562 -1.828125 9.347656 -1.988281 10.234375 -2.3125 C 11.128906 -2.644531 11.882812 -3.054688 12.5 -3.546875 C 13.125 -4.046875 13.609375 -4.570312 13.953125 -5.125 C 14.296875 -5.6875 14.46875 -6.191406 14.46875 -6.640625 L 14.46875 -8.34375 C 13.601562 -8.476562 12.769531 -8.550781 11.96875 -8.5625 C 11.175781 -8.570312 10.488281 -8.578125 9.90625 -8.578125 C 8.945312 -8.578125 8.023438 -8.507812 7.140625 -8.375 C 6.253906 -8.25 5.476562 -8.039062 4.8125 -7.75 C 4.15625 -7.457031 3.625 -7.078125 3.21875 -6.609375 C 2.820312 -6.148438 2.625 -5.578125 2.625 -4.890625 C 2.625 -4.128906 2.992188 -3.425781 3.734375 -2.78125 C 4.484375 -2.144531 5.65625 -1.828125 7.25 -1.828125 Z M 7.25 -1.828125 "/></g></g></g><g fill="#0e2349" fill-opacity="1"><g transform="translate(337.069962, 33.163393)"><g><path d="M 0.953125 -18.09375 L 3.609375 -18.09375 L 3.609375 -6.90625 C 3.609375 -5.289062 3.960938 -4.039062 4.671875 -3.15625 C 5.378906 -2.269531 6.515625 -1.828125 8.078125 -1.828125 C 9.054688 -1.828125 9.941406 -2.050781 10.734375 -2.5 C 11.523438 -2.957031 12.195312 -3.5625 12.75 -4.3125 C 13.3125 -5.070312 13.738281 -5.941406 14.03125 -6.921875 C 14.320312 -7.898438 14.46875 -8.921875 14.46875 -9.984375 L 14.46875 -18.09375 L 17.140625 -18.09375 L 17.140625 0 L 14.46875 0 L 14.46875 -4.53125 C 13.195312 -1.207031 10.914062 0.453125 7.625 0.453125 C 3.175781 0.453125 0.953125 -2 0.953125 -6.90625 Z M 0.953125 -18.09375 "/></g></g></g><g fill="#0e2349" fill-opacity="1"><g transform="translate(359.492838, 33.163393)"><g/></g></g><g fill="#0e2349" fill-opacity="1"><g transform="translate(381.915713, 33.163393)"><g><path d="M 17.609375 -5.015625 C 17.609375 -3.953125 17.34375 -3.070312 16.8125 -2.375 C 16.28125 -1.675781 15.597656 -1.117188 14.765625 -0.703125 C 13.929688 -0.285156 13 0.0078125 11.96875 0.1875 C 10.9375 0.363281 9.929688 0.453125 8.953125 0.453125 C 7.304688 0.453125 5.664062 0.210938 4.03125 -0.265625 C 2.40625 -0.742188 1 -1.375 -0.1875 -2.15625 L 0.984375 -4.453125 C 2.316406 -3.609375 3.628906 -2.957031 4.921875 -2.5 C 6.222656 -2.050781 7.566406 -1.828125 8.953125 -1.828125 C 12.953125 -1.828125 14.953125 -2.863281 14.953125 -4.9375 C 14.953125 -5.4375 14.785156 -5.84375 14.453125 -6.15625 C 14.117188 -6.476562 13.675781 -6.738281 13.125 -6.9375 C 12.570312 -7.144531 11.9375 -7.304688 11.21875 -7.421875 C 10.5 -7.535156 9.742188 -7.644531 8.953125 -7.75 C 7.941406 -7.882812 6.9375 -8.050781 5.9375 -8.25 C 4.945312 -8.445312 4.039062 -8.738281 3.21875 -9.125 C 2.394531 -9.507812 1.734375 -10.023438 1.234375 -10.671875 C 0.734375 -11.328125 0.484375 -12.1875 0.484375 -13.25 C 0.484375 -14.144531 0.710938 -14.921875 1.171875 -15.578125 C 1.628906 -16.242188 2.242188 -16.796875 3.015625 -17.234375 C 3.785156 -17.679688 4.6875 -18.007812 5.71875 -18.21875 C 6.757812 -18.425781 7.835938 -18.53125 8.953125 -18.53125 C 10.546875 -18.53125 11.96875 -18.34375 13.21875 -17.96875 C 14.476562 -17.601562 15.613281 -17.078125 16.625 -16.390625 L 15.546875 -14.3125 C 14.515625 -15.03125 13.46875 -15.535156 12.40625 -15.828125 C 11.34375 -16.117188 10.191406 -16.265625 8.953125 -16.265625 C 8.390625 -16.265625 7.769531 -16.21875 7.09375 -16.125 C 6.414062 -16.03125 5.785156 -15.863281 5.203125 -15.625 C 4.617188 -15.382812 4.128906 -15.070312 3.734375 -14.6875 C 3.335938 -14.300781 3.140625 -13.820312 3.140625 -13.25 C 3.140625 -12.738281 3.304688 -12.332031 3.640625 -12.03125 C 3.972656 -11.726562 4.414062 -11.472656 4.96875 -11.265625 C 5.53125 -11.066406 6.164062 -10.910156 6.875 -10.796875 C 7.59375 -10.679688 8.347656 -10.570312 9.140625 -10.46875 C 10.128906 -10.320312 11.125 -10.148438 12.125 -9.953125 C 13.125 -9.765625 14.035156 -9.484375 14.859375 -9.109375 C 15.679688 -8.734375 16.34375 -8.222656 16.84375 -7.578125 C 17.351562 -6.929688 17.609375 -6.078125 17.609375 -5.015625 Z M 17.609375 -5.015625 "/></g></g></g><g fill="#0e2349" fill-opacity="1"><g transform="translate(404.338588, 33.163393)"><g><path d="M 2.65625 -8.109375 C 2.851562 -6.203125 3.550781 -4.675781 4.75 -3.53125 C 5.957031 -2.394531 7.523438 -1.828125 9.453125 -1.828125 C 10.816406 -1.828125 12.023438 -2.101562 13.078125 -2.65625 C 14.140625 -3.21875 14.9375 -3.910156 15.46875 -4.734375 L 17.34375 -3.453125 C 16.4375 -2.179688 15.351562 -1.210938 14.09375 -0.546875 C 12.84375 0.117188 11.296875 0.453125 9.453125 0.453125 C 8.054688 0.453125 6.773438 0.21875 5.609375 -0.25 C 4.441406 -0.71875 3.4375 -1.367188 2.59375 -2.203125 C 1.75 -3.035156 1.09375 -4.023438 0.625 -5.171875 C 0.15625 -6.328125 -0.078125 -7.613281 -0.078125 -9.03125 C -0.078125 -10.40625 0.128906 -11.671875 0.546875 -12.828125 C 0.972656 -13.984375 1.582031 -14.984375 2.375 -15.828125 C 3.175781 -16.679688 4.144531 -17.34375 5.28125 -17.8125 C 6.414062 -18.289062 7.691406 -18.53125 9.109375 -18.53125 C 10.648438 -18.53125 11.992188 -18.269531 13.140625 -17.75 C 14.296875 -17.226562 15.257812 -16.507812 16.03125 -15.59375 C 16.800781 -14.6875 17.367188 -13.597656 17.734375 -12.328125 C 18.109375 -11.054688 18.296875 -9.648438 18.296875 -8.109375 Z M 15.46875 -10.390625 C 15.175781 -12.367188 14.457031 -13.84375 13.3125 -14.8125 C 12.175781 -15.78125 10.773438 -16.265625 9.109375 -16.265625 C 8.253906 -16.265625 7.460938 -16.125 6.734375 -15.84375 C 6.015625 -15.570312 5.375 -15.175781 4.8125 -14.65625 C 4.257812 -14.144531 3.796875 -13.519531 3.421875 -12.78125 C 3.046875 -12.050781 2.804688 -11.253906 2.703125 -10.390625 Z M 15.46875 -10.390625 "/></g></g></g><g fill="#0e2349" fill-opacity="1"><g transform="translate(426.761464, 33.163393)"><g><path d="M 17.109375 -15.546875 C 16.148438 -16.023438 15.007812 -16.265625 13.6875 -16.265625 C 12.601562 -16.265625 11.632812 -16.03125 10.78125 -15.5625 C 9.925781 -15.101562 9.195312 -14.492188 8.59375 -13.734375 C 8 -12.972656 7.539062 -12.101562 7.21875 -11.125 C 6.90625 -10.15625 6.75 -9.148438 6.75 -8.109375 L 6.75 -2.265625 L 10.859375 -2.265625 L 10.859375 0 L 0 0 L 0 -2.265625 L 4.09375 -2.265625 L 4.09375 -15.828125 L 0 -15.828125 L 0 -18.09375 L 6.75 -18.09375 L 6.75 -13.546875 C 7.96875 -16.867188 10.28125 -18.53125 13.6875 -18.53125 C 14.601562 -18.53125 15.398438 -18.46875 16.078125 -18.34375 C 16.765625 -18.226562 17.398438 -18.023438 17.984375 -17.734375 Z M 17.109375 -15.546875 "/></g></g></g><g fill="#0e2349" fill-opacity="1"><g transform="translate(449.184339, 33.163393)"><g><path d="M 18.703125 -18.09375 L 10.859375 0 L 7.28125 0 L -0.609375 -18.09375 L 2.578125 -18.09375 L 9.0625 -2.234375 L 15.515625 -18.09375 Z M 18.703125 -18.09375 "/></g></g></g><g fill="#0e2349" fill-opacity="1"><g transform="translate(471.607214, 33.163393)"><g><path d="M 10.859375 -21.703125 L 7.25 -21.703125 L 7.25 -25.34375 L 10.859375 -25.34375 Z M 14.46875 0 L 3.609375 0 L 3.609375 -2.265625 L 7.703125 -2.265625 L 7.703125 -15.828125 L 3.609375 -15.828125 L 3.609375 -18.09375 L 10.390625 -18.09375 L 10.390625 -2.265625 L 14.46875 -2.265625 Z M 14.46875 0 "/></g></g></g><g fill="#0e2349" fill-opacity="1"><g transform="translate(494.03009, 33.163393)"><g><path d="M 17.421875 -3.453125 C 16.648438 -2.265625 15.601562 -1.316406 14.28125 -0.609375 C 12.957031 0.0976562 11.378906 0.453125 9.546875 0.453125 C 8.140625 0.453125 6.847656 0.21875 5.671875 -0.25 C 4.492188 -0.71875 3.484375 -1.367188 2.640625 -2.203125 C 1.804688 -3.035156 1.15625 -4.023438 0.6875 -5.171875 C 0.226562 -6.328125 0 -7.613281 0 -9.03125 C 0 -10.40625 0.210938 -11.675781 0.640625 -12.84375 C 1.066406 -14.007812 1.675781 -15.007812 2.46875 -15.84375 C 3.257812 -16.6875 4.226562 -17.34375 5.375 -17.8125 C 6.519531 -18.289062 7.789062 -18.53125 9.1875 -18.53125 C 9.738281 -18.53125 10.304688 -18.460938 10.890625 -18.328125 C 11.472656 -18.203125 12.019531 -18.003906 12.53125 -17.734375 C 13.050781 -17.472656 13.519531 -17.15625 13.9375 -16.78125 C 14.351562 -16.414062 14.664062 -15.976562 14.875 -15.46875 L 14.875 -18.09375 L 17.265625 -18.09375 L 17.265625 -10.859375 L 14.875 -10.859375 C 14.875 -11.660156 14.726562 -12.390625 14.4375 -13.046875 C 14.144531 -13.703125 13.742188 -14.269531 13.234375 -14.75 C 12.734375 -15.226562 12.132812 -15.597656 11.4375 -15.859375 C 10.738281 -16.128906 9.988281 -16.265625 9.1875 -16.265625 C 8.09375 -16.265625 7.140625 -16.078125 6.328125 -15.703125 C 5.523438 -15.328125 4.851562 -14.816406 4.3125 -14.171875 C 3.769531 -13.523438 3.359375 -12.765625 3.078125 -11.890625 C 2.796875 -11.015625 2.65625 -10.0625 2.65625 -9.03125 C 2.65625 -7.988281 2.8125 -7.03125 3.125 -6.15625 C 3.445312 -5.289062 3.910156 -4.539062 4.515625 -3.90625 C 5.117188 -3.269531 5.84375 -2.765625 6.6875 -2.390625 C 7.53125 -2.015625 8.484375 -1.828125 9.546875 -1.828125 C 10.898438 -1.828125 12.097656 -2.09375 13.140625 -2.625 C 14.191406 -3.15625 14.992188 -3.859375 15.546875 -4.734375 Z M 17.421875 -3.453125 "/></g></g></g><g fill="#0e2349" fill-opacity="1"><g transform="translate(516.452965, 33.163393)"><g><path d="M 2.65625 -8.109375 C 2.851562 -6.203125 3.550781 -4.675781 4.75 -3.53125 C 5.957031 -2.394531 7.523438 -1.828125 9.453125 -1.828125 C 10.816406 -1.828125 12.023438 -2.101562 13.078125 -2.65625 C 14.140625 -3.21875 14.9375 -3.910156 15.46875 -4.734375 L 17.34375 -3.453125 C 16.4375 -2.179688 15.351562 -1.210938 14.09375 -0.546875 C 12.84375 0.117188 11.296875 0.453125 9.453125 0.453125 C 8.054688 0.453125 6.773438 0.21875 5.609375 -0.25 C 4.441406 -0.71875 3.4375 -1.367188 2.59375 -2.203125 C 1.75 -3.035156 1.09375 -4.023438 0.625 -5.171875 C 0.15625 -6.328125 -0.078125 -7.613281 -0.078125 -9.03125 C -0.078125 -10.40625 0.128906 -11.671875 0.546875 -12.828125 C 0.972656 -13.984375 1.582031 -14.984375 2.375 -15.828125 C 3.175781 -16.679688 4.144531 -17.34375 5.28125 -17.8125 C 6.414062 -18.289062 7.691406 -18.53125 9.109375 -18.53125 C 10.648438 -18.53125 11.992188 -18.269531 13.140625 -17.75 C 14.296875 -17.226562 15.257812 -16.507812 16.03125 -15.59375 C 16.800781 -14.6875 17.367188 -13.597656 17.734375 -12.328125 C 18.109375 -11.054688 18.296875 -9.648438 18.296875 -8.109375 Z M 15.46875 -10.390625 C 15.175781 -12.367188 14.457031 -13.84375 13.3125 -14.8125 C 12.175781 -15.78125 10.773438 -16.265625 9.109375 -16.265625 C 8.253906 -16.265625 7.460938 -16.125 6.734375 -15.84375 C 6.015625 -15.570312 5.375 -15.175781 4.8125 -14.65625 C 4.257812 -14.144531 3.796875 -13.519531 3.421875 -12.78125 C 3.046875 -12.050781 2.804688 -11.253906 2.703125 -10.390625 Z M 15.46875 -10.390625 "/></g></g></g><g fill="#0e2349" fill-opacity="1"><g transform="translate(538.87584, 33.163393)"><g/></g></g><g fill="#0e2349" fill-opacity="1"><g transform="translate(561.298716, 33.163393)"><g><path d="M 17.140625 0 L 14.46875 0 L 14.46875 -1.671875 C 13.695312 -0.984375 12.851562 -0.457031 11.9375 -0.09375 C 11.03125 0.269531 10.097656 0.453125 9.140625 0.453125 C 7.703125 0.453125 6.414062 0.21875 5.28125 -0.25 C 4.144531 -0.71875 3.179688 -1.367188 2.390625 -2.203125 C 1.609375 -3.035156 1.007812 -4.035156 0.59375 -5.203125 C 0.175781 -6.367188 -0.03125 -7.644531 -0.03125 -9.03125 C -0.03125 -10.40625 0.175781 -11.675781 0.59375 -12.84375 C 1.007812 -14.007812 1.609375 -15.007812 2.390625 -15.84375 C 3.179688 -16.6875 4.144531 -17.34375 5.28125 -17.8125 C 6.414062 -18.289062 7.703125 -18.53125 9.140625 -18.53125 C 10.097656 -18.53125 11.03125 -18.359375 11.9375 -18.015625 C 12.851562 -17.671875 13.695312 -17.15625 14.46875 -16.46875 L 14.46875 -23.0625 L 10.859375 -23.0625 L 10.859375 -25.34375 L 17.140625 -25.34375 Z M 14.46875 -13.890625 C 13.695312 -14.722656 12.863281 -15.328125 11.96875 -15.703125 C 11.070312 -16.078125 10.117188 -16.265625 9.109375 -16.265625 C 8.046875 -16.265625 7.109375 -16.078125 6.296875 -15.703125 C 5.492188 -15.328125 4.816406 -14.816406 4.265625 -14.171875 C 3.722656 -13.523438 3.3125 -12.765625 3.03125 -11.890625 C 2.757812 -11.015625 2.625 -10.0625 2.625 -9.03125 C 2.625 -7.988281 2.757812 -7.03125 3.03125 -6.15625 C 3.3125 -5.289062 3.722656 -4.53125 4.265625 -3.875 C 4.816406 -3.226562 5.492188 -2.71875 6.296875 -2.34375 C 7.109375 -1.96875 8.046875 -1.78125 9.109375 -1.78125 C 11.148438 -1.78125 12.9375 -2.59375 14.46875 -4.21875 Z M 14.46875 -13.890625 "/></g></g></g><g fill="#0e2349" fill-opacity="1"><g transform="translate(583.721591, 33.163393)"><g><path d="M 0.953125 -18.09375 L 3.609375 -18.09375 L 3.609375 -6.90625 C 3.609375 -5.289062 3.960938 -4.039062 4.671875 -3.15625 C 5.378906 -2.269531 6.515625 -1.828125 8.078125 -1.828125 C 9.054688 -1.828125 9.941406 -2.050781 10.734375 -2.5 C 11.523438 -2.957031 12.195312 -3.5625 12.75 -4.3125 C 13.3125 -5.070312 13.738281 -5.941406 14.03125 -6.921875 C 14.320312 -7.898438 14.46875 -8.921875 14.46875 -9.984375 L 14.46875 -18.09375 L 17.140625 -18.09375 L 17.140625 0 L 14.46875 0 L 14.46875 -4.53125 C 13.195312 -1.207031 10.914062 0.453125 7.625 0.453125 C 3.175781 0.453125 0.953125 -2 0.953125 -6.90625 Z M 0.953125 -18.09375 "/></g></g></g><g fill="#0e2349" fill-opacity="1"><g transform="translate(606.144466, 33.163393)"><g/></g></g><g fill="#0e2349" fill-opacity="1"><g transform="translate(628.567341, 33.163393)"><g><path d="M 18.296875 -5.765625 C 18.085938 -3.859375 17.335938 -2.34375 16.046875 -1.21875 C 14.753906 -0.101562 13.144531 0.453125 11.21875 0.453125 C 10.15625 0.453125 9.179688 0.273438 8.296875 -0.078125 C 7.421875 -0.429688 6.671875 -0.914062 6.046875 -1.53125 C 5.429688 -2.15625 4.953125 -2.90625 4.609375 -3.78125 C 4.265625 -4.65625 4.09375 -5.609375 4.09375 -6.640625 L 4.09375 -15.828125 L 0 -15.828125 L 0 -18.09375 L 4.09375 -18.09375 L 4.09375 -25.34375 L 6.75 -25.34375 L 6.75 -18.09375 L 14.46875 -18.09375 L 14.46875 -15.828125 L 6.75 -15.828125 L 6.75 -6.640625 C 6.75 -5.984375 6.851562 -5.363281 7.0625 -4.78125 C 7.28125 -4.195312 7.582031 -3.679688 7.96875 -3.234375 C 8.351562 -2.796875 8.816406 -2.453125 9.359375 -2.203125 C 9.898438 -1.953125 10.519531 -1.828125 11.21875 -1.828125 C 12.539062 -1.828125 13.644531 -2.238281 14.53125 -3.0625 C 15.414062 -3.882812 15.925781 -4.945312 16.0625 -6.25 Z M 18.296875 -5.765625 "/></g></g></g><g fill="#0e2349" fill-opacity="1"><g transform="translate(650.990217, 33.163393)"><g><path d="M 2.65625 -8.109375 C 2.851562 -6.203125 3.550781 -4.675781 4.75 -3.53125 C 5.957031 -2.394531 7.523438 -1.828125 9.453125 -1.828125 C 10.816406 -1.828125 12.023438 -2.101562 13.078125 -2.65625 C 14.140625 -3.21875 14.9375 -3.910156 15.46875 -4.734375 L 17.34375 -3.453125 C 16.4375 -2.179688 15.351562 -1.210938 14.09375 -0.546875 C 12.84375 0.117188 11.296875 0.453125 9.453125 0.453125 C 8.054688 0.453125 6.773438 0.21875 5.609375 -0.25 C 4.441406 -0.71875 3.4375 -1.367188 2.59375 -2.203125 C 1.75 -3.035156 1.09375 -4.023438 0.625 -5.171875 C 0.15625 -6.328125 -0.078125 -7.613281 -0.078125 -9.03125 C -0.078125 -10.40625 0.128906 -11.671875 0.546875 -12.828125 C 0.972656 -13.984375 1.582031 -14.984375 2.375 -15.828125 C 3.175781 -16.679688 4.144531 -17.34375 5.28125 -17.8125 C 6.414062 -18.289062 7.691406 -18.53125 9.109375 -18.53125 C 10.648438 -18.53125 11.992188 -18.269531 13.140625 -17.75 C 14.296875 -17.226562 15.257812 -16.507812 16.03125 -15.59375 C 16.800781 -14.6875 17.367188 -13.597656 17.734375 -12.328125 C 18.109375 -11.054688 18.296875 -9.648438 18.296875 -8.109375 Z M 15.46875 -10.390625 C 15.175781 -12.367188 14.457031 -13.84375 13.3125 -14.8125 C 12.175781 -15.78125 10.773438 -16.265625 9.109375 -16.265625 C 8.253906 -16.265625 7.460938 -16.125 6.734375 -15.84375 C 6.015625 -15.570312 5.375 -15.175781 4.8125 -14.65625 C 4.257812 -14.144531 3.796875 -13.519531 3.421875 -12.78125 C 3.046875 -12.050781 2.804688 -11.253906 2.703125 -10.390625 Z M 15.46875 -10.390625 "/></g></g></g><g fill="#0e2349" fill-opacity="1"><g transform="translate(673.413092, 33.163393)"><g><path d="M 18.09375 0 L 15.4375 0 L 15.4375 -13.015625 C 15.4375 -14.046875 15.253906 -14.84375 14.890625 -15.40625 C 14.523438 -15.976562 14 -16.265625 13.3125 -16.265625 C 12.3125 -16.265625 11.570312 -15.734375 11.09375 -14.671875 C 10.625 -13.617188 10.390625 -12.132812 10.390625 -10.21875 L 10.390625 0 L 7.703125 0 L 7.703125 -13.015625 C 7.703125 -14.046875 7.519531 -14.84375 7.15625 -15.40625 C 6.789062 -15.976562 6.265625 -16.265625 5.578125 -16.265625 C 4.941406 -16.265625 4.4375 -16.078125 4.0625 -15.703125 C 3.6875 -15.328125 3.390625 -14.847656 3.171875 -14.265625 C 2.960938 -13.679688 2.820312 -13.035156 2.75 -12.328125 C 2.6875 -11.617188 2.65625 -10.914062 2.65625 -10.21875 L 2.65625 0 L 0 0 L 0 -18.09375 L 2.65625 -18.09375 L 2.65625 -15.46875 C 3.21875 -17.507812 4.429688 -18.53125 6.296875 -18.53125 C 8.066406 -18.53125 9.269531 -17.640625 9.90625 -15.859375 C 10.78125 -17.640625 12.019531 -18.53125 13.625 -18.53125 C 15.164062 -18.53125 16.296875 -18.070312 17.015625 -17.15625 C 17.734375 -16.238281 18.09375 -14.859375 18.09375 -13.015625 Z M 18.09375 0 "/></g></g></g><g clip-path="url(#9e332ddb89)"><g fill="#0e2349" fill-opacity="1"><g transform="translate(695.835967, 33.163393)"><g><path d="M 18.09375 -9.03125 C 18.09375 -7.613281 17.875 -6.328125 17.4375 -5.171875 C 17 -4.023438 16.378906 -3.035156 15.578125 -2.203125 C 14.785156 -1.367188 13.828125 -0.71875 12.703125 -0.25 C 11.578125 0.21875 10.3125 0.453125 8.90625 0.453125 C 7.945312 0.453125 7.019531 0.273438 6.125 -0.078125 C 5.226562 -0.429688 4.390625 -0.945312 3.609375 -1.625 L 3.609375 7.25 L 0.953125 7.25 L 0.953125 -18.09375 L 3.609375 -18.09375 L 3.609375 -16.421875 C 5.253906 -17.828125 7.019531 -18.53125 8.90625 -18.53125 C 10.3125 -18.53125 11.578125 -18.296875 12.703125 -17.828125 C 13.828125 -17.367188 14.785156 -16.710938 15.578125 -15.859375 C 16.378906 -15.015625 17 -14.007812 17.4375 -12.84375 C 17.875 -11.675781 18.09375 -10.40625 18.09375 -9.03125 Z M 15.4375 -9.03125 C 15.4375 -10.039062 15.296875 -10.988281 15.015625 -11.875 C 14.734375 -12.757812 14.316406 -13.523438 13.765625 -14.171875 C 13.210938 -14.816406 12.53125 -15.328125 11.71875 -15.703125 C 10.90625 -16.078125 9.96875 -16.265625 8.90625 -16.265625 C 7.894531 -16.265625 6.953125 -16.078125 6.078125 -15.703125 C 5.210938 -15.328125 4.390625 -14.722656 3.609375 -13.890625 L 3.609375 -4.171875 C 4.390625 -3.328125 5.210938 -2.722656 6.078125 -2.359375 C 6.953125 -2.003906 7.894531 -1.828125 8.90625 -1.828125 C 9.96875 -1.828125 10.90625 -2.015625 11.71875 -2.390625 C 12.53125 -2.765625 13.210938 -3.273438 13.765625 -3.921875 C 14.316406 -4.566406 14.734375 -5.328125 15.015625 -6.203125 C 15.296875 -7.078125 15.4375 -8.019531 15.4375 -9.03125 Z M 15.4375 -9.03125 "/></g></g></g></g><g fill="#0e2349" fill-opacity="1"><g transform="translate(718.258843, 33.163393)"><g><path d="M 17.609375 -5.015625 C 17.609375 -3.953125 17.34375 -3.070312 16.8125 -2.375 C 16.28125 -1.675781 15.597656 -1.117188 14.765625 -0.703125 C 13.929688 -0.285156 13 0.0078125 11.96875 0.1875 C 10.9375 0.363281 9.929688 0.453125 8.953125 0.453125 C 7.304688 0.453125 5.664062 0.210938 4.03125 -0.265625 C 2.40625 -0.742188 1 -1.375 -0.1875 -2.15625 L 0.984375 -4.453125 C 2.316406 -3.609375 3.628906 -2.957031 4.921875 -2.5 C 6.222656 -2.050781 7.566406 -1.828125 8.953125 -1.828125 C 12.953125 -1.828125 14.953125 -2.863281 14.953125 -4.9375 C 14.953125 -5.4375 14.785156 -5.84375 14.453125 -6.15625 C 14.117188 -6.476562 13.675781 -6.738281 13.125 -6.9375 C 12.570312 -7.144531 11.9375 -7.304688 11.21875 -7.421875 C 10.5 -7.535156 9.742188 -7.644531 8.953125 -7.75 C 7.941406 -7.882812 6.9375 -8.050781 5.9375 -8.25 C 4.945312 -8.445312 4.039062 -8.738281 3.21875 -9.125 C 2.394531 -9.507812 1.734375 -10.023438 1.234375 -10.671875 C 0.734375 -11.328125 0.484375 -12.1875 0.484375 -13.25 C 0.484375 -14.144531 0.710938 -14.921875 1.171875 -15.578125 C 1.628906 -16.242188 2.242188 -16.796875 3.015625 -17.234375 C 3.785156 -17.679688 4.6875 -18.007812 5.71875 -18.21875 C 6.757812 -18.425781 7.835938 -18.53125 8.953125 -18.53125 C 10.546875 -18.53125 11.96875 -18.34375 13.21875 -17.96875 C 14.476562 -17.601562 15.613281 -17.078125 16.625 -16.390625 L 15.546875 -14.3125 C 14.515625 -15.03125 13.46875 -15.535156 12.40625 -15.828125 C 11.34375 -16.117188 10.191406 -16.265625 8.953125 -16.265625 C 8.390625 -16.265625 7.769531 -16.21875 7.09375 -16.125 C 6.414062 -16.03125 5.785156 -15.863281 5.203125 -15.625 C 4.617188 -15.382812 4.128906 -15.070312 3.734375 -14.6875 C 3.335938 -14.300781 3.140625 -13.820312 3.140625 -13.25 C 3.140625 -12.738281 3.304688 -12.332031 3.640625 -12.03125 C 3.972656 -11.726562 4.414062 -11.472656 4.96875 -11.265625 C 5.53125 -11.066406 6.164062 -10.910156 6.875 -10.796875 C 7.59375 -10.679688 8.347656 -10.570312 9.140625 -10.46875 C 10.128906 -10.320312 11.125 -10.148438 12.125 -9.953125 C 13.125 -9.765625 14.035156 -9.484375 14.859375 -9.109375 C 15.679688 -8.734375 16.34375 -8.222656 16.84375 -7.578125 C 17.351562 -6.929688 17.609375 -6.078125 17.609375 -5.015625 Z M 17.609375 -5.015625 "/></g></g></g><g fill="#0e2349" fill-opacity="1"><g transform="translate(740.681718, 33.163393)"><g/></g></g><g fill="#0e2349" fill-opacity="1"><g transform="translate(763.104593, 33.163393)"><g><path d="M 17.140625 0 L 14.46875 0 L 14.46875 -1.671875 C 13.695312 -0.984375 12.851562 -0.457031 11.9375 -0.09375 C 11.03125 0.269531 10.097656 0.453125 9.140625 0.453125 C 7.703125 0.453125 6.414062 0.21875 5.28125 -0.25 C 4.144531 -0.71875 3.179688 -1.367188 2.390625 -2.203125 C 1.609375 -3.035156 1.007812 -4.035156 0.59375 -5.203125 C 0.175781 -6.367188 -0.03125 -7.644531 -0.03125 -9.03125 C -0.03125 -10.40625 0.175781 -11.675781 0.59375 -12.84375 C 1.007812 -14.007812 1.609375 -15.007812 2.390625 -15.84375 C 3.179688 -16.6875 4.144531 -17.34375 5.28125 -17.8125 C 6.414062 -18.289062 7.703125 -18.53125 9.140625 -18.53125 C 10.097656 -18.53125 11.03125 -18.359375 11.9375 -18.015625 C 12.851562 -17.671875 13.695312 -17.15625 14.46875 -16.46875 L 14.46875 -23.0625 L 10.859375 -23.0625 L 10.859375 -25.34375 L 17.140625 -25.34375 Z M 14.46875 -13.890625 C 13.695312 -14.722656 12.863281 -15.328125 11.96875 -15.703125 C 11.070312 -16.078125 10.117188 -16.265625 9.109375 -16.265625 C 8.046875 -16.265625 7.109375 -16.078125 6.296875 -15.703125 C 5.492188 -15.328125 4.816406 -14.816406 4.265625 -14.171875 C 3.722656 -13.523438 3.3125 -12.765625 3.03125 -11.890625 C 2.757812 -11.015625 2.625 -10.0625 2.625 -9.03125 C 2.625 -7.988281 2.757812 -7.03125 3.03125 -6.15625 C 3.3125 -5.289062 3.722656 -4.53125 4.265625 -3.875 C 4.816406 -3.226562 5.492188 -2.71875 6.296875 -2.34375 C 7.109375 -1.96875 8.046875 -1.78125 9.109375 -1.78125 C 11.148438 -1.78125 12.9375 -2.59375 14.46875 -4.21875 Z M 14.46875 -13.890625 "/></g></g></g><g fill="#0e2349" fill-opacity="1"><g transform="translate(785.527469, 33.163393)"><g><path d="M 2.65625 -8.109375 C 2.851562 -6.203125 3.550781 -4.675781 4.75 -3.53125 C 5.957031 -2.394531 7.523438 -1.828125 9.453125 -1.828125 C 10.816406 -1.828125 12.023438 -2.101562 13.078125 -2.65625 C 14.140625 -3.21875 14.9375 -3.910156 15.46875 -4.734375 L 17.34375 -3.453125 C 16.4375 -2.179688 15.351562 -1.210938 14.09375 -0.546875 C 12.84375 0.117188 11.296875 0.453125 9.453125 0.453125 C 8.054688 0.453125 6.773438 0.21875 5.609375 -0.25 C 4.441406 -0.71875 3.4375 -1.367188 2.59375 -2.203125 C 1.75 -3.035156 1.09375 -4.023438 0.625 -5.171875 C 0.15625 -6.328125 -0.078125 -7.613281 -0.078125 -9.03125 C -0.078125 -10.40625 0.128906 -11.671875 0.546875 -12.828125 C 0.972656 -13.984375 1.582031 -14.984375 2.375 -15.828125 C 3.175781 -16.679688 4.144531 -17.34375 5.28125 -17.8125 C 6.414062 -18.289062 7.691406 -18.53125 9.109375 -18.53125 C 10.648438 -18.53125 11.992188 -18.269531 13.140625 -17.75 C 14.296875 -17.226562 15.257812 -16.507812 16.03125 -15.59375 C 16.800781 -14.6875 17.367188 -13.597656 17.734375 -12.328125 C 18.109375 -11.054688 18.296875 -9.648438 18.296875 -8.109375 Z M 15.46875 -10.390625 C 15.175781 -12.367188 14.457031 -13.84375 13.3125 -14.8125 C 12.175781 -15.78125 10.773438 -16.265625 9.109375 -16.265625 C 8.253906 -16.265625 7.460938 -16.125 6.734375 -15.84375 C 6.015625 -15.570312 5.375 -15.175781 4.8125 -14.65625 C 4.257812 -14.144531 3.796875 -13.519531 3.421875 -12.78125 C 3.046875 -12.050781 2.804688 -11.253906 2.703125 -10.390625 Z M 15.46875 -10.390625 "/></g></g></g><g fill="#0e2349" fill-opacity="1"><g transform="translate(807.950344, 33.163393)"><g><path d="M 17.609375 -5.015625 C 17.609375 -3.953125 17.34375 -3.070312 16.8125 -2.375 C 16.28125 -1.675781 15.597656 -1.117188 14.765625 -0.703125 C 13.929688 -0.285156 13 0.0078125 11.96875 0.1875 C 10.9375 0.363281 9.929688 0.453125 8.953125 0.453125 C 7.304688 0.453125 5.664062 0.210938 4.03125 -0.265625 C 2.40625 -0.742188 1 -1.375 -0.1875 -2.15625 L 0.984375 -4.453125 C 2.316406 -3.609375 3.628906 -2.957031 4.921875 -2.5 C 6.222656 -2.050781 7.566406 -1.828125 8.953125 -1.828125 C 12.953125 -1.828125 14.953125 -2.863281 14.953125 -4.9375 C 14.953125 -5.4375 14.785156 -5.84375 14.453125 -6.15625 C 14.117188 -6.476562 13.675781 -6.738281 13.125 -6.9375 C 12.570312 -7.144531 11.9375 -7.304688 11.21875 -7.421875 C 10.5 -7.535156 9.742188 -7.644531 8.953125 -7.75 C 7.941406 -7.882812 6.9375 -8.050781 5.9375 -8.25 C 4.945312 -8.445312 4.039062 -8.738281 3.21875 -9.125 C 2.394531 -9.507812 1.734375 -10.023438 1.234375 -10.671875 C 0.734375 -11.328125 0.484375 -12.1875 0.484375 -13.25 C 0.484375 -14.144531 0.710938 -14.921875 1.171875 -15.578125 C 1.628906 -16.242188 2.242188 -16.796875 3.015625 -17.234375 C 3.785156 -17.679688 4.6875 -18.007812 5.71875 -18.21875 C 6.757812 -18.425781 7.835938 -18.53125 8.953125 -18.53125 C 10.546875 -18.53125 11.96875 -18.34375 13.21875 -17.96875 C 14.476562 -17.601562 15.613281 -17.078125 16.625 -16.390625 L 15.546875 -14.3125 C 14.515625 -15.03125 13.46875 -15.535156 12.40625 -15.828125 C 11.34375 -16.117188 10.191406 -16.265625 8.953125 -16.265625 C 8.390625 -16.265625 7.769531 -16.21875 7.09375 -16.125 C 6.414062 -16.03125 5.785156 -15.863281 5.203125 -15.625 C 4.617188 -15.382812 4.128906 -15.070312 3.734375 -14.6875 C 3.335938 -14.300781 3.140625 -13.820312 3.140625 -13.25 C 3.140625 -12.738281 3.304688 -12.332031 3.640625 -12.03125 C 3.972656 -11.726562 4.414062 -11.472656 4.96875 -11.265625 C 5.53125 -11.066406 6.164062 -10.910156 6.875 -10.796875 C 7.59375 -10.679688 8.347656 -10.570312 9.140625 -10.46875 C 10.128906 -10.320312 11.125 -10.148438 12.125 -9.953125 C 13.125 -9.765625 14.035156 -9.484375 14.859375 -9.109375 C 15.679688 -8.734375 16.34375 -8.222656 16.84375 -7.578125 C 17.351562 -6.929688 17.609375 -6.078125 17.609375 -5.015625 Z M 17.609375 -5.015625 "/></g></g></g><g fill="#0e2349" fill-opacity="1"><g transform="translate(830.373219, 33.163393)"><g/></g></g><g fill="#0e2349" fill-opacity="1"><g transform="translate(852.796095, 33.163393)"><g><path d="M 18.0625 -18.09375 C 18.0625 -15.644531 17.296875 -13.828125 15.765625 -12.640625 C 14.234375 -11.453125 12.09375 -10.859375 9.34375 -10.859375 L 3.609375 -10.859375 L 3.609375 0 L 0.953125 0 L 0.953125 -25.34375 L 9.296875 -25.34375 C 12.078125 -25.34375 14.234375 -24.734375 15.765625 -23.515625 C 17.296875 -22.304688 18.0625 -20.5 18.0625 -18.09375 Z M 15.390625 -18.09375 C 15.390625 -19.84375 14.835938 -21.109375 13.734375 -21.890625 C 12.640625 -22.671875 11.175781 -23.0625 9.34375 -23.0625 L 3.609375 -23.0625 L 3.609375 -13.125 L 9.34375 -13.125 C 11.175781 -13.125 12.640625 -13.515625 13.734375 -14.296875 C 14.835938 -15.078125 15.390625 -16.34375 15.390625 -18.09375 Z M 15.390625 -18.09375 "/></g></g></g><g fill="#0e2349" fill-opacity="1"><g transform="translate(875.21897, 33.163393)"><g><path d="M 17.140625 0 L 14.46875 0 L 14.46875 -21.109375 L 9.984375 -8.03125 L 8.078125 -8.03125 L 3.609375 -21.109375 L 3.609375 0 L 0.953125 0 L 0.953125 -25.34375 L 4.40625 -25.34375 L 9.03125 -12.09375 L 13.6875 -25.34375 L 17.140625 -25.34375 Z M 17.140625 0 "/></g></g></g><g fill="#0e2349" fill-opacity="1"><g transform="translate(897.641845, 33.163393)"><g><path d="M 17.140625 0 L 0.953125 0 L 0.953125 -25.34375 L 17.140625 -25.34375 L 17.140625 -23.0625 L 3.609375 -23.0625 L 3.609375 -14 L 13.59375 -14 L 13.59375 -11.734375 L 3.609375 -11.734375 L 3.609375 -2.265625 L 17.140625 -2.265625 Z M 17.140625 0 "/></g></g></g></g></g><g transform="matrix(1, 0, 0, 1, 723, 436)"><g clip-path="url(#3d56a42a17)"><g fill="#0e2349" fill-opacity="1"><g transform="translate(0.243903, 32.982172)"><g><path d="M 15.40625 0 L 3.078125 0 L 3.078125 -3.671875 L 7.140625 -3.671875 L 7.140625 -22.03125 L 3.078125 -22.03125 L 3.078125 -25.71875 L 15.40625 -25.71875 L 15.40625 -22.03125 L 11.21875 -22.03125 L 11.21875 -3.671875 L 15.40625 -3.671875 Z M 15.40625 0 "/></g></g></g><g fill="#0e2349" fill-opacity="1"><g transform="translate(24.814956, 32.982172)"><g><path d="M 15.296875 0 L 13.4375 -6.125 L 4.921875 -6.125 L 3.109375 0 L -1.15625 0 L 6.859375 -25.71875 L 11.546875 -25.71875 L 19.5625 0 Z M 6.015625 -9.734375 L 12.359375 -9.734375 L 9.203125 -20.34375 Z M 6.015625 -9.734375 "/></g></g></g></g></g></svg>