<svg xmlns="http://www.w3.org/2000/svg" xmlns:xlink="http://www.w3.org/1999/xlink" width="4000" zoomAndPan="magnify" viewBox="0 0 3000 2999.999989" height="4000" preserveAspectRatio="xMidYMid meet" version="1.0"><defs><g/><clipPath id="e1fac87153"><rect x="0" width="42" y="0" height="71"/></clipPath><clipPath id="9a0f29d914"><rect x="0" width="616" y="0" height="535"/></clipPath><clipPath id="7bad39c1dc"><rect x="0" width="1599" y="0" height="203"/></clipPath><clipPath id="c0ffceab74"><rect x="0" width="161" y="0" height="203"/></clipPath><clipPath id="b6ed31b4dc"><path d="M 8 0.519531 L 155 0.519531 L 155 167 L 8 167 Z M 8 0.519531 " clip-rule="nonzero"/></clipPath><clipPath id="df11365b2c"><rect x="0" width="165" y="0" height="201"/></clipPath></defs><g transform="matrix(1, 0, 0, 1, 577, 1158)"><g clip-path="url(#e1fac87153)"><g fill="#1B2D4F" fill-opacity="1"><g transform="translate(0.940745, 54.314977)"><g><path d="M 18.441406 1.140625 C 13.421875 1.140625 9.929688 0.421875 7.960938 -1.019531 C 5.910156 -2.558594 4.5625 -4.019531 3.917969 -5.402344 C 3.269531 -6.796875 2.839844 -8.261719 2.628906 -9.796875 C 2.429688 -11.261719 2.328125 -12.386719 2.328125 -13.171875 L 2.328125 -14.328125 C 2.328125 -15.390625 2.515625 -16.195312 2.894531 -16.746094 C 3.371094 -17.4375 4.269531 -17.78125 5.589844 -17.78125 L 9.894531 -17.78125 C 11.132812 -17.78125 12.011719 -17.460938 12.53125 -16.824219 C 12.992188 -16.257812 13.21875 -15.425781 13.21875 -14.328125 L 13.21875 -14.070312 C 13.21875 -13.929688 13.230469 -13.734375 13.25 -13.488281 C 13.269531 -13.21875 13.300781 -12.875 13.34375 -12.457031 L 12.144531 -12.335938 L 13.320312 -12.589844 C 13.585938 -11.355469 14.015625 -10.570312 14.605469 -10.234375 C 15.320312 -9.824219 16.597656 -9.621094 18.441406 -9.621094 L 24.542969 -9.621094 C 25.382812 -9.621094 26.007812 -9.753906 26.421875 -10.011719 C 26.738281 -10.214844 26.941406 -10.527344 27.023438 -10.960938 L 27.054688 -11.121094 L 27.128906 -11.269531 C 27.085938 -11.183594 27.0625 -11.117188 27.058594 -11.070312 C 27.0625 -11.125 27.066406 -11.203125 27.066406 -11.308594 L 27.066406 -17.027344 C 27.066406 -18.921875 26.878906 -20.222656 26.5 -20.921875 C 26.199219 -21.488281 25.792969 -21.832031 25.28125 -21.960938 C 24.503906 -22.15625 23.578125 -22.273438 22.507812 -22.3125 C 21.113281 -22.355469 19.058594 -22.375 16.351562 -22.375 C 13.640625 -22.375 10.253906 -22.332031 6.195312 -22.246094 C 5.222656 -22.246094 4.402344 -22.613281 3.734375 -23.347656 C 3.046875 -24.101562 2.777344 -24.949219 2.921875 -25.882812 L 4.113281 -25.699219 L 2.90625 -25.695312 L 2.777344 -49.144531 C 2.777344 -49.949219 3.0625 -50.699219 3.628906 -51.390625 C 4.257812 -52.15625 5.058594 -52.539062 6.039062 -52.539062 L 32.960938 -52.539062 C 33.914062 -52.539062 34.726562 -52.171875 35.394531 -51.441406 C 36.03125 -50.738281 36.351562 -49.976562 36.351562 -49.152344 L 36.351562 -44.78125 C 36.351562 -43.914062 36.03125 -43.132812 35.394531 -42.429688 C 34.726562 -41.695312 33.914062 -41.328125 32.960938 -41.328125 L 12.527344 -41.328125 L 12.527344 -42.535156 L 13.734375 -42.535156 L 13.734375 -31.933594 L 12.527344 -31.933594 L 12.527344 -33.136719 L 23.902344 -33.136719 C 24.691406 -33.136719 25.820312 -33.027344 27.292969 -32.800781 C 28.828125 -32.570312 30.269531 -32.128906 31.621094 -31.476562 C 33.035156 -30.792969 34.488281 -29.472656 35.976562 -27.523438 C 37.46875 -25.597656 38.214844 -22.097656 38.214844 -17.027344 L 38.214844 -11.117188 C 38.214844 -8.945312 37.726562 -6.941406 36.757812 -5.09375 C 35.769531 -3.214844 34.277344 -1.703125 32.273438 -0.558594 C 30.289062 0.574219 27.777344 1.140625 24.738281 1.140625 Z M 18.441406 -1.269531 L 24.738281 -1.269531 C 27.351562 -1.269531 29.464844 -1.730469 31.078125 -2.652344 C 32.671875 -3.5625 33.855469 -4.75 34.625 -6.214844 C 35.410156 -7.710938 35.804688 -9.34375 35.804688 -11.117188 L 35.804688 -17.027344 C 35.804688 -21.550781 35.222656 -24.5625 34.058594 -26.0625 C 32.804688 -27.707031 31.640625 -28.789062 30.574219 -29.304688 C 29.441406 -29.851562 28.226562 -30.222656 26.933594 -30.421875 C 25.578125 -30.625 24.570312 -30.726562 23.902344 -30.726562 L 11.324219 -30.726562 L 11.324219 -43.738281 L 32.960938 -43.738281 C 33.203125 -43.738281 33.421875 -43.84375 33.609375 -44.050781 C 33.832031 -44.292969 33.941406 -44.535156 33.941406 -44.78125 L 33.941406 -49.152344 C 33.941406 -49.355469 33.832031 -49.578125 33.609375 -49.820312 C 33.421875 -50.027344 33.203125 -50.132812 32.960938 -50.132812 L 6.039062 -50.132812 C 5.820312 -50.132812 5.636719 -50.042969 5.496094 -49.867188 C 5.289062 -49.617188 5.1875 -49.382812 5.1875 -49.15625 L 5.316406 -25.613281 L 5.300781 -25.515625 C 5.273438 -25.339844 5.347656 -25.15625 5.515625 -24.96875 C 5.707031 -24.761719 5.914062 -24.65625 6.144531 -24.65625 C 10.21875 -24.742188 13.625 -24.785156 16.351562 -24.785156 C 19.082031 -24.785156 21.164062 -24.761719 22.597656 -24.71875 C 23.835938 -24.671875 24.925781 -24.535156 25.863281 -24.300781 C 27.066406 -24 27.984375 -23.253906 28.625 -22.0625 C 29.191406 -21.003906 29.476562 -19.328125 29.476562 -17.027344 L 29.476562 -11.308594 C 29.476562 -10.820312 29.410156 -10.445312 29.285156 -10.191406 L 28.207031 -10.730469 L 29.386719 -10.5 C 29.171875 -9.386719 28.613281 -8.546875 27.707031 -7.976562 C 26.902344 -7.46875 25.847656 -7.210938 24.542969 -7.210938 L 18.441406 -7.210938 C 16.171875 -7.210938 14.492188 -7.523438 13.410156 -8.140625 C 12.199219 -8.832031 11.382812 -10.148438 10.964844 -12.082031 L 10.953125 -12.148438 L 10.945312 -12.214844 C 10.902344 -12.652344 10.867188 -13.015625 10.847656 -13.304688 C 10.820312 -13.613281 10.808594 -13.867188 10.808594 -14.070312 L 10.808594 -14.328125 C 10.808594 -14.855469 10.761719 -15.179688 10.664062 -15.304688 C 10.679688 -15.28125 10.695312 -15.265625 10.707031 -15.257812 C 10.691406 -15.269531 10.660156 -15.28125 10.613281 -15.292969 C 10.445312 -15.347656 10.203125 -15.371094 9.894531 -15.371094 L 5.589844 -15.371094 C 5.257812 -15.371094 5.007812 -15.347656 4.835938 -15.292969 C 4.800781 -15.285156 4.78125 -15.277344 4.777344 -15.273438 C 4.8125 -15.296875 4.847656 -15.332031 4.878906 -15.378906 C 4.785156 -15.242188 4.738281 -14.890625 4.738281 -14.328125 L 4.738281 -13.171875 C 4.738281 -12.496094 4.832031 -11.480469 5.015625 -10.121094 C 5.191406 -8.828125 5.554688 -7.59375 6.105469 -6.417969 C 6.574219 -5.402344 7.667969 -4.25 9.386719 -2.964844 C 10.929688 -1.832031 13.949219 -1.269531 18.441406 -1.269531 Z M 18.441406 -1.269531 "/></g></g></g></g></g><g transform="matrix(1, 0, 0, 1, 771, 1849)"><g clip-path="url(#9a0f29d914)"><g fill="#1b3150" fill-opacity="1"><g transform="translate(512.626424, 534.176545)"><g><path d="M -500.40625 -279.65625 C -500.40625 -262.925781 -497.332031 -247.21875 -491.1875 -232.53125 C -484.695312 -217.851562 -475.988281 -205.050781 -465.0625 -194.125 C -454.132812 -183.195312 -441.332031 -174.660156 -426.65625 -168.515625 C -411.96875 -162.023438 -396.257812 -158.78125 -379.53125 -158.78125 C -362.800781 -158.78125 -347.09375 -162.023438 -332.40625 -168.515625 C -317.726562 -174.660156 -304.925781 -183.195312 -294 -194.125 C -283.070312 -205.050781 -274.535156 -217.851562 -268.390625 -232.53125 C -261.898438 -247.21875 -258.65625 -262.925781 -258.65625 -279.65625 L -258.65625 -378 C -258.65625 -395.75 -255.238281 -412.648438 -248.40625 -428.703125 C -241.582031 -444.410156 -232.363281 -458.066406 -220.75 -469.671875 C -209.144531 -481.285156 -195.488281 -490.503906 -179.78125 -497.328125 C -164.070312 -504.160156 -147.335938 -507.578125 -129.578125 -507.578125 C -111.484375 -507.578125 -94.582031 -504.160156 -78.875 -497.328125 C -63.164062 -490.503906 -49.507812 -481.285156 -37.90625 -469.671875 C -26.289062 -458.066406 -17.070312 -444.410156 -10.25 -428.703125 C -3.414062 -412.648438 0 -395.75 0 -378 L 0 -25.609375 L -146.484375 -25.609375 C -120.535156 -31.753906 -97.488281 -42.851562 -77.34375 -58.90625 C -68.800781 -65.726562 -60.4375 -73.921875 -52.25 -83.484375 C -44.050781 -92.703125 -36.707031 -103.800781 -30.21875 -116.78125 C -23.726562 -129.414062 -18.609375 -144.097656 -14.859375 -160.828125 C -10.753906 -177.210938 -8.703125 -195.820312 -8.703125 -216.65625 L -8.703125 -253.53125 C -8.703125 -270.257812 -11.945312 -285.96875 -18.4375 -300.65625 C -24.582031 -315.332031 -33.117188 -328.132812 -44.046875 -339.0625 C -54.972656 -349.988281 -67.78125 -358.695312 -82.46875 -365.1875 C -97.144531 -371.332031 -112.847656 -374.40625 -129.578125 -374.40625 C -146.316406 -374.40625 -162.023438 -371.332031 -176.703125 -365.1875 C -191.046875 -358.695312 -203.679688 -349.988281 -214.609375 -339.0625 C -225.535156 -328.132812 -234.242188 -315.332031 -240.734375 -300.65625 C -246.878906 -285.96875 -249.953125 -270.257812 -249.953125 -253.53125 L -249.953125 -155.1875 C -249.953125 -137.09375 -253.363281 -120.191406 -260.1875 -104.484375 C -267.019531 -88.773438 -276.238281 -75.117188 -287.84375 -63.515625 C -299.457031 -51.898438 -313.117188 -42.679688 -328.828125 -35.859375 C -344.535156 -29.023438 -361.4375 -25.609375 -379.53125 -25.609375 C -397.289062 -25.609375 -414.019531 -29.023438 -429.71875 -35.859375 C -445.425781 -42.679688 -459.085938 -51.898438 -470.703125 -63.515625 C -482.304688 -75.117188 -491.523438 -88.773438 -498.359375 -104.484375 C -505.191406 -120.191406 -508.609375 -137.09375 -508.609375 -155.1875 L -508.609375 -507.578125 L -362.109375 -507.578125 C -387.722656 -501.429688 -410.773438 -490.332031 -431.265625 -474.28125 C -439.796875 -467.457031 -448.332031 -459.265625 -456.875 -449.703125 C -465.0625 -440.140625 -472.398438 -429.039062 -478.890625 -416.40625 C -485.378906 -403.425781 -490.671875 -388.742188 -494.765625 -372.359375 C -498.523438 -355.972656 -500.40625 -337.363281 -500.40625 -316.53125 Z M -500.40625 -279.65625 "/></g></g></g></g></g><g transform="matrix(1, 0, 0, 1, 231, 2462)"><g clip-path="url(#7bad39c1dc)"><g fill="#1b3150" fill-opacity="1"><g transform="translate(0.612474, 168.111285)"><g><path d="M 91.296875 -163.375 C 85.835938 -163.375 80.710938 -162.367188 75.921875 -160.359375 C 71.128906 -158.242188 66.945312 -155.398438 63.375 -151.828125 C 59.8125 -148.265625 57.023438 -144.085938 55.015625 -139.296875 C 52.898438 -134.503906 51.84375 -129.375 51.84375 -123.90625 C 51.84375 -118.445312 52.898438 -113.320312 55.015625 -108.53125 C 57.023438 -103.726562 59.8125 -99.546875 63.375 -95.984375 C 66.945312 -92.410156 71.128906 -89.625 75.921875 -87.625 C 80.710938 -85.507812 85.835938 -84.453125 91.296875 -84.453125 L 123.40625 -84.453125 C 129.207031 -84.453125 134.726562 -83.332031 139.96875 -81.09375 C 145.09375 -78.863281 149.550781 -75.859375 153.34375 -72.078125 C 157.132812 -68.285156 160.144531 -63.820312 162.375 -58.6875 C 164.601562 -53.5625 165.71875 -48.101562 165.71875 -42.3125 C 165.71875 -36.394531 164.601562 -30.875 162.375 -25.75 C 160.144531 -20.625 157.132812 -16.164062 153.34375 -12.375 C 149.550781 -8.582031 145.09375 -5.570312 139.96875 -3.34375 C 134.726562 -1.113281 129.207031 0 123.40625 0 L 8.359375 0 L 8.359375 -47.828125 C 10.367188 -39.347656 13.992188 -31.820312 19.234375 -25.25 C 21.460938 -22.457031 24.132812 -19.726562 27.25 -17.0625 C 30.257812 -14.382812 33.882812 -11.984375 38.125 -9.859375 C 42.25 -7.742188 47.039062 -6.070312 52.5 -4.84375 C 57.851562 -3.507812 63.929688 -2.84375 70.734375 -2.84375 L 82.765625 -2.84375 C 88.234375 -2.84375 93.363281 -3.898438 98.15625 -6.015625 C 102.945312 -8.023438 107.128906 -10.8125 110.703125 -14.375 C 114.265625 -17.945312 117.109375 -22.128906 119.234375 -26.921875 C 121.234375 -31.710938 122.234375 -36.84375 122.234375 -42.3125 C 122.234375 -47.769531 121.234375 -52.894531 119.234375 -57.6875 C 117.109375 -62.375 114.265625 -66.5 110.703125 -70.0625 C 107.128906 -73.632812 102.945312 -76.476562 98.15625 -78.59375 C 93.363281 -80.601562 88.234375 -81.609375 82.765625 -81.609375 L 50.671875 -81.609375 C 44.753906 -81.609375 39.234375 -82.722656 34.109375 -84.953125 C 28.984375 -87.179688 24.523438 -90.191406 20.734375 -93.984375 C 16.941406 -97.765625 13.929688 -102.222656 11.703125 -107.359375 C 9.472656 -112.484375 8.359375 -118 8.359375 -123.90625 C 8.359375 -129.707031 9.472656 -135.171875 11.703125 -140.296875 C 13.929688 -145.421875 16.941406 -149.878906 20.734375 -153.671875 C 24.523438 -157.460938 28.984375 -160.472656 34.109375 -162.703125 C 39.234375 -164.929688 44.753906 -166.046875 50.671875 -166.046875 L 165.71875 -166.046875 L 165.71875 -118.21875 C 163.707031 -126.582031 160.082031 -134.109375 154.84375 -140.796875 C 152.613281 -143.585938 149.9375 -146.375 146.8125 -149.15625 C 143.695312 -151.832031 140.078125 -154.226562 135.953125 -156.34375 C 131.710938 -158.46875 126.914062 -160.195312 121.5625 -161.53125 C 116.21875 -162.757812 110.144531 -163.375 103.34375 -163.375 Z M 91.296875 -163.375 "/></g></g></g><g fill="#1b3150" fill-opacity="1"><g transform="translate(174.689205, 168.111285)"><g><path d="M 70.90625 -163.375 L 70.90625 -84.453125 L 73.90625 -84.453125 C 78.8125 -84.453125 83.269531 -85.566406 87.28125 -87.796875 C 91.300781 -89.910156 94.757812 -92.25 97.65625 -94.8125 C 101.113281 -97.820312 104.234375 -101.332031 107.015625 -105.34375 L 107.015625 -60.703125 C 104.234375 -64.597656 101.113281 -68.050781 97.65625 -71.0625 C 94.757812 -73.625 91.300781 -76.023438 87.28125 -78.265625 C 83.269531 -80.492188 78.8125 -81.609375 73.90625 -81.609375 L 70.90625 -81.609375 L 70.90625 -2.84375 L 101.171875 -2.84375 C 107.742188 -2.84375 113.707031 -3.507812 119.0625 -4.84375 C 124.300781 -6.070312 128.984375 -7.742188 133.109375 -9.859375 C 137.234375 -11.984375 140.800781 -14.382812 143.8125 -17.0625 C 146.820312 -19.726562 149.441406 -22.457031 151.671875 -25.25 C 156.796875 -31.820312 160.363281 -39.347656 162.375 -47.828125 L 162.375 0 L 8.359375 0 L 8.359375 -2.84375 L 15.046875 -2.84375 L 15.046875 -163.375 L 8.359375 -163.375 L 8.359375 -166.046875 L 162.375 -166.046875 L 162.375 -118.21875 C 160.363281 -126.582031 156.796875 -134.109375 151.671875 -140.796875 C 149.441406 -143.585938 146.820312 -146.375 143.8125 -149.15625 C 140.800781 -151.832031 137.234375 -154.226562 133.109375 -156.34375 C 128.984375 -158.46875 124.300781 -160.195312 119.0625 -161.53125 C 113.707031 -162.757812 107.742188 -163.375 101.171875 -163.375 Z M 70.90625 -163.375 "/></g></g></g><g fill="#1b3150" fill-opacity="1"><g transform="translate(345.588761, 168.111285)"><g><path d="M 205.671875 -163.375 L 205.671875 -2.84375 L 212.375 -2.84375 L 212.375 0 L 143.140625 0 L 143.140625 -2.84375 L 149.828125 -2.84375 L 149.828125 -156.1875 L 87.453125 -45.8125 L 81.765625 -45.8125 L 20.734375 -156.1875 L 20.734375 -2.84375 L 27.25 -2.84375 L 27.25 0 L 8.359375 0 L 8.359375 -2.84375 L 15.046875 -2.84375 L 15.046875 -163.375 L 8.359375 -163.375 L 8.359375 -166.046875 L 57.515625 -166.046875 L 103.171875 -83.609375 L 148.328125 -163.375 L 143.140625 -163.375 L 143.140625 -166.046875 L 212.375 -166.046875 L 212.375 -163.375 Z M 205.671875 -163.375 "/></g></g></g><g fill="#1b3150" fill-opacity="1"><g transform="translate(566.487282, 168.111285)"><g><path d="M 185.109375 -2.84375 L 185.109375 0 L 115.875 0 L 115.875 -2.84375 L 122.734375 -2.84375 L 104.84375 -57.1875 L 38.296875 -57.1875 L 20.234375 -2.84375 L 27.09375 -2.84375 L 27.09375 0 L 8.359375 0 L 8.359375 -2.84375 L 15.21875 -2.84375 L 67.71875 -163.375 L 60.703125 -163.375 L 60.703125 -166.046875 L 125.25 -166.046875 L 178.421875 -2.84375 Z M 104.015625 -60.03125 L 76.421875 -144.484375 L 71.90625 -158.359375 L 39.296875 -60.03125 Z M 104.015625 -60.03125 "/></g></g></g><g fill="#1b3150" fill-opacity="1"><g transform="translate(760.128811, 168.111285)"><g><path d="M 70.90625 -163.375 L 70.90625 -2.84375 L 77.75 -2.84375 L 77.75 0 L 8.359375 0 L 8.359375 -2.84375 L 15.046875 -2.84375 L 15.046875 -163.375 L 8.359375 -163.375 L 8.359375 -166.046875 L 77.75 -166.046875 L 77.75 -163.375 Z M 70.90625 -163.375 "/></g></g></g><g fill="#1b3150" fill-opacity="1"><g transform="translate(846.247454, 168.111285)"><g><path d="M 165.046875 -163.375 L 165.046875 -2.84375 L 171.734375 -2.84375 L 171.734375 0 L 109.1875 0 L 21.0625 -156.1875 L 21.0625 -2.84375 L 27.59375 -2.84375 L 27.59375 0 L 8.359375 0 L 8.359375 -2.84375 L 15.390625 -2.84375 L 15.390625 -163.375 L 8.359375 -163.375 L 8.359375 -166.046875 L 71.234375 -166.046875 L 159.359375 -10.03125 L 159.359375 -163.375 L 152.34375 -163.375 L 152.34375 -166.046875 L 171.734375 -166.046875 L 171.734375 -163.375 Z M 165.046875 -163.375 "/></g></g></g><g fill="#1b3150" fill-opacity="1"><g transform="translate(1026.511371, 168.111285)"><g><path d="M 70.90625 -163.375 L 70.90625 -84.453125 L 73.90625 -84.453125 C 78.8125 -84.453125 83.269531 -85.566406 87.28125 -87.796875 C 91.300781 -89.910156 94.757812 -92.25 97.65625 -94.8125 C 101.113281 -97.820312 104.234375 -101.332031 107.015625 -105.34375 L 107.015625 -60.703125 C 104.234375 -64.597656 101.113281 -68.050781 97.65625 -71.0625 C 94.757812 -73.625 91.300781 -76.023438 87.28125 -78.265625 C 83.269531 -80.492188 78.8125 -81.609375 73.90625 -81.609375 L 70.90625 -81.609375 L 70.90625 -2.84375 L 101.171875 -2.84375 C 107.742188 -2.84375 113.707031 -3.507812 119.0625 -4.84375 C 124.300781 -6.070312 128.984375 -7.742188 133.109375 -9.859375 C 137.234375 -11.984375 140.800781 -14.382812 143.8125 -17.0625 C 146.820312 -19.726562 149.441406 -22.457031 151.671875 -25.25 C 156.796875 -31.820312 160.363281 -39.347656 162.375 -47.828125 L 162.375 0 L 8.359375 0 L 8.359375 -2.84375 L 15.046875 -2.84375 L 15.046875 -163.375 L 8.359375 -163.375 L 8.359375 -166.046875 L 162.375 -166.046875 L 162.375 -118.21875 C 160.363281 -126.582031 156.796875 -134.109375 151.671875 -140.796875 C 149.441406 -143.585938 146.820312 -146.375 143.8125 -149.15625 C 140.800781 -151.832031 137.234375 -154.226562 133.109375 -156.34375 C 128.984375 -158.46875 124.300781 -160.195312 119.0625 -161.53125 C 113.707031 -162.757812 107.742188 -163.375 101.171875 -163.375 Z M 70.90625 -163.375 "/></g></g></g><g fill="#1b3150" fill-opacity="1"><g transform="translate(1197.410918, 168.111285)"><g/></g></g><g fill="#1b3150" fill-opacity="1"><g transform="translate(1274.666893, 168.111285)"><g><path d="M 50.671875 -163.546875 L 50.671875 -105.6875 L 112.703125 -105.6875 C 118.835938 -105.6875 124.191406 -104.179688 128.765625 -101.171875 C 133.328125 -98.160156 137.113281 -94.203125 140.125 -89.296875 C 143.132812 -84.273438 145.421875 -78.644531 146.984375 -72.40625 C 148.429688 -66.050781 149.15625 -59.585938 149.15625 -53.015625 C 149.039062 -46.316406 148.257812 -39.847656 146.8125 -33.609375 C 145.257812 -27.253906 142.976562 -21.625 139.96875 -16.71875 C 136.84375 -11.707031 133.050781 -7.695312 128.59375 -4.6875 C 124.019531 -1.675781 118.722656 -0.171875 112.703125 -0.171875 L 9.859375 -0.171875 L 9.859375 -47.984375 C 11.867188 -39.515625 15.492188 -31.992188 20.734375 -25.421875 C 22.960938 -22.628906 25.640625 -19.894531 28.765625 -17.21875 C 31.773438 -14.539062 35.394531 -12.144531 39.625 -10.03125 C 43.75 -7.914062 48.546875 -6.242188 54.015625 -5.015625 C 59.359375 -3.679688 65.429688 -3.015625 72.234375 -3.015625 C 77.921875 -3.117188 83.160156 -5.015625 87.953125 -8.703125 C 92.640625 -12.265625 96.65625 -16.832031 100 -22.40625 C 102.445312 -26.414062 104.175781 -31.097656 105.1875 -36.453125 C 106.1875 -41.691406 106.628906 -46.988281 106.515625 -52.34375 C 106.398438 -57.582031 105.898438 -62.597656 105.015625 -67.390625 C 104.015625 -72.066406 102.734375 -75.859375 101.171875 -78.765625 C 99.492188 -82.109375 97.597656 -85.226562 95.484375 -88.125 C 93.367188 -91.019531 91.082031 -93.582031 88.625 -95.8125 C 86.175781 -97.9375 83.613281 -99.664062 80.9375 -101 C 78.144531 -102.226562 75.242188 -102.84375 72.234375 -102.84375 L 54.171875 -102.84375 C 52.390625 -102.84375 50.882812 -102.84375 49.65625 -102.84375 C 48.4375 -102.726562 47.769531 -102.671875 47.65625 -102.671875 L 47.65625 -102.84375 L 8.359375 -102.84375 L 8.359375 -166.375 L 150.5 -166.375 L 150.5 -118.5625 C 148.488281 -126.914062 144.921875 -134.382812 139.796875 -140.96875 C 137.566406 -143.75 134.890625 -146.535156 131.765625 -149.328125 C 128.648438 -152.003906 125.03125 -154.398438 120.90625 -156.515625 C 116.664062 -158.628906 111.867188 -160.359375 106.515625 -161.703125 C 101.054688 -162.929688 94.925781 -163.546875 88.125 -163.546875 Z M 50.671875 -163.546875 "/></g></g></g><g fill="#1b3150" fill-opacity="1"><g transform="translate(1433.693726, 168.111285)"><g><path d="M 147.984375 -163.375 L 147.984375 -2.84375 L 154.671875 -2.84375 L 154.671875 0 L 85.28125 0 L 85.28125 -2.84375 L 92.140625 -2.84375 L 92.140625 -56.859375 L 14.046875 -56.859375 L 14.046875 -56.6875 L 8.359375 -56.6875 L 8.359375 -56.859375 L 9.53125 -58.359375 L 92.140625 -166.21875 L 154.671875 -166.21875 L 154.671875 -163.375 Z M 92.140625 -62.375 L 92.140625 -158.6875 L 18.234375 -62.375 Z M 92.140625 -62.375 "/></g></g></g></g></g><g transform="matrix(1, 0, 0, 1, 828, 1989)"><g clip-path="url(#c0ffceab74)"><g fill="#000000" fill-opacity="1"><g transform="translate(0.323703, 167.945447)"><g><path d="M 50.671875 -163.546875 L 50.671875 -105.6875 L 112.703125 -105.6875 C 118.835938 -105.6875 124.191406 -104.179688 128.765625 -101.171875 C 133.328125 -98.160156 137.113281 -94.203125 140.125 -89.296875 C 143.132812 -84.273438 145.421875 -78.644531 146.984375 -72.40625 C 148.429688 -66.050781 149.15625 -59.585938 149.15625 -53.015625 C 149.039062 -46.316406 148.257812 -39.847656 146.8125 -33.609375 C 145.257812 -27.253906 142.976562 -21.625 139.96875 -16.71875 C 136.84375 -11.707031 133.050781 -7.695312 128.59375 -4.6875 C 124.019531 -1.675781 118.722656 -0.171875 112.703125 -0.171875 L 9.859375 -0.171875 L 9.859375 -47.984375 C 11.867188 -39.515625 15.492188 -31.992188 20.734375 -25.421875 C 22.960938 -22.628906 25.640625 -19.894531 28.765625 -17.21875 C 31.773438 -14.539062 35.394531 -12.144531 39.625 -10.03125 C 43.75 -7.914062 48.546875 -6.242188 54.015625 -5.015625 C 59.359375 -3.679688 65.429688 -3.015625 72.234375 -3.015625 C 77.921875 -3.117188 83.160156 -5.015625 87.953125 -8.703125 C 92.640625 -12.265625 96.65625 -16.832031 100 -22.40625 C 102.445312 -26.414062 104.175781 -31.097656 105.1875 -36.453125 C 106.1875 -41.691406 106.628906 -46.988281 106.515625 -52.34375 C 106.398438 -57.582031 105.898438 -62.597656 105.015625 -67.390625 C 104.015625 -72.066406 102.734375 -75.859375 101.171875 -78.765625 C 99.492188 -82.109375 97.597656 -85.226562 95.484375 -88.125 C 93.367188 -91.019531 91.082031 -93.582031 88.625 -95.8125 C 86.175781 -97.9375 83.613281 -99.664062 80.9375 -101 C 78.144531 -102.226562 75.242188 -102.84375 72.234375 -102.84375 L 54.171875 -102.84375 C 52.390625 -102.84375 50.882812 -102.84375 49.65625 -102.84375 C 48.4375 -102.726562 47.769531 -102.671875 47.65625 -102.671875 L 47.65625 -102.84375 L 8.359375 -102.84375 L 8.359375 -166.375 L 150.5 -166.375 L 150.5 -118.5625 C 148.488281 -126.914062 144.921875 -134.382812 139.796875 -140.96875 C 137.566406 -143.75 134.890625 -146.535156 131.765625 -149.328125 C 128.648438 -152.003906 125.03125 -154.398438 120.90625 -156.515625 C 116.664062 -158.628906 111.867188 -160.359375 106.515625 -161.703125 C 101.054688 -162.929688 94.925781 -163.546875 88.125 -163.546875 Z M 50.671875 -163.546875 "/></g></g></g></g></g><g transform="matrix(1, 0, 0, 1, 1059, 2063)"><g clip-path="url(#df11365b2c)"><g clip-path="url(#b6ed31b4dc)"><g fill="#000000" fill-opacity="1"><g transform="translate(0.171829, 166.889037)"><g><path d="M 147.984375 -163.375 L 147.984375 -2.84375 L 154.671875 -2.84375 L 154.671875 0 L 85.28125 0 L 85.28125 -2.84375 L 92.140625 -2.84375 L 92.140625 -56.859375 L 14.046875 -56.859375 L 14.046875 -56.6875 L 8.359375 -56.6875 L 8.359375 -56.859375 L 9.53125 -58.359375 L 92.140625 -166.21875 L 154.671875 -166.21875 L 154.671875 -163.375 Z M 92.140625 -62.375 L 92.140625 -158.6875 L 18.234375 -62.375 Z M 92.140625 -62.375 "/></g></g></g></g></g></g><g fill="#000000" fill-opacity="1"><g transform="translate(265.7564, 2764.150055)"><g><path d="M 30.609375 0 L 1.703125 0 L 1.703125 -45.234375 L 6.453125 -45.234375 L 6.453125 -4.0625 L 30.609375 -4.0625 Z M 30.609375 0 "/></g></g></g><g fill="#000000" fill-opacity="1"><g transform="translate(306.001915, 2764.150055)"><g><path d="M 6.453125 -45.234375 L 17.546875 -45.234375 L 17.546875 -37.6875 C 17.546875 -36.09375 17.304688 -34.582031 16.828125 -33.15625 C 16.359375 -31.738281 15.660156 -30.5 14.734375 -29.4375 C 13.804688 -28.375 12.65625 -27.523438 11.28125 -26.890625 C 9.90625 -26.253906 8.296875 -25.9375 6.453125 -25.9375 L 6.453125 -29.953125 C 11.140625 -29.953125 13.484375 -32.53125 13.484375 -37.6875 L 13.484375 -38.765625 L 6.453125 -38.765625 Z M 6.453125 -45.234375 "/></g></g></g><g fill="#000000" fill-opacity="1"><g transform="translate(346.25249, 2764.150055)"><g/></g></g><g fill="#000000" fill-opacity="1"><g transform="translate(386.498005, 2764.150055)"><g/></g></g><g fill="#000000" fill-opacity="1"><g transform="translate(426.743521, 2764.150055)"><g/></g></g><g fill="#000000" fill-opacity="1"><g transform="translate(466.990765, 2764.150055)"><g><path d="M 0 -16.125 C 0 -18.570312 0.390625 -20.84375 1.171875 -22.9375 C 1.960938 -25.03125 3.0625 -26.832031 4.46875 -28.34375 C 5.882812 -29.851562 7.601562 -31.019531 9.625 -31.84375 C 11.644531 -32.664062 13.898438 -33.078125 16.390625 -33.078125 C 19.742188 -33.078125 22.890625 -31.828125 25.828125 -29.328125 L 25.828125 -32.3125 L 30.609375 -32.3125 L 30.609375 12.9375 L 25.828125 12.9375 L 25.828125 -2.90625 C 24.460938 -1.6875 22.976562 -0.765625 21.375 -0.140625 C 19.769531 0.484375 18.109375 0.796875 16.390625 0.796875 C 13.898438 0.796875 11.644531 0.378906 9.625 -0.453125 C 7.601562 -1.285156 5.882812 -2.445312 4.46875 -3.9375 C 3.0625 -5.425781 1.960938 -7.195312 1.171875 -9.25 C 0.390625 -11.3125 0 -13.601562 0 -16.125 Z M 4.75 -16.125 C 4.75 -14.320312 4.992188 -12.640625 5.484375 -11.078125 C 5.984375 -9.515625 6.726562 -8.15625 7.71875 -7 C 8.71875 -5.84375 9.941406 -4.929688 11.390625 -4.265625 C 12.835938 -3.597656 14.503906 -3.265625 16.390625 -3.265625 C 18.203125 -3.265625 19.882812 -3.585938 21.4375 -4.234375 C 23 -4.878906 24.460938 -5.953125 25.828125 -7.453125 L 25.828125 -24.78125 C 24.460938 -26.289062 23 -27.378906 21.4375 -28.046875 C 19.882812 -28.710938 18.203125 -29.046875 16.390625 -29.046875 C 14.503906 -29.046875 12.835938 -28.710938 11.390625 -28.046875 C 9.941406 -27.378906 8.71875 -26.46875 7.71875 -25.3125 C 6.726562 -24.15625 5.984375 -22.785156 5.484375 -21.203125 C 4.992188 -19.617188 4.75 -17.925781 4.75 -16.125 Z M 4.75 -16.125 "/></g></g></g><g fill="#000000" fill-opacity="1"><g transform="translate(507.236281, 2764.150055)"><g><path d="M 1.703125 -32.3125 L 6.453125 -32.3125 L 6.453125 -12.34375 C 6.453125 -9.457031 7.082031 -7.222656 8.34375 -5.640625 C 9.601562 -4.054688 11.628906 -3.265625 14.421875 -3.265625 C 16.179688 -3.265625 17.765625 -3.664062 19.171875 -4.46875 C 20.578125 -5.28125 21.773438 -6.359375 22.765625 -7.703125 C 23.765625 -9.054688 24.523438 -10.609375 25.046875 -12.359375 C 25.566406 -14.109375 25.828125 -15.925781 25.828125 -17.8125 L 25.828125 -32.3125 L 30.609375 -32.3125 L 30.609375 0 L 25.828125 0 L 25.828125 -8.078125 C 23.566406 -2.160156 19.5 0.796875 13.625 0.796875 C 5.675781 0.796875 1.703125 -3.582031 1.703125 -12.34375 Z M 1.703125 -32.3125 "/></g></g></g><g fill="#000000" fill-opacity="1"><g transform="translate(547.481797, 2764.150055)"><g><path d="M 19.375 -38.765625 L 12.9375 -38.765625 L 12.9375 -45.234375 L 19.375 -45.234375 Z M 25.828125 0 L 6.453125 0 L 6.453125 -4.0625 L 13.765625 -4.0625 L 13.765625 -28.25 L 6.453125 -28.25 L 6.453125 -32.3125 L 18.546875 -32.3125 L 18.546875 -4.0625 L 25.828125 -4.0625 Z M 25.828125 0 "/></g></g></g><g fill="#000000" fill-opacity="1"><g transform="translate(587.727312, 2764.150055)"><g/></g></g><g fill="#000000" fill-opacity="1"><g transform="translate(627.972828, 2764.150055)"><g><path d="M 32.3125 -28.25 L 18.546875 -28.25 L 18.546875 -4.0625 L 25.828125 -4.0625 L 25.828125 0 L 6.453125 0 L 6.453125 -4.0625 L 13.765625 -4.0625 L 13.765625 -28.25 L 6.453125 -28.25 L 6.453125 -32.3125 L 13.765625 -32.3125 C 13.765625 -36.75 14.910156 -40.140625 17.203125 -42.484375 C 19.503906 -44.828125 22.976562 -46 27.625 -46 C 28.71875 -46 29.640625 -45.960938 30.390625 -45.890625 C 31.140625 -45.828125 31.78125 -45.75 32.3125 -45.65625 L 32.3125 -41.609375 C 31.644531 -41.691406 30.945312 -41.769531 30.21875 -41.84375 C 29.488281 -41.914062 28.625 -41.953125 27.625 -41.953125 C 24.601562 -41.953125 22.332031 -41.179688 20.8125 -39.640625 C 19.300781 -38.109375 18.546875 -35.664062 18.546875 -32.3125 L 32.3125 -32.3125 Z M 32.3125 -28.25 "/></g></g></g><g fill="#000000" fill-opacity="1"><g transform="translate(668.218356, 2764.150055)"><g><path d="M -0.0625 -8.734375 C -0.0625 -10.765625 0.441406 -12.46875 1.453125 -13.84375 C 2.472656 -15.21875 3.804688 -16.304688 5.453125 -17.109375 C 7.109375 -17.910156 9.003906 -18.488281 11.140625 -18.84375 C 13.285156 -19.195312 15.46875 -19.375 17.6875 -19.375 C 18.539062 -19.375 19.304688 -19.363281 19.984375 -19.34375 C 20.671875 -19.320312 21.316406 -19.285156 21.921875 -19.234375 C 22.535156 -19.191406 23.15625 -19.132812 23.78125 -19.0625 C 24.40625 -19 25.085938 -18.921875 25.828125 -18.828125 L 25.828125 -21.140625 C 25.828125 -22.710938 25.484375 -24.007812 24.796875 -25.03125 C 24.117188 -26.050781 23.28125 -26.851562 22.28125 -27.4375 C 21.289062 -28.03125 20.253906 -28.445312 19.171875 -28.6875 C 18.085938 -28.925781 17.160156 -29.046875 16.390625 -29.046875 C 13.992188 -29.046875 11.773438 -28.722656 9.734375 -28.078125 C 7.703125 -27.429688 5.8125 -26.566406 4.0625 -25.484375 L 1.90625 -29.046875 C 3.84375 -30.222656 6.019531 -31.1875 8.4375 -31.9375 C 10.851562 -32.695312 13.503906 -33.078125 16.390625 -33.078125 C 18.148438 -33.078125 19.878906 -32.847656 21.578125 -32.390625 C 23.273438 -31.941406 24.800781 -31.25 26.15625 -30.3125 C 27.507812 -29.375 28.585938 -28.144531 29.390625 -26.625 C 30.203125 -25.101562 30.609375 -23.273438 30.609375 -21.140625 L 30.609375 0 L 25.828125 0 L 25.828125 -5.40625 C 24.992188 -4.363281 24.050781 -3.445312 23 -2.65625 C 21.945312 -1.875 20.84375 -1.234375 19.6875 -0.734375 C 18.53125 -0.242188 17.375 0.128906 16.21875 0.390625 C 15.0625 0.660156 13.96875 0.796875 12.9375 0.796875 C 8.65625 0.796875 5.414062 -0.0195312 3.21875 -1.65625 C 1.03125 -3.300781 -0.0625 -5.660156 -0.0625 -8.734375 Z M 12.9375 -3.265625 C 14.914062 -3.265625 16.695312 -3.554688 18.28125 -4.140625 C 19.863281 -4.734375 21.207031 -5.46875 22.3125 -6.34375 C 23.425781 -7.21875 24.289062 -8.148438 24.90625 -9.140625 C 25.519531 -10.140625 25.828125 -11.046875 25.828125 -11.859375 L 25.828125 -14.90625 C 24.273438 -15.132812 22.785156 -15.257812 21.359375 -15.28125 C 19.941406 -15.3125 18.71875 -15.328125 17.6875 -15.328125 C 15.96875 -15.328125 14.316406 -15.207031 12.734375 -14.96875 C 11.148438 -14.738281 9.769531 -14.363281 8.59375 -13.84375 C 7.414062 -13.320312 6.46875 -12.644531 5.75 -11.8125 C 5.039062 -10.988281 4.6875 -9.960938 4.6875 -8.734375 C 4.6875 -7.367188 5.347656 -6.113281 6.671875 -4.96875 C 8.003906 -3.832031 10.09375 -3.265625 12.9375 -3.265625 Z M 12.9375 -3.265625 "/></g></g></g><g fill="#000000" fill-opacity="1"><g transform="translate(708.46386, 2764.150055)"><g><path d="M 19.375 -38.765625 L 12.9375 -38.765625 L 12.9375 -45.234375 L 19.375 -45.234375 Z M 25.828125 0 L 6.453125 0 L 6.453125 -4.0625 L 13.765625 -4.0625 L 13.765625 -28.25 L 6.453125 -28.25 L 6.453125 -32.3125 L 18.546875 -32.3125 L 18.546875 -4.0625 L 25.828125 -4.0625 Z M 25.828125 0 "/></g></g></g><g fill="#000000" fill-opacity="1"><g transform="translate(748.709365, 2764.150055)"><g><path d="M 32.65625 -10.296875 C 32.289062 -6.898438 30.957031 -4.203125 28.65625 -2.203125 C 26.351562 -0.203125 23.476562 0.796875 20.03125 0.796875 C 18.144531 0.796875 16.414062 0.484375 14.84375 -0.140625 C 13.269531 -0.765625 11.925781 -1.628906 10.8125 -2.734375 C 9.707031 -3.847656 8.847656 -5.179688 8.234375 -6.734375 C 7.617188 -8.296875 7.3125 -10.003906 7.3125 -11.859375 L 7.3125 -28.25 L 0 -28.25 L 0 -32.3125 L 7.3125 -32.3125 L 7.3125 -45.234375 L 12.0625 -45.234375 L 12.0625 -32.3125 L 25.828125 -32.3125 L 25.828125 -28.25 L 12.0625 -28.25 L 12.0625 -11.859375 C 12.0625 -10.679688 12.25 -9.570312 12.625 -8.53125 C 13.007812 -7.488281 13.539062 -6.570312 14.21875 -5.78125 C 14.90625 -5 15.734375 -4.382812 16.703125 -3.9375 C 17.679688 -3.488281 18.789062 -3.265625 20.03125 -3.265625 C 22.394531 -3.265625 24.367188 -3.992188 25.953125 -5.453125 C 27.535156 -6.921875 28.441406 -8.820312 28.671875 -11.15625 Z M 32.65625 -10.296875 "/></g></g></g><g fill="#000000" fill-opacity="1"><g transform="translate(788.954892, 2764.150055)"><g/></g></g><g fill="#000000" fill-opacity="1"><g transform="translate(829.20042, 2764.150055)"><g><path d="M 30.609375 -0.34375 C 30.609375 1.875 30.226562 3.847656 29.46875 5.578125 C 28.707031 7.316406 27.640625 8.785156 26.265625 9.984375 C 24.890625 11.179688 23.269531 12.097656 21.40625 12.734375 C 19.539062 13.367188 17.46875 13.6875 15.1875 13.6875 C 11.96875 13.6875 9.234375 13.085938 6.984375 11.890625 C 4.734375 10.691406 2.785156 8.957031 1.140625 6.6875 L 4.46875 4.125 C 5.46875 5.625 6.898438 6.882812 8.765625 7.90625 C 10.640625 8.925781 12.78125 9.4375 15.1875 9.4375 C 18.46875 9.4375 21.0625 8.609375 22.96875 6.953125 C 24.875 5.296875 25.828125 2.910156 25.828125 -0.203125 L 25.828125 -3.671875 C 23.003906 -1.179688 19.789062 0.0625 16.1875 0.0625 C 11.125 0.0625 7.148438 -1.378906 4.265625 -4.265625 C 1.378906 -7.148438 -0.0625 -11.101562 -0.0625 -16.125 C -0.0625 -18.570312 0.3125 -20.828125 1.0625 -22.890625 C 1.8125 -24.960938 2.882812 -26.753906 4.28125 -28.265625 C 5.675781 -29.785156 7.378906 -30.96875 9.390625 -31.8125 C 11.398438 -32.65625 13.664062 -33.078125 16.1875 -33.078125 C 17.945312 -33.078125 19.648438 -32.769531 21.296875 -32.15625 C 22.953125 -31.539062 24.460938 -30.625 25.828125 -29.40625 L 25.828125 -32.3125 L 30.609375 -32.3125 Z M 25.828125 -24.78125 C 24.460938 -26.289062 22.960938 -27.378906 21.328125 -28.046875 C 19.703125 -28.710938 17.988281 -29.046875 16.1875 -29.046875 C 14.289062 -29.046875 12.617188 -28.710938 11.171875 -28.046875 C 9.734375 -27.378906 8.539062 -26.46875 7.59375 -25.3125 C 6.644531 -24.15625 5.921875 -22.785156 5.421875 -21.203125 C 4.929688 -19.617188 4.6875 -17.925781 4.6875 -16.125 C 4.6875 -12.425781 5.644531 -9.476562 7.5625 -7.28125 C 9.476562 -5.082031 12.351562 -3.984375 16.1875 -3.984375 C 17.988281 -3.984375 19.703125 -4.320312 21.328125 -5 C 22.960938 -5.6875 24.460938 -6.796875 25.828125 -8.328125 Z M 25.828125 -24.78125 "/></g></g></g><g fill="#000000" fill-opacity="1"><g transform="translate(869.445948, 2764.150055)"><g><path d="M -0.0625 -8.734375 C -0.0625 -10.765625 0.441406 -12.46875 1.453125 -13.84375 C 2.472656 -15.21875 3.804688 -16.304688 5.453125 -17.109375 C 7.109375 -17.910156 9.003906 -18.488281 11.140625 -18.84375 C 13.285156 -19.195312 15.46875 -19.375 17.6875 -19.375 C 18.539062 -19.375 19.304688 -19.363281 19.984375 -19.34375 C 20.671875 -19.320312 21.316406 -19.285156 21.921875 -19.234375 C 22.535156 -19.191406 23.15625 -19.132812 23.78125 -19.0625 C 24.40625 -19 25.085938 -18.921875 25.828125 -18.828125 L 25.828125 -21.140625 C 25.828125 -22.710938 25.484375 -24.007812 24.796875 -25.03125 C 24.117188 -26.050781 23.28125 -26.851562 22.28125 -27.4375 C 21.289062 -28.03125 20.253906 -28.445312 19.171875 -28.6875 C 18.085938 -28.925781 17.160156 -29.046875 16.390625 -29.046875 C 13.992188 -29.046875 11.773438 -28.722656 9.734375 -28.078125 C 7.703125 -27.429688 5.8125 -26.566406 4.0625 -25.484375 L 1.90625 -29.046875 C 3.84375 -30.222656 6.019531 -31.1875 8.4375 -31.9375 C 10.851562 -32.695312 13.503906 -33.078125 16.390625 -33.078125 C 18.148438 -33.078125 19.878906 -32.847656 21.578125 -32.390625 C 23.273438 -31.941406 24.800781 -31.25 26.15625 -30.3125 C 27.507812 -29.375 28.585938 -28.144531 29.390625 -26.625 C 30.203125 -25.101562 30.609375 -23.273438 30.609375 -21.140625 L 30.609375 0 L 25.828125 0 L 25.828125 -5.40625 C 24.992188 -4.363281 24.050781 -3.445312 23 -2.65625 C 21.945312 -1.875 20.84375 -1.234375 19.6875 -0.734375 C 18.53125 -0.242188 17.375 0.128906 16.21875 0.390625 C 15.0625 0.660156 13.96875 0.796875 12.9375 0.796875 C 8.65625 0.796875 5.414062 -0.0195312 3.21875 -1.65625 C 1.03125 -3.300781 -0.0625 -5.660156 -0.0625 -8.734375 Z M 12.9375 -3.265625 C 14.914062 -3.265625 16.695312 -3.554688 18.28125 -4.140625 C 19.863281 -4.734375 21.207031 -5.46875 22.3125 -6.34375 C 23.425781 -7.21875 24.289062 -8.148438 24.90625 -9.140625 C 25.519531 -10.140625 25.828125 -11.046875 25.828125 -11.859375 L 25.828125 -14.90625 C 24.273438 -15.132812 22.785156 -15.257812 21.359375 -15.28125 C 19.941406 -15.3125 18.71875 -15.328125 17.6875 -15.328125 C 15.96875 -15.328125 14.316406 -15.207031 12.734375 -14.96875 C 11.148438 -14.738281 9.769531 -14.363281 8.59375 -13.84375 C 7.414062 -13.320312 6.46875 -12.644531 5.75 -11.8125 C 5.039062 -10.988281 4.6875 -9.960938 4.6875 -8.734375 C 4.6875 -7.367188 5.347656 -6.113281 6.671875 -4.96875 C 8.003906 -3.832031 10.09375 -3.265625 12.9375 -3.265625 Z M 12.9375 -3.265625 "/></g></g></g><g fill="#000000" fill-opacity="1"><g transform="translate(909.69143, 2764.150055)"><g><path d="M 30.609375 -0.34375 C 30.609375 1.875 30.226562 3.847656 29.46875 5.578125 C 28.707031 7.316406 27.640625 8.785156 26.265625 9.984375 C 24.890625 11.179688 23.269531 12.097656 21.40625 12.734375 C 19.539062 13.367188 17.46875 13.6875 15.1875 13.6875 C 11.96875 13.6875 9.234375 13.085938 6.984375 11.890625 C 4.734375 10.691406 2.785156 8.957031 1.140625 6.6875 L 4.46875 4.125 C 5.46875 5.625 6.898438 6.882812 8.765625 7.90625 C 10.640625 8.925781 12.78125 9.4375 15.1875 9.4375 C 18.46875 9.4375 21.0625 8.609375 22.96875 6.953125 C 24.875 5.296875 25.828125 2.910156 25.828125 -0.203125 L 25.828125 -3.671875 C 23.003906 -1.179688 19.789062 0.0625 16.1875 0.0625 C 11.125 0.0625 7.148438 -1.378906 4.265625 -4.265625 C 1.378906 -7.148438 -0.0625 -11.101562 -0.0625 -16.125 C -0.0625 -18.570312 0.3125 -20.828125 1.0625 -22.890625 C 1.8125 -24.960938 2.882812 -26.753906 4.28125 -28.265625 C 5.675781 -29.785156 7.378906 -30.96875 9.390625 -31.8125 C 11.398438 -32.65625 13.664062 -33.078125 16.1875 -33.078125 C 17.945312 -33.078125 19.648438 -32.769531 21.296875 -32.15625 C 22.953125 -31.539062 24.460938 -30.625 25.828125 -29.40625 L 25.828125 -32.3125 L 30.609375 -32.3125 Z M 25.828125 -24.78125 C 24.460938 -26.289062 22.960938 -27.378906 21.328125 -28.046875 C 19.703125 -28.710938 17.988281 -29.046875 16.1875 -29.046875 C 14.289062 -29.046875 12.617188 -28.710938 11.171875 -28.046875 C 9.734375 -27.378906 8.539062 -26.46875 7.59375 -25.3125 C 6.644531 -24.15625 5.921875 -22.785156 5.421875 -21.203125 C 4.929688 -19.617188 4.6875 -17.925781 4.6875 -16.125 C 4.6875 -12.425781 5.644531 -9.476562 7.5625 -7.28125 C 9.476562 -5.082031 12.351562 -3.984375 16.1875 -3.984375 C 17.988281 -3.984375 19.703125 -4.320312 21.328125 -5 C 22.960938 -5.6875 24.460938 -6.796875 25.828125 -8.328125 Z M 25.828125 -24.78125 "/></g></g></g><g fill="#000000" fill-opacity="1"><g transform="translate(949.936957, 2764.150055)"><g><path d="M 30.609375 0 L 25.828125 0 L 25.828125 -19.9375 C 25.828125 -22.820312 25.203125 -25.0625 23.953125 -26.65625 C 22.703125 -28.25 20.679688 -29.046875 17.890625 -29.046875 C 16.128906 -29.046875 14.535156 -28.640625 13.109375 -27.828125 C 11.691406 -27.023438 10.488281 -25.945312 9.5 -24.59375 C 8.507812 -23.238281 7.753906 -21.6875 7.234375 -19.9375 C 6.710938 -18.195312 6.453125 -16.378906 6.453125 -14.484375 L 6.453125 0 L 1.703125 0 L 1.703125 -32.3125 L 6.453125 -32.3125 L 6.453125 -24.203125 C 8.734375 -30.117188 12.8125 -33.078125 18.6875 -33.078125 C 26.632812 -33.078125 30.609375 -28.695312 30.609375 -19.9375 Z M 30.609375 0 "/></g></g></g><g fill="#000000" fill-opacity="1"><g transform="translate(990.182485, 2764.150055)"><g><path d="M 4.75 -14.484375 C 5.09375 -11.066406 6.335938 -8.34375 8.484375 -6.3125 C 10.640625 -4.28125 13.441406 -3.265625 16.890625 -3.265625 C 19.316406 -3.265625 21.472656 -3.757812 23.359375 -4.75 C 25.253906 -5.738281 26.675781 -6.972656 27.625 -8.453125 L 30.953125 -6.171875 C 29.335938 -3.910156 27.410156 -2.179688 25.171875 -0.984375 C 22.929688 0.203125 20.171875 0.796875 16.890625 0.796875 C 14.390625 0.796875 12.097656 0.378906 10.015625 -0.453125 C 7.941406 -1.285156 6.144531 -2.445312 4.625 -3.9375 C 3.113281 -5.425781 1.941406 -7.195312 1.109375 -9.25 C 0.273438 -11.3125 -0.140625 -13.601562 -0.140625 -16.125 C -0.140625 -18.570312 0.234375 -20.828125 0.984375 -22.890625 C 1.734375 -24.960938 2.816406 -26.753906 4.234375 -28.265625 C 5.660156 -29.785156 7.390625 -30.96875 9.421875 -31.8125 C 11.460938 -32.65625 13.742188 -33.078125 16.265625 -33.078125 C 19.015625 -33.078125 21.414062 -32.613281 23.46875 -31.6875 C 25.53125 -30.757812 27.25 -29.476562 28.625 -27.84375 C 30 -26.21875 31.015625 -24.269531 31.671875 -22 C 32.328125 -19.738281 32.65625 -17.234375 32.65625 -14.484375 Z M 27.625 -18.546875 C 27.09375 -22.085938 25.8125 -24.722656 23.78125 -26.453125 C 21.75 -28.179688 19.242188 -29.046875 16.265625 -29.046875 C 14.734375 -29.046875 13.320312 -28.796875 12.03125 -28.296875 C 10.738281 -27.804688 9.59375 -27.097656 8.59375 -26.171875 C 7.601562 -25.242188 6.769531 -24.128906 6.09375 -22.828125 C 5.425781 -21.523438 5 -20.097656 4.8125 -18.546875 Z M 27.625 -18.546875 "/></g></g></g><g fill="#000000" fill-opacity="1"><g transform="translate(1030.427967, 2764.150055)"><g><path d="M 30.546875 -27.765625 C 28.835938 -28.617188 26.800781 -29.046875 24.4375 -29.046875 C 22.5 -29.046875 20.765625 -28.628906 19.234375 -27.796875 C 17.710938 -26.972656 16.421875 -25.882812 15.359375 -24.53125 C 14.296875 -23.175781 13.476562 -21.625 12.90625 -19.875 C 12.34375 -18.132812 12.0625 -16.335938 12.0625 -14.484375 L 12.0625 -4.0625 L 19.375 -4.0625 L 19.375 0 L 0 0 L 0 -4.0625 L 7.3125 -4.0625 L 7.3125 -28.25 L 0 -28.25 L 0 -32.3125 L 12.0625 -32.3125 L 12.0625 -24.203125 C 14.238281 -30.117188 18.363281 -33.078125 24.4375 -33.078125 C 26.082031 -33.078125 27.507812 -32.972656 28.71875 -32.765625 C 29.9375 -32.554688 31.066406 -32.1875 32.109375 -31.65625 Z M 30.546875 -27.765625 "/></g></g></g><g fill="#000000" fill-opacity="1"><g transform="translate(1070.673495, 2764.150055)"><g/></g></g><g fill="#000000" fill-opacity="1"><g transform="translate(1110.919022, 2764.150055)"><g><path d="M 30.609375 0 L 25.828125 0 L 25.828125 -2.984375 C 24.460938 -1.753906 22.960938 -0.816406 21.328125 -0.171875 C 19.703125 0.472656 18.035156 0.796875 16.328125 0.796875 C 13.765625 0.796875 11.460938 0.378906 9.421875 -0.453125 C 7.390625 -1.285156 5.675781 -2.445312 4.28125 -3.9375 C 2.882812 -5.425781 1.8125 -7.207031 1.0625 -9.28125 C 0.3125 -11.363281 -0.0625 -13.644531 -0.0625 -16.125 C -0.0625 -18.570312 0.3125 -20.84375 1.0625 -22.9375 C 1.8125 -25.03125 2.882812 -26.820312 4.28125 -28.3125 C 5.675781 -29.800781 7.390625 -30.96875 9.421875 -31.8125 C 11.460938 -32.65625 13.765625 -33.078125 16.328125 -33.078125 C 18.035156 -33.078125 19.703125 -32.769531 21.328125 -32.15625 C 22.960938 -31.539062 24.460938 -30.625 25.828125 -29.40625 L 25.828125 -41.1875 L 19.375 -41.1875 L 19.375 -45.234375 L 30.609375 -45.234375 Z M 25.828125 -24.78125 C 24.460938 -26.289062 22.976562 -27.378906 21.375 -28.046875 C 19.769531 -28.710938 18.066406 -29.046875 16.265625 -29.046875 C 14.367188 -29.046875 12.695312 -28.710938 11.25 -28.046875 C 9.800781 -27.378906 8.59375 -26.46875 7.625 -25.3125 C 6.65625 -24.15625 5.921875 -22.796875 5.421875 -21.234375 C 4.929688 -19.671875 4.6875 -17.96875 4.6875 -16.125 C 4.6875 -14.269531 4.929688 -12.5625 5.421875 -11 C 5.921875 -9.445312 6.65625 -8.09375 7.625 -6.9375 C 8.59375 -5.78125 9.800781 -4.863281 11.25 -4.1875 C 12.695312 -3.519531 14.367188 -3.1875 16.265625 -3.1875 C 19.910156 -3.1875 23.097656 -4.628906 25.828125 -7.515625 Z M 25.828125 -24.78125 "/></g></g></g><g fill="#000000" fill-opacity="1"><g transform="translate(1151.16455, 2764.150055)"><g><path d="M 4.75 -14.484375 C 5.09375 -11.066406 6.335938 -8.34375 8.484375 -6.3125 C 10.640625 -4.28125 13.441406 -3.265625 16.890625 -3.265625 C 19.316406 -3.265625 21.472656 -3.757812 23.359375 -4.75 C 25.253906 -5.738281 26.675781 -6.972656 27.625 -8.453125 L 30.953125 -6.171875 C 29.335938 -3.910156 27.410156 -2.179688 25.171875 -0.984375 C 22.929688 0.203125 20.171875 0.796875 16.890625 0.796875 C 14.390625 0.796875 12.097656 0.378906 10.015625 -0.453125 C 7.941406 -1.285156 6.144531 -2.445312 4.625 -3.9375 C 3.113281 -5.425781 1.941406 -7.195312 1.109375 -9.25 C 0.273438 -11.3125 -0.140625 -13.601562 -0.140625 -16.125 C -0.140625 -18.570312 0.234375 -20.828125 0.984375 -22.890625 C 1.734375 -24.960938 2.816406 -26.753906 4.234375 -28.265625 C 5.660156 -29.785156 7.390625 -30.96875 9.421875 -31.8125 C 11.460938 -32.65625 13.742188 -33.078125 16.265625 -33.078125 C 19.015625 -33.078125 21.414062 -32.613281 23.46875 -31.6875 C 25.53125 -30.757812 27.25 -29.476562 28.625 -27.84375 C 30 -26.21875 31.015625 -24.269531 31.671875 -22 C 32.328125 -19.738281 32.65625 -17.234375 32.65625 -14.484375 Z M 27.625 -18.546875 C 27.09375 -22.085938 25.8125 -24.722656 23.78125 -26.453125 C 21.75 -28.179688 19.242188 -29.046875 16.265625 -29.046875 C 14.734375 -29.046875 13.320312 -28.796875 12.03125 -28.296875 C 10.738281 -27.804688 9.59375 -27.097656 8.59375 -26.171875 C 7.601562 -25.242188 6.769531 -24.128906 6.09375 -22.828125 C 5.425781 -21.523438 5 -20.097656 4.8125 -18.546875 Z M 27.625 -18.546875 "/></g></g></g><g fill="#000000" fill-opacity="1"><g transform="translate(1191.410078, 2764.150055)"><g><path d="M 31.4375 -8.9375 C 31.4375 -7.050781 30.960938 -5.484375 30.015625 -4.234375 C 29.066406 -2.984375 27.847656 -1.988281 26.359375 -1.25 C 24.867188 -0.507812 23.203125 0.015625 21.359375 0.328125 C 19.523438 0.640625 17.734375 0.796875 15.984375 0.796875 C 13.046875 0.796875 10.117188 0.367188 7.203125 -0.484375 C 4.296875 -1.335938 1.78125 -2.457031 -0.34375 -3.84375 L 1.765625 -7.9375 C 4.148438 -6.4375 6.492188 -5.28125 8.796875 -4.46875 C 11.109375 -3.664062 13.503906 -3.265625 15.984375 -3.265625 C 23.117188 -3.265625 26.6875 -5.113281 26.6875 -8.8125 C 26.6875 -9.707031 26.390625 -10.4375 25.796875 -11 C 25.210938 -11.570312 24.421875 -12.035156 23.421875 -12.390625 C 22.429688 -12.753906 21.296875 -13.039062 20.015625 -13.25 C 18.734375 -13.457031 17.390625 -13.648438 15.984375 -13.828125 C 14.179688 -14.085938 12.390625 -14.390625 10.609375 -14.734375 C 8.828125 -15.078125 7.203125 -15.59375 5.734375 -16.28125 C 4.265625 -16.976562 3.082031 -17.90625 2.1875 -19.0625 C 1.300781 -20.21875 0.859375 -21.742188 0.859375 -23.640625 C 0.859375 -25.265625 1.269531 -26.664062 2.09375 -27.84375 C 2.914062 -29.019531 4.015625 -30 5.390625 -30.78125 C 6.765625 -31.570312 8.375 -32.148438 10.21875 -32.515625 C 12.070312 -32.890625 13.992188 -33.078125 15.984375 -33.078125 C 18.828125 -33.078125 21.367188 -32.742188 23.609375 -32.078125 C 25.847656 -31.421875 27.867188 -30.484375 29.671875 -29.265625 L 27.765625 -25.546875 C 25.921875 -26.835938 24.050781 -27.742188 22.15625 -28.265625 C 20.257812 -28.785156 18.203125 -29.046875 15.984375 -29.046875 C 14.984375 -29.046875 13.875 -28.957031 12.65625 -28.78125 C 11.445312 -28.613281 10.320312 -28.316406 9.28125 -27.890625 C 8.25 -27.460938 7.378906 -26.90625 6.671875 -26.21875 C 5.960938 -25.539062 5.609375 -24.679688 5.609375 -23.640625 C 5.609375 -22.742188 5.90625 -22.019531 6.5 -21.46875 C 7.09375 -20.925781 7.882812 -20.476562 8.875 -20.125 C 9.863281 -19.769531 11 -19.488281 12.28125 -19.28125 C 13.570312 -19.070312 14.921875 -18.875 16.328125 -18.6875 C 18.085938 -18.4375 19.863281 -18.132812 21.65625 -17.78125 C 23.445312 -17.4375 25.070312 -16.925781 26.53125 -16.25 C 28 -15.582031 29.179688 -14.671875 30.078125 -13.515625 C 30.984375 -12.359375 31.4375 -10.832031 31.4375 -8.9375 Z M 31.4375 -8.9375 "/></g></g></g><g fill="#000000" fill-opacity="1"><g transform="translate(1231.65556, 2764.150055)"><g/></g></g><g fill="#000000" fill-opacity="1"><g transform="translate(1271.901133, 2764.150055)"><g><path d="M 25.828125 -38.765625 L 19.375 -38.765625 L 19.375 -45.234375 L 25.828125 -45.234375 Z M 12.0625 13.6875 C 6.375 13.6875 2.398438 11.351562 0.140625 6.6875 L 3.78125 4.1875 C 4.613281 5.945312 5.703125 7.300781 7.046875 8.25 C 8.398438 9.195312 10.070312 9.671875 12.0625 9.671875 C 13.632812 9.671875 14.953125 9.445312 16.015625 9 C 17.078125 8.550781 17.914062 7.910156 18.53125 7.078125 C 19.144531 6.242188 19.582031 5.234375 19.84375 4.046875 C 20.113281 2.867188 20.25 1.519531 20.25 0 L 20.25 -28.25 L 12.9375 -28.25 L 12.9375 -32.3125 L 25 -32.3125 L 25 0 C 25 4.15625 23.90625 7.472656 21.71875 9.953125 C 19.53125 12.441406 16.3125 13.6875 12.0625 13.6875 Z M 12.0625 13.6875 "/></g></g></g><g fill="#000000" fill-opacity="1"><g transform="translate(1312.146615, 2764.150055)"><g><path d="M 33.140625 -16.046875 C 33.140625 -13.523438 32.738281 -11.238281 31.9375 -9.1875 C 31.144531 -7.132812 30.003906 -5.375 28.515625 -3.90625 C 27.023438 -2.4375 25.238281 -1.285156 23.15625 -0.453125 C 21.070312 0.378906 18.75 0.796875 16.1875 0.796875 C 13.664062 0.796875 11.363281 0.378906 9.28125 -0.453125 C 7.207031 -1.285156 5.425781 -2.4375 3.9375 -3.90625 C 2.445312 -5.375 1.300781 -7.132812 0.5 -9.1875 C -0.289062 -11.238281 -0.6875 -13.523438 -0.6875 -16.046875 C -0.6875 -18.492188 -0.289062 -20.773438 0.5 -22.890625 C 1.300781 -25.015625 2.445312 -26.820312 3.9375 -28.3125 C 5.425781 -29.800781 7.207031 -30.96875 9.28125 -31.8125 C 11.363281 -32.65625 13.664062 -33.078125 16.1875 -33.078125 C 18.75 -33.078125 21.070312 -32.65625 23.15625 -31.8125 C 25.238281 -30.96875 27.023438 -29.800781 28.515625 -28.3125 C 30.003906 -26.820312 31.144531 -25.015625 31.9375 -22.890625 C 32.738281 -20.773438 33.140625 -18.492188 33.140625 -16.046875 Z M 28.390625 -16.046875 C 28.390625 -17.898438 28.117188 -19.601562 27.578125 -21.15625 C 27.035156 -22.71875 26.234375 -24.085938 25.171875 -25.265625 C 24.109375 -26.453125 22.816406 -27.378906 21.296875 -28.046875 C 19.785156 -28.710938 18.082031 -29.046875 16.1875 -29.046875 C 14.289062 -29.046875 12.585938 -28.710938 11.078125 -28.046875 C 9.566406 -27.378906 8.289062 -26.453125 7.25 -25.265625 C 6.207031 -24.085938 5.414062 -22.71875 4.875 -21.15625 C 4.332031 -19.601562 4.0625 -17.898438 4.0625 -16.046875 C 4.0625 -14.203125 4.332031 -12.5 4.875 -10.9375 C 5.414062 -9.375 6.207031 -8.023438 7.25 -6.890625 C 8.289062 -5.765625 9.566406 -4.878906 11.078125 -4.234375 C 12.585938 -3.585938 14.289062 -3.265625 16.1875 -3.265625 C 18.082031 -3.265625 19.785156 -3.585938 21.296875 -4.234375 C 22.816406 -4.878906 24.109375 -5.765625 25.171875 -6.890625 C 26.234375 -8.023438 27.035156 -9.375 27.578125 -10.9375 C 28.117188 -12.5 28.390625 -14.203125 28.390625 -16.046875 Z M 28.390625 -16.046875 "/></g></g></g><g fill="#000000" fill-opacity="1"><g transform="translate(1352.392097, 2764.150055)"><g><path d="M 1.703125 -32.3125 L 6.453125 -32.3125 L 6.453125 -12.34375 C 6.453125 -9.457031 7.082031 -7.222656 8.34375 -5.640625 C 9.601562 -4.054688 11.628906 -3.265625 14.421875 -3.265625 C 16.179688 -3.265625 17.765625 -3.664062 19.171875 -4.46875 C 20.578125 -5.28125 21.773438 -6.359375 22.765625 -7.703125 C 23.765625 -9.054688 24.523438 -10.609375 25.046875 -12.359375 C 25.566406 -14.109375 25.828125 -15.925781 25.828125 -17.8125 L 25.828125 -32.3125 L 30.609375 -32.3125 L 30.609375 0 L 25.828125 0 L 25.828125 -8.078125 C 23.566406 -2.160156 19.5 0.796875 13.625 0.796875 C 5.675781 0.796875 1.703125 -3.582031 1.703125 -12.34375 Z M 1.703125 -32.3125 "/></g></g></g><g fill="#000000" fill-opacity="1"><g transform="translate(1392.63767, 2764.150055)"><g><path d="M 30.546875 -27.765625 C 28.835938 -28.617188 26.800781 -29.046875 24.4375 -29.046875 C 22.5 -29.046875 20.765625 -28.628906 19.234375 -27.796875 C 17.710938 -26.972656 16.421875 -25.882812 15.359375 -24.53125 C 14.296875 -23.175781 13.476562 -21.625 12.90625 -19.875 C 12.34375 -18.132812 12.0625 -16.335938 12.0625 -14.484375 L 12.0625 -4.0625 L 19.375 -4.0625 L 19.375 0 L 0 0 L 0 -4.0625 L 7.3125 -4.0625 L 7.3125 -28.25 L 0 -28.25 L 0 -32.3125 L 12.0625 -32.3125 L 12.0625 -24.203125 C 14.238281 -30.117188 18.363281 -33.078125 24.4375 -33.078125 C 26.082031 -33.078125 27.507812 -32.972656 28.71875 -32.765625 C 29.9375 -32.554688 31.066406 -32.1875 32.109375 -31.65625 Z M 30.546875 -27.765625 "/></g></g></g><g fill="#000000" fill-opacity="1"><g transform="translate(1432.883152, 2764.150055)"><g><path d="M 31.4375 -8.9375 C 31.4375 -7.050781 30.960938 -5.484375 30.015625 -4.234375 C 29.066406 -2.984375 27.847656 -1.988281 26.359375 -1.25 C 24.867188 -0.507812 23.203125 0.015625 21.359375 0.328125 C 19.523438 0.640625 17.734375 0.796875 15.984375 0.796875 C 13.046875 0.796875 10.117188 0.367188 7.203125 -0.484375 C 4.296875 -1.335938 1.78125 -2.457031 -0.34375 -3.84375 L 1.765625 -7.9375 C 4.148438 -6.4375 6.492188 -5.28125 8.796875 -4.46875 C 11.109375 -3.664062 13.503906 -3.265625 15.984375 -3.265625 C 23.117188 -3.265625 26.6875 -5.113281 26.6875 -8.8125 C 26.6875 -9.707031 26.390625 -10.4375 25.796875 -11 C 25.210938 -11.570312 24.421875 -12.035156 23.421875 -12.390625 C 22.429688 -12.753906 21.296875 -13.039062 20.015625 -13.25 C 18.734375 -13.457031 17.390625 -13.648438 15.984375 -13.828125 C 14.179688 -14.085938 12.390625 -14.390625 10.609375 -14.734375 C 8.828125 -15.078125 7.203125 -15.59375 5.734375 -16.28125 C 4.265625 -16.976562 3.082031 -17.90625 2.1875 -19.0625 C 1.300781 -20.21875 0.859375 -21.742188 0.859375 -23.640625 C 0.859375 -25.265625 1.269531 -26.664062 2.09375 -27.84375 C 2.914062 -29.019531 4.015625 -30 5.390625 -30.78125 C 6.765625 -31.570312 8.375 -32.148438 10.21875 -32.515625 C 12.070312 -32.890625 13.992188 -33.078125 15.984375 -33.078125 C 18.828125 -33.078125 21.367188 -32.742188 23.609375 -32.078125 C 25.847656 -31.421875 27.867188 -30.484375 29.671875 -29.265625 L 27.765625 -25.546875 C 25.921875 -26.835938 24.050781 -27.742188 22.15625 -28.265625 C 20.257812 -28.785156 18.203125 -29.046875 15.984375 -29.046875 C 14.984375 -29.046875 13.875 -28.957031 12.65625 -28.78125 C 11.445312 -28.613281 10.320312 -28.316406 9.28125 -27.890625 C 8.25 -27.460938 7.378906 -26.90625 6.671875 -26.21875 C 5.960938 -25.539062 5.609375 -24.679688 5.609375 -23.640625 C 5.609375 -22.742188 5.90625 -22.019531 6.5 -21.46875 C 7.09375 -20.925781 7.882812 -20.476562 8.875 -20.125 C 9.863281 -19.769531 11 -19.488281 12.28125 -19.28125 C 13.570312 -19.070312 14.921875 -18.875 16.328125 -18.6875 C 18.085938 -18.4375 19.863281 -18.132812 21.65625 -17.78125 C 23.445312 -17.4375 25.070312 -16.925781 26.53125 -16.25 C 28 -15.582031 29.179688 -14.671875 30.078125 -13.515625 C 30.984375 -12.359375 31.4375 -10.832031 31.4375 -8.9375 Z M 31.4375 -8.9375 "/></g></g></g><g fill="#000000" fill-opacity="1"><g transform="translate(1473.128634, 2764.150055)"><g/></g></g><g fill="#000000" fill-opacity="1"><g transform="translate(1513.374207, 2764.150055)"><g><path d="M -0.0625 -8.734375 C -0.0625 -10.765625 0.441406 -12.46875 1.453125 -13.84375 C 2.472656 -15.21875 3.804688 -16.304688 5.453125 -17.109375 C 7.109375 -17.910156 9.003906 -18.488281 11.140625 -18.84375 C 13.285156 -19.195312 15.46875 -19.375 17.6875 -19.375 C 18.539062 -19.375 19.304688 -19.363281 19.984375 -19.34375 C 20.671875 -19.320312 21.316406 -19.285156 21.921875 -19.234375 C 22.535156 -19.191406 23.15625 -19.132812 23.78125 -19.0625 C 24.40625 -19 25.085938 -18.921875 25.828125 -18.828125 L 25.828125 -21.140625 C 25.828125 -22.710938 25.484375 -24.007812 24.796875 -25.03125 C 24.117188 -26.050781 23.28125 -26.851562 22.28125 -27.4375 C 21.289062 -28.03125 20.253906 -28.445312 19.171875 -28.6875 C 18.085938 -28.925781 17.160156 -29.046875 16.390625 -29.046875 C 13.992188 -29.046875 11.773438 -28.722656 9.734375 -28.078125 C 7.703125 -27.429688 5.8125 -26.566406 4.0625 -25.484375 L 1.90625 -29.046875 C 3.84375 -30.222656 6.019531 -31.1875 8.4375 -31.9375 C 10.851562 -32.695312 13.503906 -33.078125 16.390625 -33.078125 C 18.148438 -33.078125 19.878906 -32.847656 21.578125 -32.390625 C 23.273438 -31.941406 24.800781 -31.25 26.15625 -30.3125 C 27.507812 -29.375 28.585938 -28.144531 29.390625 -26.625 C 30.203125 -25.101562 30.609375 -23.273438 30.609375 -21.140625 L 30.609375 0 L 25.828125 0 L 25.828125 -5.40625 C 24.992188 -4.363281 24.050781 -3.445312 23 -2.65625 C 21.945312 -1.875 20.84375 -1.234375 19.6875 -0.734375 C 18.53125 -0.242188 17.375 0.128906 16.21875 0.390625 C 15.0625 0.660156 13.96875 0.796875 12.9375 0.796875 C 8.65625 0.796875 5.414062 -0.0195312 3.21875 -1.65625 C 1.03125 -3.300781 -0.0625 -5.660156 -0.0625 -8.734375 Z M 12.9375 -3.265625 C 14.914062 -3.265625 16.695312 -3.554688 18.28125 -4.140625 C 19.863281 -4.734375 21.207031 -5.46875 22.3125 -6.34375 C 23.425781 -7.21875 24.289062 -8.148438 24.90625 -9.140625 C 25.519531 -10.140625 25.828125 -11.046875 25.828125 -11.859375 L 25.828125 -14.90625 C 24.273438 -15.132812 22.785156 -15.257812 21.359375 -15.28125 C 19.941406 -15.3125 18.71875 -15.328125 17.6875 -15.328125 C 15.96875 -15.328125 14.316406 -15.207031 12.734375 -14.96875 C 11.148438 -14.738281 9.769531 -14.363281 8.59375 -13.84375 C 7.414062 -13.320312 6.46875 -12.644531 5.75 -11.8125 C 5.039062 -10.988281 4.6875 -9.960938 4.6875 -8.734375 C 4.6875 -7.367188 5.347656 -6.113281 6.671875 -4.96875 C 8.003906 -3.832031 10.09375 -3.265625 12.9375 -3.265625 Z M 12.9375 -3.265625 "/></g></g></g><g fill="#000000" fill-opacity="1"><g transform="translate(1553.619689, 2764.150055)"><g><path d="M 1.703125 -32.3125 L 6.453125 -32.3125 L 6.453125 -12.34375 C 6.453125 -9.457031 7.082031 -7.222656 8.34375 -5.640625 C 9.601562 -4.054688 11.628906 -3.265625 14.421875 -3.265625 C 16.179688 -3.265625 17.765625 -3.664062 19.171875 -4.46875 C 20.578125 -5.28125 21.773438 -6.359375 22.765625 -7.703125 C 23.765625 -9.054688 24.523438 -10.609375 25.046875 -12.359375 C 25.566406 -14.109375 25.828125 -15.925781 25.828125 -17.8125 L 25.828125 -32.3125 L 30.609375 -32.3125 L 30.609375 0 L 25.828125 0 L 25.828125 -8.078125 C 23.566406 -2.160156 19.5 0.796875 13.625 0.796875 C 5.675781 0.796875 1.703125 -3.582031 1.703125 -12.34375 Z M 1.703125 -32.3125 "/></g></g></g><g fill="#000000" fill-opacity="1"><g transform="translate(1593.865171, 2764.150055)"><g><path d="M 33.078125 0 L 19.71875 0 L 19.71875 -4.1875 L 22.5625 -4.1875 L 16.1875 -13.5625 L 9.875 -4.1875 L 12.484375 -4.1875 L 12.484375 0 L -0.6875 0 L -0.6875 -4.1875 L 4.328125 -4.1875 L 13.203125 -16.390625 L 4.6875 -28.046875 L 0 -28.046875 L 0 -32.3125 L 13.28125 -32.3125 L 13.28125 -28.046875 L 10.296875 -28.046875 L 16.1875 -19.234375 L 22.15625 -28.046875 L 18.890625 -28.046875 L 18.890625 -32.3125 L 32.3125 -32.3125 L 32.3125 -28.046875 L 27.765625 -28.046875 L 19.234375 -16.390625 L 28.109375 -4.1875 L 33.078125 -4.1875 Z M 33.078125 0 "/></g></g></g><g fill="#000000" fill-opacity="1"><g transform="translate(1634.110745, 2764.150055)"><g/></g></g><g fill="#000000" fill-opacity="1"><g transform="translate(1674.356227, 2764.150055)"><g><path d="M 32.234375 -32.3125 C 32.234375 -27.945312 30.867188 -24.695312 28.140625 -22.5625 C 25.421875 -20.4375 21.597656 -19.375 16.671875 -19.375 L 6.453125 -19.375 L 6.453125 0 L 1.703125 0 L 1.703125 -45.234375 L 16.609375 -45.234375 C 21.578125 -45.234375 25.421875 -44.15625 28.140625 -42 C 30.867188 -39.84375 32.234375 -36.613281 32.234375 -32.3125 Z M 27.484375 -32.3125 C 27.484375 -35.425781 26.5 -37.679688 24.53125 -39.078125 C 22.570312 -40.484375 19.953125 -41.1875 16.671875 -41.1875 L 6.453125 -41.1875 L 6.453125 -23.4375 L 16.671875 -23.4375 C 19.953125 -23.4375 22.570312 -24.132812 24.53125 -25.53125 C 26.5 -26.925781 27.484375 -29.1875 27.484375 -32.3125 Z M 27.484375 -32.3125 "/></g></g></g><g fill="#000000" fill-opacity="1"><g transform="translate(1714.6018, 2764.150055)"><g><path d="M 30.609375 0 L 25.828125 0 L 25.828125 -37.6875 L 17.8125 -14.359375 L 14.421875 -14.359375 L 6.453125 -37.6875 L 6.453125 0 L 1.703125 0 L 1.703125 -45.234375 L 7.875 -45.234375 L 16.125 -21.59375 L 24.4375 -45.234375 L 30.609375 -45.234375 Z M 30.609375 0 "/></g></g></g><g fill="#000000" fill-opacity="1"><g transform="translate(1754.847282, 2764.150055)"><g><path d="M 30.609375 0 L 1.703125 0 L 1.703125 -45.234375 L 30.609375 -45.234375 L 30.609375 -41.1875 L 6.453125 -41.1875 L 6.453125 -25 L 24.265625 -25 L 24.265625 -20.9375 L 6.453125 -20.9375 L 6.453125 -4.0625 L 30.609375 -4.0625 Z M 30.609375 0 "/></g></g></g><g fill="#000000" fill-opacity="1"><g transform="translate(341.241612, 2767.150055)"><g><path d="M 27.109375 0 L 5.40625 0 L 5.40625 -6.453125 L 12.546875 -6.453125 L 12.546875 -38.765625 L 5.40625 -38.765625 L 5.40625 -45.234375 L 27.109375 -45.234375 L 27.109375 -38.765625 L 19.71875 -38.765625 L 19.71875 -6.453125 L 27.109375 -6.453125 Z M 27.109375 0 "/></g></g></g><g fill="#000000" fill-opacity="1"><g transform="translate(391.782129, 2767.150055)"><g><path d="M 26.90625 0 L 23.640625 -10.78125 L 8.671875 -10.78125 L 5.484375 0 L -2.046875 0 L 12.0625 -45.234375 L 20.3125 -45.234375 L 34.421875 0 Z M 10.578125 -17.125 L 21.734375 -17.125 L 16.1875 -35.78125 Z M 10.578125 -17.125 "/></g></g></g></svg>